<svg width="58" height="56" viewBox="0 0 58 56" fill="none" xmlns="http://www.w3.org/2000/svg">
<rect width="57.3023" height="56" rx="28" fill="#F0F4FF"/>
<path d="M37.1769 18.7592V15.3483C37.1769 14.375 36.3879 13.5859 35.4146 13.5859H20.3433C19.37 13.5859 18.5809 14.375 18.5809 15.3483V27.0038C18.5809 27.9771 19.37 28.7662 20.3433 28.7662H35.4146C36.3879 28.7662 37.1769 27.9771 37.1769 27.0038V23.9156V18.7592Z" fill="white"/>
<path d="M22.5955 17.6852H33.3651" stroke="#5E2CED" stroke-miterlimit="10" stroke-linecap="round" stroke-linejoin="round"/>
<path d="M22.5955 21.3428H33.3651" stroke="#5E2CED" stroke-miterlimit="10" stroke-linecap="round" stroke-linejoin="round"/>
<path d="M22.5955 25.0003H33.3651" stroke="#5E2CED" stroke-miterlimit="10" stroke-linecap="round" stroke-linejoin="round"/>
<path d="M20.8693 35.5711V32.356H35.1307V35.5711" stroke="#5E2CED" stroke-miterlimit="10" stroke-linecap="round" stroke-linejoin="round"/>
<path d="M28 32.356V28.7662" stroke="#5E2CED" stroke-miterlimit="10" stroke-linecap="round" stroke-linejoin="round"/>
<path d="M37.1769 18.7592V15.3483C37.1769 14.375 36.3879 13.5859 35.4146 13.5859H20.3433C19.37 13.5859 18.5809 14.375 18.5809 15.3483V27.0038C18.5809 27.9771 19.37 28.7662 20.3433 28.7662H35.4146C36.3879 28.7662 37.1769 27.9771 37.1769 27.0038V15.9156" stroke="#5E2CED" stroke-miterlimit="10" stroke-linecap="round" stroke-linejoin="round"/>
<path d="M20.8693 42.4141C22.7589 42.4141 24.2908 40.8822 24.2908 38.9926C24.2908 37.1029 22.7589 35.571 20.8693 35.571C18.9796 35.571 17.4478 37.1029 17.4478 38.9926C17.4478 40.8822 18.9796 42.4141 20.8693 42.4141Z" fill="#5E2CED" stroke="#5E2CED" stroke-miterlimit="10" stroke-linecap="round" stroke-linejoin="round"/>
<path d="M35.1308 42.4141C37.0204 42.4141 38.5523 40.8822 38.5523 38.9926C38.5523 37.1029 37.0204 35.571 35.1308 35.571C33.2411 35.571 31.7092 37.1029 31.7092 38.9926C31.7092 40.8822 33.2411 42.4141 35.1308 42.4141Z" fill="#5E2CED" stroke="#5E2CED" stroke-miterlimit="10" stroke-linecap="round" stroke-linejoin="round"/>
<path d="M19.548 39.1368L20.3327 39.9215L21.977 38.2772" stroke="white" stroke-miterlimit="10" stroke-linecap="round" stroke-linejoin="round"/>
<path d="M36.0149 38.0577L34.2466 39.8261" stroke="white" stroke-miterlimit="10" stroke-linecap="round" stroke-linejoin="round"/>
<path d="M36.0149 39.8261L34.2466 38.0577" stroke="white" stroke-miterlimit="10" stroke-linecap="round" stroke-linejoin="round"/>
</svg>
