<svg width="57" height="56" viewBox="0 0 57 56" fill="none" xmlns="http://www.w3.org/2000/svg">
<rect width="56.4194" height="56" rx="28" fill="#F0F4FF"/>
<g clip-path="url(#clip0_708_267)">
<path d="M14.6589 23.7689C14.6589 21.8956 16.1954 20.377 18.0907 20.377H38.5442C40.4395 20.377 41.976 21.8956 41.976 23.7689V37.6081C41.976 39.4814 40.4395 41 38.5442 41H18.0907C16.1954 41 14.6589 39.4814 14.6589 37.6081V23.7689Z" fill="#165FCD"/>
<path d="M16.0315 37.269C16.0315 35.9577 17.107 34.8946 18.4338 34.8946H35.0942C35.5168 34.8946 35.9382 34.8493 36.3508 34.7593L37.5623 34.4952C39.2599 34.125 40.5349 32.734 40.7404 31.0278C40.7404 31.0278 40.7404 33.3845 40.7404 34.8946C40.7404 35.7129 40.7404 36.7335 40.7404 37.6186C40.7404 38.737 39.8232 39.6434 38.6916 39.6434H18.4337C17.107 39.6434 16.0315 38.5803 16.0315 37.269Z" fill="white"/>
<path d="M14.6589 17.392C14.6589 15.5186 16.1954 14 18.0907 14H38.5442C40.4395 14 41.976 15.5186 41.976 17.392V31.5025C41.976 33.3758 40.4395 34.8945 38.5442 34.8945H18.0907C16.1954 34.8945 14.6589 33.3758 14.6589 31.5025V17.392Z" fill="#227AFF"/>
<path d="M14.6589 17.392C14.6589 15.5186 16.1954 14 18.0907 14H18.3653V40.7287C18.3653 40.8785 18.2424 41 18.0907 41C16.1954 41 14.6589 39.4814 14.6589 37.6081V17.392Z" fill="#165FCD"/>
<path d="M16.0315 37.2689C16.0315 35.9576 17.107 34.8945 18.4338 34.8945H34.2887C35.0468 34.8945 35.6613 35.502 35.6613 36.2513V37.5403V38.5578C35.6613 39.1573 35.1697 39.6433 34.5632 39.6433H18.4338C17.107 39.6433 16.0315 38.5802 16.0315 37.2689Z" fill="white"/>
<path opacity="0.2" d="M17.6787 37.3372C17.6787 37.0374 17.9245 36.7944 18.2278 36.7944H38.2695C38.5727 36.7944 38.8186 37.0374 38.8186 37.3372C38.8186 37.6369 38.5727 37.8799 38.2695 37.8799H18.2278C17.9245 37.8799 17.6787 37.6369 17.6787 37.3372Z" fill="#227AFF"/>
<path d="M29.1711 26.2353C29.0814 26.213 28.9968 26.1747 28.9213 26.1222C28.8598 26.073 28.8134 26.0079 28.7874 25.9343C28.7549 25.8276 28.7391 25.6643 28.7391 25.4445V22.2904C28.4968 22.5931 28.2631 22.9022 28.0383 23.2176C27.8463 23.4851 27.6509 23.7504 27.4524 24.0134C27.3696 24.1206 27.3119 24.194 27.2799 24.2346C27.2473 24.2756 27.1697 24.3317 27.0446 24.4042C26.9227 24.4755 26.7834 24.5129 26.6414 24.5123C26.4973 24.5123 26.3662 24.4795 26.248 24.4133C26.1295 24.3477 26.0448 24.2834 25.9932 24.2204L25.9165 24.1173C25.7886 23.96 25.5356 23.6262 25.1585 23.114C24.9567 22.8373 24.7517 22.5627 24.5438 22.2904V25.4632C24.5438 25.6077 24.5391 25.7159 24.5294 25.7884C24.5201 25.8604 24.4894 25.9402 24.4383 26.0283C24.342 26.1979 24.0923 26.2823 23.6896 26.2823C23.299 26.2823 23.0558 26.1979 22.9595 26.0283C22.9131 25.9535 22.8823 25.8704 22.8688 25.7838C22.8573 25.6711 22.8525 25.5578 22.8544 25.4445V20.219C22.8544 20.0744 22.8591 19.9659 22.8688 19.8938C22.8782 19.8218 22.9084 19.7383 22.96 19.6443C23.0558 19.4811 23.3055 19.3999 23.7087 19.3999C23.8812 19.3999 24.0304 19.42 24.155 19.4606C24.2797 19.5016 24.3615 19.544 24.3997 19.5878L24.4573 19.6443L26.6368 22.45C27.7249 21.0381 28.4513 20.1059 28.8158 19.6535C28.9246 19.4847 29.1822 19.3999 29.5886 19.3999C29.995 19.3999 30.2429 19.4843 30.3327 19.6535C30.3838 19.7479 30.414 19.8327 30.4238 19.908C30.4331 19.9832 30.4382 20.0936 30.4382 20.2372V25.4636C30.4382 25.8969 30.3163 26.1509 30.0732 26.2267C29.9523 26.264 29.7979 26.2827 29.6128 26.2827C29.4268 26.2827 29.2799 26.2667 29.1711 26.2353ZM33.0957 29.4163C32.826 29.3443 32.6084 29.2549 32.4424 29.1477C32.1029 28.947 31.8662 28.7523 31.7318 28.564L31.6454 28.4604C31.4794 28.2598 31.3961 28.0791 31.3961 27.9191C31.3961 27.7594 31.5333 27.5474 31.8086 27.2838C31.969 27.1333 32.1387 27.0576 32.3177 27.0576C32.4968 27.0576 32.7465 27.2144 33.0664 27.5287C33.1557 27.6354 33.2836 27.7371 33.4505 27.8342C33.6165 27.9318 33.7704 27.9802 33.9109 27.9802C34.5061 27.9802 34.8036 27.7421 34.8036 27.2651C34.8036 27.1205 34.7223 27.0001 34.5591 26.9021C34.3959 26.8049 34.1926 26.7343 33.9494 26.6904C33.6817 26.6403 33.4185 26.5693 33.1622 26.4784C32.8907 26.3855 32.6276 26.2706 32.3754 26.135C32.1318 26.0032 31.929 25.7948 31.7653 25.5088C31.6026 25.2233 31.5208 24.8794 31.5208 24.4781C31.5208 23.9254 31.73 23.4438 32.1495 23.0324C32.5688 22.6219 33.1399 22.4158 33.863 22.4158C34.2471 22.4158 34.5977 22.4651 34.9139 22.5617C35.231 22.6593 35.4505 22.7579 35.5719 22.8587L35.8118 23.0374C36.0104 23.2194 36.1094 23.3731 36.1094 23.4985C36.1094 23.6244 36.0327 23.7968 35.8788 24.0166C35.6611 24.3308 35.4375 24.4872 35.2073 24.4872C35.0724 24.4872 34.9064 24.4247 34.7079 24.2993C34.6688 24.2704 34.6319 24.2388 34.5972 24.205C34.5432 24.1547 34.4935 24.1137 34.4489 24.0827C34.314 24.0006 34.1434 23.96 33.935 23.96C33.7271 23.96 33.5542 24.0088 33.4166 24.106C33.2794 24.2035 33.2106 24.3385 33.2106 24.5109C33.2106 24.6838 33.2919 24.8233 33.4551 24.93C33.6179 25.0368 33.8216 25.1088 34.0643 25.1467C34.308 25.1841 34.5735 25.2425 34.8614 25.3205C35.1496 25.3994 35.4147 25.4947 35.6583 25.6077C35.9015 25.7209 36.1048 25.917 36.2675 26.1961C36.4312 26.4757 36.5125 26.819 36.5125 27.2268C36.5125 27.6354 36.4294 27.9948 36.2633 28.3054C36.0968 28.6159 35.8788 28.8562 35.6105 29.0259C35.092 29.3584 34.5381 29.5248 33.9494 29.5248C33.661 29.5264 33.3742 29.4899 33.0957 29.4163Z" fill="white"/>
</g>
<defs>
<clipPath id="clip0_708_267">
<rect width="28" height="27" fill="white" transform="translate(14 14)"/>
</clipPath>
</defs>
</svg>
