<svg width="56" height="56" viewBox="0 0 56 56" fill="none" xmlns="http://www.w3.org/2000/svg">
<rect width="56" height="56" rx="28" fill="#19B8EA"/>
<g clip-path="url(#clip0_460_584)">
<path d="M14 22.4352L15.1305 23.9244C15.1305 23.9244 17.4755 22.0747 18.256 22.9952C19.047 23.9244 22.0412 35.0824 23.0317 37.1457C23.8962 38.9534 26.2955 41.3387 28.917 39.6377C31.563 37.9262 40.2972 30.4677 41.8617 21.6424C43.4227 12.8329 31.3337 14.6774 30.0667 22.3564C33.2552 20.4419 34.9737 23.1404 33.3392 26.1907C31.7012 29.2532 30.198 31.2499 29.4192 31.2499C28.6545 31.2499 28.049 29.1954 27.153 25.6289C26.2342 21.9347 26.2343 15.2742 22.3913 16.0302C18.7583 16.7477 14 22.4352 14 22.4352Z" fill="white"/>
</g>
<defs>
<clipPath id="clip0_460_584">
<rect width="28" height="28" fill="white" transform="translate(14 14)"/>
</clipPath>
</defs>
</svg>
