<svg width="56" height="56" viewBox="0 0 56 56" fill="none" xmlns="http://www.w3.org/2000/svg">
<rect width="56" height="56" rx="28" fill="#F0F4FF"/>
<path d="M27.3037 17.5C32.8134 17.5 38.6133 17.6598 44.5869 17.9756C45.6564 18.0323 46.4998 18.9234 46.5 19.999V28.9834C46.4942 31.9847 46.3933 33.771 46.1982 36.1826C46.1168 37.1896 45.3119 37.9864 44.3154 38.0459C39.2731 38.3471 34.0134 38.5 28.6377 38.5C23.1335 38.5 17.353 38.3406 11.4121 38.0244C10.3428 37.9674 9.5 37.0756 9.5 36V28.9844C9.50595 25.9048 9.61115 22.8309 9.81445 19.8164C9.88251 18.8104 10.6943 18.0083 11.7021 17.9482C16.7127 17.6503 21.9464 17.5 27.3037 17.5Z" fill="white" stroke="#5F2CED"/>
<path d="M42.7315 28.0003C42.7315 29.0124 42.3204 29.9355 41.6652 30.5914C40.9986 31.2587 40.0877 31.6703 39.0659 31.6703H16.9279C14.9062 31.6703 13.2622 30.0245 13.2622 28.0003C13.2622 26.9887 13.6731 26.0656 14.3396 25.4092C15.0062 24.7424 15.9169 24.3308 16.9279 24.3308H39.0659C41.0984 24.3308 42.7315 25.9766 42.7315 28.0003Z" fill="#5F2CED"/>
<path d="M16.928 29.4463C16.1318 29.4463 15.4836 28.7977 15.4836 28.0004C15.4836 27.6148 15.6306 27.2578 15.8975 26.9947C16.1052 26.7873 16.4399 26.5549 16.928 26.5549H39.0662C39.8625 26.5549 40.5101 27.2033 40.5101 28.0004C40.5101 28.3832 40.3587 28.7543 40.0946 29.0187C39.8999 29.2139 39.5631 29.4463 39.0662 29.4463H16.928Z" fill="#5F2CED"/>
<path d="M31.7712 28.0004C31.7712 28.8013 31.116 29.4463 30.3274 29.4463H16.928C16.128 29.4463 15.4839 28.8013 15.4839 28.0004C15.4839 27.6116 15.6282 27.2554 15.8947 26.9996C16.1057 26.7884 16.4393 26.5549 16.928 26.5549L30.3274 26.5549C31.116 26.5549 31.7712 27.2 31.7712 28.0004Z" fill="white"/>
</svg>
