<svg width="56" height="56" viewBox="0 0 56 56" fill="none" xmlns="http://www.w3.org/2000/svg">
<rect width="56" height="56" rx="28" fill="#F0F4FF"/>
<path d="M34.0699 25.99C33.1399 25.99 32.2599 25.72 31.5199 25.25C30.8199 24.81 30.2499 24.2 29.8599 23.47C29.7799 23.32 29.7099 23.17 29.6499 23.01C30.2199 21.96 30.5399 20.75 30.5399 19.47C30.5399 19.01 30.4999 18.56 30.4099 18.13C31.2999 17.09 32.6099 16.43 34.0699 16.43C36.7099 16.43 38.8599 18.57 38.8599 21.21C38.8599 23.85 36.7099 25.99 34.0699 25.99ZM32.9199 27.88C33.2899 27.96 33.6799 27.99 34.0699 27.99C35.9899 27.99 37.7299 27.19 38.9699 25.89C40.4499 27.22 41.3799 29.15 41.3799 31.3V37.99C41.3799 39.33 40.2899 40.43 38.9399 40.43H33.3899C33.4799 40.07 33.5299 39.69 33.5299 39.3V31.4C33.5299 30.17 33.3099 28.98 32.9199 27.88ZM23.0729 24.943C20.0559 24.943 17.6019 22.488 17.6019 19.472C17.6019 16.455 20.0569 14 23.0729 14C26.0899 14 28.5449 16.455 28.5449 19.472C28.5449 22.488 26.0899 24.943 23.0729 24.943Z" fill="#5F2CED"/>
<path d="M23.0732 14.5C20.3336 14.5 18.1017 16.7309 18.1016 19.4717C18.1016 22.2116 20.3324 24.4434 23.0732 24.4434C25.814 24.4432 28.0449 22.2114 28.0449 19.4717C28.0447 16.7311 25.8138 14.5002 23.0732 14.5Z" fill="white" stroke="#5F2CED"/>
<path d="M28.3462 25.437C26.9409 26.6808 25.0926 27.4399 23.0698 27.4399C21.0465 27.4399 19.2073 26.6805 17.8042 25.4458C16.1567 26.9048 15.1197 29.0321 15.1196 31.3999V39.3003C15.1198 40.514 16.1061 41.5005 17.3198 41.5005H28.8198C30.036 41.5005 31.0296 40.5116 31.0298 39.3003V31.3999C31.0298 29.0329 29.9941 26.9047 28.3462 25.437Z" fill="white" stroke="#5F2CED"/>
</svg>
