<svg width="56" height="56" viewBox="0 0 56 56" fill="none" xmlns="http://www.w3.org/2000/svg">
<rect width="56" height="56" rx="28" fill="#F0F4FF"/>
<path d="M27.9001 43.6665C30.3134 43.6665 32.2668 41.7131 32.2668 39.2998H23.5334C23.5334 41.7131 25.4868 43.6665 27.9001 43.6665Z" fill="#5F2CED"/>
<mask id="path-3-inside-1_460_546" fill="white">
<path d="M27.8999 12.3335C28.3419 12.3335 28.7661 12.5092 29.0786 12.8218C29.3911 13.1343 29.5669 13.5586 29.5669 14.0005V15.3667C31.2588 15.6891 32.8151 16.4866 34.062 17.6528C34.022 17.761 33.9995 17.8784 33.9995 18.0005V20.98H33.2603C33.1603 20.98 33.062 20.9882 32.9653 21.0005H30.9995C30.4474 21.0007 29.9995 21.4483 29.9995 22.0005V25.0005C29.9998 25.5524 30.4476 26.0003 30.9995 26.0005H33.9995V29.0005C33.9998 29.5524 34.4476 30.0003 34.9995 30.0005H36.9263V31.9331L40.3794 35.7065C41.1727 36.5665 40.5596 37.9604 39.3862 37.9604H16.4194C15.2464 37.9601 14.633 36.5731 15.4263 35.7065L18.8794 31.9331V24.2271C18.8794 19.8138 22.0464 16.1468 26.2329 15.3667V14.0005C26.2329 13.5585 26.4087 13.1343 26.7212 12.8218C27.0338 12.5092 27.4579 12.3335 27.8999 12.3335Z"/>
</mask>
<path d="M27.8999 12.3335C28.3419 12.3335 28.7661 12.5092 29.0786 12.8218C29.3911 13.1343 29.5669 13.5586 29.5669 14.0005V15.3667C31.2588 15.6891 32.8151 16.4866 34.062 17.6528C34.022 17.761 33.9995 17.8784 33.9995 18.0005V20.98H33.2603C33.1603 20.98 33.062 20.9882 32.9653 21.0005H30.9995C30.4474 21.0007 29.9995 21.4483 29.9995 22.0005V25.0005C29.9998 25.5524 30.4476 26.0003 30.9995 26.0005H33.9995V29.0005C33.9998 29.5524 34.4476 30.0003 34.9995 30.0005H36.9263V31.9331L40.3794 35.7065C41.1727 36.5665 40.5596 37.9604 39.3862 37.9604H16.4194C15.2464 37.9601 14.633 36.5731 15.4263 35.7065L18.8794 31.9331V24.2271C18.8794 19.8138 22.0464 16.1468 26.2329 15.3667V14.0005C26.2329 13.5585 26.4087 13.1343 26.7212 12.8218C27.0338 12.5092 27.4579 12.3335 27.8999 12.3335Z" fill="white"/>
<path d="M27.8999 12.3335L27.8999 11.3335H27.8999V12.3335ZM29.0786 12.8218L29.7858 12.1148L29.7857 12.1147L29.0786 12.8218ZM29.5669 15.3667H28.5669V16.1941L29.3797 16.349L29.5669 15.3667ZM34.062 17.6528L34.9998 18.0001L35.2306 17.3766L34.7451 16.9225L34.062 17.6528ZM33.9995 20.98V21.98H34.9995V20.98H33.9995ZM32.9653 21.0005V22.0005H33.0285L33.0912 21.9925L32.9653 21.0005ZM30.9995 21.0005L30.9995 20.0005L30.9991 20.0005L30.9995 21.0005ZM29.9995 25.0005L28.9995 25.0005L28.9995 25.001L29.9995 25.0005ZM30.9995 26.0005L30.9991 27.0005H30.9995V26.0005ZM33.9995 26.0005H34.9995V25.0005H33.9995V26.0005ZM33.9995 29.0005L32.9995 29.0005L32.9995 29.001L33.9995 29.0005ZM34.9995 30.0005L34.9991 31.0005H34.9995V30.0005ZM36.9263 30.0005H37.9263V29.0005H36.9263V30.0005ZM36.9263 31.9331H35.9263V32.3216L36.1885 32.6082L36.9263 31.9331ZM40.3794 35.7065L39.6417 36.3817L39.6444 36.3846L40.3794 35.7065ZM39.3862 37.9604L39.3862 38.9604L39.3862 37.9604ZM16.4194 37.9604L16.4192 38.9604H16.4194V37.9604ZM15.4263 35.7065L16.1639 36.3818L16.164 36.3816L15.4263 35.7065ZM18.8794 31.9331L19.6171 32.6082L19.8794 32.3216V31.9331H18.8794ZM26.2329 15.3667L26.4161 16.3498L27.2329 16.1976V15.3667H26.2329ZM26.7212 12.8218L26.0141 12.1147L26.014 12.1147L26.7212 12.8218ZM27.8999 12.3335L27.8999 13.3335C28.0766 13.3335 28.2465 13.4039 28.3715 13.5289L29.0786 12.8218L29.7857 12.1147C29.2857 11.6146 28.6072 11.3335 27.8999 11.3335L27.8999 12.3335ZM29.0786 12.8218L28.3714 13.5288C28.4965 13.654 28.5669 13.824 28.5669 14.0005H29.5669H30.5669C30.5669 13.2931 30.2856 12.6147 29.7858 12.1148L29.0786 12.8218ZM29.5669 14.0005H28.5669V15.3667H29.5669H30.5669V14.0005H29.5669ZM29.5669 15.3667L29.3797 16.349C30.8843 16.6357 32.269 17.345 33.3789 18.3832L34.062 17.6528L34.7451 16.9225C33.3612 15.6281 31.6333 14.7425 29.7541 14.3844L29.5669 15.3667ZM34.062 17.6528L33.1242 17.3056C33.0446 17.5206 32.9995 17.7554 32.9995 18.0005H33.9995H34.9995L34.9998 18.0001L34.062 17.6528ZM33.9995 18.0005H32.9995V20.98H33.9995H34.9995V18.0005H33.9995ZM33.9995 20.98V19.98H33.2603V20.98V21.98H33.9995V20.98ZM33.2603 20.98V19.98C33.106 19.98 32.9638 19.9927 32.8395 20.0084L32.9653 21.0005L33.0912 21.9925C33.1603 21.9838 33.2146 21.98 33.2603 21.98V20.98ZM32.9653 21.0005V20.0005H30.9995V21.0005V22.0005H32.9653V21.0005ZM30.9995 21.0005L30.9991 20.0005C29.8954 20.0009 28.9995 20.8957 28.9995 22.0005H29.9995H30.9995L30.9999 22.0005L30.9995 21.0005ZM29.9995 22.0005H28.9995V25.0005H29.9995H30.9995V22.0005H29.9995ZM29.9995 25.0005L28.9995 25.001C29 26.1047 29.8951 27 30.9991 27.0005L30.9995 26.0005L30.9999 25.0005L30.9995 25L29.9995 25.0005ZM30.9995 26.0005V27.0005H33.9995V26.0005V25.0005H30.9995V26.0005ZM33.9995 26.0005H32.9995V29.0005H33.9995H34.9995V26.0005H33.9995ZM33.9995 29.0005L32.9995 29.001C33 30.1047 33.8951 31 34.9991 31.0005L34.9995 30.0005L34.9999 29.0005L34.9995 29L33.9995 29.0005ZM34.9995 30.0005V31.0005H36.9263V30.0005V29.0005H34.9995V30.0005ZM36.9263 30.0005H35.9263V31.9331H36.9263H37.9263V30.0005H36.9263ZM36.9263 31.9331L36.1885 32.6082L39.6417 36.3816L40.3794 35.7065L41.1171 35.0314L37.664 31.258L36.9263 31.9331ZM40.3794 35.7065L39.6444 36.3846C39.8423 36.5992 39.6945 36.9604 39.3862 36.9604L39.3862 37.9604L39.3862 38.9604C41.4247 38.9604 42.5031 36.5339 41.1144 35.0285L40.3794 35.7065ZM39.3862 37.9604V36.9604H16.4194V37.9604V38.9604H39.3862V37.9604ZM16.4194 37.9604L16.4197 36.9604C16.1133 36.9604 15.9599 36.6047 16.1639 36.3818L15.4263 35.7065L14.6886 35.0313C13.3062 36.5416 14.3794 38.9599 16.4192 38.9604L16.4194 37.9604ZM15.4263 35.7065L16.164 36.3816L19.6171 32.6082L18.8794 31.9331L18.1417 31.258L14.6885 35.0314L15.4263 35.7065ZM18.8794 31.9331H19.8794V24.2271H18.8794H17.8794V31.9331H18.8794ZM18.8794 24.2271H19.8794C19.8794 20.3045 22.694 17.0433 26.4161 16.3498L26.2329 15.3667L26.0497 14.3836C21.3987 15.2503 17.8794 19.3231 17.8794 24.2271H18.8794ZM26.2329 15.3667H27.2329V14.0005H26.2329H25.2329V15.3667H26.2329ZM26.2329 14.0005H27.2329C27.2329 13.8239 27.3033 13.654 27.4284 13.5288L26.7212 12.8218L26.014 12.1147C25.5142 12.6147 25.2329 13.2932 25.2329 14.0005H26.2329ZM26.7212 12.8218L27.4283 13.5289C27.5534 13.4038 27.7232 13.3335 27.8999 13.3335V12.3335V11.3335C27.1926 11.3335 26.5141 11.6146 26.0141 12.1147L26.7212 12.8218Z" fill="#5F2CED" mask="url(#path-3-inside-1_460_546)"/>
<path d="M37.5 18C37.7761 18 38 18.2239 38 18.5V22H41.5C41.7761 22 42 22.2239 42 22.5V24.5C42 24.7761 41.7761 25 41.5 25H38V28.5C38 28.7761 37.7761 29 37.5 29H35.5C35.2239 29 35 28.7761 35 28.5V25H31.5C31.2239 25 31 24.7761 31 24.5V22.5C31 22.2239 31.2239 22 31.5 22H35V18.5C35 18.2239 35.2239 18 35.5 18H37.5Z" fill="#5F2CED"/>
</svg>
