<svg width="57" height="56" viewBox="0 0 57 56" fill="none" xmlns="http://www.w3.org/2000/svg">
<rect width="56.4194" height="56" rx="28" fill="#F0F4FF"/>
<g clip-path="url(#clip0_926_313)">
<path fill-rule="evenodd" clip-rule="evenodd" d="M35.437 19.7714C35.437 24.0633 31.7755 27.5429 27.2635 27.5429H15.9941V15.4531C15.9402 13.5966 17.5636 12.0515 19.6221 12H27.2635C29.453 12.0069 31.5426 12.8268 33.0407 14.2668C34.5936 15.7561 35.4517 17.7271 35.437 19.7714Z" fill="#FF3D71"/>
<path fill-rule="evenodd" clip-rule="evenodd" d="M39.0999 26.9078C37.3388 25.047 34.8779 23.9866 32.2987 23.9768H19.5942C17.5532 23.9209 15.9429 22.2446 15.9941 20.229V23.9768V40.253C15.9406 42.2694 17.5522 43.9471 19.5942 44.0008H32.2987C37.6116 44.0008 41.9185 39.5182 41.9185 33.997C41.9346 31.3644 40.9255 28.8264 39.0999 26.9078Z" fill="#6D2FFD"/>
</g>
<defs>
<clipPath id="clip0_926_313">
<rect width="27" height="32.0008" fill="white" transform="translate(15 12)"/>
</clipPath>
</defs>
</svg>
