<svg width="57" height="56" viewBox="0 0 57 56" fill="none" xmlns="http://www.w3.org/2000/svg">
<rect width="56.4194" height="56" rx="28" fill="#F0F4FF"/>
<g clip-path="url(#clip0_302_1651)">
<path d="M40.2727 13.4546H15.7273C14.4545 13.4546 13.4545 14.4546 13.4545 15.7273V40.2728C13.4545 41.5455 14.4545 42.5455 15.7273 42.5455H40.2727C41.5454 42.5455 42.5454 41.5455 42.5454 40.2728V15.7273C42.5454 14.4546 41.5454 13.4546 40.2727 13.4546ZM22.8636 15.4546C22.8636 15.1819 23.0454 15 23.3182 15H25.0454C25.3182 15 25.5 15.1819 25.5 15.4546V17.1819C25.5 17.4546 25.3182 17.6364 25.0454 17.6364H23.3182C23.0454 17.6364 22.8636 17.4546 22.8636 17.1819V15.4546ZM19.5454 15.4546C19.5454 15.1819 19.7727 15 20 15H21.7273C22 15 22.1818 15.1819 22.1818 15.4546V17.1819C22.1818 17.4546 22 17.6364 21.7273 17.6364H20C19.7727 17.6364 19.5454 17.4546 19.5454 17.1819V15.4546ZM16.2727 15.4546C16.2727 15.1819 16.4545 15 16.7273 15H18.4545C18.7273 15 18.9091 15.1819 18.9091 15.4546V17.1819C18.9091 17.4546 18.7273 17.6364 18.4545 17.6364H16.7273C16.4545 17.6364 16.2727 17.4546 16.2727 17.1819V15.4546ZM41.6363 40.2728C41.6363 41 41.0454 41.6364 40.2727 41.6364H15.7273C15 41.6364 14.3636 41 14.3636 40.2728V19.1819H41.6363V40.2728Z" fill="#5F2CED"/>
<path d="M38.2727 30.1818L37.0454 28.9546C34.6363 26.5455 31.4091 25.2273 28 25.2273C24.5909 25.2273 21.3636 26.5455 18.9545 28.9546L17.7272 30.1818C17.5454 30.3637 17.5454 30.6364 17.7272 30.8182L18.9545 32.0455C21.4545 34.5455 24.7272 35.7727 28 35.7727C31.2727 35.7727 34.5454 34.5455 37.0454 32.0455L38.2727 30.8182C38.4545 30.6364 38.4545 30.3637 38.2727 30.1818ZM28 33.2727C26.5 33.2727 25.2272 32.0455 25.2272 30.5C25.2272 29 26.4545 27.7727 28 27.7727C29.5 27.7727 30.7727 29 30.7727 30.5C30.7727 32.0455 29.5 33.2727 28 33.2727Z" fill="#5F2CED"/>
<path d="M29.4091 30.5002C29.4091 31.2729 28.7727 31.9092 28 31.9092C27.2272 31.9092 26.5909 31.2729 26.5909 30.5002C26.5909 29.7274 27.2272 29.0911 28 29.0911C28.7727 29.0911 29.4091 29.7274 29.4091 30.5002Z" fill="#5F2CED"/>
<path d="M39.3181 20.9092H16.6818C16.4091 20.9092 16.2272 21.091 16.2272 21.3637C16.2272 21.6365 16.4091 21.8183 16.6818 21.8183H39.3181C39.5909 21.8183 39.7727 21.6365 39.7727 21.3637C39.7727 21.091 39.5909 20.9092 39.3181 20.9092Z" fill="#5F2CED"/>
<path d="M39.3181 23.5H16.6818C16.4091 23.5 16.2272 23.6818 16.2272 23.9545C16.2272 24.2273 16.4091 24.4091 16.6818 24.4091H39.3181C39.5909 24.4091 39.7727 24.2273 39.7727 23.9545C39.7727 23.6818 39.5909 23.5 39.3181 23.5Z" fill="#5F2CED"/>
<path d="M39.3181 26.1365H36.6818C36.4091 26.1365 36.2272 26.3183 36.2272 26.591C36.2272 26.8637 36.4091 27.0456 36.6818 27.0456H39.3181C39.5909 27.0456 39.7727 26.8637 39.7727 26.591C39.7727 26.3183 39.5909 26.1365 39.3181 26.1365Z" fill="#5F2CED"/>
<path d="M19.6818 26.1365H16.6818C16.4091 26.1365 16.2272 26.3183 16.2272 26.591C16.2272 26.8637 16.4091 27.0456 16.6818 27.0456H19.6363C19.9091 27.0456 20.0909 26.8637 20.0909 26.591C20.0909 26.3183 19.9091 26.1365 19.6818 26.1365Z" fill="#5F2CED"/>
<path d="M39.3181 34H36.6818C36.4091 34 36.2272 34.1818 36.2272 34.4545C36.2272 34.7273 36.4091 34.9091 36.6818 34.9091H39.3181C39.5909 34.9091 39.7727 34.7273 39.7727 34.4545C39.7727 34.1818 39.5909 34 39.3181 34Z" fill="#5F2CED"/>
<path d="M16.6818 34.9091H19.6363C19.9091 34.9091 20.0909 34.7273 20.0909 34.4545C20.0909 34.1818 19.9091 34 19.6363 34H16.6818C16.4091 34 16.2272 34.1818 16.2272 34.4545C16.2272 34.7273 16.4545 34.9091 16.6818 34.9091Z" fill="#5F2CED"/>
<path d="M39.3181 36.5911H16.6818C16.4091 36.5911 16.2272 36.7729 16.2272 37.0456C16.2272 37.3183 16.4091 37.5002 16.6818 37.5002H39.3181C39.5909 37.5002 39.7727 37.3183 39.7727 37.0456C39.7727 36.7729 39.5909 36.5911 39.3181 36.5911Z" fill="#5F2CED"/>
<path d="M39.3181 39.2273H16.6818C16.4091 39.2273 16.2272 39.4091 16.2272 39.6818C16.2272 39.9546 16.4091 40.1364 16.6818 40.1364H39.3181C39.5909 40.1364 39.7727 39.9546 39.7727 39.6818C39.7727 39.4091 39.5909 39.2273 39.3181 39.2273Z" fill="#5F2CED"/>
</g>
<defs>
<clipPath id="clip0_302_1651">
<rect width="30" height="30" fill="white" transform="translate(13 13)"/>
</clipPath>
</defs>
</svg>
