<svg width="57" height="56" viewBox="0 0 57 56" fill="none" xmlns="http://www.w3.org/2000/svg">
<rect width="56.4194" height="56" rx="28" fill="#F0F4FF"/>
<g clip-path="url(#clip0_315_378)">
<path d="M20.8408 13.136H35.8559L36.2037 13.1511L36.4607 13.1965L36.7027 13.2872L36.9446 13.4384L37.0202 13.4989V13.5291L37.0807 13.5594L37.2017 13.6955L37.3529 13.9223L37.4436 14.134L37.5041 14.4061L37.5192 14.6481L37.489 14.9505L37.4134 15.2076L37.2924 15.4495L37.1563 15.6309L36.99 15.7973L36.7934 15.9334L36.5666 16.0392L36.2793 16.1148L36.1583 16.1299L33.8297 16.1451V19.2146L34.0414 19.3356L34.3438 19.517L34.5555 19.6531L34.7369 19.7741L34.9486 19.9253L35.1301 20.0614L35.3267 20.2126L35.5686 20.4092L35.7652 20.5755L35.9164 20.7116L36.0978 20.8779L36.249 21.014L36.5363 21.3013L36.6422 21.4223L36.8085 21.6037L36.9446 21.7701L37.0656 21.9061L37.2319 22.1178L37.4738 22.4354L37.6099 22.632L37.8519 22.9949L38.0636 23.3426L38.245 23.6602L38.5021 24.1592L38.7138 24.6279L38.8952 25.0816L39.1371 25.7922L39.2581 26.2459L39.364 26.6844L39.4698 27.259L39.5454 27.8336L39.5908 28.3326L39.6059 28.6501V29.2852L39.5757 29.6934L39.5605 30.2076V41.6088L39.5454 41.9414L39.5 42.1834L39.4244 42.3951L39.2884 42.6068L39.1825 42.7126L38.9557 42.8487L38.6986 42.9697L38.623 42.9999H36.4759L34.6765 42.8487L33.5877 42.7277L32.6956 42.6068L31.864 42.4707L31.1986 42.3497L30.367 42.1834L29.5807 42.0019L28.6583 41.76L27.9476 41.5483L27.3277 41.3517L26.5565 41.0795L25.7248 40.7469L25.241 40.5352L24.9688 40.4142L24.742 40.3084L24.2581 40.0664L23.9255 39.885L23.5474 39.6733L23.3206 39.5372L23.0484 39.3709L22.7611 39.1894L22.4738 38.9928L22.2168 38.8114L21.9295 38.5997L21.7178 38.4334L21.4607 38.2217L21.2944 38.0856L21.113 37.9193L20.9466 37.7832L20.2057 37.0422L20.0998 36.9213L19.9184 36.7096L19.7521 36.513L19.6311 36.3618L19.4799 36.1652L19.2833 35.893L18.9809 35.4394L18.7843 35.1219L18.3912 34.4263L18.1946 34.0634L17.9375 33.5039L17.7712 33.0957L17.5898 32.5816L17.4234 32.0372L17.3025 31.5533L17.1966 31.009L17.1059 30.3588L17.0605 29.8749L17.0454 29.6481V28.6955L17.0757 28.2116L17.1361 27.637L17.2269 27.0624L17.3327 26.5634L17.4839 25.9737L17.7107 25.2781L17.8771 24.8547L18.0888 24.3709L18.2097 24.1138L18.3609 23.8265L18.5575 23.4636L18.6785 23.267L18.875 22.9495L19.0716 22.6622L19.2682 22.39L19.4194 22.1934L19.5404 22.0422L19.7521 21.7852L19.873 21.634H19.9033L19.9335 21.5735L20.0696 21.4374L20.1755 21.3164L20.6291 20.8628L20.75 20.757L20.9466 20.5755L21.1583 20.4092L21.3549 20.2428L21.5968 20.0614L21.8236 19.8951L22.1563 19.6682L22.5192 19.4414L22.7914 19.2902L22.8972 19.2146V16.1904L20.493 16.1753L20.2813 16.1299L20.0394 16.0392L19.8125 15.9031L19.616 15.7217L19.495 15.5856L19.374 15.3739L19.2984 15.1924L19.238 14.9656L19.2228 14.8749V14.4969L19.2682 14.2701L19.3287 14.0886L19.4194 13.9072L19.5706 13.6955L19.7067 13.5443L19.9335 13.3779L20.1755 13.257L20.4023 13.1813L20.5686 13.1511L20.8408 13.136ZM25.8458 16.1299L25.8156 16.9767L25.8005 17.642V18.0201L25.9365 18.0049L26.6321 17.8991L27.1765 17.8386L27.5696 17.8084L27.9174 17.7932H28.6886L29.1875 17.8235L29.6563 17.8688L30.1855 17.9445L30.7299 18.0503L30.8811 18.0654V16.1451L30.866 16.1299H25.8458ZM23.2752 22.9041L22.8972 22.9495L22.5041 23.0402L22.1109 23.1763L21.7632 23.3426L21.491 23.509L21.249 23.6904L21.0373 23.8719L20.7954 24.1138L20.6593 24.2801L20.493 24.507L20.2662 24.885L20.0545 25.3235L19.9335 25.6108L19.7823 26.0191L19.6462 26.4424L19.5404 26.8507L19.4345 27.3648L19.374 27.7731L19.3287 28.1813L19.2984 28.7408V29.0886L19.3287 29.6481L19.3892 30.1773L19.4799 30.7368L19.6613 31.4626L19.8428 32.0221L20.0394 32.5059L20.2057 32.8688L20.3267 33.1108L20.5232 33.4737L20.7198 33.7912L20.871 34.018L21.0222 34.2297L21.1583 34.4112L21.3246 34.6229L21.5061 34.8346L21.6573 35.0009L21.7632 35.1219L22.1714 35.5301L22.2924 35.636L22.4436 35.7721L22.8216 36.0745L23.0938 36.2711L23.4567 36.513L23.7591 36.6945L24.1069 36.891L24.5757 37.1178L25.1351 37.3447L25.6795 37.5261L26.0575 37.632L26.617 37.7529L27.2067 37.8436L27.7359 37.889L28.3408 37.9041L28.991 37.8739L29.5353 37.8134L30.0343 37.7227L30.4426 37.632L30.9718 37.4807L31.4103 37.3295L31.8186 37.1632L32.2117 36.9818L32.5444 36.8154L32.9073 36.6037L33.2248 36.4072L33.5273 36.1955L33.7692 36.014L33.9809 35.8477L34.1926 35.6662L34.2682 35.6057V35.5755L34.3287 35.5453L34.5252 35.3638L34.8579 35.0311L34.994 34.8648L35.0998 34.759L35.4023 34.3809L35.614 34.0936L35.8861 33.6854L36.0373 33.4283L36.1432 33.2469L36.2339 33.0805L36.4154 32.7025L36.6119 32.2489L36.7632 31.8255L36.8841 31.4475L37.0051 30.9938L37.1109 30.4797L37.1865 29.9354L37.2319 29.391V28.4535L37.1714 27.7882L37.0807 27.2438L36.99 26.8205L36.869 26.3668L36.6875 25.8225L36.5212 25.3991L36.3246 24.9757L36.2037 24.7186L36.0071 24.386L35.871 24.2045L35.7349 24.0382L35.4023 23.7055L35.1603 23.5241L34.873 23.3426L34.5404 23.1763L34.2531 23.0705L33.9053 22.9797L33.618 22.9344L33.4819 22.9193H32.9073L32.5142 22.9797L32.1815 23.0705L31.8791 23.1763L31.622 23.2973L31.3347 23.4636L31.0777 23.6451L30.8811 23.8114L30.6845 23.9928L30.488 24.2045L30.2611 24.507L30.0646 24.8245L29.8982 25.1723L29.747 25.6259L29.6865 25.883L29.6412 26.2005L29.6261 26.4273L29.6109 33.4888L29.5353 33.7307L29.4446 33.9122L29.3388 34.0483L29.248 34.1541L29.0212 34.3205L28.7944 34.4263L28.5373 34.5019L28.4315 34.517H28.114L27.9023 34.4717L27.7057 34.3961L27.5091 34.2902L27.3579 34.1693L27.2521 34.0634L27.1462 33.9122L27.0252 33.6703L26.9648 33.4586L26.9496 33.3527L26.9345 26.2307L26.874 25.8225L26.7833 25.4747L26.6926 25.2176L26.5565 24.9152L26.3902 24.6128L26.2087 24.3557L26.0424 24.1592L25.9063 24.008L25.7097 23.8114L25.5585 23.6904L25.3317 23.5241L25.0595 23.3578L24.8327 23.2368L24.5303 23.1158L24.3035 23.0402L23.9859 22.9646L23.6986 22.9193L23.5172 22.9041H23.2752Z" fill="#0451FB"/>
<path d="M32.756 25.9587H33.134L33.3911 26.0192L33.633 26.1402L33.7993 26.2612L33.9354 26.3821L34.1018 26.6089L34.2076 26.8358L34.2681 27.0626L34.2832 27.1987V30.4043L34.253 30.6462L34.1925 30.8277L34.0715 31.0696L33.9657 31.2057L33.8598 31.3267L33.6632 31.4779L33.4516 31.5837L33.2096 31.6593L33.134 31.6745H32.7257L32.4838 31.614L32.3024 31.5384L32.0907 31.4023L31.9395 31.2662L31.8185 31.115L31.6975 30.9033L31.6219 30.6614L31.6068 30.5858L31.5917 30.3741V27.2743L31.6219 27.0172L31.6975 26.7753L31.8185 26.5485L31.9395 26.3972L32.1058 26.2309L32.3477 26.0797L32.5443 26.0041L32.756 25.9587Z" fill="#0451FB"/>
<path d="M23.1542 25.9587H23.5171L23.7288 26.0041L23.9254 26.0797L24.137 26.2158L24.2883 26.3519L24.4243 26.5031L24.5453 26.6997L24.636 26.9416L24.6663 27.0777V30.5706L24.6058 30.7975L24.5302 30.9789L24.4243 31.1604L24.2731 31.3418L24.1219 31.4628L23.9707 31.5535L23.7741 31.6291L23.5927 31.6745H23.1995L22.9576 31.614L22.8064 31.5535L22.6098 31.4477L22.4435 31.3116L22.3377 31.2057L22.2016 31.0243L22.0957 30.8126L22.005 30.495L21.9899 30.3589V27.2138L22.0201 27.0021L22.1108 26.7299L22.1864 26.5938L22.3225 26.4124L22.504 26.2309L22.7157 26.0948L22.9274 26.0041L23.1542 25.9587Z" fill="#0451FB"/>
</g>
<defs>
<clipPath id="clip0_315_378">
<rect width="22.621" height="30" fill="white" transform="translate(17 13)"/>
</clipPath>
</defs>
</svg>
