<svg width="56" height="56" viewBox="0 0 56 56" fill="none" xmlns="http://www.w3.org/2000/svg">
<rect width="56" height="56" rx="28" fill="#F0F4FF"/>
<path d="M15.7341 25.2449H40.2751C40.7676 25.2449 41.1667 25.6441 41.1667 26.1365V41.4441C41.1667 41.9366 40.7676 42.3356 40.2751 42.3357H15.7341C15.2417 42.3356 14.8425 41.9367 14.8425 41.4441V26.1365C14.8426 25.644 15.2417 25.2449 15.7341 25.2449Z" fill="white" stroke="#5F2CED"/>
<path d="M40.275 24.7449H15.7342C14.9656 24.7449 14.3425 25.368 14.3425 26.1366V26.2554L22.361 33.7731C22.8087 34.1929 22.8044 34.905 22.3515 35.3192L14.6729 42.3432C14.9282 42.6443 15.3086 42.8359 15.7342 42.8359H40.275C40.7007 42.8359 41.0812 42.6443 41.3365 42.3432L33.7352 35.39C33.2853 34.9785 33.2775 34.2723 33.7182 33.8509L41.6669 26.2499V26.1365C41.6668 25.3679 41.0437 24.7449 40.275 24.7449Z" fill="#5F2CED"/>
<path d="M40.2749 24.745H15.7341C15.407 24.7453 15.0903 24.6299 14.8401 24.4192L26.3774 13.799C27.297 12.9524 28.712 12.9524 29.6317 13.799L41.169 24.4192C40.9188 24.6299 40.6021 24.7453 40.2749 24.745Z" fill="#5F2CED"/>
<path d="M14.3425 26.1366C14.3425 26.1366 14.2124 24.8768 14.9279 24.3384L16.0112 24.4191V25.8983L14.3425 26.1366ZM41.6575 26.1366C41.6575 26.1366 41.7876 24.8768 41.0721 24.3384L39.9887 24.4191V25.8983L41.6575 26.1366Z" fill="#5F2CED"/>
<path d="M38.7837 19.4065H17.2253C16.3071 19.4065 15.5627 20.1508 15.5627 21.069V25.372L23.3018 32.5072C23.5528 32.7386 23.8817 32.867 24.2231 32.867H31.786C32.1273 32.867 32.4562 32.7385 32.7073 32.5072L40.4463 25.372V21.069C40.4463 20.1508 39.702 19.4065 38.7837 19.4065Z" fill="white" stroke="#5F2CED"/>
<path d="M34.4349 27.4804H20.6536V25.6567H34.4349C34.9385 25.6567 35.3467 26.0649 35.3467 26.5686C35.3466 27.0721 34.9385 27.4804 34.4349 27.4804ZM28.3633 23.833H20.6536V22.0093H28.3633C28.867 22.0093 29.2752 22.4175 29.2752 22.9211C29.2752 23.4247 28.867 23.833 28.3633 23.833Z" fill="#5F2CED"/>
</svg>
