<svg width="56" height="56" viewBox="0 0 56 56" fill="none" xmlns="http://www.w3.org/2000/svg">
<rect width="56" height="56" rx="28" fill="#F0F4FF"/>
<path d="M40 23.5H32.5C31.7044 23.5 30.9413 23.1839 30.3787 22.6213C29.8161 22.0587 29.5 21.2956 29.5 20.5V13L40 23.5Z" fill="#5F2CED"/>
<path d="M20.5 13.5H29V20.5C29 21.4283 29.369 22.3182 30.0254 22.9746C30.6818 23.631 31.5717 24 32.5 24H39.5V38.5L39.4951 38.6982C39.4461 39.6869 39.0314 40.6248 38.3281 41.3281C37.578 42.0783 36.5609 42.5 35.5 42.5H20.5C19.4391 42.5 18.422 42.0783 17.6719 41.3281C16.9217 40.578 16.5 39.5609 16.5 38.5V17.5C16.5 16.4391 16.9217 15.422 17.6719 14.6719C18.422 13.9217 19.4391 13.5 20.5 13.5Z" fill="white" stroke="#5F2CED"/>
<path d="M39.0605 32.9402L34.5605 28.4402C34.4215 28.2995 34.2561 28.1877 34.0738 28.1111C33.8914 28.0346 33.6958 27.9949 33.498 27.9943C33.3003 27.9937 33.1043 28.0321 32.9215 28.1075C32.7387 28.1829 32.5726 28.2937 32.4328 28.4336C32.2929 28.5734 32.1821 28.7395 32.1067 28.9223C32.0314 29.1052 31.9929 29.3011 31.9935 29.4988C31.9941 29.6966 32.0339 29.8923 32.1104 30.0746C32.1869 30.257 32.2988 30.4224 32.4395 30.5613L34.379 32.5008H26C25.6022 32.5008 25.2206 32.6589 24.9393 32.9402C24.658 33.2215 24.5 33.603 24.5 34.0008C24.5 34.3986 24.658 34.7802 24.9393 35.0615C25.2206 35.3428 25.6022 35.5008 26 35.5008H34.3789L32.4394 37.4403C32.2987 37.5793 32.1869 37.7447 32.1103 37.927C32.0338 38.1094 31.9941 38.305 31.9935 38.5028C31.9928 38.7006 32.0313 38.8965 32.1067 39.0793C32.1821 39.2621 32.2929 39.4282 32.4328 39.5681C32.5726 39.7079 32.7387 39.8187 32.9215 39.8941C33.1044 39.9695 33.3003 40.0079 33.498 40.0073C33.6958 40.0067 33.8915 39.967 34.0738 39.8904C34.2561 39.8139 34.4216 39.702 34.5605 39.5613L39.0605 35.0613C39.1998 34.9221 39.3103 34.7567 39.3857 34.5748C39.4611 34.3928 39.5 34.1977 39.5 34.0008C39.5 33.8038 39.4611 33.6087 39.3857 33.4268C39.3103 33.2448 39.1998 33.0795 39.0605 32.9402Z" fill="#5F2CED"/>
</svg>
