<svg width="56" height="56" viewBox="0 0 56 56" fill="none" xmlns="http://www.w3.org/2000/svg">
<rect width="56" height="56" rx="28" fill="#F0F4FF"/>
<path d="M39.5371 21.75V27.4854L40.1357 27.3652C40.3613 27.3201 40.6508 27.3184 40.7686 27.3184C43.0609 27.3184 44.9375 29.2692 44.9375 31.6562C44.9375 34.0433 43.0609 35.9941 40.7686 35.9941C40.7176 35.9941 40.6256 35.9844 40.4766 35.9688C40.3485 35.9553 40.1806 35.9375 40.0371 35.9375H39.5371V42.125H11.0625V37.2178C13.539 36.8009 15.4502 34.4952 15.4502 31.8809C15.45 29.2601 13.5331 27.011 11.0625 26.6006V21.75H39.5371Z" fill="white" stroke="#5F2CED"/>
<path d="M40.0375 26.7625C40.2625 26.7625 40.5437 26.8187 40.6562 26.8187H40.7688C43.3563 26.8187 45.4375 24.625 45.4375 21.9812C45.4375 19.2812 43.3563 17.1437 40.7688 17.1437C40.6563 17.1437 40.3188 17.1438 40.0375 17.2L38.6313 13.375L10.5625 21.25H40.0375V26.7625Z" fill="#5F2CED"/>
<path d="M26.5375 28.9C26.5375 29.9125 26.3125 30.7 25.8063 31.2625C25.3 31.825 24.625 32.1062 23.8375 32.1062C23.4438 32.1062 23.05 32.05 22.7125 31.8813C22.375 31.7688 22.0938 31.5437 21.8688 31.2625C21.6438 30.9812 21.4188 30.6437 21.3063 30.25C21.1938 29.8563 21.0813 29.4062 21.0813 28.9C21.0813 27.8875 21.3063 27.1 21.8125 26.5375C22.3188 25.975 22.9938 25.75 23.7813 25.75C24.5688 25.75 25.2438 26.0312 25.75 26.5375C26.2563 27.1 26.5375 27.8875 26.5375 28.9ZM24.9625 28.9C24.9625 28.2812 24.85 27.8875 24.625 27.55C24.4 27.2688 24.1188 27.1 23.7813 27.1C23.3875 27.1 23.1063 27.2688 22.9375 27.55C22.7125 27.8313 22.6 28.2812 22.6 28.9C22.6 29.5187 22.7125 29.9125 22.9375 30.25C23.1625 30.5312 23.4438 30.7 23.7813 30.7C24.175 30.7 24.4563 30.5312 24.625 30.25C24.85 29.9125 24.9625 29.4625 24.9625 28.9ZM29.8 25.975H31.6563L25.3 37.6187H23.4438L29.8 25.975ZM34.1313 34.6938C34.1313 35.7063 33.85 36.4937 33.4 37.0562C32.8938 37.6187 32.2188 37.9 31.4313 37.9C31.0375 37.9 30.6438 37.8438 30.3063 37.675C29.9688 37.5063 29.6875 37.3375 29.4625 37.0562C29.2375 36.775 29.0125 36.4375 28.9 36.0437C28.7875 35.65 28.675 35.2 28.675 34.6938C28.675 33.6813 28.9 32.8938 29.4063 32.3313C29.9125 31.7688 30.5875 31.5437 31.375 31.5437C32.1625 31.5437 32.8375 31.825 33.3438 32.3313C33.85 32.8938 34.1313 33.6813 34.1313 34.6938ZM32.5563 34.6938C32.5563 34.075 32.4438 33.6813 32.2188 33.3438C31.9938 33.0062 31.7125 32.8938 31.375 32.8938C30.9813 32.8938 30.7 33.0625 30.5313 33.3438C30.3625 33.625 30.25 34.075 30.25 34.6938C30.25 35.3125 30.3625 35.7062 30.5313 36.0437C30.7563 36.325 31.0375 36.4937 31.375 36.4937C31.7688 36.4937 32.05 36.325 32.2188 36.0437C32.4438 35.7625 32.5563 35.3125 32.5563 34.6938Z" fill="#5F2CEC"/>
</svg>
