<svg width="56" height="56" viewBox="0 0 56 56" fill="none" xmlns="http://www.w3.org/2000/svg">
<rect width="56" height="56" rx="28" fill="#F0F4FF"/>
<g clip-path="url(#clip0_448_495)">
<path fill-rule="evenodd" clip-rule="evenodd" d="M16.1355 24.4533L17.2086 20.467L24.7664 16.2197V21.5412L16.1355 26.8223V24.4533Z" fill="#5F2CED"/>
<path fill-rule="evenodd" clip-rule="evenodd" d="M19.7122 24.5935L28.2228 19.4565V23.6752C28.2228 23.6752 28.0935 25.0676 27.4713 25.3269C27.0113 25.5091 19.7144 29.7003 19.7144 29.7003L19.7122 24.5935Z" fill="#5F2CED"/>
<path fill-rule="evenodd" clip-rule="evenodd" d="M24.3474 27.0854L31.9131 22.7573V26.9753C31.9131 26.9753 31.9131 28.1415 31.1616 28.5517C30.6766 28.8034 24.3491 32.3782 24.3491 32.3782L24.3474 27.0854Z" fill="#5F2CED"/>
<path fill-rule="evenodd" clip-rule="evenodd" d="M27.4829 14.713L31.6427 12.1099V17.4286L27.4869 19.8974L27.4829 14.713Z" fill="#5F2CED"/>
<path fill-rule="evenodd" clip-rule="evenodd" d="M30.8701 17.8821L35.0503 15.4854V20.9912L30.8684 23.3488L30.8701 17.8821Z" fill="#5F2CED"/>
<path fill-rule="evenodd" clip-rule="evenodd" d="M34.075 10.6909L36.9217 9V12.668C36.9217 12.668 36.9217 14.5031 36.1702 14.8704C36.0255 14.9447 34.0903 16.0382 34.0903 16.0382L34.075 10.6909Z" fill="#5F2CED"/>
<path fill-rule="evenodd" clip-rule="evenodd" d="M34.1503 21.432L36.9862 19.7803L36.921 23.995C36.921 23.995 36.9862 25.1066 36.1695 25.6467C35.9812 25.8092 34.0499 26.7221 34.0839 26.7402C34.118 26.7584 34.139 21.2828 34.1503 21.432Z" fill="#5F2CED"/>
<path fill-rule="evenodd" clip-rule="evenodd" d="M37.489 14.1352L39.7579 12.6772C39.7579 12.6772 39.7806 14.8642 39.7579 16.3458C39.7412 16.7959 39.633 17.2383 39.4396 17.6475C39.2461 18.0569 38.9714 18.4251 38.6308 18.7309C38.6308 18.7309 37.4573 19.4401 37.4931 19.46C37.5288 19.4798 37.489 14.1352 37.489 14.1352Z" fill="#5F2CED"/>
<path fill-rule="evenodd" clip-rule="evenodd" d="M24.7664 16.2158C24.7312 16.2874 17.828 19.6129 16.7815 20.7538C17.3153 20.3166 16.3278 21.1854 16.2144 22.4942L16.5428 34.7937C16.5428 34.7937 16.0153 36.4338 18.6085 37.8808C20.4575 38.9125 31.1524 45.2951 32.4655 45.8948C33.7785 46.4943 34.1172 45.5468 34.1172 45.5468V33.6082C34.0888 33.5759 34.5091 31.722 32.2585 30.324C31.8262 29.9596 17.9681 23.8321 17.3794 21.9028C16.7469 19.831 24.7664 16.7515 24.7664 16.2158Z" fill="#F0F4FF"/>
<path fill-rule="evenodd" clip-rule="evenodd" d="M33.472 33.501L34.1468 33.0269V45.7455C34.1468 45.7455 33.8213 46.3814 33.472 46.442C33.4306 46.421 33.472 33.501 33.472 33.501Z" fill="#F0F4FF"/>
<path d="M16.9042 22.3211C17 22.4689 17.11 22.6077 17.2326 22.7357C17.0939 22.587 16.9774 22.4202 16.8866 22.2402C16.0698 20.1953 21.9913 17.896 24.4586 16.3599C24.4586 16.3599 18.4696 19.2466 17.2825 20.2537C16.2332 21.1434 16.1577 21.6813 16.1577 21.6813L16.0312 22.4329C16.0573 22.0684 16.0658 21.743 16.1577 21.6813C16.1464 21.7446 16.8945 22.2258 16.9042 22.3211Z" fill="#5F2CED"/>
<mask id="path-13-inside-1_448_495" fill="white">
<path d="M16.1865 21.6123C16.1672 21.6778 16.8922 22.2256 16.9043 22.3213C17 22.4693 17.11 22.6082 17.2324 22.7363C17.7784 23.3583 18.8102 24.0952 20.0781 24.8545L20.6348 25.1807C24.9295 27.6737 31.1402 30.4309 31.627 30.8301C33.6217 31.8993 33.454 33.6606 33.4727 33.6748V46.4316L31.9688 45.7021C31.8452 45.6459 31.6838 45.5572 31.4697 45.4473L31.4639 45.4355C28.7872 44.0355 19.2019 38.7134 17.6494 37.793C16.987 37.2192 16.8031 37.007 16.4316 36.4482C16.1776 35.9356 16.103 35.9002 16.0293 34.9717L16.0098 22.4268C16.0359 22.0602 16.0947 21.6745 16.1865 21.6123Z"/>
</mask>
<path d="M16.1865 21.6123C16.1672 21.6778 16.8922 22.2256 16.9043 22.3213C17 22.4693 17.11 22.6082 17.2324 22.7363C17.7784 23.3583 18.8102 24.0952 20.0781 24.8545L20.6348 25.1807C24.9295 27.6737 31.1402 30.4309 31.627 30.8301C33.6217 31.8993 33.454 33.6606 33.4727 33.6748V46.4316L31.9688 45.7021C31.8452 45.6459 31.6838 45.5572 31.4697 45.4473L31.4639 45.4355C28.7872 44.0355 19.2019 38.7134 17.6494 37.793C16.987 37.2192 16.8031 37.007 16.4316 36.4482C16.1776 35.9356 16.103 35.9002 16.0293 34.9717L16.0098 22.4268C16.0359 22.0602 16.0947 21.6745 16.1865 21.6123Z" fill="white"/>
<path d="M16.1865 21.6123L17.1458 21.8948L17.9324 19.2235L15.6261 20.7841L16.1865 21.6123ZM16.9043 22.3213L15.9122 22.4466L15.9407 22.6727L16.0644 22.8641L16.9043 22.3213ZM17.2324 22.7363L17.984 22.0767L17.9701 22.0608L17.9556 22.0456L17.2324 22.7363ZM20.0781 24.8545L19.5643 25.7125L19.5726 25.7173L20.0781 24.8545ZM20.6348 25.1807L20.1292 26.0435L20.1327 26.0455L20.6348 25.1807ZM31.627 30.8301L30.9928 31.6033L31.0684 31.6653L31.1545 31.7115L31.627 30.8301ZM33.4727 33.6748H34.4727V33.1791L34.0781 32.879L33.4727 33.6748ZM33.4727 46.4316L33.0362 47.3314L34.4727 48.0281V46.4316H33.4727ZM31.9688 45.7021L32.4052 44.8024L32.3942 44.7971L32.3832 44.7921L31.9688 45.7021ZM31.4697 45.4473L30.5753 45.8945L30.7217 46.1873L31.0129 46.3368L31.4697 45.4473ZM31.4639 45.4355L32.3583 44.9883L32.2138 44.6992L31.9274 44.5494L31.4639 45.4355ZM17.6494 37.793L16.9947 38.5489L17.0624 38.6075L17.1394 38.6531L17.6494 37.793ZM16.4316 36.4482L15.5357 36.8923L15.5638 36.9491L15.5989 37.0019L16.4316 36.4482ZM16.0293 34.9717L15.0293 34.9732L15.0294 35.0121L15.0324 35.0508L16.0293 34.9717ZM16.0098 22.4268L15.0123 22.3557L15.0097 22.392L15.0098 22.4283L16.0098 22.4268ZM16.1865 21.6123L15.2272 21.3298C15.1548 21.5759 15.1946 21.7821 15.2221 21.8829C15.2516 21.9912 15.293 22.0724 15.3178 22.1169C15.3673 22.2057 15.4207 22.2711 15.4456 22.3008C15.5012 22.367 15.5614 22.4256 15.6007 22.4629C15.6851 22.5428 15.7929 22.6364 15.8768 22.7095C15.9719 22.7923 16.0453 22.8566 16.0959 22.9047C16.1227 22.9301 16.1237 22.9328 16.1122 22.9194C16.1071 22.9136 16.0823 22.8849 16.0529 22.8391C16.0411 22.8208 15.9406 22.672 15.9122 22.4466L16.9043 22.3213L17.8964 22.196C17.8795 22.0618 17.8393 21.9592 17.8134 21.9015C17.7856 21.8394 17.7563 21.7904 17.7352 21.7575C17.6938 21.6931 17.6522 21.6427 17.6262 21.6127C17.5728 21.5508 17.5154 21.4945 17.4728 21.4541C17.3847 21.3705 17.2758 21.2757 17.1905 21.2015C17.094 21.1174 17.0235 21.0558 16.977 21.0116C16.9508 20.9868 16.9575 20.9912 16.977 21.0145C16.984 21.0227 17.0237 21.0696 17.0647 21.1431C17.0853 21.18 17.1237 21.2544 17.1516 21.3568C17.1775 21.4516 17.2171 21.6528 17.1458 21.8948L16.1865 21.6123ZM16.9043 22.3213L16.0644 22.8641C16.1951 23.0663 16.3445 23.2545 16.5093 23.427L17.2324 22.7363L17.9556 22.0456C17.8756 21.9619 17.8048 21.8724 17.7442 21.7785L16.9043 22.3213ZM17.2324 22.7363L16.4809 23.396C17.1387 24.1454 18.2906 24.9496 19.5643 25.7124L20.0781 24.8545L20.5919 23.9966C19.3298 23.2407 18.4181 22.5713 17.984 22.0767L17.2324 22.7363ZM20.0781 24.8545L19.5726 25.7173L20.1292 26.0435L20.6348 25.1807L21.1403 24.3179L20.5837 23.9917L20.0781 24.8545ZM20.6348 25.1807L20.1327 26.0455C22.3139 27.3117 24.9687 28.6378 27.1198 29.689C28.2055 30.2196 29.1477 30.6727 29.8662 31.0266C30.2235 31.2026 30.5127 31.3478 30.7248 31.4597C30.9785 31.5933 31.0269 31.6313 30.9928 31.6033L31.627 30.8301L32.2611 30.0569C32.1053 29.9291 31.8532 29.7936 31.6573 29.6903C31.4198 29.5652 31.1104 29.41 30.7499 29.2325C30.0327 28.8792 29.0626 28.4124 27.9979 27.8921C25.8483 26.8417 23.2504 25.5427 21.1368 24.3158L20.6348 25.1807ZM31.627 30.8301L31.1545 31.7115C31.916 32.1196 32.2179 32.6242 32.3512 32.9903C32.4214 33.183 32.4499 33.3529 32.4617 33.4725C32.4675 33.5317 32.4693 33.579 32.47 33.6136C32.4702 33.6227 32.4703 33.6313 32.4705 33.6405C32.4706 33.6476 32.4707 33.6613 32.471 33.6728C32.4711 33.6795 32.4716 33.7104 32.4743 33.7454C32.4754 33.7593 32.4791 33.8071 32.4908 33.8663C32.4963 33.8942 32.5097 33.9573 32.539 34.0335C32.555 34.0748 32.6372 34.2957 32.8672 34.4707L33.4727 33.6748L34.0781 32.879C34.3078 33.0537 34.3898 33.2741 34.4055 33.3148C34.4346 33.3904 34.4477 33.4526 34.453 33.4795C34.4643 33.5365 34.4676 33.5813 34.4684 33.5914C34.4705 33.6189 34.4707 33.6389 34.4706 33.6318C34.4705 33.6292 34.4705 33.6259 34.4703 33.613C34.4701 33.6022 34.4699 33.5877 34.4696 33.571C34.4681 33.5024 34.4643 33.4015 34.4521 33.2768C34.4277 33.0288 34.37 32.6888 34.2304 32.3058C33.9443 31.5203 33.3327 30.6097 32.0994 29.9487L31.627 30.8301ZM33.4727 33.6748H32.4727V46.4316H33.4727H34.4727V33.6748H33.4727ZM33.4727 46.4316L33.9091 45.5319L32.4052 44.8024L31.9688 45.7021L31.5323 46.6019L33.0362 47.3314L33.4727 46.4316ZM31.9688 45.7021L32.3832 44.7921C32.2875 44.7485 32.1818 44.6888 31.9266 44.5577L31.4697 45.4473L31.0129 46.3368C31.1859 46.4257 31.4029 46.5433 31.5543 46.6122L31.9688 45.7021ZM31.4697 45.4473L32.3642 45.0001L32.3583 44.9883L31.4639 45.4355L30.5694 45.8828L30.5753 45.8945L31.4697 45.4473ZM31.4639 45.4355L31.9274 44.5494C29.2632 43.1559 19.6937 37.8425 18.1594 36.9328L17.6494 37.793L17.1394 38.6531C18.71 39.5844 28.3112 44.915 31.0004 46.3217L31.4639 45.4355ZM17.6494 37.793L18.3041 37.0371C17.6982 36.5122 17.578 36.3663 17.2644 35.8946L16.4316 36.4482L15.5989 37.0019C16.0282 37.6477 16.2758 37.9261 16.9947 38.5489L17.6494 37.793ZM16.4316 36.4482L17.3276 36.0042C17.162 35.6699 17.1452 35.6559 17.1165 35.5651C17.0938 35.4929 17.0625 35.3503 17.0262 34.8925L16.0293 34.9717L15.0324 35.0508C15.0698 35.5216 15.1127 35.8609 15.2092 36.1667C15.2997 36.4539 15.4472 36.714 15.5357 36.8923L16.4316 36.4482ZM16.0293 34.9717L17.0293 34.9701L17.0098 22.4252L16.0098 22.4268L15.0098 22.4283L15.0293 34.9732L16.0293 34.9717ZM16.0098 22.4268L17.0072 22.4978C17.0188 22.3357 17.0362 22.1923 17.0548 22.098C17.0646 22.0479 17.069 22.0416 17.0611 22.0629C17.057 22.0738 17.0415 22.1147 17.0084 22.1691C16.9912 22.1975 16.9643 22.2377 16.9255 22.2824C16.8872 22.3267 16.8289 22.3851 16.7469 22.4405L16.1865 21.6123L15.6261 20.7841C15.4481 20.9046 15.3472 21.0514 15.2988 21.1312C15.2449 21.22 15.2095 21.304 15.1866 21.3655C15.141 21.4882 15.1118 21.6128 15.0922 21.7128C15.0518 21.9185 15.0269 22.1512 15.0123 22.3557L16.0098 22.4268Z" fill="#5F2CED" mask="url(#path-13-inside-1_448_495)"/>
<path fill-rule="evenodd" clip-rule="evenodd" d="M31.2821 35.998L29.1682 34.7315C28.7927 34.5201 28.4308 34.6567 28.6163 35.0306V38.4382C28.7065 38.5643 28.8886 38.9721 28.8041 39.1782C28.5012 39.1638 30.0065 40.3893 30.8573 40.8514C31.1052 40.9861 31.5674 41.0424 31.5317 40.4868V36.4388C31.5327 36.3509 31.51 36.2638 31.4659 36.1868C31.4222 36.1096 31.359 36.0445 31.2821 35.998Z" fill="#F0F4FF"/>
<path fill-rule="evenodd" clip-rule="evenodd" d="M31.1914 36.2021C30.8624 35.8046 29.7632 35.194 29.0173 34.6716C28.8296 34.5383 28.5029 34.6331 28.5069 34.8537C28.554 37.4322 28.5636 38.6187 28.7173 39.1236C28.8307 39.5091 30.0757 40.3189 30.7836 40.7753C30.994 40.9136 31.2781 40.9466 31.2872 40.6967C31.327 39.6125 31.2872 37.0974 31.2872 36.4544C31.284 36.3618 31.2497 36.2729 31.1897 36.2011L31.1914 36.2021Z" fill="#5F2CED"/>
</g>
<defs>
<clipPath id="clip0_448_495">
<rect width="24" height="38" fill="white" transform="translate(16 9)"/>
</clipPath>
</defs>
</svg>
