<svg width="57" height="56" viewBox="0 0 57 56" fill="none" xmlns="http://www.w3.org/2000/svg">
<rect width="56.4194" height="56" rx="28" fill="#F0F4FF"/>
<g clip-path="url(#clip0_293_1244)">
<path d="M22.0104 42.3865L21.52 42.2501L20.6767 41.9319L20.2734 41.7637L19.6088 41.3956L19.2971 41.2047L18.8159 40.8001L18.5959 40.5956L18.3071 40.1683L18.1879 39.9501L18.1009 39.5092L18.0825 39.291L18.2017 38.8547L18.2888 38.6365L18.6234 38.2137L19.375 37.6137L20.5209 36.8956L19.6225 37.9274L19.4529 38.1274L19.2192 38.4592L19.1184 38.6228L19.0221 38.9047L18.99 39.0456L19.0221 39.3137L19.21 39.7319L19.3796 40.0001L20.0213 40.4728L20.3879 40.691L21.355 41.0592L21.8684 41.2319L23.0692 41.4865L23.6879 41.6047L25.0354 41.7456L25.7184 41.8001L27.1254 41.8183L27.8267 41.8092L29.1971 41.6956L29.8754 41.6228L31.1267 41.3728L32.7813 40.8319L33.0746 40.7047L33.5696 40.4637L33.7988 40.3456L34.1654 40.1228L34.5 39.9047L34.8163 39.4728L34.9171 39.2547L34.7979 38.7501L34.1746 37.8092L34.0646 37.6774L33.9729 37.5365L33.9454 37.4819L34.0004 37.491L34.0463 37.5137L34.2388 37.6683L34.6788 38.0547L34.9492 38.3047L35.3159 38.6956L35.4717 38.8819L35.6321 39.1956L35.6917 39.3501L35.6734 39.6547L35.4763 40.1592L35.3296 40.4365L34.7429 40.941L34.4084 41.1865L33.5054 41.6183L33.0242 41.8228L31.8875 42.1683L31.2917 42.3274L29.9946 42.5728L29.33 42.6819L27.9459 42.8183L27.2492 42.8683L25.8559 42.8819L25.1638 42.8683L23.8392 42.741L23.1929 42.6592M22.6979 39.8047L22.4321 39.7001L22.0471 39.3774L21.8775 39.2047L21.7079 38.8137L21.6529 38.6183L21.7263 38.241L22.125 37.7728L22.1892 37.7319L22.2075 37.5365L22.1984 37.4183L22.0746 37.0956L21.9967 36.9228L21.7492 36.5047L21.2496 35.8137L20.8967 35.3728L20.2229 34.2137L19.8929 33.6092L19.3292 32.2819L19.0679 31.6183L18.6967 30.341L18.4584 28.7228V28.4456L18.6509 27.8819L18.77 27.6137L19.1092 27.1547L19.2879 26.9501L19.6684 26.7274L20.1496 26.8001L20.2321 26.8774L20.2 27.0047L19.9113 27.091H19.7646L19.5309 27.3456L19.375 27.9637V28.1274L19.5034 28.4319L19.5904 28.5774L19.8838 28.841L20.0534 28.9683L20.5071 29.1956L20.7546 29.3047L21.3642 29.4956L21.6896 29.5819L22.4459 29.7274L22.84 29.7956L23.7384 29.9001L24.2059 29.9456L25.2417 30.0047L26.9375 30.041H27.5425L28.6425 30.0047L29.1788 29.9819L30.1413 29.9047L30.6042 29.8592L31.4246 29.7319L31.8142 29.6637L32.4925 29.4956L32.8179 29.4047L33.3542 29.1865L33.6017 29.0728L33.9959 28.8137L34.1746 28.6774L34.4267 28.3683L34.6421 27.8592L34.8438 26.8637L35.1784 27.8774L35.2517 28.0865L35.3892 28.3728L35.4579 28.4956L35.6275 28.6092L35.7192 28.6501L35.9575 28.6092L36.4434 28.3956L36.7 28.2592L37.2179 28.1501L37.4746 28.1183L37.9696 28.2001L38.2079 28.2592L38.6479 28.5001L38.8588 28.6365L39.2163 29.0001L39.3859 29.1956L39.6334 29.6547L39.7434 29.891L39.8579 30.4137L39.8992 30.6774L39.8488 31.2274L39.5646 32.0501L39.395 32.3637L38.8679 32.7501L37.8046 32.9547L36.5625 32.9092L37.7084 32.5956L37.9329 32.5319L38.2629 32.3774L38.4142 32.291L38.6159 32.0637L38.7029 31.9365L38.7992 31.6001L38.8542 30.9319V30.6683L38.8038 30.2728L38.7717 30.091L38.6388 29.8365L38.5563 29.7228L38.3134 29.5774L37.7954 29.441L37.4288 29.391L36.8009 29.4956L36.4984 29.591L35.9163 30.0683L35.765 30.2183L35.4579 30.6047L35.3021 30.8092L34.9721 31.3274L34.8025 31.6001L34.4313 32.2637L33.8171 33.4274L33.5742 33.8956L33.1342 34.7137L32.9142 35.1047L32.5063 35.7819L32.1029 36.4228L31.3238 37.3456L30.9342 37.7547L30.0863 38.3137L28.6013 38.8956L28.2575 38.9865L27.6525 39.091L27.3592 39.1274L26.7909 39.1228L26.5067 39.1092L25.9063 38.991L24.8796 38.6819L24.3159 38.4865L23.4954 38.2274L23.1334 38.1183L22.6567 38.0365L22.4504 38.0183L22.2396 38.1047L22.125 38.4092V38.491L22.2442 38.6547L22.3221 38.7365L22.5742 38.8956L22.8584 39.0592L23.7338 39.3501L24.2013 39.4865L25.2967 39.6865L26.9742 39.8183H27.515L28.5646 39.7001L29.0779 39.6274L30.0129 39.3819L30.4529 39.2456L31.1679 38.9047L31.8921 38.3137L32.025 38.1228L32.1396 38.0637L32.0938 38.4547L32.0434 38.641L31.6354 39.1001L30.7967 39.7001L30.6363 39.7774L30.1459 39.9137L29.8754 39.9774L29.2063 40.0728L28.5096 40.1592L26.8413 40.2228L26.0025 40.2319L24.4304 40.1365L24.0638 40.1001L23.4313 40.0001L23.1379 39.9456M30.0954 36.9774L30.2513 36.8365L30.6775 36.3319L30.9021 36.0501L31.4109 35.3319L32.96 32.8047L33.1388 32.4774L33.4367 31.9183L33.5742 31.6547L33.7942 31.2183L33.895 31.0137L34.0417 30.6865L34.1104 30.5365L34.1838 30.3092L34.2479 30.1047L34.17 29.9456L33.785 29.9956L33.3404 30.1683L32.3229 30.4501L31.7959 30.5819L30.6592 30.7774L29.4996 30.9547L27.0246 31.0547L25.7917 31.0637L23.4542 30.8228L22.8996 30.741L21.8775 30.5137L20.53 30.0774L20.1175 29.9092L19.5813 29.7001L19.3521 29.6183L19.1184 29.6092L19.0313 29.6274L19.0221 29.8319L19.1642 30.4001L19.3109 30.8728L19.8196 31.9637L20.0992 32.5183L20.8188 33.6637L21.19 34.2274L22.015 35.2728L23.2709 36.5728L23.7934 37.0274L24.9667 37.6274L25.5671 37.8774L26.7954 38.0547L27.4096 38.091L28.5692 37.841L28.8488 37.7501L29.3759 37.491L29.6325 37.3456M23.8529 27.8865L23.7063 27.7456L23.4725 27.5183L23.3671 27.4092L23.2296 27.2637L23.17 27.2047L23.1425 27.1547L23.2342 27.2047L23.4267 27.3501L24.0271 27.5001L24.3525 27.5501L25.0813 27.5183L25.4434 27.4819L26.1217 27.2865L26.9054 26.8319L27.1484 26.5865L27.4417 25.9456L27.5517 25.6047L27.5792 24.841L27.5609 24.4501L27.3363 23.6592L26.7084 22.5456L26.5204 22.3047L26.2409 21.8001L26.1217 21.5456L25.9704 21.0365L25.9154 20.7819L25.8879 20.3001V20.0637L25.9704 19.641L26.0254 19.441L26.2134 19.1047L26.3188 18.9547L26.6029 18.741L26.7542 18.6547L27.1209 18.591L27.7625 18.7092L28.0513 18.8183L28.4317 19.141L28.5921 19.3137L28.7021 19.7137L28.7204 19.9183L28.5509 20.3365L27.9825 20.9274L27.7488 21.091L27.4554 21.3274L27.3363 21.4365L27.2584 21.6319L27.2446 21.7365L27.3684 21.9728L27.7717 22.4547L28.01 22.7183L28.3217 23.5183L28.4454 23.941L28.5188 24.8865L28.5234 25.3501L28.3629 26.2001L28.3034 26.391L28.1475 26.7228L27.845 27.1001L27.6067 27.2956L27.3775 27.591L27.3042 27.7183L27.3729 27.8592L27.4417 27.9092L27.7671 27.8683L28.4959 27.5683L28.7846 27.4183L29.3438 26.8592L29.6188 26.5501L30.0954 25.7774L30.3154 25.3819L30.6271 24.5456L30.8242 23.3637V23.2183L30.7325 22.8137L30.6775 22.5956L30.4896 22.091L29.6875 20.5001L29.4263 20.0728L28.9725 19.3228L28.7617 18.9592L28.4088 18.3183L28.2392 18.0137L27.9779 17.4728L27.8588 17.2092L27.68 16.7501L27.5242 16.3047L27.4417 15.5865L27.6113 14.6274L27.7304 14.3092L28.0971 13.841L28.2896 13.6319L28.7663 13.3592L29.0138 13.2456L29.5409 13.1592L29.8113 13.1365L30.3429 13.2228L30.6042 13.2819L31.0809 13.5274L31.31 13.6683L31.6813 14.0547L31.8463 14.2683L32.0525 14.7865L32.1167 15.7047L32.0892 15.9274L31.9884 16.2637L31.9288 16.4228L31.7409 16.6456L31.6309 16.7456L31.3284 16.8819L30.7188 17.0092L30.3704 17.0456L29.8296 17.1683L29.715 17.2001L29.5592 17.2637L29.4584 17.3547V17.3819L29.5684 17.5819L29.6417 17.7047L29.8754 18.0592L30.8746 19.4819L31.1863 19.9047L31.6125 20.5683L31.8004 20.8865L32.0113 21.4637L32.0984 21.7547L32.1442 22.4092L32.08 23.6547L32.0342 24.1183L31.9059 24.8501L31.8325 25.191L31.5942 25.7592L31.4567 26.0319L31.0579 26.5547L30.21 27.4047L29.6921 27.8728L28.5784 28.5001L28.0192 28.7592L26.8825 28.9501L26.3234 28.9956L25.2646 28.7501L25.0079 28.6637L24.5221 28.4001L24.2884 28.2592M27.9596 20.1319L27.8817 19.9047L27.6342 19.6274L27.5013 19.5228L27.2171 19.4819L27.0796 19.491L26.8596 19.6819L26.7084 20.2228V20.3819L26.7496 20.6274L26.7771 20.7365L26.8779 20.8683L26.9329 20.9228L27.0979 20.9501L27.4142 20.8865L27.6113 20.8092L27.8679 20.5501L27.9642 20.4137M31.2 15.5547L31.1542 15.2228L30.7967 14.7728L30.595 14.5819L30.0679 14.4319L29.8021 14.3956L29.3025 14.5774L28.78 15.241L28.6746 15.5683L28.6288 16.0637V16.2865L28.7984 16.5819L28.9084 16.7047L29.3071 16.8047L30.1596 16.7456L30.3796 16.7047L30.7142 16.591L30.8609 16.5274L31.0534 16.3592L31.1359 16.2683L31.2092 16.0228L31.2321 15.891L31.2 15.5547Z" fill="#24292F"/>
</g>
<defs>
<clipPath id="clip0_293_1244">
<rect width="22" height="30" fill="white" transform="translate(18 13)"/>
</clipPath>
</defs>
</svg>
