<svg width="56" height="56" viewBox="0 0 56 56" fill="none" xmlns="http://www.w3.org/2000/svg">
<rect width="56" height="56" rx="28" fill="#F0F4FF"/>
<path d="M28 13.875C28.4378 13.875 29.0161 14.1962 29.5508 14.9473L29.6006 15.0195C30.2913 16.0269 30.615 17.3513 30.46 18.4512C30.3513 19.2196 30.0414 20.0052 29.5918 20.5869C29.1427 21.168 28.5952 21.4998 27.999 21.5C27.4027 21.5 26.8553 21.1682 26.4062 20.5869C26.0129 20.0777 25.7256 19.4128 25.5869 18.7393L25.5371 18.4512C25.3821 17.3533 25.7068 16.0274 26.3965 15.0195C26.9469 14.2155 27.5486 13.875 28 13.875Z" fill="white" stroke="#5F2CED"/>
<path d="M37 28.375H19C16.7245 28.375 14.875 30.2245 14.875 32.5V40C14.875 41.4475 16.0525 42.625 17.5 42.625H38.5C39.9475 42.625 41.125 41.4475 41.125 40V32.5C41.125 30.2245 39.2755 28.375 37 28.375Z" fill="#5F2CED"/>
<path d="M29.5 20.875H26.5C25.0525 20.875 23.875 22.0525 23.875 23.5V29.5C23.875 30.121 24.379 30.625 25 30.625H31C31.621 30.625 32.125 30.121 32.125 29.5V23.5C32.125 22.0525 30.9475 20.875 29.5 20.875Z" fill="#5F2CED"/>
<path d="M19 28.875H36.792L36.7939 28.877H37.002C39.0011 28.8772 40.627 30.5027 40.627 32.502V35.4482C40.226 35.5751 39.9268 35.7847 39.6143 36.0088H39.6133C39.0057 36.4461 38.3255 36.9365 36.9971 36.9365C35.8348 36.9365 35.1686 36.5615 34.6123 36.1738L34.3789 36.0078C34.1366 35.8337 33.8841 35.6508 33.585 35.5215C33.2718 35.3861 32.9291 35.3164 32.4912 35.3164C32.0532 35.3164 31.7104 35.3859 31.3975 35.5215C31.2479 35.5863 31.11 35.6642 30.9795 35.748L30.6055 36.0078C29.9962 36.4467 29.3177 36.9365 27.9912 36.9365C26.8305 36.9365 26.1656 36.5616 25.6094 36.1738L25.376 36.0078C25.135 35.8341 24.8841 35.6509 24.5859 35.5215C24.2732 35.3858 23.9302 35.3164 23.4922 35.3164C23.0543 35.3164 22.712 35.3858 22.3994 35.5215C22.2502 35.5862 22.1127 35.6643 21.9824 35.748L21.6084 36.0078C20.9992 36.4467 20.3206 36.9365 18.9941 36.9365C17.6674 36.9365 16.9882 36.4464 16.3809 36.0078C16.0612 35.7772 15.7662 35.5707 15.375 35.4463V32.5C15.375 30.5006 17.0006 28.875 19 28.875Z" fill="white" stroke="#5F2CED"/>
</svg>
