<svg width="32" height="33" viewBox="0 0 32 33" fill="none" xmlns="http://www.w3.org/2000/svg">
<path d="M14.5428 8.0163C14.6519 8.01535 14.7611 8.01441 14.8735 8.01343C15.1046 8.0118 15.3357 8.01054 15.5668 8.00961C15.7994 8.00827 16.032 8.00587 16.2645 8.00237C18.2654 7.97232 19.9897 8.22393 21.8603 8.96346C21.9648 9.00418 22.0693 9.04491 22.177 9.08688C22.9908 9.41221 23.7412 9.79129 24.4706 10.2796C24.5355 10.3229 24.6004 10.3662 24.6673 10.4108C26.0492 11.3375 26.0492 11.3375 26.5883 11.809C26.5883 11.8867 26.5883 11.9643 26.5883 12.0443C26.6538 12.071 26.7193 12.0977 26.7868 12.1252C27.0589 12.2796 27.0589 12.2796 27.3456 12.5958C27.4451 12.6856 27.5446 12.7754 27.6471 12.8679C28.0985 12.8232 28.5079 12.6574 28.9339 12.5076C29.7622 12.2463 30.5483 12.2035 31.4118 12.2796C31.5294 12.3973 31.5294 12.3973 31.5754 12.7672C31.5159 13.354 31.3028 13.5882 30.9118 14.0076C30.854 14.0729 30.7962 14.1381 30.7367 14.2054C30.4243 14.5557 30.1003 14.8925 29.7647 15.2208C29.8894 15.3101 30.0141 15.3995 30.1425 15.4915C30.3058 15.6096 30.4691 15.7277 30.6324 15.8458C30.7146 15.9046 30.7968 15.9633 30.8815 16.0239C30.9603 16.0811 31.0392 16.1384 31.1204 16.1974C31.1931 16.2497 31.2658 16.3021 31.3407 16.3561C31.5294 16.5149 31.5294 16.5149 31.7647 16.8679C31.4619 17.3221 31.2224 17.3318 30.7059 17.4561C30.7889 17.6695 30.7889 17.6695 30.8737 17.8872C31.7394 20.1445 31.8824 21.6956 31.8824 24.2796C21.4 24.2796 10.9177 24.2796 0.117676 24.2796C0.117676 21.0396 0.531527 18.1768 2.35297 15.4561C2.41792 15.3588 2.41792 15.3588 2.48417 15.2595C3.41087 13.8775 3.41087 13.8775 3.88238 13.3385C3.96003 13.3385 4.03768 13.3385 4.11768 13.3385C4.16317 13.2356 4.16317 13.2356 4.20959 13.1307C4.36454 12.8467 4.53543 12.6541 4.76473 12.4267C4.87211 12.3184 4.87211 12.3184 4.98165 12.2079C5.1765 12.0443 5.1765 12.0443 5.41179 12.0443C5.45062 11.9279 5.48944 11.8114 5.52944 11.6914C5.77078 11.495 6.00937 11.3162 6.26473 11.1399C6.33933 11.088 6.41392 11.0361 6.49078 10.9826C6.71849 10.8254 6.94739 10.6701 7.1765 10.5149C7.35803 10.3896 7.35803 10.3896 7.54323 10.2617C9.57183 8.93126 12.1145 8.03673 14.5428 8.0163Z" fill="#424242"/>
<path d="M14.5427 8.0163C14.6519 8.01535 14.761 8.01441 14.8735 8.01343C15.1046 8.0118 15.3357 8.01054 15.5668 8.00961C15.7993 8.00827 16.0319 8.00587 16.2645 8.00237C18.2654 7.97232 19.9896 8.22393 21.8603 8.96346C21.9648 9.00418 22.0692 9.04491 22.1769 9.08688C22.9907 9.41221 23.7411 9.79129 24.4706 10.2796C24.5354 10.3229 24.6003 10.3662 24.6672 10.4108C26.0492 11.3375 26.0492 11.3375 26.5882 11.809C26.5882 11.8867 26.5882 11.9643 26.5882 12.0443C26.658 12.0744 26.7277 12.1044 26.7996 12.1353C27.0838 12.2935 27.2367 12.4552 27.4411 12.7061C27.5024 12.7804 27.5637 12.8547 27.6268 12.9313C27.6951 13.0164 27.6951 13.0164 27.7647 13.1032C27.6992 13.1459 27.6336 13.1887 27.5661 13.2328C27.2779 13.4227 26.9916 13.6153 26.7059 13.809C26.6299 13.86 26.5539 13.911 26.4756 13.9635C25.6834 14.5239 25.0265 15.2329 24.3529 15.9267C24.2715 15.8646 24.2715 15.8646 24.1884 15.8012C23.9307 15.6062 23.6712 15.4135 23.4117 15.2208C23.2839 15.1232 23.2839 15.1232 23.1535 15.0237C20.2962 12.917 17.0901 12.3795 13.6167 12.8885C12.8058 13.0672 12.0547 13.3628 11.2941 13.6914C11.1852 13.7375 11.0763 13.7836 10.9641 13.8311C10.1285 14.2155 9.42061 14.7653 8.70585 15.3385C8.61228 15.4123 8.51871 15.4862 8.42231 15.5623C7.14291 16.6296 6.30542 17.9696 5.62911 19.4723C5.5415 19.6648 5.44768 19.8544 5.35291 20.0434C4.74988 21.3679 4.72745 22.8506 4.58821 24.2796C3.11291 24.2796 1.63762 24.2796 0.117618 24.2796C0.0474677 21.0703 0.525721 18.1854 2.35291 15.4561C2.41786 15.3588 2.41786 15.3588 2.48412 15.2595C3.41081 13.8775 3.41081 13.8775 3.88232 13.3385C3.95997 13.3385 4.03762 13.3385 4.11762 13.3385C4.16311 13.2356 4.16311 13.2356 4.20953 13.1307C4.36448 12.8467 4.53537 12.6541 4.76468 12.4267C4.87205 12.3184 4.87205 12.3184 4.98159 12.2079C5.17644 12.0443 5.17644 12.0443 5.41174 12.0443C5.45056 11.9279 5.48938 11.8114 5.52938 11.6914C5.77072 11.495 6.00931 11.3162 6.26468 11.1399C6.33927 11.088 6.41387 11.0361 6.49072 10.9826C6.71843 10.8254 6.94733 10.6701 7.17644 10.5149C7.35797 10.3896 7.35797 10.3896 7.54317 10.2617C9.57177 8.93126 12.1145 8.03673 14.5427 8.0163Z" fill="#EE4648"/>
<path d="M22.6176 21.0367C22.7689 21.1718 22.9163 21.3115 23.0588 21.4559C23.1342 21.5297 23.2095 21.6036 23.2872 21.6797C24.0515 22.4854 24.3529 23.1643 24.3529 24.2794C18.9176 24.2794 13.4823 24.2794 7.88232 24.2794C8.05552 22.8938 8.50549 22.0125 9.55788 21.0956C12.9944 18.6812 19.1992 18.499 22.6176 21.0367Z" fill="#FCFCFC"/>
<path d="M30.7059 17.456C30.9029 17.7767 31.0144 18.1221 31.1324 18.4781C31.1851 18.6316 31.1851 18.6316 31.2388 18.7882C31.3394 19.0882 31.4353 19.3893 31.5295 19.6913C31.5727 19.8271 31.6159 19.9628 31.6604 20.1026C32.019 21.4636 31.9049 22.8854 31.8824 24.2796C30.4848 24.2796 29.0871 24.2796 27.6471 24.2796C27.618 23.8646 27.5889 23.4497 27.5589 23.0222C27.4336 21.4918 27.1104 20.2832 26.3732 18.922C26.2354 18.6325 26.2354 18.6325 26.2354 18.2796C27.2766 17.9591 28.3047 17.7149 29.3764 17.5282C30.4244 17.3335 30.4244 17.3335 30.7059 17.456Z" fill="#ED4648"/>
<path d="M20.4705 22.7866C20.8496 22.8182 20.9589 22.88 21.2867 23.1102C21.5294 23.4557 21.5294 23.4557 21.647 24.2793C20.8705 24.2793 20.0941 24.2793 19.2941 24.2793C19.4199 23.524 19.6064 22.8438 20.4705 22.7866Z" fill="#4A4B4B"/>
<path d="M11.7721 22.7944C12.2353 22.868 12.2353 22.868 12.5147 23.0665C12.7988 23.4707 12.9412 23.783 12.9412 24.2797C12.1647 24.2797 11.3883 24.2797 10.5883 24.2797C10.715 23.5194 10.9016 22.8399 11.7721 22.7944Z" fill="#474848"/>
</svg>
