<svg width="56" height="56" viewBox="0 0 56 56" fill="none" xmlns="http://www.w3.org/2000/svg">
<rect width="56" height="56" rx="28" fill="#F0F4FF"/>
<path d="M21.5376 42.9999C21.7569 42.9013 21.9431 42.7416 22.0739 42.5398C22.2048 42.338 22.2746 42.1028 22.2751 41.8624L22.2751 38.5499L32.6501 38.5499C33.5982 38.5499 34.5076 38.1732 35.178 37.5028C35.8484 36.8323 36.2251 35.923 36.2251 34.9749L36.2251 30.3249C36.2251 29.8554 36.1326 29.3905 35.953 28.9568C35.7733 28.5231 35.51 28.1289 35.178 27.797C34.846 27.465 34.4519 27.2017 34.0182 27.022C33.5845 26.8424 33.1196 26.7499 32.6501 26.7499L23.3501 26.7499C23.065 26.7499 22.7916 26.6366 22.59 26.435C22.3884 26.2334 22.2751 25.96 22.2751 25.6749L22.2751 23.4374C22.2748 23.1972 22.2053 22.9621 22.0749 22.7604C21.9445 22.5586 21.7587 22.3987 21.5398 22.2998C21.3209 22.2009 21.0781 22.1672 20.8405 22.2027C20.6029 22.2382 20.3806 22.3413 20.2001 22.4999L11.7126 29.9999C11.3248 30.3329 11.0127 30.745 10.7971 31.2085C10.5815 31.672 10.4675 32.1762 10.4626 32.6874C10.4666 33.1987 10.5803 33.7032 10.796 34.1668C11.0116 34.6304 11.3242 35.0424 11.7126 35.3749L20.2001 42.8749C20.388 43.0209 20.6137 43.1102 20.8506 43.1323C21.0876 43.1545 21.3259 43.1085 21.5376 42.9999Z" fill="#5F2CED"/>
<path d="M45 23.3496C44.9952 23.788 44.8968 24.2206 44.7119 24.6182C44.5264 25.017 44.2575 25.3716 43.9238 25.6582L43.9189 25.6631L35.4707 33.124L35.4697 33.124C35.3615 33.2191 35.2284 33.2814 35.0859 33.3027C34.9434 33.324 34.7974 33.3035 34.666 33.2441C34.5348 33.1848 34.4229 33.0887 34.3447 32.9678C34.2666 32.8468 34.2248 32.7055 34.2246 32.5615L34.2246 30.3252C34.2246 29.9075 34.059 29.5063 33.7637 29.2109C33.4684 28.9158 33.0679 28.7501 32.6504 28.75L23.3447 28.75C22.9383 28.7543 22.535 28.678 22.1582 28.5254C21.7815 28.3728 21.4383 28.1472 21.1494 27.8613C20.8605 27.5754 20.6312 27.2345 20.4746 26.8594C20.3181 26.4842 20.2373 26.0813 20.2373 25.6748L20.2373 21.0254C20.2373 20.2099 20.5611 19.4272 21.1377 18.8506C21.7144 18.2739 22.497 17.9502 23.3125 17.9502L34.1875 17.9502L34.1875 14.1006C34.1877 13.9565 34.2294 13.8154 34.3076 13.6943C34.3859 13.5733 34.4976 13.4773 34.6289 13.418C34.7601 13.3588 34.9055 13.3382 35.0479 13.3594C35.1904 13.3807 35.3243 13.443 35.4326 13.5381L35.4336 13.5371L43.9189 21.0371L43.9248 21.042C44.2588 21.3279 44.5274 21.6825 44.7129 22.0811C44.8978 22.4785 44.9959 22.9113 45 23.3496Z" fill="white" stroke="#5F2CED"/>
</svg>
