<svg width="57" height="56" viewBox="0 0 57 56" fill="none" xmlns="http://www.w3.org/2000/svg">
<rect width="56.4194" height="56" rx="28" fill="#F0F4FF"/>
<g clip-path="url(#clip0_751_306)">
<path opacity="0.3" d="M19.0724 15.8838L24.9129 22.2197C25.8356 23.1706 26.3485 24.4248 26.3475 25.7274V40.5357L19.0667 35.5746L19.0724 15.8838Z" fill="#787DFF"/>
<path opacity="0.5" d="M14.5364 15L24.161 21.6872C24.7946 22.1186 25.319 22.6824 25.6954 23.3366C26.0732 23.9933 26.294 24.7233 26.3414 25.4731V40.5255L14.5344 34.4545L14.5364 15Z" fill="#787DFF"/>
<path d="M26.3471 40.6817L15.7093 37.3602C14.6836 37.0498 13.7806 36.4446 13.121 35.6257C12.4575 34.8023 12.0669 33.805 12 32.764V17.4468L23.5571 21.8011C24.3306 22.0834 25.0033 22.5749 25.4946 23.2168C25.9886 23.8621 26.2816 24.6298 26.3394 25.4301V25.666L26.3471 40.6817Z" fill="#787DFF"/>
<path opacity="0.3" d="M36.7765 15.8838L30.936 22.2197C30.0156 23.1681 29.5028 24.4184 29.5013 25.7176V40.5259L36.7825 35.5648L36.7765 15.8838Z" fill="#FD739C"/>
<path opacity="0.5" d="M41.3123 15L31.6877 21.6872C31.0542 22.1186 30.5297 22.6824 30.1534 23.3366C29.7755 23.9933 29.5547 24.7233 29.5073 25.4731V40.5255L41.3143 34.4545L41.3123 15Z" fill="#FD739C"/>
<path d="M29.5013 40.6817L40.1375 37.3602C42.2192 36.7095 43.7424 34.8931 43.8488 32.764V17.4468L32.2958 21.8011C31.522 22.0832 30.8489 22.5746 30.3573 23.2165C29.863 23.8617 29.5696 24.6294 29.5114 25.4298V25.666L29.5013 40.6817Z" fill="#FD739C"/>
</g>
<defs>
<clipPath id="clip0_751_306">
<rect width="32" height="26" fill="white" transform="translate(12 15)"/>
</clipPath>
</defs>
</svg>
