<svg width="56" height="56" viewBox="0 0 56 56" fill="none" xmlns="http://www.w3.org/2000/svg">
<rect width="56" height="56" rx="28" fill="#F0F4FF"/>
<path d="M38.4998 18C39.2536 18.0009 39.9918 18.2158 40.6287 18.6191C41.1673 18.9603 41.6137 19.4254 41.9343 19.9727L30.8259 31.0811V31.082C30.4552 31.4538 30.0149 31.7489 29.53 31.9502C29.0451 32.1515 28.5248 32.2549 27.9998 32.2549C27.4749 32.2549 26.9552 32.1513 26.4705 31.9502C25.9855 31.7489 25.5443 31.4538 25.1736 31.082V31.0811L14.0652 19.9736C14.3858 19.4261 14.832 18.9605 15.3708 18.6191C15.9281 18.2662 16.5635 18.0579 17.2185 18.0107L17.5007 18H38.4998Z" fill="white" stroke="#5F2CED"/>
<path d="M42.55 20.0649L31.18 31.4349C30.7628 31.8533 30.2672 32.1852 29.7215 32.4117C29.1758 32.6381 28.5908 32.7547 28 32.7547C27.4092 32.7547 26.8242 32.6381 26.2785 32.4117C25.7328 32.1852 25.2372 31.8533 24.82 31.4349L13.45 20.0649C13.1545 20.6679 13 21.3294 13 21.9999V36.9999C13.0036 38.1923 13.4788 39.3348 14.322 40.178C15.1651 41.0211 16.3076 41.4964 17.5 41.4999H38.5C39.6924 41.4964 40.8349 41.0211 41.678 40.178C42.5212 39.3348 42.9964 38.1923 43 36.9999V21.9999C43 21.3294 42.8455 20.6679 42.55 20.0649Z" fill="#5F2CED"/>
<mask id="path-4-inside-1_319_751" fill="white">
<path d="M32 23C32.7072 23 33.3856 23.2812 33.8857 23.7812C34.3857 24.2813 34.667 24.9598 34.667 25.667V28.333H37.333C38.0402 28.333 38.7187 28.6143 39.2188 29.1143C39.7188 29.6144 40 30.2928 40 31C40 31.7072 39.7188 32.3856 39.2188 32.8857C38.7187 33.3857 38.0402 33.667 37.333 33.667H34.667V36.333C34.667 37.0402 34.3857 37.7187 33.8857 38.2188C33.3856 38.7188 32.7072 39 32 39C31.2928 39 30.6144 38.7188 30.1143 38.2188C29.6143 37.7187 29.333 37.0402 29.333 36.333V33.667H26.667C25.9598 33.667 25.2813 33.3857 24.7812 32.8857C24.2812 32.3856 24 31.7072 24 31C24 30.2928 24.2812 29.6144 24.7812 29.1143C25.2813 28.6143 25.9598 28.333 26.667 28.333H29.333V25.667C29.333 24.9598 29.6143 24.2813 30.1143 23.7812C30.6144 23.2812 31.2928 23 32 23Z"/>
</mask>
<path d="M32 23C32.7072 23 33.3856 23.2812 33.8857 23.7812C34.3857 24.2813 34.667 24.9598 34.667 25.667V28.333H37.333C38.0402 28.333 38.7187 28.6143 39.2188 29.1143C39.7188 29.6144 40 30.2928 40 31C40 31.7072 39.7188 32.3856 39.2188 32.8857C38.7187 33.3857 38.0402 33.667 37.333 33.667H34.667V36.333C34.667 37.0402 34.3857 37.7187 33.8857 38.2188C33.3856 38.7188 32.7072 39 32 39C31.2928 39 30.6144 38.7188 30.1143 38.2188C29.6143 37.7187 29.333 37.0402 29.333 36.333V33.667H26.667C25.9598 33.667 25.2813 33.3857 24.7812 32.8857C24.2812 32.3856 24 31.7072 24 31C24 30.2928 24.2812 29.6144 24.7812 29.1143C25.2813 28.6143 25.9598 28.333 26.667 28.333H29.333V25.667C29.333 24.9598 29.6143 24.2813 30.1143 23.7812C30.6144 23.2812 31.2928 23 32 23Z" fill="white"/>
<path d="M32 23L32 22L32 22L32 23ZM33.8857 23.7812L34.5929 23.0742L34.5928 23.0741L33.8857 23.7812ZM34.667 28.333H33.667V29.333H34.667V28.333ZM39.2188 29.1143L39.9259 28.4072L39.9258 28.4071L39.2188 29.1143ZM40 31L41 31V31L40 31ZM39.2188 32.8857L39.9258 33.5929L39.9259 33.5928L39.2188 32.8857ZM34.667 33.667V32.667H33.667V33.667H34.667ZM33.8857 38.2188L34.5928 38.9259L34.5929 38.9258L33.8857 38.2188ZM32 39L32 40H32V39ZM30.1143 38.2188L29.4071 38.9258L29.4072 38.9259L30.1143 38.2188ZM29.333 33.667H30.333V32.667H29.333V33.667ZM24.7812 32.8857L24.0741 33.5928L24.0742 33.5929L24.7812 32.8857ZM24 31L23 31V31H24ZM24.7812 29.1143L24.0742 28.4071L24.0741 28.4072L24.7812 29.1143ZM26.667 28.333V29.333V28.333ZM29.333 28.333V29.333H30.333V28.333H29.333ZM30.1143 23.7812L29.4072 23.0741L29.4071 23.0742L30.1143 23.7812ZM32 23V24C32.4419 24 32.866 24.1757 33.1786 24.4884L33.8857 23.7812L34.5928 23.0741C33.9053 22.3866 32.9726 22 32 22V23ZM33.8857 23.7812L33.1786 24.4883C33.4912 24.801 33.667 25.2252 33.667 25.667H34.667H35.667C35.667 24.6944 35.2802 23.7616 34.5929 23.0742L33.8857 23.7812ZM34.667 25.667H33.667V28.333H34.667H35.667V25.667H34.667ZM34.667 28.333V29.333H37.333V28.333V27.333H34.667V28.333ZM37.333 28.333V29.333C37.7748 29.333 38.199 29.5088 38.5117 29.8214L39.2188 29.1143L39.9258 28.4071C39.2384 27.7198 38.3056 27.333 37.333 27.333V28.333ZM39.2188 29.1143L38.5116 29.8214C38.8243 30.134 39 30.5581 39 31L40 31L41 31C41 30.0274 40.6134 29.0947 39.9259 28.4072L39.2188 29.1143ZM40 31H39C39 31.4419 38.8243 31.866 38.5116 32.1786L39.2188 32.8857L39.9259 33.5928C40.6134 32.9053 41 31.9726 41 31H40ZM39.2188 32.8857L38.5117 32.1786C38.199 32.4912 37.7748 32.667 37.333 32.667V33.667V34.667C38.3056 34.667 39.2384 34.2802 39.9258 33.5929L39.2188 32.8857ZM37.333 33.667V32.667H34.667V33.667V34.667H37.333V33.667ZM34.667 33.667H33.667V36.333H34.667H35.667V33.667H34.667ZM34.667 36.333H33.667C33.667 36.7748 33.4912 37.199 33.1786 37.5117L33.8857 38.2188L34.5929 38.9258C35.2802 38.2384 35.667 37.3056 35.667 36.333H34.667ZM33.8857 38.2188L33.1786 37.5116C32.866 37.8243 32.4419 38 32 38V39V40C32.9726 40 33.9053 39.6134 34.5928 38.9259L33.8857 38.2188ZM32 39L32 38C31.5581 38 31.134 37.8243 30.8214 37.5116L30.1143 38.2188L29.4072 38.9259C30.0947 39.6134 31.0274 40 32 40L32 39ZM30.1143 38.2188L30.8214 37.5117C30.5088 37.199 30.333 36.7748 30.333 36.333H29.333H28.333C28.333 37.3056 28.7198 38.2384 29.4071 38.9258L30.1143 38.2188ZM29.333 36.333H30.333V33.667H29.333H28.333V36.333H29.333ZM29.333 33.667V32.667H26.667V33.667V34.667H29.333V33.667ZM26.667 33.667V32.667C26.2252 32.667 25.801 32.4912 25.4883 32.1786L24.7812 32.8857L24.0742 33.5929C24.7616 34.2802 25.6944 34.667 26.667 34.667V33.667ZM24.7812 32.8857L25.4884 32.1786C25.1757 31.866 25 31.4419 25 31H24H23C23 31.9726 23.3866 32.9053 24.0741 33.5928L24.7812 32.8857ZM24 31L25 31C25 30.5581 25.1757 30.134 25.4884 29.8214L24.7812 29.1143L24.0741 28.4072C23.3866 29.0947 23 30.0274 23 31L24 31ZM24.7812 29.1143L25.4883 29.8214C25.801 29.5088 26.2252 29.333 26.667 29.333L26.667 28.333L26.667 27.333C25.6944 27.333 24.7616 27.7198 24.0742 28.4071L24.7812 29.1143ZM26.667 28.333V29.333H29.333V28.333V27.333H26.667V28.333ZM29.333 28.333H30.333V25.667H29.333H28.333V28.333H29.333ZM29.333 25.667H30.333C30.333 25.2252 30.5088 24.801 30.8214 24.4883L30.1143 23.7812L29.4071 23.0742C28.7198 23.7616 28.333 24.6944 28.333 25.667H29.333ZM30.1143 23.7812L30.8214 24.4884C31.134 24.1757 31.5581 24 32 24L32 23L32 22C31.0274 22 30.0947 22.3866 29.4072 23.0741L30.1143 23.7812Z" fill="#5F2CED" mask="url(#path-4-inside-1_319_751)"/>
</svg>
