<svg width="57" height="56" viewBox="0 0 57 56" fill="none" xmlns="http://www.w3.org/2000/svg">
<rect width="56.4194" height="56" rx="28" fill="#F0F4FF"/>
<path d="M16.5964 21.9448C16.2307 22.1346 15.8052 21.8255 15.8728 21.419L16.0539 20.33C16.135 19.8423 15.9706 19.346 15.6143 19.0032L14.8138 18.2327C14.5146 17.9447 14.6765 17.4386 15.0874 17.3778L16.2082 17.2121C16.6926 17.1404 17.1116 16.8369 17.3305 16.3989L17.8262 15.4073C18.0104 15.0387 18.5364 15.0387 18.7207 15.4073L19.217 16.4003C19.4354 16.8371 19.8528 17.1403 20.3357 17.2129L21.4338 17.378C21.8414 17.4393 22.004 17.9396 21.7103 18.2287L20.919 19.008C20.5711 19.3506 20.4117 19.8411 20.4918 20.3228L20.6741 21.419C20.7417 21.8255 20.3162 22.1346 19.9505 21.9448L18.9646 21.4329C18.5313 21.2079 18.0156 21.2079 17.5823 21.4329L16.5964 21.9448Z" fill="white" stroke="#5F2CED"/>
<path d="M16.5964 31.6127C16.2307 31.8026 15.8052 31.4934 15.8728 31.0869L16.0539 29.998C16.135 29.5103 15.9706 29.014 15.6143 28.6711L14.8138 27.9007C14.5146 27.6127 14.6765 27.1066 15.0874 27.0458L16.2082 26.8801C16.6926 26.8084 17.1116 26.5049 17.3305 26.0669L17.8262 25.0753C18.0104 24.7067 18.5364 24.7067 18.7207 25.0753L19.217 26.0682C19.4354 26.5051 19.8528 26.8083 20.3357 26.8809L21.4338 27.046C21.8414 27.1073 22.004 27.6076 21.7103 27.8967L20.919 28.6759C20.5711 29.0186 20.4117 29.5091 20.4918 29.9908L20.6741 31.0869C20.7417 31.4934 20.3162 31.8026 19.9505 31.6127L18.9646 31.1009C18.5313 30.8759 18.0156 30.8759 17.5823 31.1009L16.5964 31.6127Z" fill="#E7E1FF" stroke="#5F2CED"/>
<path d="M15.3799 40.6529C15.2438 41.4619 16.0861 42.0816 16.818 41.7108L17.8215 41.2024C18.1056 41.0584 18.4413 41.0584 18.7254 41.2024L19.7289 41.7108C20.4607 42.0816 21.3031 41.4619 21.167 40.6529L20.9862 39.5777C20.9321 39.2561 21.0382 38.9282 21.2707 38.6993L22.0611 37.9209C22.6484 37.3426 22.3232 36.3421 21.5082 36.2195L20.4101 36.0544C20.0881 36.006 19.8098 35.8039 19.6643 35.5126L19.1679 34.5197C18.7994 33.7825 17.7475 33.7825 17.379 34.5197L16.8833 35.5113C16.7373 35.8033 16.458 36.0056 16.1351 36.0534L15.0142 36.2192C14.1925 36.3407 13.8686 37.3529 14.4671 37.9289L15.2668 38.6985C15.5047 38.9275 15.6143 39.2593 15.5595 39.5849L15.3799 40.6529Z" fill="#5F2CED"/>
<path d="M25.3047 36.5747C25.3047 36.0224 25.7524 35.5747 26.3047 35.5747H29.6367C30.189 35.5747 30.6367 36.0224 30.6367 36.5747V39.8481C30.6367 40.4004 30.189 40.8481 29.6367 40.8481H26.3047C25.7524 40.8481 25.3047 40.4004 25.3047 39.8481V36.5747Z" fill="#5F2CED"/>
<path d="M25.8047 17.2388C25.8047 16.9626 26.0285 16.7388 26.3047 16.7388H42C42.2761 16.7388 42.5 16.9626 42.5 17.2388V20.5122C42.5 20.7883 42.2761 21.0122 42 21.0122H26.3047C26.0285 21.0122 25.8047 20.7883 25.8047 20.5122V17.2388Z" fill="white" stroke="#5F2CED"/>
<path d="M25.8047 26.9067C25.8047 26.6306 26.0285 26.4067 26.3047 26.4067H34.9102C35.1863 26.4067 35.4102 26.6306 35.4102 26.9067V30.1802C35.4102 30.4563 35.1863 30.6802 34.9102 30.6802H26.3047C26.0285 30.6802 25.8047 30.4563 25.8047 30.1802V26.9067Z" fill="#E7E1FF" stroke="#5F2CED"/>
</svg>
