<svg width="57" height="56" viewBox="0 0 57 56" fill="none" xmlns="http://www.w3.org/2000/svg">
<rect width="56.4194" height="56" rx="28" fill="#F0F4FF"/>
<path d="M34.7512 17.7476H32.4075V17.2788C32.4075 16.2447 31.5663 15.4038 30.5325 15.4038H16.9387C15.9049 15.4038 15.0637 16.2447 15.0637 17.2788V36.4976C15.0637 37.5316 15.9049 38.3726 16.9387 38.3726H20.4946L23.1698 41.0477C23.2577 41.1356 23.3769 41.1851 23.5012 41.1851H34.7512C36.0435 41.1851 37.095 40.1336 37.095 38.8413V20.0913C37.095 18.799 36.0435 17.7476 34.7512 17.7476ZM36.1575 38.8413C36.1575 39.6168 35.5267 40.2476 34.7512 40.2476H23.6953L23.5012 40.0535V37.9038C23.5012 36.8683 22.6618 36.0288 21.6262 36.0288H19.4766L19.2825 35.8347V20.0913C19.2825 19.3159 19.9133 18.6851 20.6887 18.6851H34.7512C35.5267 18.6851 36.1575 19.3159 36.1575 20.0913V38.8413Z" fill="#5F2CED"/>
<path d="M22.3507 23.8242L23.5029 23.2043L24.6551 23.8242L24.4421 22.4795L25.3672 21.5122L24.0833 21.3072L23.5029 20.0742L22.9225 21.3072L21.6172 21.5122L22.5637 22.4795L22.3507 23.8242Z" fill="#5F2CED"/>
<path d="M22.3507 29.4492L23.5029 28.8293L24.6551 29.4492L24.4421 28.1045L25.3672 27.1372L24.0833 26.9322L23.5029 25.6992L22.9225 26.9322L21.6172 27.1372L22.5637 28.1045L22.3507 29.4492Z" fill="#5F2CED"/>
<path d="M22.3507 35.0742L23.5029 34.4543L24.6551 35.0742L24.4421 33.7295L25.3672 32.7622L24.0833 32.5572L23.5029 31.3242L22.9225 32.5572L21.6172 32.7622L22.5637 33.7295L22.3507 35.0742Z" fill="#5F2CED"/>
<path d="M31.9387 21.4976H27.2512C26.6364 21.5074 26.6339 22.4247 27.2512 22.4351H31.9387C32.5534 22.4252 32.5559 21.5079 31.9387 21.4976Z" fill="#5F2CED"/>
<path d="M31.9387 27.1226H27.2512C26.6364 27.1324 26.6339 28.0497 27.2512 28.0601H31.9387C32.5534 28.0502 32.5559 27.1329 31.9387 27.1226Z" fill="#5F2CED"/>
<path d="M31.9387 32.7476H27.2512C26.6364 32.7574 26.6339 33.6747 27.2512 33.6851H31.9387C32.5534 33.6752 32.5559 32.7579 31.9387 32.7476Z" fill="#5F2CED"/>
<path d="M28.1887 37.4351H25.845C25.2295 37.4452 25.2283 38.3623 25.845 38.3726H28.1887C28.8042 38.3625 28.8054 37.4454 28.1887 37.4351Z" fill="#5F2CED"/>
<path d="M38.2917 16.2596C38.1086 16.0765 37.812 16.0765 37.6289 16.2596L36.9661 16.9225C36.783 17.1056 36.783 17.4022 36.9661 17.5853C37.1492 17.7684 37.4458 17.7684 37.6289 17.5853L38.2917 16.9225C38.4748 16.7394 38.4748 16.4427 38.2917 16.2596Z" fill="#5F2CED"/>
<path d="M35.499 16.5582C35.7283 16.6664 36.0124 16.5685 36.122 16.3316L36.5182 15.482C36.6277 15.2472 36.5263 14.9684 36.2917 14.859C36.0573 14.7501 35.778 14.8512 35.6686 15.0856L35.2724 15.9352C35.163 16.17 35.2644 16.4488 35.499 16.5582Z" fill="#5F2CED"/>
<path d="M39.0698 18.0331L38.2199 18.4291C37.9853 18.5385 37.8837 18.8173 37.9931 19.0517C38.1027 19.289 38.3866 19.387 38.6159 19.2787L39.4657 18.8827C40.0195 18.613 39.6326 17.7825 39.0698 18.0331Z" fill="#5F2CED"/>
<path d="M42.9334 27.0419C42.9334 26.6666 42.7872 26.3132 42.5217 26.0477L41.196 24.722C40.6645 24.191 39.7382 24.191 39.2072 24.722L29.9263 34.0027C29.8608 34.0681 29.8162 34.1515 29.7981 34.2421L29.1353 37.5568C29.1044 37.7106 29.1527 37.8694 29.2634 37.9802C29.3743 38.0915 29.5347 38.1391 29.6869 38.1084L33.0015 37.4455C33.0922 37.4272 33.1755 37.3828 33.241 37.3174L41.1958 29.3621L41.5274 29.6938L38.8756 32.3456C38.446 32.7756 39.103 33.4441 39.5384 33.0084L42.5217 30.0252C42.7048 29.8421 42.7048 29.5454 42.5217 29.3623L41.8588 28.6995C42.2826 28.2637 42.9868 27.7289 42.9334 27.0419Z" fill="#5F2CED"/>
</svg>
