<svg width="57" height="56" viewBox="0 0 57 56" fill="none" xmlns="http://www.w3.org/2000/svg">
<rect width="56.4194" height="56" rx="28" fill="#F0F4FF"/>
<path d="M33.8202 28.9494H37.7425C38.9353 28.9494 39.6596 27.641 39.0297 26.6277C38.3237 25.4957 37.1126 24.8232 35.7829 24.8232C34.4531 24.8232 33.239 25.4957 32.5361 26.6277C31.9032 27.641 32.6274 28.9494 33.8202 28.9494Z" fill="#5F2CED"/>
<path d="M35.783 20.3989C36.9757 20.3989 37.9464 21.3726 37.9464 22.5685C37.9464 23.7613 36.9757 24.7321 35.783 24.7321C34.5901 24.7321 33.6164 23.7613 33.6164 22.5685C33.6163 21.3726 34.59 20.3989 35.783 20.3989ZM35.783 24.1234C36.6411 24.1234 37.3379 23.4266 37.3379 22.5685C37.3379 21.7074 36.6411 21.0075 35.783 21.0075C34.9248 21.0075 34.2249 21.7074 34.2249 22.5685C34.2249 23.4266 34.9248 24.1234 35.783 24.1234Z" fill="#5F2CED"/>
<path d="M27.9991 13.394C29.1949 13.394 30.1656 14.3678 30.1656 15.5637C30.1656 16.7564 29.1949 17.7272 27.9991 17.7272C26.8063 17.7272 25.8356 16.7564 25.8356 15.5637C25.8356 14.3678 26.8063 13.394 27.9991 13.394ZM27.9991 17.1186C28.8572 17.1186 29.557 16.4218 29.557 15.5637C29.557 14.7025 28.8572 14.0027 27.9991 14.0027C27.141 14.0027 26.4442 14.7025 26.4442 15.5637C26.4442 16.4218 27.141 17.1186 27.9991 17.1186Z" fill="#5F2CED"/>
<path d="M20.2183 25.3071C21.4112 25.3071 22.3818 26.2778 22.3818 27.4737C22.3818 28.6665 21.4111 29.6403 20.2183 29.6403C19.0255 29.6403 18.0549 28.6665 18.0549 27.4737C18.0549 26.2778 19.0255 25.3071 20.2183 25.3071ZM20.2183 29.0316C21.0764 29.0316 21.7733 28.3317 21.7733 27.4737C21.7733 26.6156 21.0764 25.9157 20.2183 25.9157C19.3602 25.9157 18.6634 26.6156 18.6634 27.4737C18.6634 28.3317 19.3603 29.0316 20.2183 29.0316Z" fill="#5F2CED"/>
<path d="M26.0364 22.249H29.9617C31.1515 22.249 31.8757 20.9405 31.2458 19.9273C30.5429 18.7953 29.3288 18.1228 27.9991 18.1228C26.6724 18.1228 25.4583 18.7953 24.7523 19.9273C24.1224 20.9375 24.8436 22.249 26.0364 22.249Z" fill="#5F2CED"/>
<mask id="path-7-inside-1_296_1433" fill="white">
<path d="M34.091 30.2244H37.4748C38.2203 30.2244 38.8258 30.8329 38.8258 31.5785V41.2549C38.8258 42.0004 38.2203 42.6059 37.4748 42.6059H34.091C33.3425 42.6059 32.7369 42.0004 32.7369 41.2549V31.5785C32.7369 30.833 33.3425 30.2244 34.091 30.2244ZM33.3455 41.2549C33.3455 41.6657 33.6802 41.9974 34.091 41.9974H37.4748C37.8856 41.9974 38.2173 41.6657 38.2173 41.2549V31.5785C38.2173 31.1677 37.8856 30.8329 37.4748 30.8329H34.091C33.6802 30.8329 33.3455 31.1677 33.3455 31.5785V41.2549Z"/>
</mask>
<path d="M34.091 30.2244H37.4748C38.2203 30.2244 38.8258 30.8329 38.8258 31.5785V41.2549C38.8258 42.0004 38.2203 42.6059 37.4748 42.6059H34.091C33.3425 42.6059 32.7369 42.0004 32.7369 41.2549V31.5785C32.7369 30.833 33.3425 30.2244 34.091 30.2244ZM33.3455 41.2549C33.3455 41.6657 33.6802 41.9974 34.091 41.9974H37.4748C37.8856 41.9974 38.2173 41.6657 38.2173 41.2549V31.5785C38.2173 31.1677 37.8856 30.8329 37.4748 30.8329H34.091C33.6802 30.8329 33.3455 31.1677 33.3455 31.5785V41.2549Z" fill="#E7E1FF"/>
<path d="M34.091 29.2244H37.4748V31.2244H34.091V29.2244ZM37.4748 29.2244C38.7755 29.2244 39.8258 30.2836 39.8258 31.5785H37.8258C37.8258 31.3823 37.6651 31.2244 37.4748 31.2244V29.2244ZM39.8258 31.5785V41.2549H37.8258V31.5785H39.8258ZM39.8258 41.2549C39.8258 42.5527 38.7726 43.6059 37.4748 43.6059V41.6059C37.668 41.6059 37.8258 41.4481 37.8258 41.2549H39.8258ZM37.4748 43.6059H34.091V41.6059H37.4748V43.6059ZM34.091 43.6059C32.7917 43.6059 31.7369 42.5542 31.7369 41.2549H33.7369C33.7369 41.4466 33.8933 41.6059 34.091 41.6059V43.6059ZM31.7369 41.2549V31.5785H33.7369V41.2549H31.7369ZM31.7369 31.5785C31.7369 30.2822 32.7887 29.2244 34.091 29.2244V31.2244C33.8962 31.2244 33.7369 31.3838 33.7369 31.5785H31.7369ZM34.3455 41.2549C34.3455 41.1082 34.2273 40.9974 34.091 40.9974V42.9974C33.1332 42.9974 32.3455 42.2232 32.3455 41.2549H34.3455ZM34.091 40.9974H37.4748V42.9974H34.091V40.9974ZM37.4748 40.9974C37.3333 40.9974 37.2173 41.1134 37.2173 41.2549H39.2173C39.2173 42.2181 38.4378 42.9974 37.4748 42.9974V40.9974ZM37.2173 41.2549V31.5785H39.2173V41.2549H37.2173ZM37.2173 31.5785C37.2173 31.7146 37.3279 31.8329 37.4748 31.8329V29.8329C38.4432 29.8329 39.2173 30.6207 39.2173 31.5785H37.2173ZM37.4748 31.8329H34.091V29.8329H37.4748V31.8329ZM34.091 31.8329C34.2326 31.8329 34.3455 31.7198 34.3455 31.5785H32.3455C32.3455 30.6155 33.1278 29.8329 34.091 29.8329V31.8329ZM34.3455 31.5785V41.2549H32.3455V31.5785H34.3455Z" fill="#5F2CED" mask="url(#path-7-inside-1_296_1433)"/>
<path d="M25.3312 25.2887V41.2548C25.3312 41.7932 25.7688 42.2308 26.3072 42.2308H29.6909C30.2329 42.2308 30.67 41.7926 30.67 41.2548V25.2887C30.67 24.7497 30.2319 24.3096 29.6909 24.3096H26.3072C26.3072 24.3096 26.3072 24.3096 26.3072 24.3096C25.7699 24.3096 25.3312 24.7492 25.3312 25.2887Z" fill="#E7E1FF" stroke="#5F2CED" stroke-width="0.75"/>
<mask id="path-10-inside-2_296_1433" fill="white">
<path d="M18.5266 35.4673H21.9103C22.6558 35.4673 23.2644 36.0728 23.2644 36.8214V41.2549C23.2644 42.0004 22.6559 42.6059 21.9103 42.6059H18.5266C17.781 42.6059 17.1725 42.0004 17.1725 41.2549V36.8214C17.1725 36.0729 17.7811 35.4673 18.5266 35.4673ZM17.7811 41.2549C17.7811 41.6657 18.1158 41.9974 18.5266 41.9974H21.9104C22.3212 41.9974 22.6559 41.6657 22.6559 41.2549V36.8214C22.6559 36.4106 22.3212 36.0758 21.9104 36.0758H18.5266C18.1158 36.0758 17.7811 36.4106 17.7811 36.8214V41.2549Z"/>
</mask>
<path d="M18.5266 35.4673H21.9103C22.6558 35.4673 23.2644 36.0728 23.2644 36.8214V41.2549C23.2644 42.0004 22.6559 42.6059 21.9103 42.6059H18.5266C17.781 42.6059 17.1725 42.0004 17.1725 41.2549V36.8214C17.1725 36.0729 17.7811 35.4673 18.5266 35.4673ZM17.7811 41.2549C17.7811 41.6657 18.1158 41.9974 18.5266 41.9974H21.9104C22.3212 41.9974 22.6559 41.6657 22.6559 41.2549V36.8214C22.6559 36.4106 22.3212 36.0758 21.9104 36.0758H18.5266C18.1158 36.0758 17.7811 36.4106 17.7811 36.8214V41.2549Z" fill="#E7E1FF"/>
<path d="M18.5266 34.4673H21.9103V36.4673H18.5266V34.4673ZM21.9103 34.4673C23.2066 34.4673 24.2644 35.519 24.2644 36.8214H22.2644C22.2644 36.6266 22.105 36.4673 21.9103 36.4673V34.4673ZM24.2644 36.8214V41.2549H22.2644V36.8214H24.2644ZM24.2644 41.2549C24.2644 42.5556 23.2052 43.6059 21.9103 43.6059V41.6059C22.1065 41.6059 22.2644 41.4452 22.2644 41.2549H24.2644ZM21.9103 43.6059H18.5266V41.6059H21.9103V43.6059ZM18.5266 43.6059C17.2317 43.6059 16.1725 42.5556 16.1725 41.2549H18.1725C18.1725 41.4452 18.3304 41.6059 18.5266 41.6059V43.6059ZM16.1725 41.2549V36.8214H18.1725V41.2549H16.1725ZM16.1725 36.8214C16.1725 35.5191 17.2303 34.4673 18.5266 34.4673V36.4673C18.3319 36.4673 18.1725 36.6266 18.1725 36.8214H16.1725ZM18.7811 41.2549C18.7811 41.1081 18.6628 40.9974 18.5266 40.9974V42.9974C17.5689 42.9974 16.7811 42.2233 16.7811 41.2549H18.7811ZM18.5266 40.9974H21.9104V42.9974H18.5266V40.9974ZM21.9104 40.9974C21.7742 40.9974 21.6559 41.1082 21.6559 41.2549H23.6559C23.6559 42.2233 22.8682 42.9974 21.9104 42.9974V40.9974ZM21.6559 41.2549V36.8214H23.6559V41.2549H21.6559ZM21.6559 36.8214C21.6559 36.9628 21.7688 37.0758 21.9104 37.0758V35.0758C22.8736 35.0758 23.6559 35.8584 23.6559 36.8214H21.6559ZM21.9104 37.0758H18.5266V35.0758H21.9104V37.0758ZM18.5266 37.0758C18.6681 37.0758 18.7811 36.9629 18.7811 36.8214H16.7811C16.7811 35.8583 17.5635 35.0758 18.5266 35.0758V37.0758ZM18.7811 36.8214V41.2549H16.7811V36.8214H18.7811Z" fill="#5F2CED" mask="url(#path-10-inside-2_296_1433)"/>
<path d="M18.2557 33.8546H22.181C23.3678 33.8546 24.095 32.5492 23.4651 31.5329C22.7622 30.404 21.5481 29.7285 20.2183 29.7285C18.8886 29.7285 17.6745 30.404 16.9716 31.5329C16.3387 32.5462 17.0659 33.8546 18.2557 33.8546Z" fill="#5F2CED"/>
</svg>
