<svg width="57" height="56" viewBox="0 0 57 56" fill="none" xmlns="http://www.w3.org/2000/svg">
<rect width="56.4194" height="56" rx="28" fill="#F0F4FF"/>
<path d="M16.2918 29.5481C15.8592 29.5472 15.4307 29.6285 15.0309 29.7872C14.6311 29.9459 14.2679 30.179 13.962 30.4731C13.6562 30.7672 13.4137 31.1165 13.2487 31.5009C13.0836 31.8854 12.9991 32.2974 13 32.7132V42.4151C13.0045 42.5689 13.07 42.7151 13.1832 42.8239C13.2963 42.9326 13.4484 42.9956 13.6083 43C15.1921 42.9972 16.7103 42.391 17.8303 41.3141C18.9502 40.2373 19.5807 38.7775 19.5835 37.2545V32.7132C19.5844 32.2974 19.4999 31.8854 19.3348 31.5009C19.1697 31.1165 18.9273 30.7672 18.6215 30.4731C18.3156 30.179 17.9524 29.9459 17.5526 29.7872C17.1528 29.6285 16.7243 29.5472 16.2918 29.5481Z" fill="#5F2CED"/>
<path fill-rule="evenodd" clip-rule="evenodd" d="M35.3984 13C34.9659 12.9991 34.5374 13.0803 34.1376 13.2391C33.7378 13.3978 33.3746 13.6309 33.0687 13.925C32.7629 14.2191 32.5204 14.5684 32.3553 14.9528C32.1902 15.3372 32.1057 15.7492 32.1067 16.1651V25.1995C32.7171 25.0688 33.3505 25 34 25C35.7184 25 37.3244 25.4816 38.6902 26.3172V16.1651C38.6911 15.7492 38.6066 15.3372 38.4415 14.9528C38.2765 14.5684 38.034 14.2191 37.7282 13.925C37.4223 13.6309 37.059 13.3978 36.6593 13.2391C36.2595 13.0803 35.831 12.9991 35.3984 13ZM29.1362 26.4261C26.648 28.0273 25 30.8212 25 34C25 36.5679 26.0755 38.8846 27.8005 40.5243C27.6701 40.6791 27.5308 40.8279 27.383 40.97C26.263 42.0469 24.7448 42.6531 23.161 42.6558C23.0011 42.6515 22.849 42.5885 22.7359 42.4797C22.6228 42.371 22.5572 42.2247 22.5527 42.071V23.7682C22.5518 23.3523 22.6363 22.9403 22.8014 22.5559C22.9665 22.1715 23.2089 21.8222 23.5147 21.5281C23.8206 21.234 24.1839 21.0009 24.5837 20.8421C24.9835 20.6834 25.4119 20.6021 25.8445 20.603C26.277 20.6021 26.7055 20.6834 27.1053 20.8421C27.5051 21.0009 27.8683 21.234 28.1742 21.5281C28.4801 21.8222 28.7225 22.1715 28.8876 22.5559C29.0527 22.9403 29.1372 23.3523 29.1362 23.7682V26.4261Z" fill="#5F2CED"/>
<path fill-rule="evenodd" clip-rule="evenodd" d="M34 42C38.4183 42 42 38.4183 42 34C42 29.5817 38.4183 26 34 26C29.5817 26 26 29.5817 26 34C26 38.4183 29.5817 42 34 42ZM33.9966 38.7999C34.0813 38.7999 34.166 38.7807 34.2443 38.7488C34.329 38.7168 34.4007 38.6721 34.4594 38.6083L37.5425 35.5935C37.7967 35.3444 37.7967 34.9356 37.5425 34.6865C37.2883 34.4374 36.8711 34.4374 36.6169 34.6865L34.6484 36.6154V29.8386C34.6484 29.4809 34.3616 29.1999 33.9966 29.1999C33.6381 29.1999 33.3447 29.4809 33.3447 29.8386V36.6154L31.3762 34.6865C31.122 34.4374 30.7114 34.4374 30.4572 34.6865C30.2029 34.9356 30.2029 35.3444 30.4572 35.5935L33.5403 38.6083C33.599 38.6721 33.6707 38.7168 33.7489 38.7488C33.8271 38.7807 33.9118 38.7999 33.9966 38.7999Z" fill="#5F2CED"/>
</svg>
