<svg width="57" height="56" viewBox="0 0 57 56" fill="none" xmlns="http://www.w3.org/2000/svg">
<rect width="56.4194" height="56" rx="28" fill="#F0F4FF"/>
<path d="M42.1023 17.0386H13.8775C13.6455 17.0404 13.4236 17.1333 13.2594 17.2972C13.0953 17.4611 13.0021 17.683 13 17.9149V38.0853C13.0021 38.3173 13.0953 38.5391 13.2594 38.703C13.4236 38.867 13.6455 38.9598 13.8775 38.9617H42.1225C42.3545 38.9598 42.5764 38.867 42.7406 38.703C42.9047 38.5391 42.9979 38.3173 43 38.0853V17.9149C42.9899 17.6821 42.8915 17.4618 42.7247 17.299C42.5579 17.1362 42.3353 17.0431 42.1023 17.0386ZM22.9335 20.6426H31.5106V21.9568H22.9335V20.6426ZM22.9335 23.072H31.5106V24.3863H22.9335V23.072ZM22.9335 25.2643H31.5106V26.5786H22.9335V25.2643ZM15.4733 20.6426H22.0577V26.5578H15.4733V20.6426ZM40.4863 36.2138H15.4733V31.5943H40.4869L40.4863 36.2138ZM40.4863 30.0811H15.4733V28.1097H40.4869L40.4863 30.0811ZM40.4863 26.5567H32.1487V25.2424H40.4869L40.4863 26.5567ZM40.4863 24.3643H32.1487V23.072H40.4869L40.4863 24.3643ZM40.4863 21.9747H32.1487V20.7026H40.4869L40.4863 21.9747Z" fill="#2160B5"/>
</svg>
