<svg width="57" height="56" viewBox="0 0 57 56" fill="none" xmlns="http://www.w3.org/2000/svg">
<rect width="56.4194" height="56" rx="28" fill="#F0F4FF"/>
<g clip-path="url(#clip0_783_320)">
<path d="M10.7342 36.9499C14.5635 36.9499 17.6711 33.6877 17.6711 29.662V24.1972C17.6711 23.1884 16.8963 22.374 15.9368 22.374C14.9773 22.374 14.2026 23.1884 14.2026 24.1972V29.662C14.2026 31.6748 12.6489 33.3082 10.7342 33.3082C9.77467 33.3082 9 34.1226 9 35.1267C9 36.1308 9.77467 36.9499 10.7342 36.9499Z" fill="#1E293B"/>
<path d="M39.8372 33.3082C37.9226 33.3082 36.3688 31.6748 36.3688 29.662V29.4861H37.7465C38.706 29.4861 39.4851 28.6671 39.4851 27.6584C39.4851 26.6496 38.706 25.8306 37.7465 25.8306H36.3688V24.1972C36.3688 23.193 35.5942 22.374 34.6346 22.374C33.6751 22.374 32.9004 23.1884 32.9004 24.1972V29.662C32.9004 33.6877 36.0079 36.9499 39.8372 36.9499C40.7968 36.9499 41.5714 36.1355 41.5714 35.1267C41.5714 34.118 40.7968 33.3082 39.8372 33.3082Z" fill="#1E293B"/>
<path d="M31.9057 27.1079C31.9057 27.1033 31.9057 27.1033 31.9057 27.1079C31.9101 27.1033 31.9145 27.1033 31.9145 27.1033C31.3687 25.5948 30.3476 24.2714 28.9215 23.4015C25.6115 21.384 21.386 22.5779 19.4802 26.0668C17.5699 29.5511 18.7055 34.0072 22.011 36.0201C24.4451 37.5007 27.3765 37.2416 29.5157 35.6128L29.5025 35.5943C29.9955 35.275 30.3212 34.7013 30.3212 34.0488C30.3212 33.0447 29.5465 32.2303 28.5914 32.2303C28.1292 32.2303 27.7066 32.42 27.3986 32.7347C26.3598 33.4704 24.9777 33.5861 23.8113 32.9105L30.7965 29.5002C31.2015 29.3707 31.5624 29.0838 31.7869 28.6673C32.0598 28.1722 32.0862 27.603 31.9057 27.1079ZM27.1917 26.5527C27.3986 26.6776 27.5834 26.8211 27.7551 26.9784L22.0066 29.7779C21.9934 29.1347 22.1431 28.4822 22.4688 27.8853C23.4239 26.1455 25.5367 25.5486 27.1917 26.5527Z" fill="#1E293B"/>
<path d="M46.072 19.0016C46.8503 18.9558 47.2943 19.9213 46.7772 20.5351L42.1738 25.9982C41.6347 26.638 40.6301 26.229 40.6406 25.3741L40.668 23.1575C40.6716 22.867 40.545 22.5918 40.3263 22.4145L38.6574 21.0615C38.0137 20.5397 38.3324 19.457 39.1437 19.4092L46.072 19.0016Z" fill="#4272F9"/>
</g>
<defs>
<clipPath id="clip0_783_320">
<rect width="38" height="18" fill="white" transform="translate(9 19)"/>
</clipPath>
</defs>
</svg>
