<svg width="57" height="56" viewBox="0 0 57 56" fill="none" xmlns="http://www.w3.org/2000/svg">
<rect width="56.4194" height="56" rx="28" fill="#F0F4FF"/>
<g clip-path="url(#clip0_291_735)">
<path d="M32.6586 27.3124C32.6586 25.6249 34.0288 24.2547 35.7163 24.2547C37.4038 24.2547 38.774 25.6249 38.774 27.3124V34.5672C38.774 35.7211 39.7115 36.6586 40.8653 36.6586C42.0192 36.6586 42.9567 35.7211 42.9567 34.5672V27.3124C42.9567 23.3172 39.7115 20.072 35.7163 20.072C33.6971 20.072 31.8798 20.8941 30.5673 22.2355C31.8653 23.548 32.6586 25.3364 32.6586 27.3124Z" fill="#20D1CC"/>
<path d="M28.4903 27.3124C28.4903 25.3364 29.2836 23.548 30.5816 22.2355C29.2691 20.9086 27.4518 20.072 25.4326 20.072C23.4134 20.072 21.5961 20.8941 20.2836 22.2355C21.5672 23.5336 22.3605 25.322 22.3749 27.298C22.3893 25.6105 23.7595 24.2547 25.4326 24.2547C27.1201 24.2547 28.4903 25.6249 28.4903 27.3124Z" fill="#05D0E0"/>
<path d="M32.6585 34.5673V27.3125C32.6585 25.3366 31.8653 23.5481 30.5672 22.2356C29.2835 23.5481 28.4758 25.3366 28.4758 27.3125V34.5673C28.4758 35.1442 28.7066 35.6635 29.0816 36.0385C29.4566 36.4135 29.9758 36.6442 30.5528 36.6442C31.721 36.6587 32.6585 35.7212 32.6585 34.5673Z" fill="#01A9B2"/>
<path d="M15.1202 20.072C13.9663 20.072 13.0288 21.0095 13.0288 22.1634C13.0288 23.3172 13.9663 24.2547 15.1202 24.2547C16.8077 24.2547 18.1778 25.6249 18.1778 27.298C18.1778 25.322 18.9711 23.548 20.2692 22.2355C18.9567 20.9086 17.1394 20.072 15.1202 20.072Z" fill="#0282C9"/>
<path d="M18.1923 27.2981V27.3125V34.5673C18.1923 35.7212 19.1298 36.6587 20.2836 36.6587C20.6442 36.6587 20.9759 36.5721 21.2788 36.4135C21.9278 36.0673 22.375 35.375 22.375 34.5817V27.3269V27.3125C22.375 25.3365 21.5817 23.5625 20.2836 22.25C18.9855 23.5337 18.1923 25.3221 18.1923 27.2981Z" fill="#016BB1"/>
<path d="M15.1202 24.2547C16.2752 24.2547 17.2115 23.3184 17.2115 22.1634C17.2115 21.0083 16.2752 20.072 15.1202 20.072C13.9651 20.072 13.0288 21.0083 13.0288 22.1634C13.0288 23.3184 13.9651 24.2547 15.1202 24.2547Z" fill="#06429E"/>
<path d="M20.2691 36.6585C21.4241 36.6585 22.3604 35.7222 22.3604 34.5672C22.3604 33.4122 21.4241 32.4758 20.2691 32.4758C19.1141 32.4758 18.1777 33.4122 18.1777 34.5672C18.1777 35.7222 19.1141 36.6585 20.2691 36.6585Z" fill="#01569A"/>
<path d="M30.5672 36.6585C31.7222 36.6585 32.6585 35.7222 32.6585 34.5672C32.6585 33.4122 31.7222 32.4758 30.5672 32.4758C29.4122 32.4758 28.4758 33.4122 28.4758 34.5672C28.4758 35.7222 29.4122 36.6585 30.5672 36.6585Z" fill="#008C9D"/>
<path d="M40.8797 36.6585C42.0347 36.6585 42.971 35.7222 42.971 34.5672C42.971 33.4122 42.0347 32.4758 40.8797 32.4758C39.7247 32.4758 38.7883 33.4122 38.7883 34.5672C38.7883 35.7222 39.7247 36.6585 40.8797 36.6585Z" fill="#03ABA3"/>
</g>
<defs>
<clipPath id="clip0_291_735">
<rect width="30" height="16.7308" fill="white" transform="translate(13 20)"/>
</clipPath>
</defs>
</svg>
