<svg width="30" height="28" viewBox="0 0 30 28" fill="none" xmlns="http://www.w3.org/2000/svg">
<g clip-path="url(#clip0_746_301)">
<path d="M29.9163 10.1429L23.6815 10.6364V2.85099C23.6815 1.26102 22.4236 0 20.8375 0H2.78928C1.25791 0 0 1.26102 0 2.85099V15.7901L8.03967 20.7245L29.9163 10.1429Z" fill="url(#paint0_linear_746_301)"/>
<path d="M8.09436 26.1523L0 15.7353V24.672C0 26.262 1.25791 27.523 2.84397 27.523H20.8922C22.4783 27.523 23.7362 26.262 23.7362 24.672V17.7091L29.971 10.1978L8.09436 26.1523Z" fill="url(#paint1_linear_746_301)"/>
<g opacity="0.2">
<path opacity="0.2" d="M18.8685 4.71533H9.13348V6.03118H18.8685V4.71533Z" fill="black"/>
<path opacity="0.2" d="M6.07077 6.63406C6.73529 6.63406 7.27399 6.09403 7.27399 5.42787C7.27399 4.76171 6.73529 4.22168 6.07077 4.22168C5.40625 4.22168 4.86755 4.76171 4.86755 5.42787C4.86755 6.09403 5.40625 6.63406 6.07077 6.63406Z" fill="black"/>
<path opacity="0.2" d="M18.8685 9.54004H9.13348V10.8559H18.8685V9.54004Z" fill="black"/>
<path opacity="0.2" d="M6.07077 11.4041C6.73529 11.4041 7.27399 10.864 7.27399 10.1979C7.27399 9.53173 6.73529 8.9917 6.07077 8.9917C5.40625 8.9917 4.86755 9.53173 4.86755 10.1979C4.86755 10.864 5.40625 11.4041 6.07077 11.4041Z" fill="black"/>
<path opacity="0.2" d="M15.8606 14.3096H9.13348V15.6255H15.8606V14.3096Z" fill="black"/>
<path opacity="0.2" d="M6.07077 16.1741C6.73529 16.1741 7.27399 15.6341 7.27399 14.9679C7.27399 14.3018 6.73529 13.7617 6.07077 13.7617C5.40625 13.7617 4.86755 14.3018 4.86755 14.9679C4.86755 15.6341 5.40625 16.1741 6.07077 16.1741Z" fill="black"/>
</g>
<path d="M18.8685 3.39941H9.13348V4.71526H18.8685V3.39941Z" fill="white"/>
<path d="M6.07077 5.26345C6.73529 5.26345 7.27399 4.72341 7.27399 4.05726C7.27399 3.3911 6.73529 2.85107 6.07077 2.85107C5.40625 2.85107 4.86755 3.3911 4.86755 4.05726C4.86755 4.72341 5.40625 5.26345 6.07077 5.26345Z" fill="white"/>
<path d="M18.8685 8.16895H9.13348V9.48479H18.8685V8.16895Z" fill="white"/>
<path d="M6.07077 10.0335C6.73529 10.0335 7.27399 9.49343 7.27399 8.82728C7.27399 8.16112 6.73529 7.62109 6.07077 7.62109C5.40625 7.62109 4.86755 8.16112 4.86755 8.82728C4.86755 9.49343 5.40625 10.0335 6.07077 10.0335Z" fill="white"/>
<path d="M15.8606 12.939H9.13348V14.2548H15.8606V12.939Z" fill="white"/>
<path d="M6.07077 14.803C6.73529 14.803 7.27399 14.263 7.27399 13.5968C7.27399 12.9306 6.73529 12.3906 6.07077 12.3906C5.40625 12.3906 4.86755 12.9306 4.86755 13.5968C4.86755 14.263 5.40625 14.803 6.07077 14.803Z" fill="white"/>
</g>
<defs>
<linearGradient id="paint0_linear_746_301" x1="5.44652" y1="19.3688" x2="19.7723" y2="-0.651042" gradientUnits="userSpaceOnUse">
<stop stop-color="#F8003C"/>
<stop offset="1" stop-color="#FF8438"/>
</linearGradient>
<linearGradient id="paint1_linear_746_301" x1="0.596248" y1="25.8131" x2="23.1456" y2="16.5626" gradientUnits="userSpaceOnUse">
<stop offset="0.1645" stop-color="#0099AC"/>
<stop offset="0.9996" stop-color="#00D5C9"/>
</linearGradient>
<clipPath id="clip0_746_301">
<rect width="30" height="28" fill="white"/>
</clipPath>
</defs>
</svg>
