<svg width="57" height="56" viewBox="0 0 57 56" fill="none" xmlns="http://www.w3.org/2000/svg">
<rect width="56.4194" height="56" rx="28" fill="#FFD79C"/>
<path d="M32.3891 20.79H28.5378H23.2142H18.9786C17.3404 20.79 16.0156 22.106 16.0156 23.7265V38.1228C16.0156 39.7464 17.3435 41.0593 18.9786 41.0593H23.2142H28.5378H30.5264C31.553 41.0593 32.3891 40.2338 32.3891 39.2133V37.8151" fill="#A3754E"/>
<path d="M32.3891 20.79H28.5378H23.2142H18.9786C17.3404 20.79 16.0156 22.106 16.0156 23.7265V38.1228C16.0156 39.7464 17.3435 41.0593 18.9786 41.0593H23.2142H28.5378H30.5264C31.553 41.0593 32.3891 40.2338 32.3891 39.2133V37.8151" stroke="#7B4B2C" stroke-width="2" stroke-miterlimit="10" stroke-linecap="round"/>
<path d="M22.6177 37.763H37.2207C38.527 37.763 39.5874 36.7121 39.5874 35.4174V19.8363C39.5874 18.5417 38.527 17.4907 37.2207 17.4907H22.6177C21.3114 17.4907 20.251 18.5417 20.251 19.8363V35.4205C20.251 36.7151 21.3114 37.763 22.6177 37.763Z" fill="#FFD79C" stroke="#7B4B2C" stroke-width="2" stroke-miterlimit="10"/>
<path d="M27.4895 20.79H32.14" stroke="#7B4B2C" stroke-width="2" stroke-miterlimit="10" stroke-linecap="round"/>
<path d="M25.7253 14.999V17.4603" stroke="#7B4B2C" stroke-width="2" stroke-miterlimit="10" stroke-linecap="round"/>
<path d="M33.9043 14.999V17.4603" stroke="#7B4B2C" stroke-width="2" stroke-miterlimit="10" stroke-linecap="round"/>
<path d="M25.6146 27.153H23.5307C23.1987 27.153 22.9282 26.885 22.9282 26.556V24.3353C22.9282 24.0063 23.1987 23.7383 23.5307 23.7383H25.6146C25.9466 23.7383 26.217 24.0063 26.217 24.3353V26.556C26.217 26.888 25.9466 27.153 25.6146 27.153Z" fill="#7B4B2C"/>
<path d="M30.889 27.153H28.8051C28.4731 27.153 28.2026 26.885 28.2026 26.556V24.3353C28.2026 24.0063 28.4731 23.7383 28.8051 23.7383H30.889C31.221 23.7383 31.4915 24.0063 31.4915 24.3353V26.556C31.4884 26.888 31.221 27.153 30.889 27.153Z" fill="#7B4B2C"/>
<path d="M36.1605 27.153H34.0766C33.7446 27.153 33.4741 26.885 33.4741 26.556V24.3353C33.4741 24.0063 33.7446 23.7383 34.0766 23.7383H36.1605C36.4925 23.7383 36.7629 24.0063 36.7629 24.3353V26.556C36.7599 26.888 36.4925 27.153 36.1605 27.153Z" fill="#7B4B2C"/>
<path d="M25.6146 33.4343H23.5307C23.1987 33.4343 22.9282 33.1662 22.9282 32.8372V30.6166C22.9282 30.2876 23.1987 30.0195 23.5307 30.0195H25.6146C25.9466 30.0195 26.217 30.2876 26.217 30.6166V32.8372C26.217 33.1693 25.9466 33.4343 25.6146 33.4343Z" fill="#7B4B2C"/>
<path opacity="0.19" d="M32.7488 35.3686C34.5736 35.3686 36.053 33.9025 36.053 32.094C36.053 30.2854 34.5736 28.8193 32.7488 28.8193C30.9239 28.8193 29.4446 30.2854 29.4446 32.094C29.4446 33.9025 30.9239 35.3686 32.7488 35.3686Z" fill="#A3754E"/>
<path d="M31.759 31.5642L33.1852 32.8893C33.3143 33.0111 33.5141 32.9898 33.6217 32.8497L35.9515 29.7456" stroke="#A3754E" stroke-width="2.94118" stroke-miterlimit="10" stroke-linecap="round"/>
</svg>
