<svg width="30" height="30" viewBox="0 0 30 30" fill="none" xmlns="http://www.w3.org/2000/svg">
<g clip-path="url(#clip0_783_390)">
<mask id="mask0_783_390" style="mask-type:luminance" maskUnits="userSpaceOnUse" x="0" y="0" width="30" height="30">
<path d="M30 0H0V30H30V0Z" fill="white"/>
</mask>
<g mask="url(#mask0_783_390)">
<mask id="mask1_783_390" style="mask-type:luminance" maskUnits="userSpaceOnUse" x="0" y="0" width="30" height="30">
<path d="M30 0H0V30H30V0Z" fill="white"/>
</mask>
<g mask="url(#mask1_783_390)">
<path d="M30 0H0V30H30V0Z" fill="#D54407"/>
<path d="M8.57153 6.42773H21.4288V10.7135H10.7144L8.57153 12.8563V10.7135V6.42773Z" fill="white"/>
<path d="M8.57153 6.42773H21.4288V10.7135H10.7144L8.57153 12.8563V10.7135V6.42773Z" fill="white"/>
<path d="M8.57153 12.8569H19.2858V17.1426H10.7144L8.57153 19.2855V17.1426V12.8569Z" fill="white"/>
<path d="M8.57153 12.8569H19.2858V17.1426H10.7144L8.57153 19.2855V17.1426V12.8569Z" fill="white"/>
<path d="M8.57153 19.2856H15.0001V23.5712H8.57153V19.2856Z" fill="white"/>
<path d="M8.57153 19.2856H15.0001V23.5712H8.57153V19.2856Z" fill="white"/>
</g>
</g>
</g>
<defs>
<clipPath id="clip0_783_390">
<rect width="30" height="30" fill="white"/>
</clipPath>
</defs>
</svg>
