<svg width="57" height="56" viewBox="0 0 57 56" fill="none" xmlns="http://www.w3.org/2000/svg">
<rect width="56.4194" height="56" rx="28" fill="#F0F4FF"/>
<g clip-path="url(#clip0_302_1674)">
<mask id="mask0_302_1674" style="mask-type:luminance" maskUnits="userSpaceOnUse" x="14" y="13" width="30" height="30">
<path d="M14 13.1956H44V42.9667H14V13.1956Z" fill="white"/>
</mask>
<g mask="url(#mask0_302_1674)">
<path d="M44 28.081C44 19.8632 37.2812 13.1956 29 13.1956C20.7189 13.1956 14 19.8632 14 28.081C14 36.2989 20.7189 42.9667 29 42.9667C37.2812 42.9667 44 36.2989 44 28.081Z" fill="#66BB6A"/>
<mask id="mask1_302_1674" style="mask-type:alpha" maskUnits="userSpaceOnUse" x="14" y="13" width="30" height="30">
<path d="M44 28.081C44 19.8632 37.2812 13.1956 29 13.1956C20.7189 13.1956 14 19.8632 14 28.081C14 36.2989 20.7189 42.9667 29 42.9667C37.2812 42.9667 44 36.2989 44 28.081Z" fill="black"/>
</mask>
<g mask="url(#mask1_302_1674)">
<path d="M31.1301 29.1382C31.1922 29.2703 31.3165 29.3849 31.3165 29.3849C33.9704 29.7108 37.7247 29.3496 40.5916 28.9621C38.9497 32.4588 36.0206 34.8018 33.3136 34.8018C28.2721 34.8018 24.3668 28.7243 24.3668 28.7243C25.9289 27.3502 28.5118 22.8846 32.2396 22.8846C35.9674 22.8846 37.5828 24.9104 37.5828 24.9104L38 24.2586C38 24.2586 36.2603 18.2163 31.3343 18.2163C26.4082 18.2163 21.1804 26.2228 18.1183 28.0725C18.1183 28.0725 22.3254 37.9638 31.5118 37.9638C39.2337 37.9638 41.1685 30.6444 41.5324 28.8299C42.5621 28.6802 43.4141 28.5305 43.9823 28.4336C44.1685 28.0108 44.3815 27.2797 44.2218 26.302C41.1685 27.4647 36.5088 28.7859 31.0414 28.7859C31.0414 28.7859 31.0591 28.9709 31.1301 29.1382Z" fill="white"/>
</g>
</g>
</g>
<defs>
<clipPath id="clip0_302_1674">
<rect width="30" height="30" fill="white" transform="translate(14 13)"/>
</clipPath>
</defs>
</svg>
