<svg width="57" height="56" viewBox="0 0 57 56" fill="none" xmlns="http://www.w3.org/2000/svg">
<rect width="56.4194" height="56" rx="28" fill="#F0F4FF"/>
<g clip-path="url(#clip0_773_308)">
<path d="M43 19.158V36.842C43 40.243 40.1373 43 36.6055 43H19.3945C15.8627 43 13 40.243 13 36.842V19.158C13 15.757 15.8627 13 19.3945 13H36.6081C40.1373 13 43 15.757 43 19.158Z" fill="#0976FF"/>
<path d="M34.7768 32.2891H25.4064C23.0972 32.2891 21.2231 34.1606 21.2231 36.4724V36.7239H30.5935C32.9027 36.7239 34.7768 34.8524 34.7768 32.5406V32.2891Z" fill="white"/>
<path d="M37.5363 25.7388H22.5991C20.315 25.7388 18.4636 27.5902 18.4636 29.8743V30.1736H33.4007C35.6848 30.1736 37.5363 28.3222 37.5363 26.0381V25.7388Z" fill="white"/>
<path d="M37.5363 19.188H22.5991C20.315 19.188 18.4636 21.0394 18.4636 23.3235V23.6228H33.4007C35.6848 23.6228 37.5363 21.7714 37.5363 19.4873V19.188Z" fill="white"/>
</g>
<defs>
<clipPath id="clip0_773_308">
<rect width="30" height="30" fill="white" transform="translate(13 13)"/>
</clipPath>
</defs>
</svg>
