<svg width="56" height="56" viewBox="0 0 56 56" fill="none" xmlns="http://www.w3.org/2000/svg">
<rect width="56" height="56" rx="28" fill="#E5F5F5"/>
<g clip-path="url(#clip0_685_283)">
<path d="M43.9926 16.7159V22.6124H11.4434V16.7159C11.4434 14.541 13.1926 12.7823 15.3558 12.7823H18.2374L20.0023 12.7744H35.6756H37.4405H40.08C42.2431 12.7744 43.9926 14.541 43.9926 16.7159Z" fill="#042626"/>
<path d="M44.0432 33.7949V22.9677H11.4434V33.7949C11.4434 37.7884 11.6512 41.0178 13.8178 41.0178H18.248L20.0157 41.0322H35.7133H37.481L41.9255 41.0322C44.0921 41.0322 44.0432 37.7884 44.0432 33.7949Z" fill="white"/>
<path d="M35.7017 12.0264H20.0286V13.1413H35.7017V12.0264Z" fill="#059595"/>
<path d="M40.784 12.0264H35.5348V13.1413H40.784C42.2443 13.1413 43.4391 14.3347 43.4391 15.8108V22.1391H12.3035V15.8108C12.3035 14.3426 13.4905 13.1413 14.9509 13.1413H20.3215V12.0264H14.9509C12.8814 12.0264 11.1868 13.7223 11.1868 15.8108V30.3659C11.4991 30.727 11.8662 31.1511 12.2644 31.5987C12.2801 31.6144 12.2879 31.6301 12.3035 31.6378V23.2462H43.4313V37.8108C43.4313 39.2791 42.2443 40.4724 40.784 40.4724H14.9509C13.4905 40.4724 12.3035 39.2791 12.3035 37.8108V31.3019C12.2879 31.2862 12.2801 31.2705 12.2644 31.2626C11.9052 30.8464 11.5382 30.4303 11.1868 30.0221V40.1034C11.1868 42.192 12.8736 43.8878 14.9509 43.8878H40.784C42.8612 43.8878 44.5481 42.192 44.5481 40.1034V15.8108C44.5481 13.7223 42.8612 12.0264 40.784 12.0264ZM40.784 42.7807H14.9509C13.6389 42.7807 12.5456 41.8073 12.3347 40.5432C13.0063 41.1948 13.9356 41.6031 14.9509 41.6031H40.784C41.7991 41.6031 42.7206 41.1948 43.4 40.5353C43.2048 41.8073 42.1038 42.7807 40.784 42.7807Z" fill="#059595"/>
<path d="M15.6089 27.9649C14.9295 27.9649 14.3828 27.4153 14.3828 26.7322C14.3828 26.0491 14.9295 25.4995 15.6089 25.4995C16.2883 25.4995 16.8349 26.0491 16.8349 26.7322C16.8271 27.4074 16.2805 27.9649 15.6089 27.9649Z" fill="#A9CACA"/>
<path d="M15.6089 34.7232C14.9295 34.7232 14.3828 34.1736 14.3828 33.4905C14.3828 32.8074 14.9295 32.2578 15.6089 32.2578C16.2883 32.2578 16.8349 32.8074 16.8349 33.4905C16.8271 34.1657 16.2805 34.7232 15.6089 34.7232Z" fill="#A9CACA"/>
<path d="M21.5749 27.9649C20.8955 27.9649 20.3489 27.4153 20.3489 26.7322C20.3489 26.0491 20.8955 25.4995 21.5749 25.4995C22.2543 25.4995 22.801 26.0491 22.801 26.7322C22.801 27.4074 22.2543 27.9649 21.5749 27.9649Z" fill="#30AAA7"/>
<path d="M27.5491 27.9649C26.8696 27.9649 26.323 27.4153 26.323 26.7322C26.323 26.0491 26.8696 25.4995 27.5491 25.4995C28.2285 25.4995 28.7751 26.0491 28.7751 26.7322C28.7751 27.4074 28.2285 27.9649 27.5491 27.9649Z" fill="#A9CACA"/>
<path d="M33.7966 27.9649C33.1172 27.9649 32.5706 27.4153 32.5706 26.7322C32.5706 26.0491 33.1172 25.4995 33.7966 25.4995C34.4759 25.4995 35.0226 26.0491 35.0226 26.7322C35.0226 27.4074 34.4759 27.9649 33.7966 27.9649Z" fill="#A9CACA"/>
<path d="M40.0285 27.9649C39.3491 27.9649 38.8025 27.4153 38.8025 26.7322C38.8025 26.0491 39.3491 25.4995 40.0285 25.4995C40.7079 25.4995 41.2545 26.0491 41.2545 26.7322C41.2545 27.4074 40.7079 27.9649 40.0285 27.9649Z" fill="#A9CACA"/>
<path d="M40.0285 34.7253C39.3491 34.7253 38.8025 34.1756 38.8025 33.4926C38.8025 32.8094 39.3491 32.2598 40.0285 32.2598C40.7079 32.2598 41.2545 32.8094 41.2545 33.4926C41.2545 34.1678 40.7079 34.7253 40.0285 34.7253Z" fill="#A9CACA"/>
<path d="M21.5749 34.7253C20.8955 34.7253 20.3489 34.1756 20.3489 33.4926C20.3489 32.8094 20.8955 32.2598 21.5749 32.2598C22.2543 32.2598 22.801 32.8094 22.801 33.4926C22.801 34.1678 22.2543 34.7253 21.5749 34.7253Z" fill="#A9CACA"/>
<path d="M27.5491 34.7253C26.8696 34.7253 26.323 34.1756 26.323 33.4926C26.323 32.8094 26.8696 32.2598 27.5491 32.2598C28.2285 32.2598 28.7751 32.8094 28.7751 33.4926C28.7751 34.1678 28.2285 34.7253 27.5491 34.7253Z" fill="#A9CACA"/>
<path opacity="0.33" d="M33.7966 34.7253C33.1172 34.7253 32.5706 34.1756 32.5706 33.4926C32.5706 32.8094 33.1172 32.2598 33.7966 32.2598C34.4759 32.2598 35.0226 32.8094 35.0226 33.4926C35.0226 34.1678 34.4759 34.7253 33.7966 34.7253Z" fill="#D5F1F1"/>
<path d="M25.246 27.5113L24.7819 26.546C24.5593 25.8876 23.8917 25.5105 23.4785 25.3315C22.1751 24.7753 20.5092 24.8648 19.6763 25.536C19.2631 25.8684 19.1168 26.3159 19.2186 26.8976C19.4474 28.1633 20.6173 28.8281 22.512 28.777C22.8426 28.7706 23.1415 29.0135 23.1923 29.3459C23.2241 29.5441 23.1733 29.7423 23.0461 29.8957C22.9189 30.0491 22.7409 30.1386 22.5438 30.1386C22.4866 30.1386 22.4294 30.1386 22.3721 30.1386C21.056 30.1386 18.3666 29.8062 17.8834 27.1341C17.6863 26.0538 18.0232 25.1077 18.8244 24.4621C19.5174 23.906 20.5156 23.5991 21.6282 23.5991C22.4548 23.5991 23.3004 23.7653 24.0062 24.0658C24.0062 24.0658 25.6593 24.9032 26.1743 25.5936L27.0135 26.0474L25.246 27.5113Z" fill="#30AAA7"/>
<path d="M34.8783 38.6118L34.751 38.0109L36.385 37.084L37.3006 38.4712L35.8636 39.5003L34.8783 38.6118Z" fill="#30AAA7"/>
<path d="M37.8782 34.8291C38.1282 35.0806 38.3266 35.3791 38.4619 35.7077C38.5973 36.0361 38.6669 36.3883 38.6669 36.744C38.6669 37.0996 38.5971 37.4516 38.4618 37.7802C38.3264 38.1088 38.128 38.4073 37.8779 38.6586C37.6277 38.9101 37.3308 39.1096 37.004 39.2456C36.6772 39.3817 36.327 39.4517 35.9732 39.4517C35.2589 39.4515 34.5739 39.1663 34.0688 38.6584L33.4614 38.0476L33.4873 37.9711C33.7868 37.1097 34.277 36.328 34.9209 35.685C35.5794 35.0186 36.384 34.5164 37.27 34.2183L37.8782 34.8291Z" fill="#30AAA7"/>
<path d="M33.488 38.074L33.4612 38.0478L33.4873 37.9707C33.7868 37.1094 34.277 36.3277 34.9209 35.6847C35.5794 35.0183 36.3838 34.516 37.27 34.2179L31.4073 28.3236C31.0114 27.9263 30.8136 27.7273 30.5958 27.5565C30.3386 27.3552 30.0605 27.1826 29.7664 27.0414C29.517 26.9216 29.252 26.8328 28.7212 26.6551L25.9248 25.718C25.7968 25.6749 25.6594 25.6685 25.5281 25.6996C25.3967 25.7306 25.2766 25.7979 25.1811 25.8938C25.0856 25.9897 25.0186 26.1104 24.9877 26.2425C24.9567 26.3746 24.9629 26.5127 25.0057 26.6414L25.9385 29.4536C26.1152 29.9865 26.2035 30.253 26.322 30.5037C26.4631 30.8003 26.6341 31.0784 26.835 31.3383C27.0049 31.5573 27.2028 31.7556 27.598 32.1529L33.488 38.074Z" fill="#3F8989"/>
<path fill-rule="evenodd" clip-rule="evenodd" d="M34.9473 35.6736C35.5984 35.027 36.3883 34.539 37.2566 34.2469L31.394 28.3524L31.3856 28.3439C30.9953 27.9522 30.7987 27.7549 30.5825 27.5853C30.3252 27.3841 30.0471 27.2114 29.7531 27.0702C29.5038 26.9504 29.2387 26.8616 28.7079 26.6839L25.9115 25.7468C25.7836 25.7037 25.6462 25.6973 25.5148 25.7284C25.3856 25.7589 25.2673 25.8245 25.1726 25.9178L34.9473 35.6736Z" fill="#094141"/>
<path d="M15.0607 20.1901C15.0161 20.1901 14.9796 20.1742 14.9513 20.1424C14.9229 20.1107 14.9087 20.0698 14.9087 20.0199V15.5933C14.9087 15.5434 14.9229 15.5025 14.9513 15.4708C14.9796 15.439 15.0161 15.4231 15.0607 15.4231H16.9156C17.2642 15.4231 17.5501 15.4776 17.773 15.5865C17.996 15.6955 18.1602 15.8521 18.2656 16.0564C18.3751 16.2562 18.4298 16.4945 18.4298 16.7715C18.4298 16.9349 18.4015 17.0802 18.3447 17.2073C18.292 17.3299 18.2251 17.432 18.144 17.5138C18.067 17.5955 17.994 17.6545 17.9251 17.6908C18.0791 17.7725 18.215 17.9065 18.3325 18.0926C18.4542 18.2788 18.515 18.4967 18.515 18.7464C18.515 19.046 18.4542 19.3048 18.3325 19.5227C18.215 19.7361 18.0406 19.9018 17.8095 20.0199C17.5825 20.1334 17.3027 20.1901 16.9703 20.1901H15.0607ZM15.9973 19.3048H16.8487C17.023 19.3048 17.1548 19.2481 17.244 19.1346C17.3331 19.021 17.3777 18.8917 17.3777 18.7464C17.3777 18.5875 17.3311 18.4535 17.2379 18.3446C17.1487 18.2356 17.0189 18.1811 16.8487 18.1811H15.9973V19.3048ZM15.9973 17.3163H16.7939C16.9602 17.3163 17.0838 17.2686 17.1649 17.1733C17.25 17.0779 17.2926 16.9553 17.2926 16.8055C17.2926 16.6602 17.25 16.5422 17.1649 16.4514C17.0838 16.3561 16.9602 16.3084 16.7939 16.3084H15.9973V17.3163Z" fill="#D1EEEE"/>
<path d="M20.9299 20.2582C20.5569 20.2582 20.2326 20.1901 19.9569 20.0539C19.6812 19.9177 19.4663 19.7134 19.3123 19.441C19.1582 19.1641 19.0731 18.819 19.0568 18.4059C19.0528 18.2107 19.0508 18.0154 19.0508 17.8202C19.0508 17.625 19.0528 17.4275 19.0568 17.2277C19.0731 16.8191 19.1582 16.4764 19.3123 16.1994C19.4704 15.9179 19.6873 15.7068 19.963 15.5661C20.2387 15.4254 20.561 15.355 20.9299 15.355C21.2948 15.355 21.6151 15.4254 21.8908 15.5661C22.1705 15.7068 22.3895 15.9179 22.5476 16.1994C22.7057 16.4764 22.7908 16.8191 22.803 17.2277C22.8111 17.4275 22.8152 17.625 22.8152 17.8202C22.8152 18.0154 22.8111 18.2107 22.803 18.4059C22.7868 18.819 22.7016 19.1641 22.5476 19.441C22.3935 19.7134 22.1786 19.9177 21.9029 20.0539C21.6272 20.1901 21.3029 20.2582 20.9299 20.2582ZM20.9299 19.2776C21.1448 19.2776 21.3191 19.2049 21.4529 19.0596C21.5908 18.9144 21.6637 18.6828 21.6718 18.365C21.68 18.1653 21.684 17.9768 21.684 17.7998C21.684 17.6227 21.68 17.4389 21.6718 17.2482C21.6637 17.0348 21.6272 16.8623 21.5624 16.7306C21.5016 16.5944 21.4164 16.4945 21.307 16.431C21.1975 16.3674 21.0718 16.3356 20.9299 16.3356C20.7921 16.3356 20.6684 16.3674 20.5589 16.431C20.4495 16.4945 20.3623 16.5944 20.2974 16.7306C20.2326 16.8623 20.1961 17.0348 20.188 17.2482C20.1839 17.4389 20.1819 17.6227 20.1819 17.7998C20.1819 17.9768 20.1839 18.1653 20.188 18.365C20.2001 18.6828 20.2731 18.9144 20.4069 19.0596C20.5407 19.2049 20.715 19.2776 20.9299 19.2776Z" fill="#D1EEEE"/>
<path d="M25.2594 20.2582C24.8864 20.2582 24.562 20.1901 24.2863 20.0539C24.0106 19.9177 23.7958 19.7134 23.6417 19.441C23.4876 19.1641 23.4025 18.819 23.3863 18.4059C23.3822 18.2107 23.3802 18.0154 23.3802 17.8202C23.3802 17.625 23.3822 17.4275 23.3863 17.2277C23.4025 16.8191 23.4876 16.4764 23.6417 16.1994C23.7998 15.9179 24.0167 15.7068 24.2924 15.5661C24.5681 15.4254 24.8904 15.355 25.2594 15.355C25.6242 15.355 25.9445 15.4254 26.2202 15.5661C26.5 15.7068 26.7189 15.9179 26.877 16.1994C27.0351 16.4764 27.1203 16.8191 27.1324 17.2277C27.1405 17.4275 27.1446 17.625 27.1446 17.8202C27.1446 18.0154 27.1405 18.2107 27.1324 18.4059C27.1162 18.819 27.0311 19.1641 26.877 19.441C26.723 19.7134 26.5081 19.9177 26.2324 20.0539C25.9567 20.1901 25.6323 20.2582 25.2594 20.2582ZM25.2594 19.2776C25.4742 19.2776 25.6486 19.2049 25.7824 19.0596C25.9202 18.9144 25.9932 18.6828 26.0013 18.365C26.0094 18.1653 26.0135 17.9768 26.0135 17.7998C26.0135 17.6227 26.0094 17.4389 26.0013 17.2482C25.9932 17.0348 25.9567 16.8623 25.8918 16.7306C25.831 16.5944 25.7459 16.4945 25.6364 16.431C25.5269 16.3674 25.4013 16.3356 25.2594 16.3356C25.1215 16.3356 24.9979 16.3674 24.8884 16.431C24.7789 16.4945 24.6918 16.5944 24.6269 16.7306C24.562 16.8623 24.5255 17.0348 24.5174 17.2482C24.5134 17.4389 24.5113 17.6227 24.5113 17.7998C24.5113 17.9768 24.5134 18.1653 24.5174 18.365C24.5296 18.6828 24.6026 18.9144 24.7364 19.0596C24.8701 19.2049 25.0445 19.2776 25.2594 19.2776Z" fill="#D1EEEE"/>
<path d="M28.0016 20.1901C27.957 20.1901 27.9205 20.1742 27.8921 20.1424C27.8637 20.1107 27.8495 20.0698 27.8495 20.0199V15.5933C27.8495 15.5434 27.8637 15.5025 27.8921 15.4708C27.9205 15.439 27.957 15.4231 28.0016 15.4231H28.7678C28.8124 15.4231 28.8489 15.439 28.8773 15.4708C28.9057 15.5025 28.9198 15.5434 28.9198 15.5933V17.1052L30.0449 15.5525C30.0611 15.5252 30.0875 15.498 30.124 15.4708C30.1645 15.439 30.2172 15.4231 30.2821 15.4231H31.1578C31.1943 15.4231 31.2247 15.439 31.249 15.4708C31.2734 15.498 31.2855 15.5298 31.2855 15.5661C31.2855 15.5979 31.2774 15.6251 31.2612 15.6478L29.8077 17.7044L31.3767 19.9654C31.393 19.9835 31.4011 20.0108 31.4011 20.0471C31.4011 20.0834 31.3869 20.1175 31.3585 20.1492C31.3342 20.1765 31.3058 20.1901 31.2734 20.1901H30.3672C30.2942 20.1901 30.2375 20.1719 30.1969 20.1356C30.1605 20.0993 30.1361 20.0721 30.124 20.0539L28.9198 18.3718V20.0199C28.9198 20.0698 28.9057 20.1107 28.8773 20.1424C28.8489 20.1742 28.8124 20.1901 28.7678 20.1901H28.0016Z" fill="#D1EEEE"/>
<path d="M32.0281 20.1901C31.9835 20.1901 31.947 20.1742 31.9186 20.1424C31.8903 20.1107 31.8761 20.0698 31.8761 20.0199V15.5933C31.8761 15.5434 31.8903 15.5025 31.9186 15.4708C31.947 15.439 31.9835 15.4231 32.0281 15.4231H32.843C32.8876 15.4231 32.9241 15.439 32.9525 15.4708C32.9809 15.5025 32.9951 15.5434 32.9951 15.5933V20.0199C32.9951 20.0698 32.9809 20.1107 32.9525 20.1424C32.9241 20.1742 32.8876 20.1901 32.843 20.1901H32.0281Z" fill="#D1EEEE"/>
<path d="M33.9998 20.1901C33.9552 20.1901 33.9187 20.1742 33.8904 20.1424C33.862 20.1107 33.8478 20.0698 33.8478 20.0199V15.5933C33.8478 15.5434 33.862 15.5025 33.8904 15.4708C33.9187 15.439 33.9552 15.4231 33.9998 15.4231H36.7912C36.8358 15.4231 36.8723 15.439 36.9007 15.4708C36.9331 15.5025 36.9493 15.5434 36.9493 15.5933V16.2811C36.9493 16.3311 36.9331 16.3719 36.9007 16.4037C36.8723 16.4355 36.8358 16.4514 36.7912 16.4514H34.9181V17.4525H36.6696C36.7142 17.4525 36.7507 17.4706 36.779 17.507C36.8115 17.5387 36.8277 17.5796 36.8277 17.6295V18.3105C36.8277 18.3559 36.8115 18.3968 36.779 18.4331C36.7507 18.4649 36.7142 18.4808 36.6696 18.4808H34.9181V20.0199C34.9181 20.0698 34.9039 20.1107 34.8755 20.1424C34.8472 20.1742 34.8107 20.1901 34.7661 20.1901H33.9998Z" fill="#D1EEEE"/>
<path d="M38.8479 20.1901C38.8073 20.1901 38.7708 20.1742 38.7384 20.1424C38.71 20.1107 38.6958 20.0698 38.6958 20.0199V18.5557L37.2849 15.641C37.2809 15.6274 37.2768 15.616 37.2728 15.607C37.2687 15.5933 37.2667 15.5797 37.2667 15.5661C37.2667 15.5298 37.2788 15.498 37.3032 15.4708C37.3316 15.439 37.364 15.4231 37.4005 15.4231H38.1607C38.2215 15.4231 38.2681 15.4412 38.3005 15.4776C38.337 15.5093 38.3593 15.5389 38.3674 15.5661L39.2431 17.3231L40.1189 15.5661C40.131 15.5389 40.1533 15.5093 40.1858 15.4776C40.2223 15.4412 40.2709 15.4231 40.3317 15.4231H41.0919C41.1284 15.4231 41.1588 15.439 41.1831 15.4708C41.2074 15.498 41.2196 15.5298 41.2196 15.5661C41.2196 15.5797 41.2176 15.5933 41.2135 15.607C41.2135 15.616 41.2115 15.6274 41.2074 15.641L39.7905 18.5557V20.0199C39.7905 20.0698 39.7763 20.1107 39.7479 20.1424C39.7195 20.1742 39.683 20.1901 39.6384 20.1901H38.8479Z" fill="#D1EEEE"/>
</g>
<defs>
<clipPath id="clip0_685_283">
<rect width="34" height="32" fill="white" transform="translate(11 12)"/>
</clipPath>
</defs>
</svg>
