<svg width="57" height="56" viewBox="0 0 57 56" fill="none" xmlns="http://www.w3.org/2000/svg">
<rect width="56.4194" height="56" rx="28" fill="#F0F4FF"/>
<path fill-rule="evenodd" clip-rule="evenodd" d="M30.0131 17.0182C29.5049 16.9912 29.0043 16.9766 28.5135 16.9766C27.8123 16.9766 27.0903 17.0062 26.3548 17.0598L25.6247 17.1206C25.569 16.8758 25.499 16.6414 25.4163 16.4168L25.3033 16.1347C24.7039 14.7549 23.5998 13.8447 22.3076 13.7325C20.3648 13.5619 18.5958 15.2759 18.0958 17.6289L18.0514 17.8585C18.0207 18.0359 17.9964 18.2165 17.9802 18.4005C17.9775 18.4302 17.9758 18.46 17.9746 18.4897L17.9725 18.5213C17.97 18.561 17.9692 18.5968 17.9673 18.6354C17.7017 18.7143 17.457 18.7895 17.2329 18.8604L16.6207 19.0598C16.0792 19.2415 15.7555 19.3651 15.7008 19.3863L14.7744 19.7431V20.7313C14.7744 21.2709 14.7634 21.8178 14.7516 22.3967L14.7506 22.4651C14.6858 25.608 14.6123 29.1702 16.2599 32.6341C18.1587 36.6259 21.9946 39.6965 27.9865 42.0214L28.5135 42.2257L29.0404 42.0214C35.024 39.6997 38.8535 36.6334 40.7474 32.647C42.391 29.1875 42.315 25.6305 42.248 22.4925L42.2471 22.4458C42.2345 21.8495 42.2229 21.2865 42.2229 20.7313V19.7452L41.2984 19.3867C41.219 19.356 40.6161 19.1255 39.6434 18.8198L38.9078 18.596C38.9053 18.5521 38.9045 18.5107 38.9009 18.4656C38.9001 18.4415 38.8985 18.4174 38.8968 18.4013C38.8794 18.2034 38.8523 18.0089 38.8177 17.8179L38.7722 17.5902C38.2618 15.2568 36.5035 13.5619 34.5689 13.7325C33.2823 13.8444 32.1801 14.7498 31.5789 16.122L31.4654 16.4026C31.3821 16.6272 31.3113 16.8618 31.2548 17.1068C31.0092 17.0843 30.7661 17.0658 30.5238 17.0493L30.0131 17.0182Z" fill="white"/>
<path d="M34.569 13.7326C36.5661 13.5564 38.3753 15.3683 38.8178 17.818L39.0907 17.8979C39.2642 17.949 39.4296 17.9985 39.5876 18.0473C39.2197 15.1497 37.2178 13 34.8382 13C34.7278 13 34.6164 13.0047 34.506 13.014C32.7901 13.1634 31.358 14.4456 30.7217 16.3409C30.9681 16.3586 31.2159 16.3794 31.4655 16.4027C32.0341 14.8741 33.1965 13.8519 34.569 13.7326Z" fill="#5C8F30"/>
<path d="M18.0514 17.8586C18.4817 15.3887 20.302 13.5564 22.3077 13.7326C23.6859 13.8523 24.8503 14.8799 25.4164 16.4169C25.6655 16.3924 25.9131 16.3701 26.1585 16.3512C25.5245 14.4501 24.0916 13.1638 22.3706 13.014C22.2607 13.0047 22.1491 13 22.0391 13C19.6481 13 17.639 15.1707 17.2847 18.0883C17.4431 18.0392 17.6102 17.989 17.7858 17.9371L18.0514 17.8586Z" fill="#5C8F30"/>
<path d="M26.3549 17.0599C27.0904 17.0063 27.8124 16.9767 28.5135 16.9767C29.1681 16.9767 29.8398 17.0026 30.5239 17.0494L30.5405 16.9762C30.5904 16.7568 30.6525 16.5461 30.7217 16.3409C29.9696 16.2861 29.2314 16.2556 28.5135 16.2556C27.7493 16.2556 26.9622 16.2894 26.1586 16.3512C26.2281 16.5597 26.2909 16.7729 26.3402 16.9954L26.3549 17.0599Z" fill="#5C8F30"/>
<path d="M42.9727 22.4778L42.9719 22.4315C42.9593 21.8388 42.9477 21.2791 42.9477 20.7315V19.2523L41.561 18.7148C41.4723 18.6802 40.7435 18.4017 39.5876 18.0474C39.5998 18.1436 39.6104 18.2408 39.6189 18.3387C39.6208 18.358 39.6232 18.3953 39.6249 18.4324L39.6236 18.4147C39.6342 18.5548 39.6402 18.6891 39.6435 18.8199C40.6161 19.1256 41.2191 19.3562 41.2984 19.3868L42.223 19.7453V20.7315C42.223 21.2867 42.2345 21.8497 42.2472 22.4459L42.248 22.4927C42.3151 25.6306 42.3911 29.1876 40.7474 32.6472C38.8536 36.6335 35.0241 39.6998 29.0405 42.0215L28.5135 42.2259L27.9865 42.0215C21.9946 39.6967 18.1587 36.6261 16.2599 32.6342C14.6123 29.1703 14.6858 25.6082 14.7506 22.4653L14.7517 22.3969C14.7635 21.818 14.7744 21.271 14.7744 20.7315V19.7432L15.7009 19.3864C15.7737 19.3582 16.325 19.1479 17.2329 18.8605C17.2354 18.7363 17.2402 18.6085 17.2499 18.4717C17.2524 18.4155 17.2547 18.3764 17.2584 18.337C17.2657 18.2538 17.275 18.1708 17.2847 18.0884C16.1931 18.4256 15.5209 18.6823 15.4389 18.714L14.0497 19.2496V20.7315C14.0497 21.2638 14.0387 21.8075 14.0273 22.3829L14.0259 22.4504C13.8969 28.7008 13.7207 37.2604 27.7233 42.6935L28.5131 43.0001L29.3039 42.6935C43.2885 37.2672 43.1061 28.719 42.9727 22.4778Z" fill="#5C8F30"/>
<path d="M30.5239 17.0493C30.7662 17.0658 31.0093 17.0843 31.2549 17.1068C31.3114 16.8618 31.3822 16.6272 31.4655 16.4026C31.2159 16.3793 30.9681 16.3585 30.7217 16.3408C30.6525 16.546 30.5904 16.7568 30.5405 16.9762L30.5239 17.0493Z" fill="#5C8F30"/>
<path d="M17.2499 18.4717C17.2402 18.6085 17.2354 18.7363 17.2329 18.8605C17.457 18.7896 17.7017 18.7144 17.9674 18.6355C17.9692 18.597 17.9701 18.5611 17.9726 18.5214L17.9746 18.4899C17.9759 18.4602 17.9775 18.4303 17.9802 18.4007C17.9964 18.2167 18.0208 18.036 18.0514 17.8586L17.7858 17.9371C17.6102 17.9891 17.4431 18.0393 17.2847 18.0883C17.2749 18.1707 17.2656 18.2538 17.2584 18.337C17.2547 18.3763 17.2524 18.4155 17.2499 18.4717Z" fill="#5C8F30"/>
<path d="M25.6247 17.1205C25.8699 17.0975 26.113 17.0775 26.3548 17.0598L26.3401 16.9953C26.2908 16.7728 26.2281 16.5596 26.1585 16.3511C25.9131 16.37 25.6655 16.3923 25.4164 16.4168C25.499 16.6413 25.569 16.8758 25.6247 17.1205Z" fill="#5C8F30"/>
<path d="M38.8177 17.8179C38.8523 18.0088 38.8795 18.2033 38.8968 18.4013C38.8985 18.4174 38.9002 18.4415 38.901 18.4656C38.9045 18.5107 38.9053 18.5521 38.9078 18.596C39.1718 18.6736 39.4174 18.7484 39.6435 18.8197C39.6402 18.6889 39.6342 18.5546 39.6237 18.4145L39.6249 18.4322C39.6232 18.3951 39.6208 18.3578 39.6189 18.3385C39.6104 18.2406 39.5998 18.1434 39.5876 18.0472C39.4296 17.9983 39.2642 17.9489 39.0907 17.8978L38.8177 17.8179Z" fill="#5C8F30"/>
<path d="M34.6206 16.5558C34.4858 16.5111 34.3466 16.4909 34.2052 16.5034C33.7424 16.5432 33.3587 16.9021 33.1293 17.4317C33.3804 17.4682 33.6281 17.5073 33.8722 17.5475C34.0288 17.0908 34.2909 16.734 34.6206 16.5558Z" fill="#5C8F30"/>
<path d="M22.672 16.5034C22.5306 16.4909 22.3914 16.5111 22.2568 16.5558C22.5921 16.737 22.8586 17.1021 23.0139 17.5704C23.258 17.5294 23.5052 17.4896 23.7564 17.4521C23.5278 16.9113 23.1404 16.544 22.672 16.5034Z" fill="#5C8F30"/>
<path d="M28.5135 39.7904C18.8203 35.9361 17.222 30.7018 17.0279 25.6661C20.0958 25.0629 24.2057 24.4316 28.5135 24.4316C32.8236 24.4316 36.9092 25.0637 39.9742 25.6669C39.7878 30.701 38.2052 35.9365 28.5135 39.7904ZM41.6272 22.5054C41.6142 21.8894 41.6017 21.3077 41.6017 20.7315V20.1678L41.0735 19.963C40.9807 19.9272 40.1026 19.5908 38.7101 19.1825C38.6804 20.0551 38.4661 20.8915 38.0855 21.6049C37.9203 21.9144 37.7341 22.188 37.5327 22.4183C37.2654 22.7232 36.3903 23.6366 35.484 23.6366C34.5246 23.6366 33.7469 22.7776 33.7469 21.7176C33.7469 20.701 34.4635 19.8712 35.369 19.8056C35.4026 19.7059 35.431 19.6021 35.4512 19.4933C35.4641 19.4245 35.4738 19.3543 35.4819 19.2826C35.5026 19.0893 35.5047 18.8926 35.4875 18.6975C35.4831 18.646 35.4767 18.5945 35.4699 18.5434C35.4616 18.4831 35.4488 18.4231 35.4365 18.3632C33.4003 17.9379 30.991 17.5947 28.5135 17.5947C25.9769 17.5947 23.5068 17.9544 21.4349 18.3936C21.4252 18.4437 21.4146 18.494 21.4074 18.5442C21.401 18.5941 21.3943 18.6452 21.39 18.6971C21.373 18.8907 21.3747 19.0858 21.3952 19.2776C21.403 19.351 21.4126 19.4231 21.4256 19.4929C21.4461 19.6025 21.4745 19.707 21.508 19.8077C22.3986 19.8905 23.0979 20.7133 23.0979 21.7176C23.0979 22.7776 22.3201 23.5777 21.36 23.5777C20.4412 23.5777 19.5904 22.6987 19.3448 22.4183C19.1309 22.1739 18.9354 21.8822 18.7644 21.552C18.4062 20.8602 18.2022 20.0559 18.1691 19.2206C16.8476 19.6114 16.0156 19.9276 15.9253 19.9626L15.3956 20.1666V20.7315C15.3956 21.2988 15.3838 21.8717 15.3718 22.4782C15.2438 28.6596 15.0854 36.3525 28.2122 41.4457L28.5135 41.5627L28.8148 41.4457C41.9229 36.3597 41.7591 28.6781 41.6272 22.5054Z" fill="#5C8F30"/>
<path d="M38.2826 18.5265C38.2806 18.5028 38.2806 18.4789 38.2781 18.4548C38.0658 16.0303 36.4294 14.1918 34.6232 14.3484C33.2751 14.4654 32.2168 15.663 31.8536 17.2699C32.2864 17.317 32.7123 17.3714 33.1292 17.4318C33.3586 16.9021 33.7423 16.5433 34.2051 16.5035C34.3465 16.4909 34.4857 16.5111 34.6205 16.5558C35.1038 16.7175 35.5231 17.2245 35.7452 17.9033C35.8055 18.0871 35.8519 18.2826 35.8802 18.4886C35.8879 18.5459 35.8947 18.6034 35.9001 18.6617C35.9202 18.891 35.9167 19.1141 35.8935 19.3265C35.8846 19.4089 35.8734 19.4898 35.8585 19.5687C35.8063 19.8491 35.7156 20.1025 35.5976 20.3211C35.4444 20.6048 35.2429 20.8277 35.0058 20.956C34.8814 21.0232 34.7474 21.0675 34.6062 21.0798C34.5374 21.0856 34.4691 21.0823 34.4016 21.0743C34.3146 21.2671 34.2645 21.4855 34.2645 21.7176C34.2645 22.4822 34.7983 23.1047 35.4593 23.12C35.4674 23.1204 35.4754 23.1216 35.4839 23.1216C36.2006 23.1216 36.8655 22.5526 37.2202 22.1478C37.4094 21.9313 37.5753 21.6822 37.7196 21.4115C38.0689 20.7572 38.2806 19.9635 38.2992 19.1019C38.3031 18.9132 38.2971 18.7208 38.2826 18.5265Z" fill="#5C8F30"/>
<path fill-rule="evenodd" clip-rule="evenodd" d="M22.2539 14.3484C20.4477 14.1918 18.8118 16.0303 18.599 18.4548C18.5959 18.4915 18.595 18.5274 18.5926 18.5636C18.5801 18.7453 18.5739 18.9254 18.5781 19.1019C18.5963 19.942 18.7984 20.7179 19.1326 21.3631C19.2825 21.6525 19.4564 21.9185 19.6571 22.1478C19.988 22.5256 20.7899 23.1216 21.36 23.1216C21.3768 23.1216 21.3925 23.1196 21.4087 23.1187C22.0586 23.0893 22.5802 22.4729 22.5802 21.7176C22.5802 21.4875 22.531 21.2706 22.4452 21.0788C22.3873 21.084 22.3295 21.0848 22.2709 21.0798C22.1292 21.0675 21.9959 21.0232 21.8712 20.956C21.6335 20.8273 21.4321 20.604 21.2784 20.319C21.1612 20.1011 21.0709 19.8483 21.0183 19.5687C21.0034 19.4882 20.992 19.4054 20.9831 19.3211C20.961 19.1104 20.9573 18.8895 20.9771 18.6617C20.9823 18.6034 20.9896 18.5459 20.9974 18.4886C21.0239 18.2948 21.0666 18.11 21.1215 17.9355C21.3403 17.2402 21.7656 16.7202 22.2568 16.5558C22.3914 16.5111 22.5305 16.4909 22.672 16.5035C23.1404 16.5441 23.5278 16.9114 23.7564 17.4522C24.1718 17.3902 24.5954 17.3343 25.0263 17.2853C24.6666 15.6706 23.6063 14.4658 22.2539 14.3484Z" fill="#5C8F30"/>
<path d="M22.2539 14.3484C20.4477 14.1918 18.8118 16.0303 18.599 18.4548C18.5959 18.4915 18.595 18.5274 18.5926 18.5636C18.5801 18.7453 18.5739 18.9254 18.5781 19.1019C18.5963 19.942 18.7984 20.7179 19.1326 21.3631C19.2825 21.6525 19.4564 21.9185 19.6571 22.1478C19.988 22.5256 20.7899 23.1216 21.36 23.1216C21.3768 23.1216 21.3925 23.1196 21.4087 23.1187C22.0586 23.0893 22.5802 22.4729 22.5802 21.7176C22.5802 21.4875 22.531 21.2706 22.4452 21.0788C22.3873 21.084 22.3295 21.0848 22.2709 21.0798C22.1292 21.0675 21.9959 21.0232 21.8712 20.956C21.6335 20.8273 21.4321 20.604 21.2784 20.319C21.1612 20.1011 21.0709 19.8483 21.0183 19.5687C21.0034 19.4882 20.992 19.4054 20.9831 19.3211C20.961 19.1104 20.9573 18.8895 20.9771 18.6617C20.9823 18.6034 20.9896 18.5459 20.9974 18.4886C21.0239 18.2948 21.0666 18.11 21.1215 17.9355C21.3403 17.2402 21.7656 16.7202 22.2568 16.5558C22.3914 16.5111 22.5305 16.4909 22.672 16.5035C23.1404 16.5441 23.5278 16.9114 23.7564 17.4522C24.1718 17.3902 24.5954 17.3343 25.0263 17.2853C24.6666 15.6706 23.6063 14.4658 22.2539 14.3484Z" fill="#5C8F30"/>
<path d="M26.1331 32.0743V34.7862C24.1871 33.6882 22.803 32.2706 21.9373 30.837C21.9373 30.837 25.3365 30.5774 27.6911 30.7445V29.0331C25.4067 28.865 21.1639 29.1868 21.1639 29.1868C21.0192 28.7575 20.9204 28.337 20.869 27.9347C22.497 27.602 24.6497 27.5873 27.6911 27.5873V25.8086C22.6879 25.5575 18.8586 26.6294 18.8586 26.6294V27.2896C18.8586 31.0615 22.7121 36.3935 27.7909 37.6978V32.0743H26.1331Z" fill="#5C8F30"/>
<path d="M29.1643 25.8086V37.8848L30.8225 36.9143V27.6304C31.1408 27.6028 31.7692 27.6751 32.1821 27.6779V32.1748C32.6517 31.8907 33.3044 31.3567 33.8407 30.694V27.743C34.8417 27.8083 35.5629 27.9118 36.146 28.0018C35.9685 30.2848 34.7452 32.1076 32.1697 34.2349V36.3418C35.4981 33.8144 37.83 31.286 37.83 27.3222V26.6615C36.2911 26.3296 33.0476 25.8086 29.1643 25.8086Z" fill="#5C8F30"/>
</svg>
