<svg width="56" height="56" viewBox="0 0 56 56" fill="none" xmlns="http://www.w3.org/2000/svg">
<rect width="56" height="56" rx="28" fill="#E2F3FF"/>
<path d="M34.1055 19.1104H29.3764H22.8393H17.6384C15.6267 19.1104 14 20.7262 14 22.7162V40.3938C14 42.3875 15.6305 43.9997 17.6384 43.9997H22.8393H29.3764H31.8183C33.0789 43.9997 34.1055 42.986 34.1055 41.7329V40.016" fill="#D2F1FF"/>
<path d="M34.1055 19.1104H29.3764H22.8393H17.6384C15.6267 19.1104 14 20.7262 14 22.7162V40.3938C14 42.3875 15.6305 43.9997 17.6384 43.9997H22.8393H29.3764H31.8183C33.0789 43.9997 34.1055 42.986 34.1055 41.7329V40.016" stroke="#57B0EE" stroke-width="2" stroke-miterlimit="10" stroke-linecap="round"/>
<path d="M22.1071 39.9531H40.0387C41.6427 39.9531 42.9448 38.6626 42.9448 37.0729V17.9402C42.9448 16.3505 41.6427 15.0601 40.0387 15.0601H22.1071C20.503 15.0601 19.2009 16.3505 19.2009 17.9402V37.0767C19.2009 38.6664 20.503 39.9531 22.1071 39.9531Z" fill="white" stroke="#57B0EE" stroke-width="2" stroke-miterlimit="10"/>
<path d="M28.0896 19.1104H33.8001" stroke="#57B0EE" stroke-width="2" stroke-miterlimit="10" stroke-linecap="round"/>
<path d="M25.9231 12V15.0223" stroke="#57B0EE" stroke-width="2" stroke-miterlimit="10" stroke-linecap="round"/>
<path d="M35.9663 12V15.0223" stroke="#57B0EE" stroke-width="2" stroke-miterlimit="10" stroke-linecap="round"/>
<path d="M25.7872 26.9245H23.2283C22.8207 26.9245 22.4885 26.5954 22.4885 26.1914V23.4646C22.4885 23.0606 22.8207 22.7314 23.2283 22.7314H25.7872C26.1949 22.7314 26.527 23.0606 26.527 23.4646V26.1914C26.527 26.5991 26.1949 26.9245 25.7872 26.9245Z" fill="#57B0EE"/>
<path d="M32.2638 26.9245H29.7048C29.2972 26.9245 28.9651 26.5954 28.9651 26.1914V23.4646C28.9651 23.0606 29.2972 22.7314 29.7048 22.7314H32.2638C32.6714 22.7314 33.0036 23.0606 33.0036 23.4646V26.1914C32.9998 26.5991 32.6714 26.9245 32.2638 26.9245Z" fill="#57B0EE"/>
<path d="M38.7367 26.9245H36.1777C35.7701 26.9245 35.438 26.5954 35.438 26.1914V23.4646C35.438 23.0606 35.7701 22.7314 36.1777 22.7314H38.7367C39.1443 22.7314 39.4765 23.0606 39.4765 23.4646V26.1914C39.4727 26.5991 39.1443 26.9245 38.7367 26.9245Z" fill="#57B0EE"/>
<path d="M25.7872 34.6374H23.2283C22.8207 34.6374 22.4885 34.3083 22.4885 33.9043V31.1775C22.4885 30.7735 22.8207 30.4443 23.2283 30.4443H25.7872C26.1949 30.4443 26.527 30.7735 26.527 31.1775V33.9043C26.527 34.312 26.1949 34.6374 25.7872 34.6374Z" fill="#57B0EE"/>
<path opacity="0.19" d="M34.5471 37.0128C36.7879 37.0128 38.6044 35.2125 38.6044 32.9917C38.6044 30.771 36.7879 28.9707 34.5471 28.9707C32.3063 28.9707 30.4897 30.771 30.4897 32.9917C30.4897 35.2125 32.3063 37.0128 34.5471 37.0128Z" fill="#68DB0E"/>
<path d="M33.3318 32.341L35.083 33.9681C35.2416 34.1177 35.4869 34.0915 35.619 33.9195L38.4799 30.1079" stroke="#6AA939" stroke-width="2" stroke-miterlimit="10" stroke-linecap="round"/>
</svg>
