<svg width="57" height="56" viewBox="0 0 57 56" fill="none" xmlns="http://www.w3.org/2000/svg">
<rect width="56.4194" height="56" rx="28" fill="#F0F4FF"/>
<path d="M28.0094 13C28.8568 13.0016 29.6901 13.0732 30.5003 13.2086V21.9414L36.6914 15.7662C37.3752 16.2518 38.0149 16.792 38.6064 17.382C39.1981 17.972 39.7413 18.6117 40.2281 19.2936L34.0367 25.4688H42.7923C42.9282 26.2767 43 27.1048 43 27.9517V27.9719C43 28.8187 42.9282 29.6484 42.7923 30.4563H34.0352L40.2281 36.63C39.7413 37.3118 39.1981 37.9516 38.6082 38.5416H38.6064C38.0149 39.1315 37.3752 39.6732 36.6932 40.1574L30.5003 33.9821V42.7149C29.6916 42.8504 28.8583 42.9219 28.0109 42.9237H27.9891C27.1414 42.9219 26.3114 42.8504 25.5012 42.7149V33.9821L19.3101 40.1574C17.9427 39.1875 16.7474 37.9936 15.7733 36.63L21.9648 30.4563H13.2092C13.0718 29.6468 13 28.814 13 27.9672V27.9237C13.0014 27.704 13.0158 27.4355 13.0365 27.1578L13.0429 27.0742C13.1041 26.2924 13.2092 25.4688 13.2092 25.4688H21.9648L15.7733 19.2936C16.2587 18.6117 16.8004 17.9735 17.3918 17.3851L17.3948 17.382C17.9851 16.792 18.6262 16.2518 19.3101 15.7662L25.5012 21.9414V13.2086C26.3114 13.0732 27.1432 13.0016 27.9921 13H28.0094ZM28.0079 24.2219H27.9936C26.8792 24.2219 25.812 24.4258 24.8255 24.7963C24.4557 25.7786 24.251 26.8433 24.2495 27.9547V27.9688C24.251 29.0802 24.4557 30.145 24.8269 31.1272C25.812 31.4977 26.8792 31.7016 27.9936 31.7016H28.0079C29.1222 31.7016 30.1895 31.4977 31.1745 31.1272C31.5458 30.1434 31.7505 29.0802 31.7505 27.9688V27.9547C31.7505 26.8433 31.5458 25.7786 31.1745 24.7963C30.1895 24.4258 29.1222 24.2219 28.0079 24.2219Z" fill="#FF4A00"/>
</svg>
