<svg width="57" height="56" viewBox="0 0 57 56" fill="none" xmlns="http://www.w3.org/2000/svg">
<rect width="56.4194" height="56" rx="28" fill="#F0F4FF"/>
<g clip-path="url(#clip0_315_352)">
<path d="M37.9869 13H18.0131C15.2441 13 13 15.2416 13 18.0075V37.9593C13 40.7252 15.2441 42.9669 18.0131 42.9669H37.9869C40.7559 42.9669 43 40.7252 43 37.9593V18.0075C43 15.2416 40.7559 13 37.9869 13ZM37.5466 35.9376C37.5466 36.8114 36.8377 37.5194 35.963 37.5194H20.037C19.1623 37.5194 18.4534 36.8114 18.4534 35.9376V20.0292C18.4534 19.1555 19.1623 18.4474 20.037 18.4474H35.963C36.8377 18.4474 37.5466 19.1555 37.5466 20.0292V35.9376ZM24.8178 32.0509C24.3141 32.0509 23.9099 31.6442 23.9099 31.141V24.7897C23.9099 24.2865 24.3141 23.8768 24.8178 23.8768H31.1852C31.6859 23.8768 32.0931 24.2835 32.0931 24.7897V31.138C32.0931 31.6412 31.6859 32.0479 31.1852 32.0479H24.8178V32.0509Z" fill="#1A1A1A"/>
</g>
<defs>
<clipPath id="clip0_315_352">
<rect width="30" height="30" fill="white" transform="translate(13 13)"/>
</clipPath>
</defs>
</svg>
