<svg width="57" height="56" viewBox="0 0 57 56" fill="none" xmlns="http://www.w3.org/2000/svg">
<rect width="56.4194" height="56" rx="28" fill="#FFD79C"/>
<path fill-rule="evenodd" clip-rule="evenodd" d="M22.2199 31.8053L21.2097 31.2282L18.496 35.9042C16.0431 32.4983 15.5523 27.9083 17.4572 23.954L17.4858 23.9249C17.6012 23.665 17.7458 23.4341 17.8612 23.2033C19.7952 19.8547 23.1728 17.8048 26.7518 17.43C27.3871 16.5643 28.08 15.8132 28.8594 15.092C23.7499 14.8034 18.64 17.3432 15.8981 22.0777C12.3764 28.1973 13.9932 35.8751 19.4198 40.0902L22.1331 32.0362C22.1622 31.9789 22.1913 31.8917 22.2199 31.8053ZM38.7315 24.3289C40.1752 27.6488 40.0884 31.574 38.1539 34.9231C38.039 35.1539 37.8945 35.3843 37.75 35.6156L37.7213 35.6451C35.2389 39.2818 31.0242 41.1581 26.8386 40.725L29.5523 36.0487L28.5417 35.4711C28.484 35.5293 28.4263 35.587 28.3686 35.6451L22.7684 42.0242C29.1193 44.6225 36.5953 42.1687 40.117 36.0487C42.8594 31.315 42.5131 25.628 39.6844 21.3561C39.4531 22.3658 39.1646 23.3764 38.7315 24.3289Z" fill="#A3754E"/>
<path fill-rule="evenodd" clip-rule="evenodd" d="M29.3501 31.632C28.628 32.5849 27.4738 33.0761 26.2328 33.191C25.8574 33.2201 25.5107 33.0179 25.3376 32.6717C24.8178 31.5456 24.6451 30.3046 25.1358 29.2077L19.4775 25.9454C19.1026 25.7146 18.9295 25.3392 19.0449 24.9357C19.1312 24.5313 19.4775 24.2423 19.8819 24.2423L25.6262 24.0405C26.0592 22.2797 26.7808 20.6056 27.8201 19.0465C29.4655 16.5931 31.8035 14.7746 34.5458 13.6776C35.2102 13.4177 35.8736 13.1873 36.538 13.0137C37.0283 12.8983 37.5191 13.1873 37.6345 13.649C37.8367 14.3124 37.9812 15.0054 38.0966 15.6979C38.5006 18.6425 38.0676 21.5867 36.7979 24.2423C35.9895 25.9168 34.8635 27.3605 33.5643 28.6301L36.249 33.6818C36.4512 34.0572 36.3935 34.4902 36.0759 34.7788C35.7873 35.0673 35.3538 35.0964 35.008 34.8942L29.3501 31.632ZM33.622 19.5373C34.4881 20.0571 34.7767 21.1541 34.2864 22.0197C33.7952 22.8858 32.67 23.1749 31.8035 22.6841C30.9378 22.1929 30.6492 21.0673 31.1396 20.2012C31.6594 19.3355 32.7564 19.0465 33.622 19.5373Z" fill="#7B4B2C"/>
<path fill-rule="evenodd" clip-rule="evenodd" d="M20.8921 41.418L27.0117 34.461C26.7808 34.49 26.55 34.5187 26.3187 34.5478C25.3953 34.6055 24.5292 34.1147 24.1257 33.249C24.0098 33.0468 23.923 32.8446 23.8367 32.6138L20.8921 41.418Z" fill="#A3754E"/>
</svg>
