<svg width="56" height="56" viewBox="0 0 56 56" fill="none" xmlns="http://www.w3.org/2000/svg">
<rect width="56" height="56" rx="28" fill="#F0F4FF"/>
<path d="M21.3073 11.8436C24.5599 14.792 26.072 19.4452 26.7307 24.934C26.2414 25.6762 25.6377 26.3828 24.934 26.7307C19.7258 26.2168 15.3056 24.4958 11.8436 21.3073L11.8396 21.3057C13.6122 17.0315 17.0315 13.6122 21.3057 11.8396L21.3073 11.8436Z" fill="#5F2CED"/>
<path d="M24.4341 27.0645V29.0693C20.8422 32.8606 16.8289 34.7637 12.1919 34.2305C11.4307 32.3019 11.0122 30.2002 11.0122 28C11.0122 25.8728 11.4029 23.8375 12.1167 21.9619L24.4341 27.0645Z" fill="white" stroke="#5F2CED"/>
<path d="M26.7307 31.0661C27.2314 36.8911 25.2744 41.1601 21.3073 44.1564L21.3057 44.1604C17.0315 42.3878 13.6122 38.9685 11.8396 34.6943L11.8436 34.6927L24.934 29.2693C26.0065 29.3003 26.784 29.8137 26.7307 31.0661Z" fill="#5F2CED"/>
<path d="M29.0908 31.5662C31.2843 33.3407 32.795 35.2508 33.6445 37.2947C34.479 39.3023 34.6862 41.4651 34.251 43.7996C32.3167 44.5659 30.2081 44.988 28 44.988C25.8727 44.988 23.8376 44.5964 21.9619 43.8826L27.0645 31.5662H29.0908Z" fill="white" stroke="#5F2CED"/>
<path d="M44.1564 34.6927L44.1604 34.6943C42.3878 38.9685 38.9685 42.3878 34.6943 44.1604L34.6927 44.1564L29.2693 31.0661C29.6125 29.9324 30.303 29.3535 31.0661 29.2693C36.1097 29.8546 40.4745 31.6598 44.1564 34.6927Z" fill="#5F2CED"/>
<path d="M43.825 21.8135C44.5752 23.7301 44.988 25.8164 44.988 28C44.988 30.127 44.5962 32.1616 43.8826 34.0371L31.5662 28.9346V26.9385C34.9723 23.549 39.0854 21.9335 43.825 21.8135Z" fill="white" stroke="#5F2CED"/>
<path d="M44.1605 21.3057L44.1565 21.3073L31.0662 26.7307C29.9082 26.7532 29.259 26.104 29.2694 24.934C29.5786 19.6506 31.3963 15.2933 34.6928 11.8436L34.6944 11.8396C38.9686 13.6122 42.388 17.0315 44.1605 21.3057Z" fill="#5F2CED"/>
<path d="M28 11.0122C30.1269 11.0122 32.1617 11.4031 34.0371 12.1167L28.9355 24.4341H27.0645L21.9619 12.1167C23.8375 11.4029 25.8728 11.0122 28 11.0122Z" fill="white" stroke="#5F2CED"/>
<path d="M29.7522 25.4741L30.75 26.4719L34.3808 21.844L29.7522 25.4741Z" fill="#FFD79C" stroke="white"/>
<path d="M31.0662 29.2695C30.7284 30.0824 30.0824 30.7284 29.2695 31.0662C28.8783 31.2283 28.4501 31.3179 28.0001 31.3179C27.5501 31.3179 27.1219 31.2283 26.7308 31.0662C25.9179 30.7284 25.2719 30.0824 24.934 29.2695C24.7719 28.8783 24.6824 28.4501 24.6824 28.0001C24.6824 27.5501 24.7719 27.1219 24.934 26.7308C25.2719 25.9179 25.9179 25.2719 26.7308 24.934C27.1219 24.7719 27.5501 24.6824 28.0001 24.6824C28.4501 24.6824 28.8783 24.7719 29.2695 24.934C30.0824 25.2719 30.7284 25.9179 31.0662 26.7308C31.2283 27.1219 31.3179 27.5501 31.3179 28.0001C31.3179 28.4501 31.2283 28.8783 31.0662 29.2695Z" fill="#5F2CED" stroke="white" stroke-width="2"/>
</svg>
