<svg width="56" height="56" viewBox="0 0 56 56" fill="none" xmlns="http://www.w3.org/2000/svg">
<rect width="56" height="56" rx="28" fill="#F0F4FF"/>
<g clip-path="url(#clip0_319_846)">
<mask id="path-2-inside-1_319_846" fill="white">
<path d="M28.0002 15.4683C32.7724 15.4735 37.3475 17.3661 40.7219 20.731C44.0964 24.0958 45.9949 28.6579 46.0002 33.4165C45.9999 33.5435 45.9614 33.6668 45.8918 33.771C45.7686 33.5251 45.5399 33.3263 45.2043 33.2573C44.058 33.0224 43.0056 32.4574 42.178 31.6323C41.3505 30.8072 40.7837 29.7578 40.5481 28.6147C40.3296 27.5565 38.8135 27.5565 38.595 28.6147C38.3593 29.7578 37.7926 30.8072 36.9651 31.6323C36.1375 32.4575 35.0851 33.0224 33.9387 33.2573C33.1514 33.419 32.9494 34.2917 33.3303 34.8208C32.8444 35.7639 31.9016 37.4915 31.2141 38.0767C30.2499 38.8973 29.0964 39.1878 28.0002 39.186C26.6614 39.1843 25.3641 38.7207 24.3293 37.8735C23.2946 37.0263 22.5858 35.8478 22.3235 34.5386C22.2911 34.4002 22.2121 34.2774 22.0999 34.1899C21.9876 34.1025 21.8488 34.056 21.7063 34.0581H10.6428C10.4725 34.0576 10.3092 33.9897 10.1887 33.8696C10.0683 33.7495 10.0008 33.5864 10.0002 33.4165C10.0055 28.658 11.9032 24.0958 15.2776 20.731C18.6521 17.366 23.228 15.4735 28.0002 15.4683ZM33.6497 22.7505C33.4846 22.7949 33.3443 22.9035 33.259 23.0513L28.6819 30.9487C28.4607 30.8841 28.2308 30.8522 28.0002 30.853C27.4051 30.8523 26.8275 31.0577 26.3674 31.4341C25.9076 31.8105 25.5933 32.3345 25.4778 32.9165C25.3622 33.4986 25.4531 34.1027 25.7346 34.6255C26.0161 35.1481 26.4705 35.5573 27.0208 35.7827C27.5712 36.0081 28.1835 36.0363 28.7522 35.8618C29.321 35.6873 29.8118 35.3208 30.1399 34.8257C30.468 34.3306 30.613 33.7371 30.551 33.147C30.489 32.5568 30.2238 32.0059 29.8 31.5894L34.3772 23.6929C34.4624 23.5451 34.4851 23.3692 34.4407 23.2046C34.3961 23.0399 34.2872 22.899 34.1389 22.814C33.9907 22.7292 33.8147 22.7061 33.6497 22.7505ZM15.0637 25.1343C14.8769 25.1714 14.7053 25.2627 14.5706 25.397C14.4357 25.5314 14.3431 25.7027 14.3059 25.8892C14.2687 26.0757 14.2886 26.2691 14.3616 26.4448C14.4345 26.6204 14.5576 26.7708 14.7161 26.8765C14.8746 26.9821 15.0615 27.0386 15.2522 27.0386C15.3789 27.0387 15.5043 27.0136 15.6213 26.9653C15.7384 26.9171 15.8453 26.8466 15.9348 26.7573C16.0243 26.668 16.0954 26.5615 16.1438 26.4448C16.1921 26.3282 16.2162 26.2028 16.2161 26.0767C16.216 25.8866 16.1598 25.7005 16.054 25.5425C15.9481 25.3845 15.7973 25.2617 15.6213 25.189C15.4451 25.1162 15.2508 25.0972 15.0637 25.1343ZM40.5598 25.1343C40.3728 25.1714 40.2005 25.2625 40.0657 25.397C39.9309 25.5314 39.8392 25.7028 39.802 25.8892C39.7648 26.0756 39.7838 26.2692 39.8567 26.4448C39.9297 26.6205 40.0536 26.7708 40.2122 26.8765C40.3707 26.9821 40.5576 27.0386 40.7483 27.0386C40.8748 27.0387 41.0005 27.0135 41.1174 26.9653C41.2343 26.9171 41.3405 26.8465 41.4299 26.7573C41.5195 26.668 41.5905 26.5616 41.6389 26.4448C41.6873 26.3282 41.7123 26.2029 41.7122 26.0767C41.7121 25.8866 41.6559 25.7005 41.55 25.5425C41.4441 25.3844 41.2926 25.2617 41.1165 25.189C40.9403 25.1163 40.7468 25.0972 40.5598 25.1343ZM20.4514 19.7622C20.2644 19.7993 20.0921 19.8905 19.9573 20.0249C19.8224 20.1594 19.7308 20.3315 19.6936 20.5181C19.6565 20.7043 19.6755 20.8973 19.7483 21.0728C19.8213 21.2485 19.9452 21.3987 20.1038 21.5044C20.2622 21.61 20.4483 21.6664 20.6389 21.6665C20.7654 21.6667 20.8911 21.6424 21.0081 21.5942C21.1251 21.546 21.232 21.4746 21.3215 21.3853C21.411 21.296 21.4821 21.1903 21.5305 21.0737C21.5789 20.9571 21.6039 20.8318 21.6038 20.7056C21.6038 20.5154 21.5466 20.3295 21.4407 20.1714C21.3347 20.0133 21.1843 19.8897 21.0081 19.8169C20.832 19.7442 20.6383 19.7252 20.4514 19.7622ZM35.1721 19.7622C34.9854 19.7993 34.8137 19.8907 34.679 20.0249C34.5441 20.1594 34.4525 20.3315 34.4153 20.5181C34.3782 20.7044 34.3971 20.8973 34.47 21.0728C34.543 21.2485 34.6669 21.3987 34.8254 21.5044C34.9839 21.61 35.17 21.6665 35.3606 21.6665C35.4872 21.6667 35.6127 21.6424 35.7297 21.5942C35.8468 21.546 35.9536 21.4746 36.0432 21.3853C36.1326 21.296 36.2038 21.1903 36.2522 21.0737C36.3006 20.9571 36.3256 20.8318 36.3254 20.7056C36.3254 20.5155 36.2682 20.3295 36.1624 20.1714C36.0564 20.0133 35.9059 19.8897 35.7297 19.8169C35.5535 19.7441 35.3592 19.7251 35.1721 19.7622ZM28.0002 17.7759C27.8737 17.7757 27.7481 17.8 27.6311 17.8481C27.514 17.8964 27.4072 17.9678 27.3176 18.0571C27.2282 18.1463 27.157 18.2521 27.1086 18.3687C27.0603 18.4852 27.0353 18.6107 27.0354 18.7368C27.0354 18.9269 27.0926 19.1129 27.1985 19.271C27.3044 19.4291 27.4549 19.5527 27.6311 19.6255C27.8072 19.6982 28.0008 19.7172 28.1877 19.6802C28.3747 19.6431 28.547 19.5519 28.6819 19.4175C28.8166 19.2831 28.9083 19.1116 28.9456 18.9253C28.9827 18.7389 28.9638 18.5453 28.8909 18.3696C28.8179 18.1939 28.694 18.0436 28.5354 17.938C28.3769 17.8324 28.1908 17.7759 28.0002 17.7759Z"/>
</mask>
<path d="M28.0002 15.4683C32.7724 15.4735 37.3475 17.3661 40.7219 20.731C44.0964 24.0958 45.9949 28.6579 46.0002 33.4165C45.9999 33.5435 45.9614 33.6668 45.8918 33.771C45.7686 33.5251 45.5399 33.3263 45.2043 33.2573C44.058 33.0224 43.0056 32.4574 42.178 31.6323C41.3505 30.8072 40.7837 29.7578 40.5481 28.6147C40.3296 27.5565 38.8135 27.5565 38.595 28.6147C38.3593 29.7578 37.7926 30.8072 36.9651 31.6323C36.1375 32.4575 35.0851 33.0224 33.9387 33.2573C33.1514 33.419 32.9494 34.2917 33.3303 34.8208C32.8444 35.7639 31.9016 37.4915 31.2141 38.0767C30.2499 38.8973 29.0964 39.1878 28.0002 39.186C26.6614 39.1843 25.3641 38.7207 24.3293 37.8735C23.2946 37.0263 22.5858 35.8478 22.3235 34.5386C22.2911 34.4002 22.2121 34.2774 22.0999 34.1899C21.9876 34.1025 21.8488 34.056 21.7063 34.0581H10.6428C10.4725 34.0576 10.3092 33.9897 10.1887 33.8696C10.0683 33.7495 10.0008 33.5864 10.0002 33.4165C10.0055 28.658 11.9032 24.0958 15.2776 20.731C18.6521 17.366 23.228 15.4735 28.0002 15.4683ZM33.6497 22.7505C33.4846 22.7949 33.3443 22.9035 33.259 23.0513L28.6819 30.9487C28.4607 30.8841 28.2308 30.8522 28.0002 30.853C27.4051 30.8523 26.8275 31.0577 26.3674 31.4341C25.9076 31.8105 25.5933 32.3345 25.4778 32.9165C25.3622 33.4986 25.4531 34.1027 25.7346 34.6255C26.0161 35.1481 26.4705 35.5573 27.0208 35.7827C27.5712 36.0081 28.1835 36.0363 28.7522 35.8618C29.321 35.6873 29.8118 35.3208 30.1399 34.8257C30.468 34.3306 30.613 33.7371 30.551 33.147C30.489 32.5568 30.2238 32.0059 29.8 31.5894L34.3772 23.6929C34.4624 23.5451 34.4851 23.3692 34.4407 23.2046C34.3961 23.0399 34.2872 22.899 34.1389 22.814C33.9907 22.7292 33.8147 22.7061 33.6497 22.7505ZM15.0637 25.1343C14.8769 25.1714 14.7053 25.2627 14.5706 25.397C14.4357 25.5314 14.3431 25.7027 14.3059 25.8892C14.2687 26.0757 14.2886 26.2691 14.3616 26.4448C14.4345 26.6204 14.5576 26.7708 14.7161 26.8765C14.8746 26.9821 15.0615 27.0386 15.2522 27.0386C15.3789 27.0387 15.5043 27.0136 15.6213 26.9653C15.7384 26.9171 15.8453 26.8466 15.9348 26.7573C16.0243 26.668 16.0954 26.5615 16.1438 26.4448C16.1921 26.3282 16.2162 26.2028 16.2161 26.0767C16.216 25.8866 16.1598 25.7005 16.054 25.5425C15.9481 25.3845 15.7973 25.2617 15.6213 25.189C15.4451 25.1162 15.2508 25.0972 15.0637 25.1343ZM40.5598 25.1343C40.3728 25.1714 40.2005 25.2625 40.0657 25.397C39.9309 25.5314 39.8392 25.7028 39.802 25.8892C39.7648 26.0756 39.7838 26.2692 39.8567 26.4448C39.9297 26.6205 40.0536 26.7708 40.2122 26.8765C40.3707 26.9821 40.5576 27.0386 40.7483 27.0386C40.8748 27.0387 41.0005 27.0135 41.1174 26.9653C41.2343 26.9171 41.3405 26.8465 41.4299 26.7573C41.5195 26.668 41.5905 26.5616 41.6389 26.4448C41.6873 26.3282 41.7123 26.2029 41.7122 26.0767C41.7121 25.8866 41.6559 25.7005 41.55 25.5425C41.4441 25.3844 41.2926 25.2617 41.1165 25.189C40.9403 25.1163 40.7468 25.0972 40.5598 25.1343ZM20.4514 19.7622C20.2644 19.7993 20.0921 19.8905 19.9573 20.0249C19.8224 20.1594 19.7308 20.3315 19.6936 20.5181C19.6565 20.7043 19.6755 20.8973 19.7483 21.0728C19.8213 21.2485 19.9452 21.3987 20.1038 21.5044C20.2622 21.61 20.4483 21.6664 20.6389 21.6665C20.7654 21.6667 20.8911 21.6424 21.0081 21.5942C21.1251 21.546 21.232 21.4746 21.3215 21.3853C21.411 21.296 21.4821 21.1903 21.5305 21.0737C21.5789 20.9571 21.6039 20.8318 21.6038 20.7056C21.6038 20.5154 21.5466 20.3295 21.4407 20.1714C21.3347 20.0133 21.1843 19.8897 21.0081 19.8169C20.832 19.7442 20.6383 19.7252 20.4514 19.7622ZM35.1721 19.7622C34.9854 19.7993 34.8137 19.8907 34.679 20.0249C34.5441 20.1594 34.4525 20.3315 34.4153 20.5181C34.3782 20.7044 34.3971 20.8973 34.47 21.0728C34.543 21.2485 34.6669 21.3987 34.8254 21.5044C34.9839 21.61 35.17 21.6665 35.3606 21.6665C35.4872 21.6667 35.6127 21.6424 35.7297 21.5942C35.8468 21.546 35.9536 21.4746 36.0432 21.3853C36.1326 21.296 36.2038 21.1903 36.2522 21.0737C36.3006 20.9571 36.3256 20.8318 36.3254 20.7056C36.3254 20.5155 36.2682 20.3295 36.1624 20.1714C36.0564 20.0133 35.9059 19.8897 35.7297 19.8169C35.5535 19.7441 35.3592 19.7251 35.1721 19.7622ZM28.0002 17.7759C27.8737 17.7757 27.7481 17.8 27.6311 17.8481C27.514 17.8964 27.4072 17.9678 27.3176 18.0571C27.2282 18.1463 27.157 18.2521 27.1086 18.3687C27.0603 18.4852 27.0353 18.6107 27.0354 18.7368C27.0354 18.9269 27.0926 19.1129 27.1985 19.271C27.3044 19.4291 27.4549 19.5527 27.6311 19.6255C27.8072 19.6982 28.0008 19.7172 28.1877 19.6802C28.3747 19.6431 28.547 19.5519 28.6819 19.4175C28.8166 19.2831 28.9083 19.1116 28.9456 18.9253C28.9827 18.7389 28.9638 18.5453 28.8909 18.3696C28.8179 18.1939 28.694 18.0436 28.5354 17.938C28.3769 17.8324 28.1908 17.7759 28.0002 17.7759Z" fill="white"/>
<path d="M28.0002 15.4683L28.0014 14.4683L27.9992 14.4683L28.0002 15.4683ZM40.7219 20.731L41.428 20.0228L41.428 20.0228L40.7219 20.731ZM46.0002 33.4165L47.0002 33.4195L47.0002 33.4154L46.0002 33.4165ZM45.8918 33.771L44.9979 34.2192L45.7688 35.7567L46.7236 34.3262L45.8918 33.771ZM45.2043 33.2573L45.4057 32.2778L45.4051 32.2777L45.2043 33.2573ZM42.178 31.6323L41.4719 32.3404L41.4719 32.3405L42.178 31.6323ZM40.5481 28.6147L41.5275 28.4128L41.5274 28.4125L40.5481 28.6147ZM38.595 28.6147L37.6156 28.4125L37.6156 28.4128L38.595 28.6147ZM36.9651 31.6323L37.6712 32.3405L37.6712 32.3404L36.9651 31.6323ZM33.9387 33.2573L33.738 32.2777L33.7375 32.2778L33.9387 33.2573ZM33.3303 34.8208L34.2193 35.2788L34.5 34.734L34.1419 34.2366L33.3303 34.8208ZM31.2141 38.0767L31.8623 38.8382L31.8623 38.8381L31.2141 38.0767ZM28.0002 39.186L28.0018 38.186L28.0015 38.186L28.0002 39.186ZM24.3293 37.8735L23.6959 38.6473L23.6959 38.6473L24.3293 37.8735ZM22.3235 34.5386L23.304 34.3421L23.3008 34.3264L23.2972 34.3107L22.3235 34.5386ZM22.0999 34.1899L22.7145 33.4011L22.7144 33.4011L22.0999 34.1899ZM21.7063 34.0581V35.0581H21.7138L21.7214 35.058L21.7063 34.0581ZM10.6428 34.0581L10.6398 35.0581H10.6428V34.0581ZM10.1887 33.8696L9.48262 34.5777L9.48265 34.5778L10.1887 33.8696ZM10.0002 33.4165L9.00024 33.4154L9.00025 33.4195L10.0002 33.4165ZM15.2776 20.731L14.5715 20.0228L14.5715 20.0229L15.2776 20.731ZM33.6497 22.7505L33.3898 21.7849L33.3896 21.7849L33.6497 22.7505ZM33.259 23.0513L34.1242 23.5527L34.1252 23.551L33.259 23.0513ZM28.6819 30.9487L28.4015 31.9086L29.154 32.1284L29.5471 31.4502L28.6819 30.9487ZM28.0002 30.853L27.9991 31.853L28.0039 31.853L28.0002 30.853ZM26.3674 31.4341L25.7342 30.6601L25.7341 30.6602L26.3674 31.4341ZM25.4778 32.9165L24.4969 32.7218L24.4969 32.7218L25.4778 32.9165ZM25.7346 34.6255L24.8542 35.0996L24.8542 35.0997L25.7346 34.6255ZM27.0208 35.7827L26.6416 36.7081L26.6418 36.7081L27.0208 35.7827ZM28.7522 35.8618L29.0455 36.8178L29.0456 36.8178L28.7522 35.8618ZM30.1399 34.8257L30.9734 35.3781L30.9735 35.3781L30.1399 34.8257ZM30.551 33.147L31.5456 33.0426L31.5456 33.0425L30.551 33.147ZM29.8 31.5894L28.9349 31.0879L28.546 31.7589L29.099 32.3025L29.8 31.5894ZM34.3772 23.6929L35.2424 24.1944L35.2436 24.1922L34.3772 23.6929ZM34.4407 23.2046L35.4061 22.9438L35.4059 22.9432L34.4407 23.2046ZM34.1389 22.814L34.6361 21.9463L34.6356 21.946L34.1389 22.814ZM15.0637 25.1343L14.8692 24.1534L14.8688 24.1535L15.0637 25.1343ZM14.5706 25.397L13.8647 24.6887L13.8645 24.6889L14.5706 25.397ZM14.3059 25.8892L13.3253 25.6934L13.3252 25.6935L14.3059 25.8892ZM14.3616 26.4448L13.4381 26.8284L13.4381 26.8284L14.3616 26.4448ZM14.7161 26.8765L14.1613 27.7085L14.1616 27.7087L14.7161 26.8765ZM15.2522 27.0386L15.2535 26.0386H15.2522V27.0386ZM15.6213 26.9653L16.0025 27.8899L16.0026 27.8898L15.6213 26.9653ZM15.9348 26.7573L16.6409 27.4654L16.6411 27.4652L15.9348 26.7573ZM16.1438 26.4448L17.0675 26.8278L17.0677 26.8274L16.1438 26.4448ZM16.2161 26.0767L15.2161 26.077L15.2161 26.078L16.2161 26.0767ZM16.054 25.5425L16.8847 24.9858L16.8845 24.9856L16.054 25.5425ZM15.6213 25.189L16.0034 24.2648L16.0031 24.2647L15.6213 25.189ZM40.5598 25.1343L40.3653 24.1534L40.3653 24.1534L40.5598 25.1343ZM40.0657 25.397L39.3596 24.6889L39.3595 24.689L40.0657 25.397ZM39.802 25.8892L38.8214 25.6933L38.8213 25.6935L39.802 25.8892ZM39.8567 26.4448L38.9331 26.8282L38.9332 26.8284L39.8567 26.4448ZM40.2122 26.8765L39.6577 27.7087L39.6577 27.7087L40.2122 26.8765ZM40.7483 27.0386L40.7492 26.0386H40.7483V27.0386ZM41.1174 26.9653L41.4986 27.8899L41.499 27.8897L41.1174 26.9653ZM41.4299 26.7573L42.1359 27.4655L42.136 27.4654L41.4299 26.7573ZM41.6389 26.4448L42.5627 26.8278L42.5628 26.8276L41.6389 26.4448ZM41.7122 26.0767L40.7122 26.077V26.078L41.7122 26.0767ZM41.55 25.5425L42.3808 24.9858L42.3808 24.9858L41.55 25.5425ZM41.1165 25.189L41.4982 24.2647L41.498 24.2646L41.1165 25.189ZM20.4514 19.7622L20.2571 18.7813L20.2569 18.7813L20.4514 19.7622ZM19.9573 20.0249L19.2513 19.3167L19.2512 19.3168L19.9573 20.0249ZM19.6936 20.5181L18.7129 20.3224L18.7128 20.3229L19.6936 20.5181ZM19.7483 21.0728L18.8246 21.456L18.8248 21.4564L19.7483 21.0728ZM20.1038 21.5044L19.5493 22.3366L19.5493 22.3366L20.1038 21.5044ZM20.6389 21.6665L20.6402 20.6665L20.6393 20.6665L20.6389 21.6665ZM21.0081 21.5942L21.3887 22.519L21.3892 22.5188L21.0081 21.5942ZM21.3215 21.3853L22.0276 22.0934L22.0278 22.0932L21.3215 21.3853ZM21.5305 21.0737L22.4541 21.457L22.4543 21.4567L21.5305 21.0737ZM21.6038 20.7056H20.6038V20.7065L21.6038 20.7056ZM21.4407 20.1714L22.2715 19.6148L22.2714 19.6147L21.4407 20.1714ZM21.0081 19.8169L21.3898 18.8926L21.3896 18.8925L21.0081 19.8169ZM35.1721 19.7622L34.9776 18.7813L34.9771 18.7814L35.1721 19.7622ZM34.679 20.0249L33.9731 19.3165L33.9729 19.3168L34.679 20.0249ZM34.4153 20.5181L33.4346 20.3224L33.4345 20.3228L34.4153 20.5181ZM34.47 21.0728L33.5463 21.456L33.5465 21.4564L34.47 21.0728ZM34.8254 21.5044L34.271 22.3366L34.2711 22.3367L34.8254 21.5044ZM35.3606 21.6665L35.3619 20.6665H35.3607L35.3606 21.6665ZM35.7297 21.5942L36.1106 22.5189L36.1109 22.5188L35.7297 21.5942ZM36.0432 21.3853L36.7493 22.0934L36.7496 22.0931L36.0432 21.3853ZM36.2522 21.0737L37.1759 21.4569L37.1759 21.4567L36.2522 21.0737ZM36.3254 20.7056H35.3254V20.7065L36.3254 20.7056ZM36.1624 20.1714L36.9932 19.6149L36.9931 19.6147L36.1624 20.1714ZM35.7297 19.8169L36.1115 18.8926L36.1115 18.8926L35.7297 19.8169ZM28.0002 17.7759L27.9989 18.7759L28 18.7759L28.0002 17.7759ZM27.6311 17.8481L27.2504 16.9234L27.25 16.9236L27.6311 17.8481ZM27.3176 18.0571L26.6115 17.349L26.6114 17.3492L27.3176 18.0571ZM27.1086 18.3687L26.185 17.9853L26.1849 17.9857L27.1086 18.3687ZM27.0354 18.7368H28.0354V18.7359L27.0354 18.7368ZM27.1985 19.271L26.3676 19.8275L26.3678 19.8277L27.1985 19.271ZM27.6311 19.6255L27.2494 20.5498L27.2494 20.5498L27.6311 19.6255ZM28.1877 19.6802L28.382 20.6611L28.3823 20.6611L28.1877 19.6802ZM28.6819 19.4175L29.3878 20.1257L29.388 20.1256L28.6819 19.4175ZM28.9456 18.9253L29.9261 19.1214L29.9262 19.1209L28.9456 18.9253ZM28.8909 18.3696L29.8145 17.9863L29.8144 17.986L28.8909 18.3696ZM28.5354 17.938L29.0899 17.1058L29.0897 17.1057L28.5354 17.938ZM28.0002 15.4683L27.9991 16.4683C32.5074 16.4733 36.8289 18.2612 40.0158 21.4391L40.7219 20.731L41.428 20.0228C37.8661 16.4711 33.0374 14.4738 28.0014 14.4683L28.0002 15.4683ZM40.7219 20.731L40.0158 21.4391C43.2028 24.6169 44.9952 28.9248 45.0002 33.4176L46.0002 33.4165L47.0002 33.4154C46.9946 28.391 44.99 23.5747 41.428 20.0228L40.7219 20.731ZM46.0002 33.4165L45.0002 33.4135C45.0005 33.3406 45.0224 33.2723 45.0601 33.2158L45.8918 33.771L46.7236 34.3262C46.9004 34.0613 46.9993 33.7465 47.0002 33.4195L46.0002 33.4165ZM45.8918 33.771L46.7858 33.3228C46.5296 32.8119 46.0509 32.4104 45.4057 32.2778L45.2043 33.2573L45.003 34.2368C45.0157 34.2394 45.021 34.2419 45.021 34.2419C45.0212 34.242 45.0204 34.2417 45.019 34.2408C45.0176 34.24 45.0158 34.2388 45.0138 34.2372C45.0096 34.2339 45.0058 34.2302 45.0028 34.2264C44.9999 34.2228 44.9984 34.2202 44.9979 34.2192L45.8918 33.771ZM45.2043 33.2573L45.4051 32.2777C44.4497 32.0819 43.5731 31.6111 42.884 30.9242L42.178 31.6323L41.4719 32.3405C42.4381 33.3037 43.6663 33.963 45.0036 34.237L45.2043 33.2573ZM42.178 31.6323L42.8841 30.9242C42.1951 30.2372 41.7235 29.3638 41.5275 28.4128L40.5481 28.6147L39.5687 28.8167C39.8439 30.1518 40.5058 31.3771 41.4719 32.3404L42.178 31.6323ZM40.5481 28.6147L41.5274 28.4125C41.0893 26.2905 38.0538 26.2905 37.6156 28.4125L38.595 28.6147L39.5743 28.817C39.5764 28.807 39.5783 28.8018 39.5789 28.8003C39.5795 28.7987 39.5793 28.7997 39.5776 28.8023C39.576 28.8049 39.5736 28.8081 39.5706 28.8113C39.5676 28.8146 39.5646 28.8172 39.5618 28.8193C39.5564 28.8234 39.5538 28.8238 39.5561 28.8231C39.5588 28.8222 39.5642 28.821 39.5715 28.821C39.5789 28.821 39.5843 28.8222 39.5869 28.8231C39.5892 28.8238 39.5867 28.8234 39.5812 28.8193C39.5785 28.8172 39.5755 28.8146 39.5725 28.8113C39.5694 28.8081 39.5671 28.8049 39.5654 28.8023C39.5638 28.7997 39.5635 28.7987 39.5641 28.8003C39.5648 28.8018 39.5667 28.807 39.5688 28.817L40.5481 28.6147ZM38.595 28.6147L37.6156 28.4128C37.4195 29.3638 36.948 30.2372 36.259 30.9242L36.9651 31.6323L37.6712 32.3404C38.6373 31.3771 39.2991 30.1518 39.5744 28.8166L38.595 28.6147ZM36.9651 31.6323L36.259 30.9242C35.57 31.6112 34.6934 32.0819 33.738 32.2777L33.9387 33.2573L34.1394 34.237C35.4768 33.9629 36.705 33.3038 37.6712 32.3405L36.9651 31.6323ZM33.9387 33.2573L33.7375 32.2778C32.9741 32.4346 32.4551 32.9618 32.2476 33.5856C32.0505 34.178 32.1306 34.8659 32.5187 35.405L33.3303 34.8208L34.1419 34.2366C34.1474 34.2442 34.1454 34.2453 34.1442 34.2368C34.1437 34.233 34.1436 34.2287 34.144 34.2245C34.1443 34.2204 34.1451 34.2178 34.1453 34.2169C34.1456 34.2162 34.1451 34.2178 34.1429 34.2213C34.1406 34.225 34.1369 34.2297 34.1318 34.2343C34.1266 34.2391 34.1223 34.2416 34.1209 34.2423C34.1195 34.243 34.1248 34.24 34.1399 34.2369L33.9387 33.2573ZM33.3303 34.8208L32.4414 34.3628C32.2035 34.8245 31.8592 35.4673 31.4956 36.0598C31.1095 36.6888 30.7743 37.1378 30.5659 37.3152L31.2141 38.0767L31.8623 38.8381C32.3414 38.4304 32.8214 37.723 33.2 37.1061C33.6011 36.4527 33.9712 35.7602 34.2193 35.2788L33.3303 34.8208ZM31.2141 38.0767L30.566 37.3151C29.8255 37.9454 28.9224 38.1875 28.0018 38.186L28.0002 39.186L27.9986 40.186C29.2705 40.1881 30.6743 39.8493 31.8623 38.8382L31.2141 38.0767ZM28.0002 39.186L28.0015 38.186C26.8928 38.1846 25.8189 37.8006 24.9628 37.0998L24.3293 37.8735L23.6959 38.6473C24.9093 39.6407 26.4301 40.184 27.999 40.186L28.0002 39.186ZM24.3293 37.8735L24.9628 37.0998C24.1067 36.3989 23.5208 35.4242 23.304 34.3421L22.3235 34.5386L21.343 34.735C21.6507 36.2713 22.4824 37.6538 23.6959 38.6473L24.3293 37.8735ZM22.3235 34.5386L23.2972 34.3107C23.2123 33.9481 23.0056 33.6279 22.7145 33.4011L22.0999 34.1899L21.4852 34.9788C21.4186 34.9269 21.3699 34.8524 21.3498 34.7664L22.3235 34.5386ZM22.0999 34.1899L22.7144 33.4011C22.4223 33.1735 22.0613 33.0526 21.6912 33.0582L21.7063 34.0581L21.7214 35.058C21.6362 35.0593 21.5529 35.0314 21.4853 34.9788L22.0999 34.1899ZM21.7063 34.0581V33.0581H10.6428V34.0581V35.0581H21.7063V34.0581ZM10.6428 34.0581L10.6458 33.0581C10.7393 33.0584 10.8286 33.0955 10.8948 33.1615L10.1887 33.8696L9.48265 34.5778C9.78975 34.884 10.2058 35.0568 10.6398 35.0581L10.6428 34.0581ZM10.1887 33.8696L10.8948 33.1615C10.963 33.2295 11 33.3204 11.0002 33.4135L10.0002 33.4165L9.00025 33.4195C9.00154 33.8523 9.17352 34.2695 9.48262 34.5777L10.1887 33.8696ZM10.0002 33.4165L11.0002 33.4176C11.0052 28.9248 12.797 24.6168 15.9837 21.4391L15.2776 20.731L14.5715 20.0229C11.0095 23.5748 9.00584 28.3912 9.00024 33.4154L10.0002 33.4165ZM15.2776 20.731L15.9837 21.4391C19.1707 18.2611 23.4929 16.4732 28.0013 16.4683L28.0002 15.4683L27.9992 14.4683C22.963 14.4738 18.1335 16.4709 14.5715 20.0228L15.2776 20.731ZM33.6497 22.7505L33.3896 21.7849C32.9666 21.8988 32.6094 22.1762 32.3929 22.5515L33.259 23.0513L34.1252 23.551C34.0792 23.6308 34.0025 23.6911 33.9097 23.7161L33.6497 22.7505ZM33.259 23.0513L32.3938 22.5498L27.8167 30.4473L28.6819 30.9487L29.5471 31.4502L34.1242 23.5527L33.259 23.0513ZM28.6819 30.9487L28.9622 29.9888C28.6473 29.8969 28.3217 29.8518 27.9966 29.853L28.0002 30.853L28.0039 31.853C28.1398 31.8525 28.274 31.8714 28.4015 31.9086L28.6819 30.9487ZM28.0002 30.853L28.0014 29.853C27.1757 29.852 26.3738 30.1369 25.7342 30.6601L26.3674 31.4341L27.0006 32.2081C27.2813 31.9785 27.6345 31.8526 27.9991 31.853L28.0002 30.853ZM26.3674 31.4341L25.7341 30.6602C25.0947 31.1835 24.6576 31.9124 24.4969 32.7218L25.4778 32.9165L26.4586 33.1112C26.529 32.7567 26.7204 32.4374 27.0008 32.2079L26.3674 31.4341ZM25.4778 32.9165L24.4969 32.7218C24.3361 33.532 24.4626 34.3725 24.8542 35.0996L25.7346 34.6255L26.6151 34.1513C26.4435 33.8329 26.3884 33.4652 26.4586 33.1112L25.4778 32.9165ZM25.7346 34.6255L24.8542 35.0997C25.2455 35.8261 25.877 36.3948 26.6416 36.7081L27.0208 35.7827L27.3999 34.8574C27.0639 34.7197 26.7867 34.47 26.615 34.1512L25.7346 34.6255ZM27.0208 35.7827L26.6418 36.7081C27.4057 37.021 28.2556 37.0601 29.0455 36.8178L28.7522 35.8618L28.4589 34.9058C28.1114 35.0124 27.7366 34.9953 27.3997 34.8573L27.0208 35.7827ZM28.7522 35.8618L29.0456 36.8178C29.8354 36.5754 30.5172 36.0665 30.9734 35.3781L30.1399 34.8257L29.3063 34.2733C29.1063 34.575 28.8066 34.7991 28.4588 34.9058L28.7522 35.8618ZM30.1399 34.8257L30.9735 35.3781C31.43 34.6891 31.6317 33.8633 31.5456 33.0426L30.551 33.147L29.5565 33.2514C29.5942 33.6109 29.5059 33.9721 29.3063 34.2733L30.1399 34.8257ZM30.551 33.147L31.5456 33.0425C31.4594 32.2219 31.0906 31.4557 30.501 30.8762L29.8 31.5894L29.099 32.3025C29.3571 32.5562 29.5187 32.8918 29.5565 33.2514L30.551 33.147ZM29.8 31.5894L30.6652 32.0908L35.2424 24.1944L34.3772 23.6929L33.512 23.1914L28.9349 31.0879L29.8 31.5894ZM34.3772 23.6929L35.2436 24.1922C35.4617 23.8138 35.5197 23.3643 35.4061 22.9438L34.4407 23.2046L33.4753 23.4654C33.4506 23.374 33.463 23.2764 33.5108 23.1935L34.3772 23.6929ZM34.4407 23.2046L35.4059 22.9432C35.2918 22.522 35.0144 22.1631 34.6361 21.9463L34.1389 22.814L33.6417 23.6816C33.5601 23.6348 33.5003 23.5578 33.4755 23.466L34.4407 23.2046ZM34.1389 22.814L34.6356 21.946C34.2592 21.7306 33.8113 21.6714 33.3898 21.7849L33.6497 22.7505L33.9095 23.7161C33.818 23.7408 33.7222 23.7277 33.6423 23.6819L34.1389 22.814ZM15.0637 25.1343L14.8688 24.1535C14.4894 24.2289 14.1397 24.4145 13.8647 24.6887L14.5706 25.397L15.2764 26.1053C15.2709 26.1109 15.2644 26.1139 15.2586 26.1151L15.0637 25.1343ZM14.5706 25.397L13.8645 24.6889C13.5914 24.9612 13.4018 25.31 13.3253 25.6934L14.3059 25.8892L15.2866 26.085C15.2845 26.0954 15.2801 26.1017 15.2767 26.1051L14.5706 25.397ZM14.3059 25.8892L13.3252 25.6935C13.2487 26.0774 13.2902 26.4723 13.4381 26.8284L14.3616 26.4448L15.2851 26.0612C15.287 26.0659 15.2888 26.0739 15.2866 26.0848L14.3059 25.8892ZM14.3616 26.4448L13.4381 26.8284C13.5863 27.1853 13.8371 27.4923 14.1613 27.7085L14.7161 26.8765L15.2708 26.0444C15.2782 26.0493 15.2827 26.0556 15.2851 26.0612L14.3616 26.4448ZM14.7161 26.8765L14.1616 27.7087C14.4847 27.924 14.8645 28.0386 15.2522 28.0386V27.0386V26.0386C15.2584 26.0386 15.2646 26.0403 15.2705 26.0443L14.7161 26.8765ZM15.2522 27.0386L15.2509 28.0386C15.5108 28.0389 15.766 27.9873 16.0025 27.8899L15.6213 26.9653L15.2402 26.0408C15.2425 26.0398 15.2469 26.0386 15.2535 26.0386L15.2522 27.0386ZM15.6213 26.9653L16.0026 27.8898C16.2379 27.7928 16.4559 27.6499 16.6409 27.4654L15.9348 26.7573L15.2287 26.0492C15.2346 26.0433 15.2388 26.0414 15.2401 26.0409L15.6213 26.9653ZM15.9348 26.7573L16.6411 27.4652C16.8243 27.2825 16.9691 27.0653 17.0675 26.8278L16.1438 26.4448L15.22 26.0618C15.2218 26.0576 15.2243 26.0536 15.2285 26.0494L15.9348 26.7573ZM16.1438 26.4448L17.0677 26.8274C17.1678 26.5857 17.2164 26.3295 17.2161 26.0753L16.2161 26.0767L15.2161 26.078C15.2161 26.0761 15.2164 26.0707 15.2199 26.0623L16.1438 26.4448ZM16.2161 26.0767L17.2161 26.0763C17.2159 25.6897 17.1017 25.3097 16.8847 24.9858L16.054 25.5425L15.2232 26.0991C15.2179 26.0913 15.2161 26.0835 15.2161 26.077L16.2161 26.0767ZM16.054 25.5425L16.8845 24.9856C16.6677 24.6621 16.3602 24.4123 16.0034 24.2648L15.6213 25.189L15.2393 26.1131C15.2345 26.1111 15.2285 26.107 15.2234 26.0994L16.054 25.5425ZM15.6213 25.189L16.0031 24.2647C15.6443 24.1165 15.2494 24.078 14.8692 24.1534L15.0637 25.1343L15.2583 26.1152C15.2522 26.1164 15.246 26.1159 15.2396 26.1132L15.6213 25.189ZM40.5598 25.1343L40.3653 24.1534C39.9869 24.2284 39.636 24.4132 39.3596 24.6889L40.0657 25.397L40.7718 26.1051C40.765 26.1118 40.7586 26.1143 40.7544 26.1152L40.5598 25.1343ZM40.0657 25.397L39.3595 24.689C39.0843 24.9634 38.8973 25.3131 38.8214 25.6933L39.802 25.8892L40.7826 26.085C40.7812 26.0924 40.7775 26.0994 40.7719 26.105L40.0657 25.397ZM39.802 25.8892L38.8213 25.6935C38.7454 26.074 38.784 26.4691 38.9331 26.8282L39.8567 26.4448L40.7803 26.0614C40.7835 26.0692 40.7842 26.0772 40.7827 26.0848L39.802 25.8892ZM39.8567 26.4448L38.9332 26.8284C39.0825 27.1878 39.3352 27.4938 39.6577 27.7087L40.2122 26.8765L40.7666 26.0443C40.7719 26.0478 40.7769 26.0533 40.7802 26.0612L39.8567 26.4448ZM40.2122 26.8765L39.6577 27.7087C39.9808 27.924 40.3606 28.0386 40.7483 28.0386V27.0386V26.0386C40.7545 26.0386 40.7607 26.0403 40.7666 26.0443L40.2122 26.8765ZM40.7483 27.0386L40.7474 28.0386C41.0066 28.0388 41.262 27.9874 41.4986 27.8899L41.1174 26.9653L40.7363 26.0408C40.739 26.0397 40.743 26.0386 40.7492 26.0386L40.7483 27.0386ZM41.1174 26.9653L41.499 27.8897C41.7365 27.7916 41.9531 27.6478 42.1359 27.4655L41.4299 26.7573L40.7239 26.0491C40.7279 26.0451 40.7321 26.0425 40.7358 26.041L41.1174 26.9653ZM41.4299 26.7573L42.136 27.4654C42.3196 27.2824 42.4642 27.0652 42.5627 26.8278L41.6389 26.4448L40.7152 26.0618C40.7168 26.0579 40.7194 26.0536 40.7238 26.0492L41.4299 26.7573ZM41.6389 26.4448L42.5628 26.8276C42.661 26.5904 42.7125 26.3347 42.7122 26.0753L41.7122 26.0767L40.7122 26.078C40.7122 26.0711 40.7135 26.066 40.7151 26.0621L41.6389 26.4448ZM41.7122 26.0767L42.7122 26.0763C42.712 25.6897 42.5978 25.3097 42.3808 24.9858L41.55 25.5425L40.7193 26.0991C40.714 26.0913 40.7122 26.0835 40.7122 26.077L41.7122 26.0767ZM41.55 25.5425L42.3808 24.9858C42.1625 24.6601 41.8533 24.4114 41.4982 24.2647L41.1165 25.189L40.7347 26.1132C40.732 26.1121 40.7257 26.1086 40.7193 26.0992L41.55 25.5425ZM41.1165 25.189L41.498 24.2646C41.1398 24.1168 40.7459 24.0779 40.3653 24.1534L40.5598 25.1343L40.7544 26.1152C40.7477 26.1165 40.7408 26.1158 40.735 26.1133L41.1165 25.189ZM20.4514 19.7622L20.2569 18.7813C19.8785 18.8564 19.5276 19.0413 19.2513 19.3167L19.9573 20.0249L20.6632 20.7331C20.6566 20.7397 20.6504 20.7422 20.646 20.7431L20.4514 19.7622ZM19.9573 20.0249L19.2512 19.3168C18.9747 19.5925 18.7885 19.9436 18.7129 20.3224L19.6936 20.5181L20.6743 20.7137C20.6731 20.7195 20.6702 20.7263 20.6634 20.733L19.9573 20.0249ZM19.6936 20.5181L18.7128 20.3229C18.6372 20.703 18.6758 21.0973 18.8246 21.456L19.7483 21.0728L20.672 20.6896C20.6751 20.6973 20.6759 20.7056 20.6744 20.7133L19.6936 20.5181ZM19.7483 21.0728L18.8248 21.4564C18.9741 21.8157 19.2268 22.1217 19.5493 22.3366L20.1038 21.5044L20.6582 20.6722C20.6635 20.6757 20.6685 20.6812 20.6718 20.6891L19.7483 21.0728ZM20.1038 21.5044L19.5493 22.3366C19.8717 22.5514 20.2505 22.6664 20.6385 22.6665L20.6389 21.6665L20.6393 20.6665C20.6462 20.6665 20.6528 20.6686 20.6582 20.6722L20.1038 21.5044ZM20.6389 21.6665L20.6376 22.6665C20.8926 22.6668 21.1483 22.6179 21.3887 22.519L21.0081 21.5942L20.6274 20.6695C20.634 20.6668 20.6382 20.6665 20.6402 20.6665L20.6389 21.6665ZM21.0081 21.5942L21.3892 22.5188C21.6288 22.42 21.8458 22.2747 22.0276 22.0934L21.3215 21.3853L20.6154 20.6771C20.6181 20.6744 20.6215 20.672 20.6269 20.6697L21.0081 21.5942ZM21.3215 21.3853L22.0278 22.0932C22.2091 21.9124 22.3547 21.6967 22.4541 21.457L21.5305 21.0737L20.6069 20.6904C20.6096 20.6839 20.6129 20.6797 20.6153 20.6773L21.3215 21.3853ZM21.5305 21.0737L22.4543 21.4567C22.5528 21.219 22.604 20.9632 22.6038 20.7046L21.6038 20.7056L20.6038 20.7065C20.6038 20.7003 20.6049 20.6952 20.6068 20.6907L21.5305 21.0737ZM21.6038 20.7056H22.6038C22.6038 20.3149 22.4864 19.9356 22.2715 19.6148L21.4407 20.1714L20.6099 20.728C20.6068 20.7234 20.6038 20.716 20.6038 20.7056H21.6038ZM21.4407 20.1714L22.2714 19.6147C22.056 19.2932 21.7496 19.0413 21.3898 18.8926L21.0081 19.8169L20.6263 20.7412C20.6189 20.7381 20.6135 20.7333 20.6099 20.7281L21.4407 20.1714ZM21.0081 19.8169L21.3896 18.8925C21.0313 18.7447 20.6373 18.706 20.2571 18.7813L20.4514 19.7622L20.6457 20.7431C20.6393 20.7444 20.6326 20.7438 20.6265 20.7412L21.0081 19.8169ZM35.1721 19.7622L34.9771 18.7814C34.5978 18.8568 34.2482 19.0425 33.9731 19.3165L34.679 20.0249L35.3848 20.7333C35.3792 20.7389 35.3729 20.7419 35.3672 20.743L35.1721 19.7622ZM34.679 20.0249L33.9729 19.3168C33.6964 19.5925 33.5102 19.9436 33.4346 20.3224L34.4153 20.5181L35.396 20.7137C35.3948 20.7195 35.3918 20.7263 35.3851 20.733L34.679 20.0249ZM34.4153 20.5181L33.4345 20.3228C33.3588 20.703 33.3975 21.0973 33.5463 21.456L34.47 21.0728L35.3936 20.6895C35.3968 20.6972 35.3976 20.7057 35.396 20.7133L34.4153 20.5181ZM34.47 21.0728L33.5465 21.4564C33.6957 21.8157 33.9485 22.1217 34.271 22.3366L34.8254 21.5044L35.3799 20.6722C35.3852 20.6757 35.3902 20.6812 35.3935 20.6891L34.47 21.0728ZM34.8254 21.5044L34.2711 22.3367C34.5932 22.5512 34.9719 22.6665 35.3605 22.6665L35.3606 21.6665L35.3607 20.6665C35.3681 20.6665 35.3747 20.6687 35.3797 20.6721L34.8254 21.5044ZM35.3606 21.6665L35.3593 22.6665C35.6142 22.6668 35.8698 22.618 36.1106 22.5189L35.7297 21.5942L35.3489 20.6696C35.3556 20.6668 35.3602 20.6665 35.3619 20.6665L35.3606 21.6665ZM35.7297 21.5942L36.1109 22.5188C36.3504 22.42 36.5675 22.2747 36.7493 22.0934L36.0432 21.3853L35.3371 20.6771C35.3398 20.6744 35.3432 20.672 35.3486 20.6697L35.7297 21.5942ZM36.0432 21.3853L36.7496 22.0931C36.9306 21.9124 37.0763 21.6968 37.1759 21.4569L36.2522 21.0737L35.3285 20.6905C35.3313 20.6837 35.3346 20.6796 35.3368 20.6774L36.0432 21.3853ZM36.2522 21.0737L37.1759 21.4567C37.2745 21.219 37.3257 20.9632 37.3254 20.7046L36.3254 20.7056L35.3254 20.7065C35.3254 20.7003 35.3266 20.6952 35.3284 20.6907L36.2522 21.0737ZM36.3254 20.7056H37.3254C37.3254 20.3148 37.208 19.9356 36.9932 19.6149L36.1624 20.1714L35.3315 20.7278C35.3285 20.7234 35.3254 20.7161 35.3254 20.7056H36.3254ZM36.1624 20.1714L36.9931 19.6147C36.7776 19.2932 36.4713 19.0413 36.1115 18.8926L35.7297 19.8169L35.348 20.7412C35.3406 20.7381 35.3352 20.7333 35.3316 20.7281L36.1624 20.1714ZM35.7297 19.8169L36.1115 18.8926C35.7527 18.7444 35.3578 18.7059 34.9776 18.7813L35.1721 19.7622L35.3667 20.7431C35.3606 20.7443 35.3544 20.7438 35.348 20.7412L35.7297 19.8169ZM28.0002 17.7759L28.0016 16.7759C27.7466 16.7755 27.4909 16.8244 27.2504 16.9234L27.6311 17.8481L28.0118 18.7728C28.0052 18.7756 28.0008 18.7759 27.9989 18.7759L28.0002 17.7759ZM27.6311 17.8481L27.25 16.9236C27.0104 17.0224 26.7934 17.1677 26.6115 17.349L27.3176 18.0571L28.0237 18.7652C28.021 18.7679 28.0177 18.7704 28.0122 18.7727L27.6311 17.8481ZM27.3176 18.0571L26.6114 17.3492C26.4301 17.53 26.2845 17.7457 26.185 17.9853L27.1086 18.3687L28.0322 18.752C28.0296 18.7585 28.0263 18.7626 28.0239 18.7651L27.3176 18.0571ZM27.1086 18.3687L26.1849 17.9857C26.0863 18.2234 26.0352 18.4792 26.0354 18.7377L27.0354 18.7368L28.0354 18.7359C28.0354 18.7421 28.0343 18.7471 28.0324 18.7517L27.1086 18.3687ZM27.0354 18.7368H26.0354C26.0354 19.1276 26.1529 19.5068 26.3676 19.8275L27.1985 19.271L28.0294 18.7145C28.0324 18.719 28.0354 18.7263 28.0354 18.7368H27.0354ZM27.1985 19.271L26.3678 19.8277C26.5832 20.1492 26.8895 20.4011 27.2494 20.5498L27.6311 19.6255L28.0129 18.7012C28.0203 18.7043 28.0257 18.7091 28.0292 18.7143L27.1985 19.271ZM27.6311 19.6255L27.2494 20.5498C27.6079 20.6978 28.002 20.7364 28.382 20.6611L28.1877 19.6802L27.9935 18.6992C27.9997 18.698 28.0064 18.6986 28.0128 18.7012L27.6311 19.6255ZM28.1877 19.6802L28.3823 20.6611C28.7607 20.586 29.1116 20.4011 29.3878 20.1257L28.6819 19.4175L27.9759 18.7092C27.9825 18.7027 27.9888 18.7002 27.9932 18.6993L28.1877 19.6802ZM28.6819 19.4175L29.388 20.1256C29.6634 19.851 29.8502 19.5011 29.9261 19.1214L28.9456 18.9253L27.965 18.7292C27.9664 18.7222 27.9699 18.7153 27.9758 18.7094L28.6819 19.4175ZM28.9456 18.9253L29.9262 19.1209C30.0021 18.7404 29.9635 18.3453 29.8145 17.9863L28.8909 18.3696L27.9673 18.753C27.964 18.7452 27.9634 18.7373 27.9649 18.7297L28.9456 18.9253ZM28.8909 18.3696L29.8144 17.986C29.6651 17.6267 29.4123 17.3206 29.0899 17.1058L28.5354 17.938L27.9809 18.7702C27.9756 18.7666 27.9707 18.7612 27.9674 18.7532L28.8909 18.3696ZM28.5354 17.938L29.0897 17.1057C28.7676 16.8911 28.3888 16.776 28.0005 16.7759L28.0002 17.7759L28 18.7759C27.9928 18.7759 27.9862 18.7737 27.9811 18.7703L28.5354 17.938Z" fill="#5F2CED" mask="url(#path-2-inside-1_319_846)"/>
<path d="M15.2521 27.0385C15.0614 27.0385 14.875 26.9821 14.7164 26.8764C14.5578 26.7708 14.4342 26.6206 14.3612 26.4449C14.2883 26.2692 14.2692 26.0759 14.3064 25.8893C14.3436 25.7028 14.4354 25.5315 14.5703 25.397C14.7051 25.2625 14.877 25.171 15.064 25.1339C15.2511 25.0968 15.4449 25.1158 15.6211 25.1886C15.7973 25.2613 15.9479 25.3846 16.0539 25.5427C16.1599 25.7008 16.2164 25.8867 16.2164 26.0769C16.2166 26.2032 16.1918 26.3283 16.1434 26.4451C16.095 26.5618 16.0239 26.6679 15.9344 26.7572C15.8448 26.8465 15.7384 26.9173 15.6213 26.9656C15.5043 27.0139 15.3788 27.0386 15.2521 27.0385ZM20.6393 21.6667C20.4486 21.6667 20.2621 21.6103 20.1035 21.5046C19.945 21.399 19.8214 21.2488 19.7484 21.0731C19.6754 20.8974 19.6563 20.7041 19.6935 20.5175C19.7307 20.331 19.8226 20.1597 19.9574 20.0252C20.0923 19.8907 20.2641 19.7992 20.4511 19.7621C20.6382 19.725 20.8321 19.744 21.0083 19.8168C21.1845 19.8896 21.3351 20.0128 21.441 20.1709C21.547 20.329 21.6036 20.5149 21.6036 20.7051C21.6037 20.8314 21.5789 20.9566 21.5305 21.0733C21.4821 21.19 21.4111 21.2961 21.3215 21.3854C21.2319 21.4747 21.1256 21.5456 21.0085 21.5938C20.8914 21.6421 20.7659 21.6668 20.6393 21.6667ZM28 17.7756C28.1907 17.7756 28.3771 17.832 28.5357 17.9377C28.6943 18.0433 28.8179 18.1935 28.8909 18.3692C28.9639 18.5449 28.9829 18.7382 28.9457 18.9248C28.9085 19.1113 28.8167 19.2826 28.6818 19.4171C28.547 19.5516 28.3752 19.6431 28.1881 19.6802C28.0011 19.7173 27.8072 19.6983 27.631 19.6255C27.4548 19.5527 27.3042 19.4295 27.1982 19.2714C27.0923 19.1133 27.0357 18.9273 27.0357 18.7372C27.0355 18.6109 27.0604 18.4857 27.1088 18.369C27.1572 18.2523 27.2282 18.1462 27.3178 18.0569C27.4073 17.9676 27.5137 17.8967 27.6308 17.8485C27.7478 17.8002 27.8733 17.7755 28 17.7756ZM34.3771 23.6923L29.8 31.5897C30.2238 32.0063 30.4894 32.5568 30.5514 33.147C30.6133 33.7372 30.4678 34.3306 30.1397 34.8257C29.8116 35.3207 29.3212 35.6869 28.7524 35.8614C28.1836 36.036 27.5717 36.0081 27.0211 35.7827C26.4706 35.5572 26.0157 35.1481 25.7342 34.6253C25.4526 34.1025 25.3619 33.4984 25.4774 32.9163C25.593 32.3341 25.9077 31.8101 26.3678 31.4337C26.8279 31.0573 27.4049 30.8519 28 30.8526C28.2306 30.8517 28.4601 30.8841 28.6814 30.9487L33.2586 23.0513C33.3438 22.9034 33.4845 22.7953 33.6497 22.7508C33.8148 22.7063 33.9909 22.7291 34.1393 22.8141C34.2876 22.8991 34.396 23.0394 34.4406 23.2041C34.4852 23.3688 34.4624 23.5444 34.3771 23.6923ZM35.3607 21.6667C35.17 21.6667 34.9835 21.6103 34.825 21.5046C34.6664 21.399 34.5428 21.2488 34.4698 21.0731C34.3968 20.8974 34.3777 20.7041 34.4149 20.5175C34.4521 20.331 34.544 20.1597 34.6788 20.0252C34.8137 19.8907 34.9855 19.7992 35.1726 19.7621C35.3596 19.725 35.5535 19.744 35.7297 19.8168C35.9059 19.8896 36.0565 20.0128 36.1625 20.1709C36.2684 20.329 36.325 20.5149 36.325 20.7051C36.3252 20.8314 36.3003 20.9566 36.2519 21.0733C36.2035 21.19 36.1325 21.2961 36.0429 21.3854C35.9534 21.4747 35.847 21.5456 35.7299 21.5938C35.6128 21.6421 35.4874 21.6668 35.3607 21.6667ZM40.7478 27.0385C40.5571 27.0385 40.3707 26.9821 40.2121 26.8764C40.0535 26.7708 39.9299 26.6206 39.857 26.4449C39.784 26.2692 39.7649 26.0759 39.8021 25.8893C39.8393 25.7028 39.9311 25.5315 40.066 25.397C40.2008 25.2625 40.3727 25.171 40.5597 25.1339C40.7468 25.0968 40.9407 25.1158 41.1169 25.1886C41.2931 25.2613 41.4437 25.3846 41.5496 25.5427C41.6556 25.7008 41.7121 25.8867 41.7121 26.0769C41.7123 26.2032 41.6875 26.3283 41.6391 26.4451C41.5907 26.5618 41.5196 26.6679 41.4301 26.7572C41.3405 26.8465 41.2341 26.9173 41.1171 26.9656C41 27.0139 40.8745 27.0386 40.7478 27.0385Z" fill="#5F2CED"/>
<path d="M38.7903 30.3786C38.9651 29.532 40.1776 29.532 40.3524 30.3786C40.5409 31.2932 40.9942 32.1326 41.6563 32.7928C42.3184 33.453 43.1602 33.9051 44.0774 34.093C44.9264 34.2673 44.9264 35.4764 44.0774 35.6507C43.1602 35.8386 42.3184 36.2907 41.6563 36.9509C40.9942 37.6111 40.5409 38.4505 40.3524 39.3651C40.1776 40.2117 38.9651 40.2117 38.7903 39.3651C38.6018 38.4505 38.1484 37.6111 37.4863 36.9509C36.8242 36.2907 35.9825 35.8386 35.0653 35.6507C34.2162 35.4764 34.2162 34.2673 35.0653 34.093C35.9825 33.9051 36.8242 33.453 37.4863 32.7928C38.1484 32.1326 38.6018 31.2932 38.7903 30.3786Z" fill="#5F2CED"/>
</g>
<defs>
<clipPath id="clip0_319_846">
<rect width="36" height="25" fill="white" transform="translate(10 15)"/>
</clipPath>
</defs>
</svg>
