<svg width="57" height="56" viewBox="0 0 57 56" fill="none" xmlns="http://www.w3.org/2000/svg">
<rect width="56.4194" height="56" rx="28" fill="#F0F4FF"/>
<g clip-path="url(#clip0_302_1623)">
<path d="M44.9301 20.6661C44.0614 19.7821 42.7423 19.3401 40.9942 19.3401H36.329H35.0956V22.8534H28.0174L27.4382 25.3694C27.9208 25.1314 28.6072 24.8934 29.0791 24.7688C29.551 24.6441 30.0229 24.6668 30.484 24.6668C32.0498 24.6668 33.3261 25.1768 34.302 26.1741C35.2779 27.1714 35.7605 28.4408 35.7605 29.9594C35.7605 31.0248 35.5139 32.0561 35.0098 33.0421C34.5058 34.0281 33.7979 34.7874 32.8756 35.3088C32.5432 35.4901 32.1785 35.6601 31.7817 35.7734H36.329H37.7768V29.7668H40.4579C42.4098 29.7668 43.8577 29.2908 44.8121 28.3501C45.7666 27.4094 46.2385 26.0948 46.2385 24.4288C46.2385 22.8081 45.7988 21.5501 44.9301 20.6661ZM40.962 25.8681C40.5866 26.2081 39.9324 26.3668 38.9994 26.3668H37.7768V22.7401H39.1924C40.0933 22.7401 40.7153 22.9101 41.0371 23.2728C41.3695 23.6354 41.5304 24.0548 41.5304 24.5761C41.5304 25.1088 41.3374 25.5281 40.962 25.8681Z" fill="#2575BE"/>
<path d="M28.929 27.6474C28.0817 27.6474 27.3525 28.1688 26.9986 28.9168L22.7623 28.2821L24.6713 19.3401H22.1403H20.8319V26.3668H15.4696V19.3401H10.7507V35.7734H15.4696V29.7668H20.8319V35.7734H22.1403H26.6446C25.9261 35.5468 25.3041 35.2521 24.8 34.8554C24.2852 34.4474 23.867 33.9828 23.5452 33.4614C23.2235 32.9401 22.9768 32.3621 22.7623 31.5914L27.0093 30.9454C27.3632 31.6934 28.0925 32.2034 28.929 32.2034C30.1194 32.2034 31.0846 31.1834 31.0846 29.9254C31.0846 28.6674 30.1087 27.6474 28.929 27.6474Z" fill="#2575BE"/>
</g>
<defs>
<clipPath id="clip0_302_1623">
<rect width="37" height="17" fill="white" transform="translate(10 19)"/>
</clipPath>
</defs>
</svg>
