<svg width="56" height="56" viewBox="0 0 56 56" fill="none" xmlns="http://www.w3.org/2000/svg">
<rect width="56" height="56" rx="28" fill="#F0F4FF"/>
<g clip-path="url(#clip0_460_563)">
<path d="M20.8275 25.7264H19.7115L17.3999 18.6929H17.36L15.0617 25.7264H13.9723L10 15.2871H12.1256L14.4904 22.0726H14.5303L16.7356 15.2871H18.0376L20.2429 22.0726H20.2828L22.621 15.2871H24.7466L20.8275 25.7264Z" fill="#318DDE"/>
<path d="M26.8856 21.355C27.3904 23.3776 29.0378 24.1997 30.3796 24.1997C31.8543 24.1997 32.9304 23.3515 33.4086 22.4511H35.4014C34.3785 25.1523 31.9473 26.0005 30.2999 26.0005C27.2842 26.0005 24.8928 23.4559 24.8928 20.4938C24.8928 17.362 27.3506 15.0132 30.3398 15.0132C33.2227 15.0132 35.7336 17.3098 35.7468 20.3633C35.7468 20.7026 35.707 21.2245 35.6937 21.3681H26.8856V21.355ZM33.7541 19.8413C33.6611 18.3146 32.2395 16.7879 30.3132 16.7879C28.4001 16.7879 26.9786 18.3146 26.8723 19.8413H33.7541Z" fill="#318DDE"/>
<path d="M10.0133 27.167H11.8334V28.772H11.8732C12.8298 27.4018 14.2911 26.8799 15.6462 26.8799C19.2465 26.8799 21.1463 29.7246 21.1463 32.5171C21.1463 35.153 19.1269 37.8672 15.7791 37.8672C13.5472 37.8672 12.4445 36.758 12.0326 36.0925H11.9928V41.0903H10V27.167H10.0133ZM15.5134 28.6676C13.4276 28.6676 11.9662 30.4423 11.9662 32.3605C11.9662 34.4744 13.5604 36.0795 15.5665 36.0795C17.453 36.0795 19.1535 34.6049 19.1535 32.3996C19.1535 30.5336 17.6789 28.6676 15.5134 28.6676Z" fill="#3BAF29"/>
<path d="M31.4155 37.6062V35.9881H31.3757C30.6051 37.2669 29.2102 37.8672 27.7754 37.8672C24.1884 37.8672 22.1292 35.166 22.1292 32.4257C22.1292 29.8812 23.9492 26.8799 27.7754 26.8799C29.25 26.8799 30.6184 27.4801 31.3757 28.6285H31.4155V27.167H33.4083V37.6062H31.4155ZM27.7754 28.6676C25.3176 28.6676 24.1352 30.7555 24.1352 32.3996C24.1352 34.2787 25.6497 36.0795 27.7621 36.0795C29.8479 36.0795 31.4687 34.3961 31.4687 32.3996C31.4554 30.1813 29.8213 28.6676 27.7754 28.6676Z" fill="#3BAF29"/>
<path d="M39.1741 41.0908H37.1016L38.656 37.3979L34.418 27.1675H36.5702L39.6922 35.2709L42.8939 27.1675H45.0461L39.1741 41.0908Z" fill="#3BAF29"/>
</g>
<defs>
<clipPath id="clip0_460_563">
<rect width="36" height="27" fill="white" transform="translate(10 15)"/>
</clipPath>
</defs>
</svg>
