<svg width="57" height="56" viewBox="0 0 57 56" fill="none" xmlns="http://www.w3.org/2000/svg">
<rect width="56.4194" height="56" rx="28" fill="#F0F4FF"/>
<path d="M34.14 24.16H31.59V23.27C31.59 22.29 30.78 21.48 29.8 21.48H26.19C25.21 21.48 24.4 22.29 24.4 23.27V24.16H21.85C20.91 24.16 20.16 24.92 20.16 25.85V32.84C20.16 33.78 20.92 34.53 21.85 34.53H34.15C35.09 34.53 35.84 33.77 35.84 32.84V25.85C35.84 24.91 35.08 24.16 34.15 24.16H34.14ZM25.77 23.27C25.77 23.03 25.96 22.83 26.21 22.83H29.82C30.06 22.83 30.26 23.02 30.26 23.27V24.13H25.77V23.27ZM34.47 32.53C34.47 32.89 34.18 33.18 33.82 33.18H22.17C21.81 33.18 21.52 32.89 21.52 32.53V26.17C21.52 25.81 21.81 25.52 22.17 25.52H33.84C34.2 25.52 34.49 25.81 34.49 26.17V32.53H34.47Z" fill="#01897B"/>
<path d="M41.97 26.64C41.95 25.61 41.94 24.54 41.89 23.48C41.81 21.61 41.7 19.7 41.53 17.82C41.37 16.14 39.88 14.64 38.21 14.5C36.23 14.34 34.22 14.21 32.26 14.13C30.84 14.08 29.4 14.05 28 14.05C27.1 14.05 26.19 14.07 25.31 14.08C22.81 14.14 20.29 14.29 17.81 14.5C16.13 14.66 14.63 16.15 14.49 17.82C14.31 19.79 14.2 21.76 14.12 23.68C14.12 23.74 14.12 23.83 14.1 23.89C14.07 25.25 14.04 26.62 14.04 27.99C14.04 28.89 14.06 29.8 14.07 30.68V31.0401C14.1 32.5401 14.18 34.0401 14.28 35.5301C14.34 36.4001 14.41 37.32 14.49 38.24C14.65 39.92 16.14 41.42 17.81 41.56C20.21 41.77 22.63 41.92 25.01 41.96H31.03C33.4 41.9 35.82 41.77 38.23 41.56C39.91 41.4 41.41 39.91 41.55 38.24C41.63 37.38 41.7 36.53 41.74 35.72C41.76 35.41 41.77 35.16 41.79 34.91C41.81 34.68 41.82 34.4701 41.82 34.2801C41.85 33.68 41.88 33.07 41.9 32.4401C41.92 31.91 41.93 31.34 41.95 30.73C41.97 29.97 41.98 29.21 41.98 28.47V27.94C42 27.54 41.98 27.12 41.98 26.65L41.97 26.64ZM40.66 28.42C40.66 29.13 40.64 29.84 40.63 30.55C40.61 31.08 40.6 31.63 40.58 32.16C40.56 32.74 40.53 33.32 40.5 33.9C40.48 34.09 40.48 34.2901 40.47 34.5C40.45 34.76 40.44 35.0201 40.42 35.26C40.37 36.0501 40.31 36.84 40.24 37.63C40.13 38.95 38.92 40.1501 37.59 40.2801C35.33 40.4701 33.07 40.6 30.81 40.67H25.16C22.9 40.6101 20.64 40.4801 18.38 40.2801C17.06 40.1501 15.86 38.96 15.73 37.63C15.65 36.77 15.58 35.92 15.54 35.08C15.44 33.68 15.38 32.2701 15.35 30.85V30.5301C15.33 29.6701 15.32 28.84 15.32 27.98C15.32 26.69 15.34 25.41 15.38 24.12V23.93C15.46 22.09 15.59 20.25 15.75 18.43C15.88 17.11 17.07 15.91 18.4 15.78C20.76 15.57 23.11 15.44 25.47 15.39C26.31 15.37 27.16 15.36 28 15.36C29.34 15.36 30.68 15.39 32.02 15.44C33.89 15.5 35.75 15.62 37.6 15.8C38.92 15.93 40.12 17.12 40.25 18.45C40.41 20.23 40.52 22 40.59 23.78C40.62 24.78 40.65 25.76 40.67 26.77V27.95C40.65 28.1 40.65 28.27 40.65 28.43L40.66 28.42Z" fill="#01897B"/>
</svg>
