<svg width="57" height="56" viewBox="0 0 57 56" fill="none" xmlns="http://www.w3.org/2000/svg">
<rect width="56.4194" height="56" rx="28" fill="#F0F4FF"/>
<g clip-path="url(#clip0_926_367)">
<path d="M32.5224 27.4036C32.5224 27.4036 33.1575 26.7572 33.1575 24.818C33.1575 21.5902 31.2481 20.9438 28.724 20.9438H22.9796V34.5056H26.7984V38.3798H28.724V34.5056C30.9387 34.5056 32.4776 34.5056 33.6094 33.0728C34.1515 32.3675 34.4388 31.4958 34.4236 30.6026C34.43 30.1769 34.3752 29.7525 34.2608 29.3427C33.9799 28.614 33.7926 28.0458 32.5224 27.4036ZM30.613 32.5706H28.724V30.6314C28.7256 30.2498 28.839 29.8773 29.0497 29.5609C29.2605 29.2444 29.5593 28.9982 29.9083 28.8533C30.2573 28.7085 30.641 28.6714 31.0108 28.7468C31.3807 28.8223 31.7201 29.0068 31.9864 29.2772C32.2526 29.5476 32.4336 29.8916 32.5066 30.266C32.5797 30.6403 32.5414 31.0281 32.3966 31.3805C32.2519 31.7328 32.0071 32.0339 31.6933 32.2457C31.3795 32.4575 31.0107 32.5706 30.6334 32.5706H30.613ZM29.066 27.2183C28.7402 27.3765 28.4307 27.5668 28.1418 27.7865C27.6961 28.1031 27.3385 28.5303 27.1032 29.0271C26.8679 29.5239 26.7629 30.0735 26.7984 30.6232V32.5623H24.889V22.883H28.724C30.2466 22.883 31.2685 23.5253 31.2685 24.818C31.2481 26.0038 30.3728 26.5719 29.066 27.2266V27.2183Z" fill="#12D488"/>
<path d="M43.7869 16.2301V40.7722C43.788 41.6265 43.4538 42.4462 42.8576 43.0514C42.2614 43.6566 41.4521 43.9978 40.6074 44H16.4329C15.5881 43.9978 14.7788 43.6566 14.1826 43.0514C13.5865 42.4462 13.2522 41.6265 13.2533 40.7722V16.2301C13.2522 15.3758 13.5865 14.556 14.1826 13.9508C14.7788 13.3456 15.5881 13.0044 16.4329 13.0022H21.0781V12.0306C21.0695 11.8985 21.0879 11.7661 21.132 11.6414C21.1761 11.5168 21.245 11.4027 21.3345 11.3061C21.424 11.2095 21.5321 11.1324 21.6522 11.0798C21.7724 11.0272 21.9018 11 22.0328 11C22.1636 11 22.2931 11.0272 22.4132 11.0798C22.5333 11.1324 22.6414 11.2095 22.731 11.3061C22.8204 11.4027 22.8894 11.5168 22.9335 11.6414C22.9776 11.7661 22.9959 11.8985 22.9874 12.0306V15.9048C22.9959 16.0369 22.9776 16.1694 22.9335 16.294C22.8894 16.4186 22.8204 16.5327 22.731 16.6294C22.6414 16.7259 22.5333 16.8029 22.4132 16.8556C22.2931 16.9083 22.1636 16.9354 22.0328 16.9354C21.9018 16.9354 21.7724 16.9083 21.6522 16.8556C21.5321 16.8029 21.424 16.7259 21.3345 16.6294C21.245 16.5327 21.1761 16.4186 21.132 16.294C21.0879 16.1694 21.0695 16.0369 21.0781 15.9048V14.9373H17.068C16.5612 14.9395 16.076 15.1449 15.7188 15.5084C15.3616 15.872 15.1616 16.364 15.1627 16.8764V40.1258C15.1621 40.3794 15.211 40.6306 15.3065 40.8651C15.4019 41.0995 15.5421 41.3127 15.719 41.4924C15.896 41.6721 16.1061 41.8147 16.3376 41.9123C16.569 42.0098 16.8172 42.0603 17.068 42.0609H39.9682C40.2193 42.0609 40.4679 42.0108 40.6998 41.9135C40.9317 41.8162 41.1424 41.6736 41.3198 41.4938C41.4971 41.3141 41.6376 41.1007 41.7334 40.866C41.8291 40.6313 41.8781 40.3797 41.8775 40.1258V16.8764C41.8781 16.6223 41.8291 16.3706 41.7335 16.1356C41.6378 15.9006 41.4973 15.687 41.32 15.507C41.1427 15.3269 40.932 15.1839 40.7001 15.0862C40.4682 14.9884 40.2195 14.9378 39.9682 14.9373H35.9622V15.9048C35.9707 16.0369 35.9524 16.1694 35.9082 16.294C35.8641 16.4186 35.7952 16.5327 35.7057 16.6294C35.6162 16.7259 35.5081 16.8029 35.388 16.8556C35.2679 16.9083 35.1384 16.9354 35.0075 16.9354C34.8766 16.9354 34.7471 16.9083 34.627 16.8556C34.5069 16.8029 34.3988 16.7259 34.3093 16.6294C34.2198 16.5327 34.1509 16.4186 34.1068 16.294C34.0626 16.1694 34.0443 16.0369 34.0528 15.9048V14.9373H30.4295C30.1757 14.9373 29.9324 14.8353 29.753 14.6539C29.5735 14.4725 29.4728 14.2264 29.4728 13.9698C29.4728 13.8427 29.4975 13.7169 29.5456 13.5995C29.5937 13.4821 29.6641 13.3755 29.753 13.2856C29.8418 13.1958 29.9473 13.1245 30.0634 13.0759C30.1794 13.0273 30.3038 13.0022 30.4295 13.0022H34.0528V12.0306C34.0443 11.8985 34.0626 11.7661 34.1068 11.6414C34.1509 11.5168 34.2198 11.4027 34.3093 11.3061C34.3988 11.2095 34.5069 11.1324 34.627 11.0798C34.7471 11.0272 34.8766 11 35.0075 11C35.1384 11 35.2679 11.0272 35.388 11.0798C35.5081 11.1324 35.6162 11.2095 35.7057 11.3061C35.7952 11.4027 35.8641 11.5168 35.9082 11.6414C35.9524 11.7661 35.9707 11.8985 35.9622 12.0306V13.0022H40.6074C41.4521 13.0044 42.2614 13.3456 42.8576 13.9508C43.4538 14.556 43.788 15.3758 43.7869 16.2301Z" fill="#12D488"/>
</g>
<defs>
<clipPath id="clip0_926_367">
<rect width="31" height="33" fill="white" transform="translate(13 11)"/>
</clipPath>
</defs>
</svg>
