<svg width="56" height="56" viewBox="0 0 56 56" fill="none" xmlns="http://www.w3.org/2000/svg">
<rect width="56" height="56" rx="28" fill="#F0F4FF"/>
<g clip-path="url(#clip0_429_241)">
<circle cx="28.0001" cy="29.3333" r="9.33333" fill="#5F2CED"/>
<path d="M15.1794 29.2534C16.193 28.7296 17.3623 28.5912 18.4705 28.8628C19.5784 29.1344 20.5504 29.7979 21.2068 30.731C21.8632 31.6641 22.1595 32.8033 22.0408 33.938C21.922 35.0725 21.3966 36.1259 20.5613 36.9028L20.1609 37.2749L20.5662 37.6411C22.6052 39.4791 25.2527 40.4967 27.9978 40.4995V40.5005L27.9988 40.4995L27.9998 40.5005V40.4995C29.467 40.5054 30.9204 40.2162 32.2732 39.6479L32.2908 39.6401C32.392 39.5932 32.5015 39.5668 32.613 39.563C32.7247 39.5592 32.8368 39.5785 32.9412 39.6187C33.0452 39.6587 33.1403 39.719 33.2205 39.7964C33.3008 39.8741 33.3653 39.9679 33.4089 40.0708C33.4525 40.1736 33.4753 40.2844 33.4753 40.396C33.4753 40.5077 33.4525 40.6184 33.4089 40.7212C33.3654 40.824 33.3016 40.917 33.2214 40.9946C33.1411 41.0724 33.0454 41.1331 32.9412 41.1733L32.9343 41.1763L32.9265 41.1792C31.3684 41.8373 29.6931 42.1732 28.0017 42.1665H28.0007C26.275 42.1654 24.5665 41.8149 22.9802 41.1353C21.3941 40.4556 19.9623 39.4611 18.7712 38.2124L18.5798 38.0112L18.3074 38.0679C17.1904 38.3001 16.0273 38.1194 15.033 37.5601C14.0385 37.0007 13.2798 36.1001 12.8982 35.0249C12.5168 33.9498 12.5375 32.7724 12.9568 31.7114C13.3762 30.6505 14.166 29.7772 15.1794 29.2534ZM36.6091 20.1411C36.7188 20.1424 36.8276 20.1654 36.9285 20.2085C37.0041 20.2409 37.0747 20.2837 37.1375 20.3364L37.197 20.3921C39.389 22.6369 40.6738 25.6128 40.8044 28.7476L40.8093 28.854L40.8572 28.9507L40.8591 28.9556L40.9265 29.0903L41.0574 29.1655C42.0824 29.7556 42.8584 30.6977 43.241 31.8169C43.6236 32.9361 43.5868 34.1564 43.1375 35.2505C42.6881 36.3446 41.8564 37.2379 40.7976 37.7651C39.7388 38.2923 38.5246 38.4175 37.3806 38.1167C36.2367 37.8159 35.2404 37.1102 34.5779 36.1304C33.9154 35.1506 33.6312 33.9632 33.7781 32.7896C33.925 31.6161 34.4933 30.5358 35.3767 29.7495C36.2604 28.9632 37.4 28.5247 38.5828 28.5151L39.1433 28.5103L39.075 27.9536C38.7799 25.5431 37.7003 23.2967 36.0027 21.5601C35.926 21.4816 35.8658 21.3884 35.825 21.2866C35.7842 21.1849 35.7641 21.0759 35.7654 20.9663C35.7667 20.8569 35.7888 20.7486 35.8318 20.6479C35.8749 20.5472 35.938 20.456 36.0164 20.3794C36.0947 20.3028 36.1871 20.2415 36.2888 20.2007C36.3905 20.1599 36.4996 20.1399 36.6091 20.1411ZM27.5583 12.521C28.7231 12.4134 29.8875 12.7328 30.8337 13.4204C31.78 14.108 32.4435 15.1173 32.7009 16.2583C32.9581 17.3991 32.7915 18.5945 32.2322 19.6216C31.6727 20.6489 30.7581 21.4376 29.6599 21.8403C28.5617 22.243 27.3543 22.233 26.2634 21.811C25.1725 21.389 24.2725 20.5842 23.7312 19.5474L23.5046 19.1138L23.0662 19.3306C21.0079 20.3499 19.3122 21.9703 18.2009 23.9722L17.989 24.3735C17.8874 24.5709 17.7123 24.7212 17.5017 24.7915C17.293 24.8611 17.0655 24.8469 16.8669 24.7524C16.7685 24.7035 16.6802 24.6353 16.6082 24.5522C16.5363 24.4694 16.4816 24.3731 16.447 24.269C16.4124 24.1648 16.3989 24.0544 16.407 23.9448C16.4151 23.8352 16.4443 23.7275 16.4939 23.6294H16.4949C17.8563 20.929 20.1174 18.788 22.8884 17.5767L23.1755 17.4507L23.1873 17.1372C23.2311 15.9684 23.6995 14.8558 24.5037 14.0063C25.3079 13.1569 26.3936 12.6287 27.5583 12.521Z" fill="white" stroke="#5F2CED"/>
</g>
<defs>
<clipPath id="clip0_429_241">
<rect width="32" height="32" fill="white" transform="translate(12 12)"/>
</clipPath>
</defs>
</svg>
