<svg width="57" height="56" viewBox="0 0 57 56" fill="none" xmlns="http://www.w3.org/2000/svg">
<rect width="56.4194" height="56" rx="28" fill="#FFD79C"/>
<path d="M43.5965 17.3445V22.8965H12.3755V17.3445C12.3755 15.2967 14.0534 13.6407 16.1283 13.6407H18.8923L20.5852 13.6333H35.619H37.3118H39.8436C41.9185 13.6333 43.5965 15.2967 43.5965 17.3445Z" fill="#7B4B2C"/>
<path d="M35.5576 13H20.5239V14.0498H35.5576V13Z" fill="#4D2F1B"/>
<path d="M40.3895 13H35.3545V14.0498H40.3895C41.7903 14.0498 42.9363 15.1735 42.9363 16.5633V22.522H13.0712V16.5633C13.0712 15.1809 14.2097 14.0498 15.6105 14.0498H20.762V13H15.6105C13.6255 13 12 14.5968 12 16.5633V30.2681C12.2996 30.6081 12.6517 31.0074 13.0337 31.4288C13.0487 31.4436 13.0562 31.4585 13.0712 31.4657V23.5643H42.9288V37.278C42.9288 38.6605 41.7903 39.7841 40.3895 39.7841H15.6105C14.2097 39.7841 13.0712 38.6605 13.0712 37.278V31.1494C13.0562 31.1346 13.0487 31.1198 13.0337 31.1124C12.6891 30.7205 12.3371 30.3288 12 29.9443V39.4367C12 41.4033 13.618 43 15.6105 43H40.3895C42.382 43 44 41.4033 44 39.4367V16.5633C44 14.5968 42.382 13 40.3895 13ZM40.3895 41.9576H15.6105C14.3521 41.9576 13.3034 41.041 13.1011 39.8507C13.7453 40.4643 14.6367 40.8488 15.6105 40.8488H40.3895C41.3632 40.8488 42.2472 40.4643 42.8988 39.8434C42.7115 41.041 41.6555 41.9576 40.3895 41.9576Z" fill="#4D2F1B"/>
<path opacity="0.33" d="M16.2844 28.0074C15.6328 28.0074 15.1084 27.4899 15.1084 26.8467C15.1084 26.2035 15.6328 25.686 16.2844 25.686C16.9361 25.686 17.4605 26.2035 17.4605 26.8467C17.453 27.4825 16.9286 28.0074 16.2844 28.0074Z" fill="#A3754E"/>
<path d="M22.0076 28.0074C21.3559 28.0074 20.8315 27.4899 20.8315 26.8467C20.8315 26.2035 21.3559 25.686 22.0076 25.686C22.6593 25.686 23.1836 26.2035 23.1836 26.8467C23.1836 27.4825 22.6593 28.0074 22.0076 28.0074Z" fill="#4D2F1B"/>
<path opacity="0.33" d="M27.7376 28.0074C27.0859 28.0074 26.5615 27.4899 26.5615 26.8467C26.5615 26.2035 27.0859 25.686 27.7376 25.686C28.3892 25.686 28.9136 26.2035 28.9136 26.8467C28.9136 27.4825 28.3892 28.0074 27.7376 28.0074Z" fill="#A3754E"/>
<path opacity="0.33" d="M33.7304 28.0074C33.0788 28.0074 32.5544 27.4899 32.5544 26.8467C32.5544 26.2035 33.0788 25.686 33.7304 25.686C34.3821 25.686 34.9064 26.2035 34.9064 26.8467C34.9064 27.4825 34.3821 28.0074 33.7304 28.0074Z" fill="#A3754E"/>
<path opacity="0.33" d="M39.7077 28.0074C39.0561 28.0074 38.5317 27.4899 38.5317 26.8467C38.5317 26.2035 39.0561 25.686 39.7077 25.686C40.3594 25.686 40.8837 26.2035 40.8837 26.8467C40.8837 27.4825 40.3594 28.0074 39.7077 28.0074Z" fill="#A3754E"/>
<path opacity="0.33" d="M39.7077 34.3727C39.0561 34.3727 38.5317 33.8552 38.5317 33.2121C38.5317 32.5688 39.0561 32.0513 39.7077 32.0513C40.3594 32.0513 40.8837 32.5688 40.8837 33.2121C40.8837 33.8478 40.3594 34.3727 39.7077 34.3727Z" fill="#A3754E"/>
<path opacity="0.33" d="M22.0076 34.3727C21.3559 34.3727 20.8315 33.8552 20.8315 33.2121C20.8315 32.5688 21.3559 32.0513 22.0076 32.0513C22.6593 32.0513 23.1836 32.5688 23.1836 33.2121C23.1836 33.8478 22.6593 34.3727 22.0076 34.3727Z" fill="#A3754E"/>
<path opacity="0.33" d="M27.7376 34.3727C27.0859 34.3727 26.5615 33.8552 26.5615 33.2121C26.5615 32.5688 27.0859 32.0513 27.7376 32.0513C28.3892 32.0513 28.9136 32.5688 28.9136 33.2121C28.9136 33.8478 28.3892 34.3727 27.7376 34.3727Z" fill="#A3754E"/>
<path opacity="0.33" d="M33.7304 34.3727C33.0788 34.3727 32.5544 33.8552 32.5544 33.2121C32.5544 32.5688 33.0788 32.0513 33.7304 32.0513C34.3821 32.0513 34.9064 32.5688 34.9064 33.2121C34.9064 33.8478 34.3821 34.3727 33.7304 34.3727Z" fill="#4D2F1B"/>
<path d="M25.5288 27.5801L25.0836 26.6712C24.8701 26.0513 24.2298 25.6962 23.8334 25.5276C22.5831 25.004 20.9853 25.0882 20.1864 25.7202C19.79 26.0332 19.6497 26.4545 19.7473 27.0023C19.9668 28.194 21.089 28.82 22.9064 28.7719C23.2235 28.7658 23.5101 28.9946 23.5589 29.3075C23.5894 29.4941 23.5406 29.6807 23.4186 29.8252C23.2967 29.9696 23.1259 30.0539 22.9369 30.0539C22.882 30.0539 22.8271 30.0539 22.7722 30.0539C21.5098 30.0539 18.9301 29.7409 18.4666 27.225C18.2775 26.2078 18.6007 25.317 19.3692 24.7091C20.0339 24.1854 20.9914 23.8965 22.0586 23.8965C22.8515 23.8965 23.6626 24.053 24.3395 24.3359C24.3395 24.3359 25.9252 25.1244 26.4192 25.7744L27.2242 26.2017L25.5288 27.5801Z" fill="#7B4B2C"/>
<path d="M34.7676 38.0323L34.6455 37.4665L36.2128 36.5938L37.0911 37.8999L35.7128 38.8689L34.7676 38.0323Z" fill="#30AAA7"/>
<path d="M22.0869 21.4135C21.9797 21.4135 21.894 21.3896 21.8297 21.3417C21.7726 21.2877 21.7333 21.2218 21.7119 21.144L20.437 15.3836C20.437 15.3657 20.4334 15.3507 20.4263 15.3387C20.4263 15.3267 20.4263 15.3177 20.4263 15.3118C20.4263 15.2578 20.4477 15.2129 20.4905 15.177C20.5405 15.141 20.5941 15.123 20.6512 15.123H21.594C21.7726 15.123 21.8726 15.183 21.894 15.3028L22.7832 19.3736L23.7475 16.7406C23.7689 16.6927 23.8046 16.6447 23.8546 16.5968C23.9117 16.5429 23.9939 16.5159 24.101 16.5159H24.6795C24.7938 16.5159 24.876 16.5429 24.9259 16.5968C24.976 16.6447 25.0081 16.6927 25.0224 16.7406L25.9973 19.3646L26.8865 15.3028C26.908 15.183 27.0079 15.123 27.1865 15.123H28.1293C28.1864 15.123 28.2364 15.141 28.2793 15.177C28.3221 15.2129 28.3436 15.2578 28.3436 15.3118C28.3436 15.3177 28.3436 15.3267 28.3436 15.3387C28.3436 15.3507 28.34 15.3657 28.3329 15.3836L27.058 21.144C27.0437 21.2218 27.0044 21.2877 26.9401 21.3417C26.8758 21.3896 26.7901 21.4135 26.683 21.4135H25.9652C25.858 21.4135 25.7723 21.3896 25.708 21.3417C25.6509 21.2937 25.6116 21.2428 25.5902 21.1889L24.3903 18.1874L23.1904 21.1889C23.1618 21.2428 23.1189 21.2937 23.0618 21.3417C23.0047 21.3896 22.9189 21.4135 22.8047 21.4135H22.0869Z" fill="#FFD79C"/>
<path d="M29.8867 21.4135C29.8153 21.4135 29.7546 21.3926 29.7046 21.3506C29.6546 21.3087 29.6296 21.2578 29.6296 21.1979V15.3477C29.6296 15.2818 29.6546 15.2279 29.7046 15.186C29.7546 15.144 29.8153 15.123 29.8867 15.123H32.758C33.315 15.123 33.8008 15.1979 34.215 15.3477C34.6292 15.4915 34.9508 15.7131 35.1793 16.0127C35.4078 16.3063 35.5221 16.6747 35.5221 17.118C35.5221 17.5673 35.4078 17.9388 35.1793 18.2324C34.9508 18.5199 34.6292 18.7356 34.215 18.8794C33.8008 19.0232 33.315 19.0951 32.758 19.0951H31.1618V21.1979C31.1618 21.2578 31.1366 21.3087 31.0866 21.3506C31.0437 21.3926 30.983 21.4135 30.9045 21.4135H29.8867ZM31.1402 18.0976H32.7045C33.1187 18.0976 33.4364 18.0167 33.658 17.8549C33.8794 17.6872 33.9901 17.4415 33.9901 17.118C33.9901 16.8185 33.8865 16.5788 33.6794 16.3991C33.4722 16.2134 33.1472 16.1205 32.7045 16.1205H31.1402V18.0976Z" fill="#FFD79C"/>
<path d="M37.6455 34.4701C37.8853 34.707 38.0756 34.988 38.2054 35.2974C38.3352 35.6066 38.402 35.9383 38.402 36.2732C38.402 36.608 38.335 36.9394 38.2052 37.2488C38.0754 37.5582 37.8851 37.8393 37.6452 38.0759C37.4052 38.3127 37.1205 38.5006 36.807 38.6287C36.4935 38.7568 36.1576 38.8227 35.8182 38.8227C35.133 38.8225 34.476 38.554 33.9915 38.0758L33.4089 37.5006L33.4338 37.4286C33.721 36.6175 34.1913 35.8815 34.8088 35.2761C35.4405 34.6486 36.2123 34.1757 37.0621 33.895L37.6455 34.4701Z" fill="#A3754E"/>
<path d="M33.4339 37.5262L33.4082 37.5015L33.4331 37.4289C33.7204 36.6179 34.1907 35.8819 34.8082 35.2765C35.4399 34.649 36.2115 34.1761 37.0615 33.8954L31.438 28.3454C31.0583 27.9713 30.8685 27.7839 30.6596 27.6232C30.4129 27.4337 30.1462 27.2711 29.8641 27.1382C29.6249 27.0254 29.3706 26.9417 28.8615 26.7745L26.1792 25.892C26.0565 25.8515 25.9247 25.8454 25.7987 25.8747C25.6727 25.9039 25.5574 25.9673 25.4659 26.0576C25.3743 26.1479 25.31 26.2616 25.2803 26.3859C25.2506 26.5103 25.2566 26.6403 25.2976 26.7615L26.1923 29.4094C26.3618 29.9112 26.4466 30.1621 26.5602 30.3981C26.6956 30.6774 26.8596 30.9393 27.0523 31.184C27.2152 31.3902 27.4051 31.5769 27.7841 31.951L33.4339 37.5262Z" fill="#4D2F1B"/>
<path fill-rule="evenodd" clip-rule="evenodd" d="M34.8339 35.2657C35.4584 34.6569 36.2161 34.1974 37.0489 33.9224L31.4255 28.3723L31.4175 28.3643C31.0431 27.9955 30.8546 27.8097 30.6471 27.65C30.4004 27.4605 30.1336 27.2979 29.8516 27.165C29.6124 27.0522 29.3582 26.9686 28.8491 26.8013L26.1668 25.9189C26.044 25.8783 25.9122 25.8723 25.7862 25.9015C25.6623 25.9303 25.5488 25.992 25.458 26.0799L34.8339 35.2657Z" fill="#7B4B2C"/>
</svg>
