<svg width="36" height="29" viewBox="0 0 36 29" fill="none" xmlns="http://www.w3.org/2000/svg">
<path d="M4.0746 17.3348C6.07533 17.6132 7.81126 17.1498 9.24324 15.8772L11.6289 16.0123L10.3294 19.8165C8.88525 22.1131 6.80484 22.5859 4.65549 22.4535L4.07324 17.3511L4.0746 17.3348Z" fill="#7EAABA"/>
<path d="M4.96216 18.1973L5.35931 21.6827C7.13575 21.6692 8.56638 21.087 9.62687 19.4699L10.5725 16.7397L9.52553 16.687C8.24823 17.7364 6.62698 18.2746 4.97566 18.1973H4.96216Z" fill="#D3E8EF"/>
<path d="M4.96216 18.1973L5.19992 20.2642C7.65183 19.9738 9.56066 18.966 10.555 16.7397L9.50799 16.687C8.2317 17.7354 6.61207 18.2736 4.96216 18.1973Z" fill="white"/>
<path d="M4.65666 14.3403C5.45823 14.3403 6.2418 14.578 6.90827 15.0233C7.57474 15.4686 8.09418 16.1016 8.40091 16.8422C8.70769 17.5827 8.78792 18.3976 8.63154 19.1837C8.47515 19.9699 8.08917 20.692 7.52238 21.2588C6.95563 21.8256 6.23347 22.2116 5.44732 22.368C4.66116 22.5243 3.84629 22.4441 3.10574 22.1374C2.3652 21.8306 1.73224 21.3112 1.28692 20.6447C0.841598 19.9782 0.603882 19.1946 0.603882 18.3931C0.603882 17.3182 1.0309 16.2874 1.79093 15.5273C2.55097 14.7673 3.58181 14.3403 4.65666 14.3403Z" fill="#7EAABA"/>
<path d="M4.65687 15.1306C4.01563 15.1306 3.38878 15.3208 2.85559 15.677C2.32243 16.0333 1.90684 16.5396 1.66148 17.1321C1.41608 17.7245 1.35186 18.3764 1.47698 19.0053C1.60206 19.6343 1.91088 20.212 2.36427 20.6654C2.8177 21.1188 3.39541 21.4276 4.02433 21.5527C4.65326 21.6778 5.30517 21.6136 5.89761 21.3682C6.49005 21.1228 6.9964 20.7073 7.35266 20.1741C7.70892 19.6409 7.89911 19.0141 7.89911 18.3728C7.89911 17.5129 7.5575 16.6883 6.94947 16.0802C6.34144 15.4722 5.51676 15.1306 4.65687 15.1306Z" fill="#D3E8EF"/>
<path d="M4.65682 15.1306C4.13314 15.1287 3.61689 15.2544 3.15271 15.4969C2.68853 15.7393 2.29044 16.0912 1.9928 16.5221C2.04686 17.3462 2.41157 18.1191 3.01336 18.6848C3.61515 19.2505 4.40912 19.5667 5.23503 19.5698C5.75872 19.5717 6.27496 19.446 6.73914 19.2035C7.20332 18.9611 7.60141 18.6092 7.89905 18.1783C7.84528 17.3541 7.48066 16.581 6.87883 16.0152C6.27696 15.4495 5.48282 15.1334 4.65682 15.1306Z" fill="white"/>
<path d="M4.23259 14.9233C4.83026 14.9233 5.41455 15.1006 5.91151 15.4327C6.40848 15.7647 6.79582 16.2367 7.02454 16.7889C7.25329 17.3411 7.31313 17.9487 7.19651 18.5349C7.07992 19.1212 6.79209 19.6596 6.36945 20.0823C5.94681 20.5049 5.40835 20.7927 4.82215 20.9093C4.23595 21.0259 3.6283 20.9661 3.07612 20.7373C2.52389 20.5086 2.05194 20.1213 1.71985 19.6243C1.38781 19.1274 1.21057 18.5431 1.21057 17.9454C1.2104 17.5485 1.28842 17.1554 1.44026 16.7887C1.59206 16.422 1.81465 16.0887 2.09531 15.8081C2.37596 15.5274 2.70916 15.3048 3.0759 15.153C3.44261 15.0012 3.83569 14.9232 4.23259 14.9233Z" fill="#7EAABA"/>
<path d="M4.02049 14.1147C4.62062 14.1145 5.20738 14.2921 5.70659 14.6252C6.20581 14.9583 6.59511 15.4319 6.82527 15.9861C7.05542 16.5404 7.11612 17.1504 6.9997 17.7391C6.88324 18.3279 6.59494 18.8689 6.17111 19.2938C5.74732 19.7188 5.20708 20.0085 4.61867 20.1265C4.03026 20.2445 3.42007 20.1855 2.86517 19.9568C2.31031 19.7281 1.83569 19.3401 1.50126 18.8418C1.16688 18.3434 0.987645 17.7572 0.986328 17.157C0.986668 16.3517 1.30619 15.5793 1.87493 15.009C2.44363 14.4389 3.21514 14.1173 4.02049 14.1147Z" fill="#7F3E13"/>
<path d="M4.31226 15.282C3.83521 15.282 3.36883 15.4235 2.97209 15.6884C2.57541 15.9534 2.26612 16.3301 2.08345 16.7708C1.90074 17.2115 1.85283 17.6965 1.94571 18.1644C2.03856 18.6324 2.26808 19.0623 2.60526 19.3999C2.94241 19.7374 3.37205 19.9674 3.83993 20.0608C4.30776 20.1542 4.79279 20.1068 5.23373 19.9246C5.67464 19.7424 6.05166 19.4336 6.31707 19.0372C6.58252 18.6407 6.72446 18.1745 6.72501 17.6975C6.72557 17.3803 6.66352 17.0662 6.54251 16.7731C6.42147 16.48 6.24381 16.2136 6.01968 15.9892C5.7956 15.7648 5.52942 15.5869 5.23641 15.4655C4.94344 15.3442 4.6294 15.2818 4.31226 15.282Z" fill="#B85A1B"/>
<path d="M2.49664 11.6627C2.54935 9.96731 5.08099 9.86058 5.14716 11.6627C5.89017 10.4172 8.20833 11.1061 7.48019 13.0541C7.51939 13.2135 7.54641 13.3595 7.57342 13.5189C8.83246 13.585 9.24317 15.5601 7.5194 16.1694C7.39249 16.6748 7.1625 17.1485 6.84392 17.5608C5.3579 18.8334 4.88239 17.7864 4.08667 16.9245C3.31801 16.9515 1.19844 16.395 1.79012 18.3835C0.43921 17.5338 -0.436182 15.7844 0.225746 13.2135C-0.687447 11.1466 1.72395 10.3766 2.49261 11.6506L2.49664 11.6627Z" fill="#7F3E13"/>
<path d="M1.039 13.5091C0.721566 14.7547 0.70806 16.1596 1.5956 17.1674C2.84114 18.5859 5.35927 18.5184 6.32381 16.7297C6.8412 15.7625 6.81419 14.5561 6.59402 13.4956C4.75136 13.0984 2.86951 13.1646 1.02686 13.5226L1.039 13.5091Z" fill="#B85A1B"/>
<path d="M1.039 13.5092C0.721566 14.7548 0.70806 16.1598 1.5956 17.1675C1.87681 17.4794 2.22015 17.729 2.60355 17.9002C2.98699 18.0715 3.40198 18.1606 3.8219 18.1618V13.2134C2.88756 13.233 1.95661 13.332 1.039 13.5092Z" fill="#E1762F"/>
<path d="M2.25905 14.455C2.08615 15.1453 2.07264 15.941 2.57653 16.4962C3.26551 17.292 4.67045 17.2528 5.21354 16.245C5.50532 15.7046 5.49181 15.0386 5.35943 14.4428C4.33602 14.2348 3.2808 14.2389 2.25905 14.455Z" fill="#7F3E13"/>
<path d="M6.35337 11.6626C6.4923 11.6626 6.62812 11.7038 6.74364 11.7809C6.85917 11.8581 6.94921 11.9679 7.00238 12.0962C7.05556 12.2246 7.06945 12.3658 7.04235 12.5021C7.01525 12.6384 6.94836 12.7635 6.85008 12.8618C6.75184 12.96 6.62668 13.0269 6.49043 13.054C6.35413 13.0811 6.21291 13.0672 6.08456 13.014C5.95617 12.9609 5.84646 12.8709 5.76929 12.7553C5.69208 12.6398 5.65088 12.504 5.65088 12.3651C5.65194 12.1791 5.72631 12.001 5.8578 11.8695C5.98934 11.738 6.16738 11.6636 6.35337 11.6626ZM3.80823 12.5515C3.99455 12.5515 4.17323 12.4774 4.30498 12.3457C4.43669 12.214 4.51072 12.0353 4.51072 11.849C4.51072 11.6627 4.43669 11.484 4.30498 11.3523C4.17323 11.2205 3.99455 11.1465 3.80823 11.1465V12.5515Z" fill="#B85A1B"/>
<path d="M3.80834 12.5515V11.1601C3.71359 11.1559 3.619 11.171 3.53024 11.2044C3.44143 11.2378 3.36035 11.2888 3.29184 11.3544C3.22333 11.4199 3.1688 11.4987 3.13155 11.586C3.09426 11.6732 3.07506 11.767 3.07506 11.8619C3.07506 11.9567 3.09426 12.0506 3.13155 12.1378C3.1688 12.225 3.22333 12.3038 3.29184 12.3694C3.36035 12.4349 3.44143 12.486 3.53024 12.5194C3.619 12.5528 3.71359 12.5678 3.80834 12.5637V12.5515ZM1.41045 11.741C1.54942 11.741 1.68521 11.7822 1.80073 11.8594C1.91625 11.9366 2.00629 12.0463 2.05947 12.1746C2.11265 12.303 2.12658 12.4442 2.09944 12.5805C2.07234 12.7168 2.00545 12.842 1.90721 12.9402C1.80897 13.0384 1.6838 13.1053 1.54751 13.1324C1.41126 13.1596 1.27 13.1456 1.14165 13.0925C1.0133 13.0393 0.903549 12.9492 0.826378 12.8337C0.749206 12.7182 0.708008 12.5824 0.708008 12.4434C0.709749 12.2578 0.784372 12.0803 0.915781 11.9491C1.04719 11.818 1.22481 11.7438 1.41045 11.7423V11.741Z" fill="#E1762F"/>
<path d="M7.13567 14.2078C7.27464 14.2078 7.41043 14.249 7.52595 14.3261C7.64147 14.4033 7.73151 14.5131 7.78469 14.6414C7.83786 14.7698 7.8518 14.911 7.82466 15.0473C7.79756 15.1836 7.73067 15.3087 7.63243 15.407C7.53419 15.5052 7.40902 15.5721 7.27273 15.5992C7.13648 15.6263 6.99522 15.6124 6.86687 15.5592C6.73852 15.5061 6.62881 15.416 6.5516 15.3005C6.47443 15.185 6.43323 15.0492 6.43323 14.9102C6.43429 14.7243 6.50862 14.5462 6.64015 14.4147C6.77165 14.2832 6.94973 14.2088 7.13567 14.2078Z" fill="#B85A1B"/>
<path d="M31.2429 22.5035C31.0848 20.3987 30.1297 18.8857 28.2479 18.0643L28.6194 16.6067L31.6414 15.7961C34.2784 16.5918 35.3118 18.2751 35.8159 20.396L31.2564 22.5156L31.2429 22.5035Z" fill="#7EAABA"/>
<path d="M31.8658 21.3512L34.8744 19.9463C34.3447 18.1833 33.4693 17.0431 31.6145 16.5933L29.2558 17.2295L29.149 17.6267C30.6202 18.4616 31.4956 19.7342 31.8509 21.3377L31.8658 21.3512Z" fill="white"/>
<path d="M28.3276 22.8616C28.0839 22.1225 28.0648 21.3277 28.2727 20.5776C28.4806 19.8276 28.9063 19.1562 29.4959 18.6481C30.0855 18.14 30.8125 17.8181 31.585 17.7232C32.3575 17.6283 33.1408 17.7646 33.8358 18.1149C34.5307 18.4651 35.1066 19.0136 35.4897 19.691C35.8733 20.3683 36.047 21.1442 35.9892 21.9203C35.9319 22.6965 35.6452 23.4381 35.1661 24.0515C34.687 24.6649 34.0368 25.1224 33.2977 25.3662C32.8069 25.5281 32.289 25.5918 31.7736 25.5535C31.2582 25.5153 30.7554 25.3759 30.2939 25.1433C29.8324 24.9107 29.4212 24.5895 29.0838 24.198C28.7464 23.8065 28.4895 23.3524 28.3276 22.8616Z" fill="#7EAABA"/>
<path d="M28.9775 22.6374C29.1796 23.2478 29.5581 23.7846 30.0653 24.18C30.5724 24.5753 31.1854 24.8114 31.8267 24.8584C32.468 24.9054 33.1089 24.7612 33.6682 24.444C34.2276 24.1268 34.6803 23.6509 34.9695 23.0765C35.2583 22.502 35.3704 21.8548 35.2914 21.2166C35.2124 20.5784 34.9461 19.978 34.5261 19.4911C34.1061 19.0043 33.5511 18.653 32.9314 18.4815C32.3116 18.31 31.655 18.3262 31.0444 18.5279C30.638 18.6608 30.262 18.8728 29.9379 19.1516C29.6138 19.4305 29.348 19.7707 29.1559 20.1526C28.9638 20.5346 28.8491 20.9507 28.8185 21.3772C28.7879 21.8036 28.8419 22.2319 28.9775 22.6374Z" fill="#D3E8EF"/>
<path d="M35.2862 21.1786C35.2603 20.9805 35.2153 20.7855 35.1512 20.5963C35.0182 20.19 34.8063 19.814 34.5277 19.4898C34.249 19.1657 33.909 18.8999 33.5272 18.7076C33.1454 18.5154 32.7293 18.4006 32.303 18.3698C31.8766 18.3389 31.4484 18.3927 31.0429 18.5281C30.5375 18.6895 30.0814 18.9767 29.7177 19.3629C29.7439 19.5613 29.7892 19.7568 29.8528 19.9465C29.985 20.3532 30.1964 20.7296 30.4747 21.0543C30.7531 21.3789 31.0929 21.6452 31.4746 21.838C31.8563 22.0307 32.2724 22.1461 32.6989 22.1773C33.1254 22.2086 33.5538 22.1552 33.9596 22.0202C34.4665 21.8579 34.9235 21.5681 35.2862 21.1786Z" fill="white"/>
<path d="M27.586 23.8692C27.3551 23.1719 27.3361 22.4217 27.5316 21.7136C27.7271 21.0054 28.1281 20.3712 28.6841 19.891C29.2401 19.4109 29.926 19.1064 30.6551 19.0162C31.3841 18.9259 32.1235 19.0539 32.7798 19.3839C33.4361 19.714 33.9798 20.2312 34.3421 20.8703C34.7044 21.5094 34.8688 22.2415 34.8149 22.9742C34.7613 23.7068 34.4912 24.407 34.0393 24.9862C33.5874 25.5654 32.9739 25.9975 32.2764 26.2279C31.8136 26.3821 31.3249 26.4434 30.8383 26.4083C30.3518 26.3731 29.877 26.2422 29.4412 26.023C29.0054 25.8038 28.6171 25.5008 28.2987 25.1312C27.9804 24.7616 27.7382 24.3327 27.586 23.8692Z" fill="#7F3E13"/>
<path d="M28.3411 23.6305C28.1601 23.0825 28.1458 22.4932 28.2998 21.9371C28.4539 21.381 28.7694 20.8831 29.2065 20.5064C29.6436 20.1296 30.1827 19.891 30.7554 19.8208C31.3282 19.7505 31.9089 19.8517 32.4241 20.1116C32.9393 20.3715 33.3659 20.7784 33.6498 21.2807C33.9337 21.7831 34.0622 22.3584 34.0191 22.9338C33.9759 23.5093 33.7631 24.059 33.4074 24.5134C33.0517 24.9678 32.5692 25.3065 32.021 25.4866C31.2869 25.7275 30.4872 25.6673 29.7973 25.3194C29.1075 24.9714 28.5838 24.364 28.3411 23.6305Z" fill="#B85A1B"/>
<path d="M28.2222 22.2521C28.3247 21.6055 28.6415 21.0121 29.1215 20.5671C29.6016 20.122 30.2172 19.851 30.8697 19.7976C31.5221 19.7442 32.1737 19.9114 32.7197 20.2724C33.2658 20.6335 33.6748 21.1674 33.8812 21.7887C33.9608 22.0242 34.0098 22.2689 34.0271 22.5169C32.1439 23.7097 29.6798 23.4449 28.2181 22.2386L28.2222 22.2521Z" fill="#E1762F"/>
<path d="M14.7427 0C16.2287 0 17.4202 1.27255 17.4202 2.83692C17.4202 4.4013 16.2274 5.67385 14.7427 5.67385C13.2581 5.67385 12.0652 4.39994 12.0652 2.83692C12.0652 1.27391 13.2581 0 14.7427 0Z" fill="#7F3E13"/>
<path d="M14.7427 0.782227C13.6431 0.782227 12.8514 1.76299 12.8514 2.83698C12.8514 3.91098 13.6471 4.89038 14.7427 4.89038C15.8383 4.89038 16.634 3.90962 16.634 2.83698C16.634 1.76435 15.8424 0.782227 14.7427 0.782227Z" fill="#B85A1B"/>
<path d="M14.7428 1.56396C14.0673 1.56396 13.6296 2.20024 13.6296 2.83651C13.6296 3.47279 14.0808 4.10775 14.7428 4.10775C15.4047 4.10775 15.8559 3.47147 15.8559 2.83651C15.8559 2.2016 15.4047 1.56396 14.7428 1.56396Z" fill="#63300F"/>
<path d="M26.1271 0C27.6131 0 28.8046 1.27255 28.8046 2.83692C28.8046 4.4013 27.6118 5.67385 26.1271 5.67385C24.6424 5.67385 23.4509 4.4013 23.4509 2.83692C23.4509 1.27255 24.6438 0 26.1271 0Z" fill="#7F3E13"/>
<path d="M26.127 0.782227C25.0274 0.782227 24.2357 1.76299 24.2357 2.83698C24.2357 3.91098 25.0301 4.89038 26.127 4.89038C27.224 4.89038 28.0183 3.90962 28.0183 2.83698C28.0183 1.76435 27.228 0.782227 26.127 0.782227Z" fill="#B85A1B"/>
<path d="M26.1269 1.56396C25.4515 1.56396 25.0138 2.20024 25.0138 2.83651C25.0138 3.47279 25.465 4.10775 26.1269 4.10775C26.7889 4.10775 27.2415 3.47147 27.2415 2.83651C27.2415 2.2016 26.7903 1.56396 26.1269 1.56396Z" fill="#4F2800"/>
<path d="M19.3548 1.32521C19.5228 1.32415 19.6874 1.37299 19.8276 1.46554C19.9678 1.55813 20.0774 1.69026 20.1425 1.84516C20.2075 2.00009 20.2251 2.17083 20.193 2.33575C20.1608 2.50067 20.0805 2.65234 19.962 2.77156C19.8436 2.89073 19.6924 2.97207 19.5277 3.00524C19.363 3.03841 19.1922 3.02193 19.0368 2.95788C18.8815 2.89383 18.7487 2.78511 18.6552 2.64546C18.5617 2.50585 18.5118 2.34161 18.5118 2.17359C18.5132 1.94993 18.6023 1.73579 18.76 1.57716C18.9176 1.41848 19.1312 1.32802 19.3548 1.32521ZM21.5163 1.32521C21.6843 1.32415 21.8489 1.37299 21.9891 1.46554C22.1293 1.55813 22.2389 1.69026 22.3039 1.84516C22.369 2.00009 22.3865 2.17083 22.3544 2.33575C22.3223 2.50067 22.242 2.65234 22.1235 2.77156C22.0051 2.89073 21.8539 2.97207 21.6892 3.00524C21.5245 3.03841 21.3537 3.02193 21.1983 2.95788C21.043 2.89383 20.9102 2.78511 20.8167 2.64546C20.7232 2.50585 20.6733 2.34161 20.6733 2.17359C20.6747 1.95019 20.7636 1.73621 20.9209 1.57762C21.0783 1.41899 21.2916 1.3284 21.515 1.32521H21.5163Z" fill="#7F3E13"/>
<path d="M30.3283 4.86325V10.1386L30.3823 10.1521C30.7552 10.2939 31.0758 10.5465 31.3009 10.8759C31.526 11.2054 31.6448 11.5958 31.6414 11.9947V15.7841L20.4422 19.4829L9.24311 15.8773V11.9947C9.23967 11.5958 9.35851 11.2054 9.58357 10.8759C9.80867 10.5465 10.1293 10.2939 10.5022 10.1521L10.5549 10.1386V4.85111C10.5549 1.2036 30.3283 1.2036 30.3283 4.85111V4.86325Z" fill="#7F3E13"/>
<path d="M11.4424 5.06326V10.7479L10.979 10.9344C10.7297 11.0285 10.5157 11.1974 10.3663 11.418C10.2168 11.6386 10.1392 11.9 10.1441 12.1664V16.1692L20.4422 19.483L30.7403 16.0894V12.1718C30.7432 11.9056 30.6646 11.645 30.5151 11.4248C30.3657 11.2046 30.1525 11.0354 29.904 10.9397L29.4407 10.7533V5.06326C29.4407 2.3614 11.4559 2.3614 11.4559 5.06326H11.4424Z" fill="#B85A1B"/>
<path d="M11.4424 5.06321V10.7478L10.979 10.9343C10.7297 11.0285 10.5157 11.1974 10.3663 11.418C10.2168 11.6385 10.1392 11.8999 10.1441 12.1663V16.1691L20.4422 19.4829V17.3093C16.8771 17.3214 13.3121 14.9897 14.2523 10.3642H20.4422V3.04761C15.9491 3.04761 11.4424 3.72308 11.4424 5.07399V5.06321Z" fill="#E1762F"/>
<path d="M13.762 9.15771H27.1482C29.049 19.2045 11.7207 19.1248 13.762 9.15771Z" fill="#E5895B"/>
<path d="M14.4253 9.93994C14.2389 11.4908 14.5712 12.9876 15.7236 14.1548C16.9394 15.3706 18.7847 15.911 20.4815 15.8907C22.1121 15.8772 23.848 15.3612 25.0544 14.2075C26.2607 13.0538 26.6309 11.53 26.4728 9.93994H14.4253Z" fill="#E5895B"/>
<path d="M22.682 14.6317C23.5831 15.7975 26.2066 15.3206 25.4244 12.8552L22.682 14.6317Z" fill="#FAD395"/>
<path d="M21.8595 14.3802C22.8673 15.6785 26.1541 14.9098 25.3989 12.0999L21.8595 14.3802Z" fill="#4F2800"/>
<path d="M22.7349 13.7036C22.8115 13.6759 22.8946 13.6719 22.9735 13.6922C23.0524 13.7125 23.1233 13.7561 23.177 13.8172C23.2308 13.8784 23.2649 13.9544 23.2748 14.0352C23.2848 14.116 23.2702 14.198 23.2329 14.2703C23.1956 14.3427 23.1374 14.4022 23.0657 14.441C22.9942 14.4798 22.9125 14.4962 22.8316 14.4879C22.7505 14.4797 22.6739 14.4472 22.6116 14.3948C22.5493 14.3424 22.5042 14.2724 22.4823 14.194C22.452 14.0954 22.4614 13.9889 22.5086 13.8972C22.5559 13.8056 22.6371 13.7361 22.7349 13.7036ZM24.8815 12.2176C24.9818 12.1949 25.087 12.2129 25.1741 12.2676C25.2612 12.3223 25.3231 12.4092 25.3462 12.5093C25.3758 12.6079 25.3661 12.7141 25.3189 12.8055C25.2718 12.897 25.191 12.9666 25.0936 12.9997C24.9935 13.0223 24.8885 13.0043 24.8016 12.9496C24.7148 12.8949 24.6531 12.808 24.6302 12.7079C24.601 12.6097 24.6108 12.504 24.6576 12.4129C24.7044 12.3218 24.7846 12.2523 24.8815 12.2189V12.2176Z" fill="white"/>
<path d="M24.0599 14.8708C24.7759 14.6317 25.3987 14.0603 25.5041 13.1471C24.9218 13.0673 23.9154 13.9144 24.0599 14.8708Z" fill="#AD6151"/>
<path d="M15.1345 9.15771H25.7514C27.2536 16.3284 13.5242 16.2622 15.1345 9.15771Z" fill="#FAD395"/>
<path d="M20.4424 13.239C20.502 12.8047 20.6748 12.3938 20.9436 12.0475C22.2148 11.8489 23.3158 10.8816 22.97 9.14437C22.1615 8.8584 21.3107 8.7109 20.4532 8.70801L19.9358 10.3507L20.4532 13.2539L20.4424 13.239Z" fill="#4F2800"/>
<path d="M20.4422 13.2391C20.3814 12.8043 20.2077 12.393 19.9384 12.0462C18.6658 11.8476 17.5661 10.8804 17.912 9.1431C18.7208 8.85701 19.5721 8.70951 20.4301 8.70679V13.2391H20.4422Z" fill="#63300F"/>
<path d="M18.5604 9.39742C19.7929 9.06512 21.0915 9.06512 22.324 9.39742C22.8536 10.7092 17.9903 10.6957 18.5604 9.39742Z" fill="#AD6151"/>
<path d="M18.4146 5.7522C18.6951 5.7522 18.9694 5.8354 19.2026 5.99127C19.4359 6.1471 19.6177 6.36864 19.7251 6.62784C19.8324 6.88705 19.8605 7.17225 19.8058 7.44739C19.751 7.72256 19.6159 7.97531 19.4176 8.17366C19.2192 8.37205 18.9665 8.50715 18.6913 8.5619C18.4161 8.6166 18.1309 8.58853 17.8717 8.48116C17.6126 8.37379 17.391 8.19201 17.2352 7.95871C17.0793 7.72545 16.9961 7.45121 16.9961 7.17068C16.9965 6.79459 17.146 6.434 17.412 6.16804C17.6779 5.90212 18.0385 5.75258 18.4146 5.7522Z" fill="white"/>
<path d="M18.5198 6.24243C18.7296 6.24243 18.9346 6.30465 19.109 6.42115C19.2834 6.5377 19.4193 6.7033 19.4996 6.8971C19.5799 7.09085 19.6008 7.30411 19.5599 7.5098C19.519 7.71549 19.418 7.90445 19.2697 8.05276C19.1214 8.20108 18.9325 8.30207 18.7267 8.34302C18.521 8.38392 18.3078 8.36294 18.114 8.28266C17.9202 8.20239 17.7546 8.06648 17.6381 7.89209C17.5216 7.7177 17.4594 7.51265 17.4594 7.30292C17.4601 7.02188 17.572 6.75256 17.7708 6.55384C17.9695 6.35511 18.2388 6.24315 18.5198 6.24243Z" fill="#1B1D23"/>
<path d="M22.4956 5.7522C22.2151 5.75245 21.941 5.83591 21.7079 5.99191C21.4749 6.14795 21.2932 6.36957 21.1861 6.62878C21.0789 6.88799 21.051 7.17314 21.1059 7.44824C21.1608 7.72329 21.296 7.97591 21.4944 8.17417C21.6929 8.37239 21.9456 8.50736 22.2208 8.56198C22.4958 8.6166 22.781 8.58844 23.0401 8.48103C23.2992 8.37362 23.5207 8.19184 23.6765 7.95858C23.8323 7.72537 23.9154 7.45117 23.9154 7.17068C23.9151 6.79434 23.7653 6.43358 23.4991 6.16757C23.2329 5.90161 22.8719 5.7522 22.4956 5.7522Z" fill="white"/>
<path d="M22.3903 6.24243C22.1806 6.24243 21.9755 6.30465 21.8011 6.42115C21.6268 6.5377 21.4908 6.7033 21.4106 6.8971C21.3303 7.09085 21.3093 7.30411 21.3502 7.5098C21.3911 7.71549 21.4921 7.90445 21.6404 8.05276C21.7887 8.20108 21.9777 8.30207 22.1834 8.34302C22.3891 8.38392 22.6023 8.36294 22.7961 8.28266C22.9899 8.20239 23.1555 8.06648 23.272 7.89209C23.3886 7.7177 23.4508 7.51265 23.4508 7.30292C23.4501 7.02188 23.3381 6.75256 23.1394 6.55384C22.9407 6.35511 22.6714 6.24315 22.3903 6.24243Z" fill="#1B1D23"/>
<path d="M19.4481 5.28752C18.4369 5.07066 17.3809 5.25779 16.5058 5.80895C16.2005 4.06896 19.1293 3.55156 19.4481 5.28752Z" fill="#63300F"/>
<path d="M21.1704 4.41348C22.2971 4.20137 23.2643 4.39997 24.1127 4.93087C24.418 3.19359 21.4838 2.67756 21.1704 4.41348Z" fill="#4F2800"/>
<path d="M31.6278 15.7976V26.7049C31.6268 27.0562 31.4869 27.3928 31.2386 27.6413C30.9903 27.8898 30.6539 28.0301 30.3026 28.0315H10.5549C10.2035 28.0305 9.86678 27.8903 9.61845 27.6417C9.37011 27.3931 9.23029 27.0563 9.22961 26.7049V15.8908L20.4287 18.5683L31.6278 15.7976Z" fill="#7EAABA"/>
<path d="M30.7404 16.938L20.4423 19.4831L10.1361 17.0217V26.4714C10.1354 26.5587 10.1521 26.6452 10.1852 26.7259C10.2183 26.8066 10.2672 26.8799 10.3289 26.9416C10.3907 27.0032 10.4641 27.0519 10.5449 27.0849C10.6257 27.1178 10.7122 27.1343 10.7995 27.1334H30.0771C30.1643 27.1343 30.2509 27.1178 30.3317 27.0849C30.4124 27.0519 30.4859 27.0032 30.5476 26.9416C30.6094 26.8799 30.6582 26.8066 30.6913 26.7259C30.7244 26.6452 30.7411 26.5587 30.7404 26.4714V16.938Z" fill="#D3E8EF"/>
<path d="M20.4424 19.4831L10.1443 17.0217V26.4714C10.1436 26.5585 10.1602 26.6449 10.1932 26.7256C10.2262 26.8062 10.275 26.8795 10.3366 26.9411C10.3982 27.0027 10.4715 27.0514 10.5521 27.0844C10.6327 27.1175 10.7191 27.1341 10.8063 27.1334H20.4424V19.4831Z" fill="white"/>
<path d="M20.4423 22.155H29.0962V23.3222H20.4423V22.155ZM20.4423 24.5542H29.0962V25.7201H20.4423V24.5542Z" fill="#036AAB"/>
<path d="M11.787 22.155H20.4423V23.3222H11.787V22.155ZM20.4423 25.7201V24.5542H11.787V25.7201H20.4423Z" fill="#0399ED"/>
<path d="M15.2994 21.4043H16.3869V26.6931H15.2994V21.4043Z" fill="white"/>
<path d="M12.2516 16.6072C14.9818 17.257 17.712 17.9189 20.4287 18.5687L17.5121 21.3246C15.6181 20.2114 13.7484 18.9794 12.2516 16.6072Z" fill="#7EAABA"/>
<path d="M14.5712 18.0779C15.4264 18.8954 16.3734 19.6112 17.3933 20.211L18.6267 19.0451C17.2744 18.7277 15.9221 18.3954 14.5712 18.0779Z" fill="white"/>
<path d="M28.6194 16.6072C25.8891 17.257 23.1589 17.9189 20.4423 18.5687L23.3575 21.3246C25.2529 20.2114 27.1212 18.9794 28.6194 16.6072Z" fill="#7EAABA"/>
<path d="M26.2998 18.0779C25.4441 18.8954 24.4967 19.6113 23.4764 20.211L22.2444 19.0479C23.5967 18.7277 24.9476 18.3954 26.2998 18.0779Z" fill="white"/>
</svg>
