<svg width="57" height="56" viewBox="0 0 57 56" fill="none" xmlns="http://www.w3.org/2000/svg">
<rect width="56.4194" height="56" rx="28" fill="#F0F4FF"/>
<g clip-path="url(#clip0_291_666)">
<path d="M27.8565 21.0962C27.4572 21.0954 27.0618 21.1712 26.6927 21.3194C26.3237 21.4675 25.9883 21.6851 25.706 21.9596C25.4237 22.2341 25.1999 22.5601 25.0475 22.9188C24.8951 23.2776 24.8171 23.6622 24.818 24.0503V41.1329C24.8221 41.2764 24.8826 41.4129 24.9871 41.5144C25.0915 41.616 25.2319 41.6748 25.3795 41.6788C26.8415 41.6763 28.2429 41.1105 29.2767 40.1054C30.3105 39.1003 30.8924 37.7378 30.8951 36.3164V24.0503C30.8959 23.6622 30.8179 23.2776 30.6655 22.9188C30.5132 22.5601 30.2894 22.2341 30.007 21.9596C29.7247 21.6851 29.3894 21.4675 29.0204 21.3194C28.6513 21.1712 28.2558 21.0954 27.8565 21.0962Z" fill="#1E1E1E"/>
<path d="M19.0385 29.445C18.6393 29.4441 18.2438 29.52 17.8747 29.6681C17.5057 29.8163 17.1704 30.0338 16.888 30.3083C16.6057 30.5828 16.3819 30.9088 16.2295 31.2676C16.0771 31.6264 15.9991 32.0109 16 32.3991V41.4542C16.0042 41.5977 16.0647 41.7342 16.1691 41.8357C16.2735 41.9372 16.4139 41.996 16.5615 42C18.0235 41.9975 19.4249 41.4317 20.4587 40.4266C21.4925 39.4215 22.0745 38.0591 22.0771 36.6376V32.3991C22.078 32.0109 22 31.6264 21.8476 31.2676C21.6952 30.9088 21.4714 30.5828 21.1891 30.3083C20.9067 30.0338 20.5714 29.8163 20.2024 29.6681C19.8333 29.52 19.4378 29.4441 19.0385 29.445Z" fill="#1E1E1E"/>
<path d="M36.6755 14C36.2762 13.9992 35.8807 14.075 35.5117 14.2232C35.1426 14.3713 34.8073 14.5889 34.525 14.8634C34.2427 15.1378 34.0189 15.4638 33.8665 15.8226C33.7141 16.1814 33.6361 16.566 33.637 16.9541V41.3257C33.6411 41.4692 33.7016 41.6057 33.806 41.7072C33.9104 41.8087 34.0508 41.8676 34.1984 41.8716C35.6604 41.8691 37.0618 41.3033 38.0957 40.2982C39.1295 39.2931 39.7114 37.9306 39.714 36.5092V16.9541C39.7149 16.566 39.6369 16.1814 39.4845 15.8226C39.3321 15.4638 39.1084 15.1378 38.826 14.8634C38.5437 14.5889 38.2084 14.3713 37.8393 14.2232C37.4703 14.075 37.0748 13.9992 36.6755 14Z" fill="#1E1E1E"/>
</g>
<defs>
<clipPath id="clip0_291_666">
<rect width="24" height="28" fill="white" transform="translate(16 14)"/>
</clipPath>
</defs>
</svg>
