<svg width="56" height="56" viewBox="0 0 56 56" fill="none" xmlns="http://www.w3.org/2000/svg">
<rect width="56" height="56" rx="28" fill="#F0F4FF"/>
<path d="M21.9565 26.4272H23.3687C23.5319 26.4272 23.6819 26.5395 23.7261 26.7017L23.728 26.7056L24.1147 28.0864L24.1929 28.3638L24.4722 28.4351C25.1261 28.6023 25.7428 28.8672 26.3169 29.2056L26.564 29.3511L26.8149 29.2114L28.0747 28.5073L28.0767 28.5063C28.2212 28.4247 28.4012 28.4483 28.519 28.5659L29.5171 29.564C29.6386 29.6855 29.6616 29.8721 29.5825 30.0122L29.5815 30.0132L28.8784 31.2681L28.7368 31.52L28.8843 31.7681C29.2199 32.3325 29.4798 32.9537 29.6479 33.6108L29.7192 33.8901L29.9966 33.9683L31.3804 34.3599V34.3608C31.5266 34.4026 31.6305 34.522 31.6558 34.6646L31.6616 34.7271V36.1274C31.6615 36.2907 31.5495 36.4408 31.3872 36.4849L31.3833 36.4858L30.0034 36.8735L29.7251 36.9507L29.6538 37.231C29.4863 37.8857 29.2211 38.5074 28.8833 39.0806L28.7378 39.3286L28.8784 39.5796L29.5815 40.8335L29.5825 40.8345C29.6616 40.9746 29.6386 41.1612 29.5171 41.2827L28.519 42.2808C28.4048 42.395 28.219 42.4215 28.0767 42.3413L28.0747 42.3394L26.8149 41.6362L26.561 41.4946L26.312 41.645C25.7493 41.9846 25.1292 42.2435 24.4722 42.4116L24.1929 42.4839L24.1147 42.7612L23.728 44.1411L23.7261 44.145C23.6815 44.3091 23.5356 44.4204 23.3687 44.4204H21.9565C21.7932 44.4204 21.6432 44.3073 21.5991 44.145L21.5981 44.1411L21.2104 42.7612L21.1323 42.4839L20.854 42.4126L20.6118 42.3452C20.0494 42.1777 19.5101 41.9378 19.0083 41.6421L18.7612 41.4966L18.5103 41.6362L17.2505 42.3394L17.2485 42.3413C17.1016 42.4241 16.9195 42.3961 16.8101 42.2847L15.8081 41.2827C15.6866 41.1612 15.6636 40.9746 15.7427 40.8345L15.7437 40.8335L16.4468 39.5796L16.5894 39.3257L16.439 39.0757C16.0999 38.5138 15.8397 37.8889 15.6714 37.231L15.6001 36.9507L15.3228 36.8735L13.9419 36.4858L13.938 36.4849L13.8794 36.4634C13.7483 36.4034 13.6636 36.2734 13.6636 36.1274V34.7202C13.6636 34.557 13.7758 34.4069 13.938 34.3628L13.9438 34.3608L15.3286 33.9683L15.606 33.8901L15.6772 33.6108C15.8451 32.9548 16.1049 32.338 16.4419 31.7661L16.5874 31.519L15.7437 30.0132L15.7427 30.0122L15.7173 29.9575C15.6706 29.8265 15.7019 29.6702 15.8081 29.564L16.8062 28.5659C16.9204 28.4518 17.1063 28.4261 17.2485 28.5063L17.2505 28.5073L18.5103 29.2114L18.7642 29.353L19.0132 29.2026C19.5753 28.8634 20.2009 28.6034 20.854 28.4351L21.1323 28.3628L21.2104 28.0864L21.5981 26.7056L21.5991 26.7017C21.6437 26.5377 21.7897 26.4272 21.9565 26.4272ZM22.6548 30.8384C20.1196 30.8384 18.0688 32.8957 18.0688 35.4292C18.0689 37.9626 20.1196 40.02 22.6548 40.02C25.1948 40.0199 27.2455 37.9629 27.2456 35.4292C27.2456 32.8954 25.1949 30.8385 22.6548 30.8384Z" fill="white" stroke="#5F2CED"/>
<path d="M44.0416 38.1291L43.1853 37.8891C43.0762 37.4581 42.9071 37.0491 42.6835 36.6727L43.1144 35.8981C43.2344 35.6909 43.1962 35.4236 43.0216 35.2545L42.4107 34.6436C42.2416 34.4745 41.9744 34.4363 41.7671 34.5563L40.9926 34.9872C40.6162 34.7636 40.2126 34.5945 39.7762 34.48L39.5362 33.6291C39.4707 33.3945 39.258 33.2363 39.018 33.2363H38.1453C37.9053 33.2363 37.6926 33.3945 37.6271 33.6291L37.3871 34.48C36.9562 34.5891 36.5471 34.7636 36.1707 34.9872L35.3962 34.5563C35.1889 34.4363 34.9216 34.4745 34.7526 34.6436L34.1416 35.2545C33.9671 35.4291 33.9344 35.6909 34.0489 35.8981L34.4853 36.6727C34.2616 37.0491 34.0926 37.4527 33.9835 37.8891L33.1271 38.1291C32.8926 38.1945 32.7344 38.4072 32.7344 38.6472V39.5145C32.7344 39.7545 32.8926 39.9672 33.1271 40.0327L33.978 40.2727C34.0871 40.7036 34.2616 41.1181 34.4853 41.4945L34.0489 42.2691C33.9289 42.4763 33.9671 42.7436 34.1416 42.9127L34.7526 43.5236C34.9216 43.6927 35.1835 43.7309 35.3962 43.6109L36.1707 43.1745C36.5471 43.3981 36.9562 43.5672 37.3871 43.6818L37.6271 44.5327C37.6926 44.7672 37.9053 44.9254 38.1453 44.9254H39.018C39.258 44.9254 39.4707 44.7672 39.5362 44.5327L39.7762 43.6818C40.2071 43.5727 40.6162 43.3981 40.9926 43.1745L41.7671 43.6109C41.9744 43.7309 42.2416 43.6927 42.4107 43.5236L43.0216 42.9127C43.1962 42.7381 43.2289 42.4763 43.1144 42.2691L42.6835 41.4945C42.9071 41.1181 43.0762 40.7091 43.1907 40.2727L44.0416 40.0327C44.2762 39.9672 44.4344 39.7545 44.4344 39.5145V38.6472C44.4344 38.4072 44.2762 38.1945 44.0416 38.1291ZM38.5871 41.5981C37.1962 41.5981 36.0726 40.4691 36.0726 39.0836C36.0726 37.6981 37.1962 36.5691 38.5871 36.5691C39.978 36.5691 41.1016 37.6981 41.1016 39.0836C41.1016 40.4691 39.978 41.5981 38.5871 41.5981Z" fill="#5F2CED"/>
<path d="M14.6254 31.2238L14.3744 30.7765C13.9544 30.0293 14.0854 29.0747 14.6963 28.4638L15.6944 27.4656C16.0599 27.1002 16.5454 26.9038 17.0581 26.9038C17.3908 26.9038 17.7181 26.9911 18.0017 27.1493L18.749 27.5693C19.109 27.3893 19.4799 27.2365 19.8563 27.1111L20.0854 26.2929C20.3144 25.4583 21.0835 24.8802 21.9454 24.8802H23.3581C24.2199 24.8802 24.989 25.4638 25.2181 26.2929L25.4472 27.1111C25.8235 27.2365 26.1944 27.3947 26.5544 27.5747L27.3072 27.1547C27.5908 26.9965 27.9181 26.9093 28.2508 26.9093C28.769 26.9093 29.2544 27.1111 29.6144 27.4711L30.6126 28.4693C31.2235 29.0802 31.3599 30.0347 30.9344 30.7874L30.5144 31.5347C30.5635 31.6274 30.6017 31.7256 30.6454 31.8183H38.8217C41.3799 31.8183 43.4526 29.7456 43.4526 27.1929C43.4526 24.7547 41.5708 22.7583 39.1763 22.5783C38.5708 22.6274 37.9708 22.8074 37.4472 23.1074C37.3654 23.1565 37.2726 23.1783 37.1854 23.1783C36.9999 23.1783 36.8254 23.0856 36.7272 22.9111C36.5799 22.6602 36.6672 22.3329 36.9235 22.1911C37.6872 21.7493 38.5708 21.5256 39.449 21.5202C39.4817 21.302 39.5035 21.0783 39.5035 20.8547C39.5035 18.2693 37.409 16.1747 34.829 16.1747C33.8199 16.1747 32.8817 16.4965 32.1181 17.042C31.4908 13.6383 28.5126 11.0747 24.9399 11.0747C20.909 11.0747 17.6417 14.342 17.6417 18.3729C17.6417 18.8038 17.6799 19.2293 17.7508 19.6438C18.3835 19.8129 18.9835 20.0747 19.5344 20.4402C19.7799 20.6038 19.8454 20.9311 19.6817 21.1711C19.5781 21.3238 19.4144 21.4056 19.2399 21.4056C19.1417 21.4056 19.0381 21.3783 18.9454 21.3183C18.6617 21.1274 18.3617 20.9747 18.0508 20.8493C17.7344 20.7947 17.4126 20.762 17.0799 20.762C14.0254 20.762 11.5544 23.2383 11.5544 26.2874C11.5654 28.4474 12.809 30.3183 14.6254 31.2238ZM32.0199 18.7929C31.7254 18.7929 31.4908 18.5583 31.4908 18.2638C31.4908 17.9693 31.7254 17.7347 32.0199 17.7347H33.8035C34.0981 17.7347 34.3326 17.9693 34.3326 18.2638C34.3326 18.5583 34.0981 18.7929 33.8035 18.7929H33.4435V22.8238H33.8035C34.0981 22.8238 34.3326 23.0583 34.3326 23.3529C34.3326 23.6474 34.0981 23.882 33.8035 23.882H32.0199C31.7254 23.882 31.4908 23.6474 31.4908 23.3529C31.4908 23.0583 31.7254 22.8238 32.0199 22.8238H32.3799V18.7929H32.0199ZM26.9799 18.3947C26.9799 17.9583 27.3344 17.6038 27.7708 17.6038H29.3908C30.5035 17.6038 31.4035 18.5093 31.4035 19.6165C31.4035 20.7238 30.4981 21.6293 29.3908 21.6293H28.0381V23.3474C28.0381 23.642 27.8035 23.8765 27.509 23.8765C27.2144 23.8765 26.9799 23.642 26.9799 23.3474V18.3947ZM21.4054 19.8183C21.4054 18.5965 22.3981 17.6093 23.6144 17.6093C24.8308 17.6093 25.8235 18.602 25.8235 19.8183V23.3529C25.8235 23.6474 25.589 23.882 25.2944 23.882C24.9999 23.882 24.7654 23.6474 24.7654 23.3529V21.6347H22.4581V23.3529C22.4581 23.6474 22.2235 23.882 21.929 23.882C21.6344 23.882 21.3999 23.6474 21.3999 23.3529V19.8183H21.4054Z" fill="#5F2CED"/>
<path d="M30.3454 19.622C30.3454 19.0929 29.9144 18.6675 29.3908 18.6675H28.0381V20.5766H29.3908C29.9199 20.5766 30.3454 20.1457 30.3454 19.622Z" fill="#5F2CED"/>
<path d="M24.7708 19.8184C24.7708 19.1802 24.2526 18.6675 23.6199 18.6675C22.9817 18.6675 22.469 19.1857 22.469 19.8184V20.5766H24.7763V19.8184H24.7708Z" fill="#5F2CED"/>
</svg>
