<svg width="56" height="56" viewBox="0 0 56 56" fill="none" xmlns="http://www.w3.org/2000/svg">
<rect width="56" height="56" rx="28" fill="#F0F4FF"/>
<g clip-path="url(#clip0_319_1107)">
<path d="M28 8.5C38.7696 8.5 47.5 17.2304 47.5 28C47.5 38.7696 38.7696 47.5 28 47.5C17.2304 47.5 8.5 38.7696 8.5 28C8.5 17.2304 17.2304 8.5 28 8.5Z" fill="white" stroke="#5F2CED"/>
<g clip-path="url(#clip1_319_1107)">
<path d="M33.6799 27.54L31.5499 29.72L32.0499 32.82C32.0846 33.0085 32.0643 33.2029 31.9916 33.3802C31.919 33.5574 31.7969 33.7101 31.6399 33.82C31.4857 33.927 31.3045 33.9884 31.1171 33.9972C30.9296 34.006 30.7435 33.962 30.5799 33.87L27.9999 32.42L25.3999 33.85C25.2545 33.9356 25.0887 33.9805 24.9199 33.98C24.7126 33.9816 24.5099 33.9187 24.3399 33.8C24.1829 33.6901 24.0609 33.5374 23.9882 33.3602C23.9155 33.1829 23.8953 32.9885 23.9299 32.8L24.4399 29.7L22.2999 27.54C22.1705 27.4082 22.0802 27.2431 22.0389 27.063C21.9977 26.883 22.0071 26.6951 22.0661 26.52C22.1251 26.345 22.2315 26.1898 22.3734 26.0715C22.5153 25.9532 22.6871 25.8766 22.8699 25.85L25.7799 25.4L27.0899 22.62C27.1643 22.439 27.2901 22.2837 27.4519 22.1735C27.6136 22.0633 27.8042 22.003 27.9999 22C28.1901 21.9987 28.3767 22.0516 28.5379 22.1525C28.6991 22.2535 28.8281 22.3983 28.9099 22.57L30.2099 25.4L33.1199 25.85C33.302 25.8772 33.4731 25.9542 33.6142 26.0724C33.7554 26.1906 33.8612 26.3455 33.9199 26.52C33.9782 26.6956 33.9866 26.8839 33.9442 27.064C33.9018 27.244 33.8103 27.4088 33.6799 27.54Z" fill="#5F2CED"/>
</g>
<path d="M14.7159 21.9859L15.3293 15.2742C15.3804 14.7117 16.0693 14.4633 16.4707 14.8633L18.1626 16.5458C24.1208 11.5241 33.0741 11.8358 38.6594 17.4842C44.4827 23.3726 44.4408 32.7668 38.5689 38.6068C32.6786 44.4644 23.1278 44.4644 17.2366 38.6068C14.917 36.3002 13.5108 33.4293 13.0181 30.4384C12.884 29.6243 13.5117 28.8843 14.3413 28.8843H16.7246C17.3657 28.8843 17.9146 29.3351 18.0394 29.9601C18.4031 31.7835 19.2814 33.5235 20.6733 34.9535C24.5591 38.946 30.8919 39.0502 34.9026 35.1818C38.9418 31.2851 38.9795 24.8709 35.0141 20.9275C31.3872 17.3208 25.6804 17.0442 21.7342 20.0984L23.3348 21.69C23.737 22.09 23.4873 22.7742 22.9217 22.8251L16.1724 23.4351C15.3385 23.5101 14.6396 22.8159 14.7159 21.9867V21.9859Z" fill="#5F2CED"/>
</g>
<defs>
<clipPath id="clip0_319_1107">
<rect width="40" height="40" fill="white" transform="translate(8 8)"/>
</clipPath>
<clipPath id="clip1_319_1107">
<rect width="12" height="12" fill="white" transform="translate(22 22)"/>
</clipPath>
</defs>
</svg>
