<svg width="56" height="56" viewBox="0 0 56 56" fill="none" xmlns="http://www.w3.org/2000/svg">
<rect width="56" height="56" rx="28" fill="#F0F4FF"/>
<path d="M37.75 23.5H30.25C29.4544 23.5 28.6913 23.1839 28.1287 22.6213C27.5661 22.0587 27.25 21.2956 27.25 20.5V13L37.75 23.5Z" fill="#7B4B2C"/>
<path d="M18.25 13.5H27.043L37.25 23.707V38.5C37.25 39.5609 36.8283 40.578 36.0781 41.3281C35.328 42.0783 34.3109 42.5 33.25 42.5H18.25C17.1891 42.5 16.172 42.0783 15.4219 41.3281C14.6717 40.578 14.25 39.5609 14.25 38.5V17.5C14.25 16.4391 14.6717 15.422 15.4219 14.6719C16.172 13.9217 17.1891 13.5 18.25 13.5Z" fill="white" stroke="#5F2CED"/>
<path d="M37.75 23.5H30.25C29.4544 23.5 28.6913 23.1839 28.1287 22.6213C27.5661 22.0587 27.25 21.2956 27.25 20.5V13L37.75 23.5ZM34.75 43C34.553 43.0002 34.3579 42.9615 34.1759 42.8861C33.9939 42.8106 33.8286 42.7 33.6895 42.5605L30.6895 39.5605C30.4163 39.2776 30.2651 38.8987 30.2685 38.5054C30.2719 38.1121 30.4297 37.7359 30.7078 37.4578C30.9859 37.1797 31.3621 37.0219 31.7554 37.0185C32.1487 37.0151 32.5276 37.1663 32.8105 37.4395L34.75 39.379L39.6895 34.4395C39.9724 34.1663 40.3513 34.0151 40.7446 34.0185C41.1379 34.0219 41.5141 34.1797 41.7922 34.4578C42.0703 34.7359 42.2281 35.1121 42.2315 35.5054C42.2349 35.8987 42.0837 36.2776 41.8105 36.5605L35.8105 42.5605C35.6714 42.7 35.5061 42.8106 35.3241 42.8861C35.1421 42.9615 34.947 43.0002 34.75 43Z" fill="#5F2CED"/>
<path d="M27.25 37H21.25C20.8522 37 20.4706 36.842 20.1893 36.5607C19.908 36.2794 19.75 35.8978 19.75 35.5C19.75 35.1022 19.908 34.7206 20.1893 34.4393C20.4706 34.158 20.8522 34 21.25 34H27.25C27.6478 34 28.0294 34.158 28.3107 34.4393C28.592 34.7206 28.75 35.1022 28.75 35.5C28.75 35.8978 28.592 36.2794 28.3107 36.5607C28.0294 36.842 27.6478 37 27.25 37ZM30.25 31H21.25C20.8522 31 20.4706 30.842 20.1893 30.5607C19.908 30.2794 19.75 29.8978 19.75 29.5C19.75 29.1022 19.908 28.7206 20.1893 28.4393C20.4706 28.158 20.8522 28 21.25 28H30.25C30.6478 28 31.0294 28.158 31.3107 28.4393C31.592 28.7206 31.75 29.1022 31.75 29.5C31.75 29.8978 31.592 30.2794 31.3107 30.5607C31.0294 30.842 30.6478 31 30.25 31ZM22.75 25H21.25C20.8522 25 20.4706 24.842 20.1893 24.5607C19.908 24.2794 19.75 23.8978 19.75 23.5C19.75 23.1022 19.908 22.7206 20.1893 22.4393C20.4706 22.158 20.8522 22 21.25 22H22.75C23.1478 22 23.5294 22.158 23.8107 22.4393C24.092 22.7206 24.25 23.1022 24.25 23.5C24.25 23.8978 24.092 24.2794 23.8107 24.5607C23.5294 24.842 23.1478 25 22.75 25Z" fill="#5F2CED"/>
</svg>
