<svg width="56" height="56" viewBox="0 0 56 56" fill="none" xmlns="http://www.w3.org/2000/svg">
<rect width="56" height="56" rx="28" fill="#F0F4FF"/>
<path d="M16.5715 41.7143C16.5715 38.6071 17.2054 35.8601 18.4733 33.4732C19.7411 31.0863 21.3275 29.2619 23.2322 28C21.3275 26.7381 19.7411 24.9137 18.4733 22.5268C17.2054 20.1399 16.5715 17.3929 16.5715 14.2857L14.8572 14.2857C14.6905 14.2857 14.5536 14.2321 14.4465 14.125C14.3394 14.0179 14.2858 13.8809 14.2858 13.7143L14.2858 12.5714C14.2858 12.4048 14.3394 12.2679 14.4465 12.1607C14.5536 12.0536 14.6905 12 14.8572 12L41.1429 12C41.3096 12 41.4465 12.0536 41.5536 12.1607C41.6608 12.2679 41.7144 12.4048 41.7144 12.5714L41.7144 13.7143C41.7144 13.8809 41.6608 14.0179 41.5536 14.125C41.4465 14.2321 41.3096 14.2857 41.1429 14.2857L39.4286 14.2857C39.4286 17.3929 38.7947 20.1399 37.5269 22.5268C36.259 24.9137 34.6727 26.7381 32.7679 28C34.6727 29.2619 36.259 31.0863 37.5269 33.4732C38.7947 35.8601 39.4286 38.6071 39.4286 41.7143L41.1429 41.7143C41.3096 41.7143 41.4465 41.7679 41.5536 41.875C41.6608 41.9821 41.7144 42.119 41.7144 42.2857L41.7144 43.4286C41.7144 43.5952 41.6608 43.7321 41.5536 43.8393C41.4465 43.9464 41.3096 44 41.1429 44L14.8572 44C14.6905 44 14.5536 43.9464 14.4465 43.8393C14.3394 43.7321 14.2858 43.5952 14.2858 43.4286L14.2858 42.2857C14.2858 42.119 14.3394 41.9821 14.4465 41.875C14.5536 41.7679 14.6905 41.7143 14.8572 41.7143L16.5715 41.7143ZM18.8572 41.7143L37.1429 41.7143C37.1429 40.9286 37.0894 40.1667 36.9822 39.4286L19.0179 39.4286C18.9108 40.1548 18.8572 40.9167 18.8572 41.7143ZM18.8572 14.2857C18.8572 15.8333 19.0596 17.3185 19.4644 18.7411C19.8691 20.1637 20.4078 21.4018 21.0804 22.4554C21.753 23.5089 22.506 24.4137 23.3394 25.1696C24.1727 25.9256 25.0417 26.4881 25.9465 26.8571L30.0536 26.8571C30.9584 26.4881 31.8275 25.9256 32.6608 25.1696C33.4941 24.4137 34.2471 23.5089 34.9197 22.4554C35.5923 21.4018 36.131 20.1637 36.5358 18.7411C36.9405 17.3184 37.1429 15.8333 37.1429 14.2857L18.8572 14.2857Z" fill="#5F2CED"/>
<path d="M26.2356 22.0579C26.6281 20.1385 29.3713 20.1386 29.7639 22.0579V22.0588C29.9741 23.0877 30.4824 24.032 31.2249 24.7747C31.9676 25.5174 32.9126 26.0254 33.9417 26.2356C35.8615 26.6279 35.8615 29.3716 33.9417 29.7639C32.9125 29.9741 31.9676 30.4821 31.2249 31.2249C30.4821 31.9676 29.9741 32.9125 29.7639 33.9417C29.3716 35.8615 26.6279 35.8615 26.2356 33.9417C26.0254 32.9126 25.5174 31.9676 24.7747 31.2249C24.032 30.4824 23.0877 29.9741 22.0588 29.7639H22.0579C20.1386 29.3713 20.1385 26.6281 22.0579 26.2356H22.0588C23.0878 26.0253 24.032 25.5173 24.7747 24.7747C25.5173 24.032 26.0253 23.0878 26.2356 22.0588V22.0579Z" fill="white" stroke="#5F2CED"/>
</svg>
