<svg width="32" height="32" viewBox="0 0 32 32" fill="none" xmlns="http://www.w3.org/2000/svg">
<path d="M15.4017 20.5142H22.922V24.4794H15.4017V20.5142Z" fill="#F15A24"/>
<path d="M21.3496 7.79823H10.6844C10.2324 7.79459 9.79758 7.97161 9.47665 8.28997C9.15572 8.60833 8.97521 9.04167 8.97522 9.49372V11.7635H22.922V7.79823H21.3496ZM21.2128 14.088H8.9889V24.4797H12.9542V18.0532H21.2402C21.9628 18.0507 22.607 17.5975 22.8536 16.9183C22.9102 16.7652 22.938 16.603 22.9357 16.4398V14.088H21.2128ZM15.9896 32C9.52181 31.9965 3.6924 28.0988 1.21774 22.1231C-1.25692 16.1475 0.110103 9.26957 4.6818 4.69439C9.24674 0.122775 16.1134 -1.25443 22.0881 1.2033C28.0629 3.66103 31.973 9.47124 31.9999 15.9317C32.0267 22.3922 28.1651 28.2347 22.211 30.742C20.243 31.5759 18.127 32.0037 15.9896 32ZM15.9896 2.12381C10.3739 2.12064 5.30973 5.50204 3.16025 10.6901C1.01077 15.8782 2.19969 21.8503 6.1722 25.8196C11.5942 31.2417 20.3851 31.2417 25.8071 25.8196C31.2291 20.3976 31.2291 11.6068 25.8071 6.18478C23.2065 3.57858 19.6713 2.12118 15.9896 2.13749V2.12381Z" fill="black"/>
</svg>
