<svg width="56" height="56" viewBox="0 0 56 56" fill="none" xmlns="http://www.w3.org/2000/svg">
<rect width="56" height="56" rx="28" fill="#F0F4FF"/>
<path d="M21.736 33.112V32.536C21.736 32.032 21.304 31.6 20.8 31.6H11.656C11.152 31.6 10.72 31.96 10.72 32.464V33.04C10.72 33.544 11.152 33.976 11.656 33.976H20.872C21.376 33.976 21.736 33.544 21.736 33.112ZM23.464 26.272H32.608C33.112 26.272 33.544 25.84 33.544 25.336V24.688C33.544 24.184 33.112 23.752 32.608 23.752H23.464C22.96 23.752 22.528 24.184 22.528 24.688V25.336C22.528 25.84 22.888 26.272 23.464 26.272Z" fill="#5F2CED"/>
<path d="M32.7519 38.2961V27.3521H23.2479V34.4081C23.2479 34.8401 22.8879 35.1281 22.5279 35.1281H12.2319V43.9121H43.8399V39.0161H33.5439C33.1119 39.0161 32.7519 38.7281 32.7519 38.2961Z" fill="#5F2CED"/>
<path d="M44.6319 35.416H34.9839C34.6239 35.416 34.3359 35.704 34.3359 36.064V37.216C34.3359 37.576 34.6239 37.864 34.9839 37.864H44.6319C44.9919 37.864 45.2799 37.576 45.2799 37.216V36.064C45.2799 35.704 44.9919 35.416 44.6319 35.416Z" fill="#5F2CED"/>
<path d="M27.2801 18.5681H28.6481V12.0161H26.0561V13.3121H27.2801V18.5681ZM15.8321 21.3761C16.4801 21.3761 16.9121 22.0961 16.3361 22.8161C15.9761 23.3201 15.2561 23.9681 13.6001 25.6961V26.7761H18.2081V25.4801H15.6161C16.4801 24.5441 17.3441 23.7521 17.7761 23.1041C18.4961 21.8081 17.6321 20.1521 15.9041 20.1521C14.9681 20.1521 14.2481 20.5121 13.5281 21.5921L14.6801 22.3121C15.0401 21.7361 15.4001 21.3761 15.8321 21.3761ZM39.8801 29.2961C39.3761 29.2961 38.8721 29.0801 38.2241 28.6481L37.6481 29.8001C38.3681 30.3041 39.0881 30.5921 39.8081 30.5921C41.1761 30.5921 42.2561 29.8001 42.2561 28.4321C42.2561 27.4961 41.6801 26.7041 40.6001 26.5601L41.9681 25.0481V24.0401H37.9361V25.2641H39.9521L38.7281 26.7041V27.7841C39.0881 27.6401 39.3761 27.6401 39.5921 27.6401C40.2401 27.6401 40.8161 27.8561 40.8161 28.5041C40.8881 29.0081 40.4561 29.2961 39.8801 29.2961Z" fill="#5F2CED"/>
</svg>
