<svg width="57" height="56" viewBox="0 0 57 56" fill="none" xmlns="http://www.w3.org/2000/svg">
<rect width="56.4194" height="56" rx="28" fill="#F0F4FF"/>
<g clip-path="url(#clip0_291_835)">
<path d="M29.5556 13.0278H29.75L30.0556 13.1389L30.5278 13.3889L31.6667 14.0556L33.8334 15.3056L34.5 15.6945L35.9445 16.5278L36.6112 16.9167L39.5 18.5834L40.1667 18.9723L41.6112 19.8056L42.3612 20.2501L42.5834 20.4723L42.6667 20.6389L42.6945 20.7501V35.2501L42.5834 35.5278L42.3889 35.7501L41.9167 36.0278L41.1945 36.4445L40.5278 36.8334L39.8334 37.2223L39.2223 37.5834L37.7778 38.4167L37.1112 38.8056L35.6667 39.6389L35 40.0278L33.5556 40.8612L32.8889 41.2501L32.1667 41.6667L31.5 42.0556L30.0556 42.8889L29.8334 42.9723H29.5278L29.25 42.8612L28.75 42.5834L28.0834 42.1945L27.3612 41.7778L26.6945 41.3889L25.25 40.5556L24.5834 40.1667L23.1389 39.3334L22.4723 38.9445L21.0278 38.1112L20.3612 37.7223L18.9167 36.8889L18.25 36.5001L17.6667 36.1667L17.1389 35.8612L16.8889 35.6667L16.75 35.5001L16.6667 35.3334L16.6389 35.1945L16.6112 30.0556L15.9445 29.7501L15.5834 29.5001L15.3056 29.2501L15.0278 28.9723L14.6945 28.5001L14.3334 27.8612L14.1667 27.4445L14.0834 27.1389V26.6389L14.1945 26.3056L14.3612 26.0556L14.5556 25.8612L14.9167 25.6389L15.4723 25.4445L16.5556 25.1667L16.6112 25.1389L16.6389 20.8056L16.75 20.5001L16.9167 20.3056L17.3056 20.0556L17.9445 19.6945L18.4167 19.4167L19.1945 18.9723L19.8612 18.5834L21.3056 17.7501L21.9723 17.3612L23.4167 16.5278L24.0834 16.1389L26.25 14.8889L26.9167 14.5001L28.3612 13.6667L29.0278 13.2778L29.3056 13.1112L29.5556 13.0278Z" fill="#100F32"/>
<path d="M29.6111 13.8611L29.75 13.8889L30.4167 14.2778L30.8611 14.5278L31.3333 14.8055L32.0556 15.2222L32.7222 15.6111L33.1111 15.8333L33.7778 16.2222L34.1667 16.4444L34.8333 16.8333L35.2222 17.0555L35.8889 17.4444L36.5278 17.8055L37.1945 18.1944L37.6667 18.4722L38.4445 18.9166L39.1111 19.3055L39.8333 19.7222L40.5 20.1111L41.1945 20.5L41.5556 20.7222L41.8889 20.9166L41.9167 20.9722V26.8611H41.8333L41.5 26.5555L41.3056 26.3611L41.0833 26.1666L41 26.1111V26.0555L40.8889 26L40.5833 25.7222L40.2778 25.4722L39.8056 25.0833L39.3611 24.75L38.8611 24.3889L38.3889 24.0555L37.8611 23.7222L37.3056 23.3889L36.6667 23.0278L35.7778 22.5833L35 22.2222L34.5 21.9444L34.0556 21.6389L33.7222 21.3889L33.4167 21.1111L33.1945 20.9166L32.6111 20.3333L32.3056 20.0833L31.8056 19.7222L31.2222 19.4166L30.8611 19.3055H30.6667L30.3056 19.4166L29.8333 19.6666L29.3333 20L28.9722 20.25L28.5 20.5833L28.0833 20.8333L27.8333 20.9166L27.1111 21L26.2778 21.0833L25.5833 21.1944L24.9167 21.3611L24.1111 21.6389L23.3056 22L22.6667 22.3055L21.4445 22.9722L20.7778 23.3611L19.1111 24.3611L18.5833 24.6111L18.0278 24.8055L17.5278 24.9444H17.4445V20.9722L17.5833 20.8333L18.3333 20.4166L19.6667 19.6389L21.1111 18.8055L21.5833 18.5278L22.25 18.1389L22.8889 17.7778L23.5556 17.3889L24.2778 16.9722L24.9445 16.5833L25.6667 16.1666L26.4445 15.7222L26.9167 15.4444L27.6389 15.0278L28.3056 14.6389L28.6945 14.4166L29.1667 14.1389L29.5278 13.9166L29.6111 13.8611Z" fill="#C22025"/>
<path d="M27.5278 21.4443H28.1389L29.1667 21.5277L30.2501 21.6666L31.2223 21.8332L32.3334 22.0832L33.1667 22.3332L33.9445 22.611L34.6389 22.9166L35.3889 23.3054L35.9167 23.6388L36.3889 23.9721L36.8889 24.3332L37.7778 24.9999L38.5001 25.5554L38.9445 25.9166L39.3334 26.2221L39.7223 26.5554L40.0278 26.8054L40.3612 27.111L40.5834 27.3054L41.0001 27.7221L41.0278 27.861H40.5001L39.6389 27.7777L38.7501 27.6388L37.7501 27.4443L36.8056 27.1943L35.8056 26.861L35.1112 26.5554L34.6389 26.3054L34.2778 26.0554L34.1389 25.9166L34.0278 25.4999L33.8612 24.9166L33.6667 24.361L33.4723 23.9999L33.3612 23.861L33.0834 23.6666L32.6945 23.5277L32.5556 23.4999H31.6667L31.0834 23.611L30.7501 23.7221L30.5556 23.6943L30.1667 23.611L29.4167 23.4999L28.7778 23.4443H27.9445L27.0834 23.5277L26.1667 23.6943L25.0556 23.9721L24.0834 24.2777L23.2778 24.5554L22.1389 24.9999L21.3056 25.361L20.5834 25.6943L19.8889 26.0277L19.1945 26.3888L18.4445 26.8332L18.1112 27.0832L17.9167 27.3054L17.8612 27.4443V27.861L18.0001 28.1943L18.2501 28.5277L18.4445 28.7221L18.8334 29.0277L19.2223 29.3054L19.3334 29.361H19.5001L19.6389 29.1388L19.8056 28.8054L19.9445 28.6943L20.5278 28.7221L22.2778 28.861L23.3612 28.9166H25.1112L25.7778 28.861L26.4445 28.7499L27.8889 28.3888L28.8334 28.111L29.5556 27.861L30.0001 27.6666L30.1112 27.5832H30.1667L30.1389 27.8332L30.0556 28.1943L30.2223 28.1388L30.4723 28.111L30.8334 27.9999L30.9445 27.9166L30.9723 27.9443V28.111L30.8612 28.3888H31.2223L31.4723 28.3332L31.4167 28.4999L31.3612 28.7221L31.4445 28.861L31.8056 28.9721L32.4445 29.0832L33.7223 29.2499L34.2223 29.3888L35.0278 29.7777L35.5556 30.111L36.0278 30.4443L36.4167 30.7499L36.7223 30.9999L37.0001 31.2499L37.2223 31.4443L37.6667 31.861L37.9723 32.1666L38.1667 32.3888L38.3889 32.611L38.6389 32.9166L38.8889 33.1943L39.1945 33.5832L39.5278 33.9999L39.8889 34.4999L40.5001 35.4166L40.6945 35.7499L40.5834 35.861L39.9723 36.2221L39.6667 36.0277L39.0001 35.6388L38.4445 35.3054L36.8889 34.361L36.0001 33.8332L35.5278 33.5554L34.8612 33.1943L34.0278 32.7777L33.3334 32.4721L32.5834 32.1666L31.6112 31.8054L30.6667 31.4999L29.8889 31.2777L28.9445 31.0554L27.8612 30.861L26.8889 30.7499L25.8612 30.6943L24.0556 30.611L21.4445 30.4443L20.6667 30.361L19.7223 30.2221L19.0556 30.111L18.8334 30.0554V30.0277H21.3612L22.0834 29.9999H22.8056L23.4167 30.0554L23.8056 30.1388H23.9445V29.8888L23.5834 29.7777L23.2223 29.7221L22.4445 29.6943L20.9167 29.7499H19.6945L18.4445 29.6943L17.2778 29.5832L16.5834 29.4721L16.2501 29.3054L16.1945 29.2499L16.2223 29.0832L16.6112 27.8888L16.7501 27.3054L16.7778 26.9443L16.6667 26.6666L16.3612 26.2777L16.0278 25.9166L16.0556 25.8332L17.8334 25.3888L18.5834 25.1666L19.0834 24.9443L19.7223 24.5832L20.5001 24.111L21.3056 23.6388L22.0278 23.2221L22.7501 22.8332L23.6389 22.3888L24.4445 22.0554L25.4445 21.7221L26.0834 21.5832L27.0556 21.4721L27.5278 21.4443Z" fill="#FEFEFE"/>
<path d="M17.4722 30.2778L18.2778 30.4445L19.6389 30.6945L21.4445 30.9723L22.6111 31.2223L23.25 31.3889L24.1667 31.6667L24.9722 31.9723L25.6667 32.3334L26.0833 32.6112L26.3889 32.8334L26.8333 33.1667L27.1945 33.4445L27.5556 33.7501L27.8611 34.0001L28.2778 34.3889L28.5556 34.6389L29 35.0834L29.1945 35.3056L29.5278 35.6667L29.7778 35.9723L30.0833 36.3334L30.3056 36.6389L30.6945 37.1667L31 37.6112L31.25 38.0001L31.5833 38.5556L31.7778 38.8889L32 39.3334L32.25 39.8612L32.4722 40.3056L32.5278 40.4723L32.4445 40.5556L31.8056 40.9167L31.3889 41.1667L30.25 41.8334L29.7222 42.1389L29.5833 42.1112L29.0278 41.8056L28.4722 41.4723L27.75 41.0556L27.0833 40.6667L26.5 40.3334L25.8333 39.9445L25.0556 39.5001L23.7222 38.7223L23.0833 38.3612L21.75 37.5834L20.3889 36.8056L19.7778 36.4445L19.3889 36.2223L18.7222 35.8334L18.0278 35.4445L17.4722 35.1112L17.4445 35.0834V30.3334L17.4722 30.2778Z" fill="#C22025"/>
<path d="M31.8056 23.8057H32.4167L32.8056 23.889L33.0833 24.0279L33.3056 24.2779L33.4722 24.639L33.6945 25.3057L33.8333 25.9168L33.8611 26.3057L33.8056 26.5279L33.6945 26.6668L33.4167 26.6112L33.0833 26.4168L32.8611 26.2223L32.7222 26.0557V25.9723L32.9445 25.8334L33.0833 25.6946V25.6112L32.8333 25.5557L32.5556 25.4446L32.5278 25.3334L32.6945 25.0834L32.7222 24.889L32.5556 25.0001H32.4167L32.3889 24.9446V24.6668L32.1111 24.8334H31.8056L31.7778 24.8057V24.4168L31.75 24.139L31.5556 24.3057L31.25 24.5279L30.7778 24.8057L30.25 25.0279L29.7778 25.139L29.6945 25.1112L29.7222 24.9446L29.9167 24.6946L30.1667 24.4168L30.5278 24.1668L30.8056 24.0279L31.2778 23.889L31.8056 23.8057Z" fill="#FEFEFE"/>
<path d="M30.6667 19.7778L30.9445 19.8056L31.3889 20.0278L31.8056 20.3056L31.9722 20.4445L32 20.5001V20.7778L31.9445 20.9723L31.8333 20.9167L31.75 20.7501L31.7222 20.6112L31.5833 20.6389L31.3333 20.8056L31.25 20.7778L31.1389 20.5278L30.9167 20.2778H30.8611L30.7222 20.5001L30.5833 20.6112L30.1667 20.8056L29.6667 20.9445L29.2222 21.0278L28.9445 21.0556H28.6945L28.8333 20.9167L29.8333 20.1945L30.25 19.9445L30.5556 19.8056L30.6667 19.7778Z" fill="#FEFEFE"/>
<path d="M23.4999 25.8333L23.7499 25.8888L24.4166 26.1666V26.2499L23.6111 26.7221H23.5277L23.5555 26.5555L23.6111 26.361L23.5277 26.1666L23.4166 26.0555L23.2222 25.9999V25.9444L23.3611 25.861L23.4999 25.8333Z" fill="#FEFEFE"/>
</g>
<defs>
<clipPath id="clip0_291_835">
<rect width="28.7778" height="30" fill="white" transform="translate(14 13)"/>
</clipPath>
</defs>
</svg>
