<svg width="56" height="56" viewBox="0 0 56 56" fill="none" xmlns="http://www.w3.org/2000/svg">
<rect width="56" height="56" rx="28" fill="#F0F4FF"/>
<path d="M29.7383 18.3391L28.9223 18.4152L28.504 18.5398L28.36 18.6644L28.1063 18.9412L28.0446 19.1557L27.9623 19.6332L27.9897 19.9585L28.0789 20.6782L28.1886 21.1419L28.456 22.1522L28.6548 22.782L29.1006 24.1246L29.3954 24.9412L30.0194 26.6644L30.4034 27.6886L31.5006 30.6713L32.0766 32.3668L32.296 33.0865L32.6869 34.4498L32.8034 35.0242L33.0023 36.1177L33.0297 36.5882L33.0434 37.474L32.9817 37.8685L32.8034 38.6159L32.6526 38.9619L31.864 40.2837L31.2126 40.9896L29.5806 42.0692L28.2229 42.4844L27.4891 42.5329L26.0011 42.526L25.2949 42.3529L23.9234 41.9031L23.368 41.5086L22.9909 41.135L22.696 40.7474L22.5383 40.4983L21.832 39.308L21.4274 38.4983L20.584 36.7336L20.1246 35.6678L19.1851 33.4325L18.6983 32.1661L17.3954 28.9412L16.5657 27.0588L16.2023 26.3045L15.5166 24.9412L15.2628 24.526L15.016 24.1522L14.9269 24.0415L14.7554 23.8685L14.7006 23.8754L13.8983 23.9516L13.4869 24.083L13.3429 24.2076L13.1097 24.5052L13.0548 24.7266L13 25.2388L13.0411 25.5848L13.1646 26.3529L13.3017 26.8512L13.6171 27.9308L13.8503 28.609L14.3577 30.0484L14.6937 30.9273L15.4069 32.7889L15.8388 33.8893L16.8674 36.4637L17.4777 37.9239L17.7451 38.5467L18.2594 39.7163L18.4926 40.2076L18.952 41.128L19.1577 41.5086L19.9806 42.8374L20.3851 43.2941L21.2217 44.1038L21.7154 44.436L23.2514 45.3149L24.0606 45.5709L25.6926 45.9654L26.5154 46L28.1611 45.9516L28.9566 45.7716L30.5269 45.3287L31.2537 44.9689L32.6594 44.1592L33.2766 43.6401L34.4354 42.519L34.8949 41.8547L35.7246 40.4637L35.9851 39.6747L36.3966 38.0554L36.4171 37.1695L36.3691 36.4637L36.2731 35.8547L36.1977 35.4948L35.8343 33.91L35.5669 32.955L34.9771 30.9619L34.6343 29.8824L33.9143 27.7024L33.5303 26.6228L32.7486 24.4775L32.3646 23.4948L31.6103 21.6125L31.2674 20.8512L30.616 19.4533L30.3486 19.0173L30.1017 18.6298L29.9989 18.5121L29.8069 18.3322M28.5451 10.0692L26.728 10.3322L25.8777 10.6436L24.2046 11.391L23.4708 11.9239L22.072 13.1073L21.5166 13.8408L20.5154 15.4118L20.2069 16.3253L19.7337 18.2353L19.7269 19.308L19.7886 20.0138L19.8846 20.6159L19.9531 20.9758L20.3166 22.5675L20.5771 23.5225L21.1531 25.5156L21.5029 26.5952L22.2297 28.7751L22.6274 29.8616L23.1486 31.2457L23.3886 31.8616L23.8411 33.0242L24.0468 33.5294L24.4514 34.4844L24.6366 34.8858L24.9863 35.6401L25.144 35.9516L25.7474 37.0104L26.008 37.2941L26.488 37.7024H26.7074L27.6468 37.5156L28.1611 37.2318L28.2709 37.0519L28.2914 36.7751L28.2503 36.4429L28.2091 36.2215L27.9554 35.1557L27.7429 34.4221L27.2628 32.8443L26.9474 31.9308L26.2891 30.0208L25.912 29.0035L24.8423 25.9446L24.2114 23.9654L23.9646 23.0796L23.512 21.3979L23.3749 20.7405L23.2514 20.1176L23.2103 19.8616L23.1554 19.3979V19.2388L23.6011 16.9965L24.3074 15.6886L24.8217 15.1626L25.9531 14.2215L26.6388 13.9308L28.072 13.481H28.8606L30.2114 13.5779L31.0274 13.7578L31.3977 13.917L32.1177 14.2837L32.4537 14.5467L33.112 15.1419L33.4343 15.5294L34.0651 16.3875L34.3806 16.9273L35.0183 18.09L35.3474 18.7958L36.0126 20.2907L36.3691 21.1834L37.1097 23.0657L37.5074 24.1592L38.7143 27.2664L39.4754 29.0865L39.8114 29.8131L40.4491 31.1211L40.696 31.5294L40.9223 31.8893L41.0114 31.9931L41.176 32.1592L41.2308 32.1523L42.04 32.083L42.4583 31.9516L42.6023 31.8339L42.856 31.5502L42.9177 31.3426L43 30.8651L42.9726 30.5398L42.8834 29.8201L42.7669 29.3495L42.4994 28.346L42.3006 27.7163L41.8548 26.3668L41.56 25.5571L40.9292 23.827L40.5451 22.8028L39.2423 19.4879L38.392 17.4394L38.008 16.5744L37.2743 14.9619L36.9794 14.3875L36.6983 13.8547L36.5817 13.6609L36.3691 13.3218L36.2937 13.2388L33.9417 11.2941L32.2069 10.4637L31.2949 10.263L29.464 10L28.5451 10.0692Z" fill="#5F2CED"/>
</svg>
