<svg width="57" height="56" viewBox="0 0 57 56" fill="none" xmlns="http://www.w3.org/2000/svg">
<rect width="56.4194" height="56" rx="28" fill="#F0F4FF"/>
<path d="M34 43H22C21.6022 43 21.2206 42.842 20.9393 42.5607C20.658 42.2794 20.5 41.8978 20.5 41.5V40C20.5 39.2043 20.8161 38.4413 21.3787 37.8787C21.9413 37.3161 22.7044 37 23.5 37H32.5C33.2956 37 34.0587 37.3161 34.6213 37.8787C35.1839 38.4413 35.5 39.2043 35.5 40V41.5C35.5 41.8978 35.342 42.2794 35.0607 42.5607C34.7794 42.842 34.3978 43 34 43ZM28 31C25.6139 30.9972 23.3263 30.0481 21.6391 28.3609C19.9519 26.6737 19.0028 24.3861 19 22V14.5C19 14.1022 19.158 13.7206 19.4393 13.4393C19.7206 13.158 20.1022 13 20.5 13H35.5C35.8978 13 36.2794 13.158 36.5607 13.4393C36.842 13.7206 37 14.1022 37 14.5V22C36.9972 24.3861 36.0481 26.6737 34.3609 28.3609C32.6737 30.0481 30.3861 30.9972 28 31Z" fill="#FFD79C"/>
<path d="M28 31C27.4971 30.9964 26.9953 30.9507 26.5 30.8635V37H29.5V30.8635C29.0047 30.9507 28.5029 30.9964 28 31ZM41.5 16H37V19H40V22C39.9992 22.7954 39.6829 23.558 39.1204 24.1204C38.558 24.6829 37.7954 24.9992 37 25H36.475C36.0818 26.107 35.4753 27.1263 34.69 28H37C38.5907 27.998 40.1157 27.3652 41.2404 26.2404C42.3652 25.1157 42.998 23.5907 43 22V17.5C43 17.1022 42.842 16.7206 42.5607 16.4393C42.2794 16.158 41.8978 16 41.5 16ZM19.525 25H19C18.2046 24.9992 17.442 24.6829 16.8796 24.1204C16.3171 23.558 16.0008 22.7954 16 22V19H19V16H14.5C14.1022 16 13.7206 16.158 13.4393 16.4393C13.158 16.7206 13 17.1022 13 17.5V22C13.002 23.5907 13.6348 25.1157 14.7596 26.2404C15.8843 27.3652 17.4093 27.998 19 28H21.31C20.5247 27.1263 19.9182 26.107 19.525 25Z" fill="#7B4B2C"/>
</svg>
