<svg width="56" height="56" viewBox="0 0 56 56" fill="none" xmlns="http://www.w3.org/2000/svg">
<rect width="56" height="56" rx="28" fill="#F0F4FF"/>
<path d="M30.294 32.5332C31.8027 32.5382 33.2943 32.2197 34.6649 31.6C36.0356 30.9802 37.2523 30.0741 38.2302 28.9448C39.2081 27.8155 39.9237 26.4902 40.3272 25.0612C40.7307 23.6322 40.8124 22.1338 40.5665 20.6706C40.3206 19.2074 39.753 17.8145 38.9034 16.589C38.0538 15.3635 36.9426 14.3348 35.6471 13.5747C34.3517 12.8146 32.9032 12.3413 31.4026 12.1878C29.902 12.0343 28.3855 12.2044 26.9586 12.6861C26.5528 12.1914 26.0457 11.7862 25.4701 11.4968C24.8946 11.2074 24.2636 11.0404 23.618 11.0065C22.9725 10.9725 22.327 11.0725 21.7233 11.3C21.1197 11.5274 20.5715 11.8771 20.1144 12.3265C19.6573 12.7758 19.3015 13.3147 19.0702 13.908C18.8388 14.5014 18.7371 15.136 18.7716 15.7706C18.8061 16.4051 18.9761 17.0254 19.2704 17.5912C19.5648 18.1569 19.977 18.6555 20.4802 19.0543C19.9434 20.5884 19.7877 22.2264 20.0261 23.8316C20.2644 25.4369 20.89 26.9628 21.8505 28.282C22.811 29.6012 24.0785 30.6754 25.5474 31.4149C27.0162 32.1545 28.6437 32.5379 30.294 32.5332ZM30.3286 22.6844H30.2191C29.6871 22.684 29.1737 22.4923 28.7755 22.1455C28.3774 21.7987 28.122 21.3207 28.0575 20.8016C27.993 20.2826 28.1239 19.7582 28.4254 19.3274C28.7269 18.8966 29.1783 18.5891 29.6945 18.4627V17.7771C29.6945 17.6268 29.7552 17.4826 29.8633 17.3764C29.9714 17.2701 30.1181 17.2104 30.271 17.2104C30.4238 17.2104 30.5705 17.2701 30.6786 17.3764C30.7867 17.4826 30.8474 17.6268 30.8474 17.7771V18.4967C31.2962 18.6277 31.6901 18.8975 31.9705 19.266C32.2509 19.6346 32.4029 20.0822 32.4039 20.5424C32.4039 20.6927 32.3432 20.8368 32.235 20.9431C32.1269 21.0494 31.9803 21.1091 31.8274 21.1091C31.6745 21.1091 31.5279 21.0494 31.4198 20.9431C31.3117 20.8368 31.251 20.6927 31.251 20.5424C31.2515 20.3424 31.1917 20.1466 31.0791 19.98C30.9665 19.8133 30.8062 19.6832 30.6184 19.6062C30.4306 19.5291 30.2238 19.5085 30.024 19.547C29.8243 19.5854 29.6407 19.6813 29.4964 19.8223C29.3521 19.9634 29.2536 20.1434 29.2133 20.3395C29.173 20.5356 29.1928 20.739 29.2702 20.9241C29.3476 21.1091 29.479 21.2674 29.6479 21.379C29.8168 21.4907 30.0156 21.5505 30.2191 21.5511H30.3286C30.9467 21.5502 31.544 21.7705 32.009 22.1708C32.474 22.5712 32.7748 23.1242 32.8553 23.7267C32.9358 24.3291 32.7904 24.9397 32.4464 25.4445C32.1024 25.9493 31.5832 26.3138 30.9858 26.4698V27.3085C30.9858 27.4588 30.925 27.6029 30.8169 27.7092C30.7088 27.8155 30.5622 27.8752 30.4093 27.8752C30.2564 27.8752 30.1098 27.8155 30.0017 27.7092C29.8936 27.6029 29.8328 27.4588 29.8328 27.3085V26.5151C29.2549 26.4026 28.7345 26.0965 28.3603 25.6491C27.9861 25.2017 27.7812 24.6406 27.7806 24.0615C27.7806 23.9112 27.8414 23.767 27.9495 23.6608C28.0576 23.5545 28.2042 23.4948 28.3571 23.4948C28.51 23.4948 28.6566 23.5545 28.7647 23.6608C28.8728 23.767 28.9336 23.9112 28.9336 24.0615C28.9347 24.3324 29.0175 24.597 29.1715 24.8218C29.3254 25.0465 29.5437 25.2214 29.7987 25.3244C30.0537 25.4273 30.3341 25.4536 30.6043 25.4001C30.8745 25.3465 31.1226 25.2155 31.3171 25.0235C31.5116 24.8315 31.6439 24.5871 31.6973 24.3212C31.7506 24.0554 31.7227 23.7799 31.6169 23.5297C31.5111 23.2794 31.3323 23.0656 31.1031 22.9152C30.8738 22.7647 30.6043 22.6844 30.3286 22.6844ZM30.294 29.1332C32.1287 29.1332 33.8882 28.4167 35.1855 27.1415C36.4828 25.8662 37.2116 24.1366 37.2116 22.3331C37.2116 20.5296 36.4828 18.8 35.1855 17.5247C33.8882 16.2495 32.1287 15.533 30.294 15.533C29.502 15.5312 28.7158 15.6654 27.9709 15.9297C28.0018 15.5371 27.9824 15.1423 27.9132 14.7544C28.684 14.5186 29.4867 14.399 30.294 14.3997C31.8902 14.3997 33.4506 14.865 34.7778 15.7367C36.105 16.6084 37.1394 17.8475 37.7502 19.2971C38.3611 20.7468 38.5209 22.3419 38.2095 23.8808C37.8981 25.4198 37.1294 26.8334 36.0008 27.9429C34.8721 29.0524 33.434 29.808 31.8685 30.1141C30.303 30.4202 28.6803 30.2631 27.2056 29.6626C25.7309 29.0622 24.4704 28.0453 23.5836 26.7407C22.6968 25.436 22.2235 23.9022 22.2235 22.3331C22.2229 21.5397 22.3445 20.7509 22.5843 19.9933C22.9789 20.0613 23.3806 20.0804 23.7799 20.05C23.5111 20.7821 23.3746 21.5548 23.3764 22.3331C23.3779 24.1361 24.1072 25.8649 25.4042 27.1398C26.7012 28.4148 28.4598 29.1317 30.294 29.1332ZM24.0105 16.4227C24.0595 16.3213 24.1379 16.2365 24.2359 16.1791C24.334 16.1216 24.4471 16.094 24.5611 16.0998C24.6751 16.1056 24.7848 16.1445 24.8762 16.2117C24.9677 16.2788 25.0368 16.3711 25.0748 16.4769C25.1129 16.5827 25.1181 16.6972 25.0899 16.8059C25.0616 16.9146 25.0012 17.0126 24.9162 17.0875C24.8312 17.1625 24.7256 17.2109 24.6126 17.2267C24.4996 17.2425 24.3843 17.225 24.2815 17.1764C24.1441 17.1115 24.0385 16.9957 23.9878 16.8545C23.937 16.7133 23.9452 16.558 24.0105 16.4227ZM21.7047 14.156C21.7536 14.0547 21.8321 13.9699 21.9301 13.9124C22.0281 13.8549 22.1413 13.8273 22.2552 13.8331C22.3692 13.8389 22.4789 13.8778 22.5704 13.945C22.6618 14.0121 22.7309 14.1044 22.769 14.2102C22.807 14.316 22.8122 14.4305 22.784 14.5392C22.7557 14.6479 22.6953 14.7459 22.6103 14.8209C22.5254 14.8958 22.4197 14.9442 22.3067 14.96C22.1937 14.9758 22.0785 14.9583 21.9756 14.9097C21.8383 14.8448 21.7327 14.729 21.6819 14.5878C21.6311 14.4466 21.6393 14.2913 21.7047 14.156ZM21.8199 16.2657L24.1258 13.9991C24.179 13.9449 24.2426 13.9018 24.3129 13.8721C24.3833 13.8424 24.4589 13.8267 24.5355 13.8261C24.612 13.8254 24.6879 13.8398 24.7588 13.8682C24.8296 13.8967 24.894 13.9388 24.9481 13.992C25.0022 14.0452 25.045 14.1085 25.074 14.1781C25.103 14.2478 25.1176 14.3224 25.1169 14.3976C25.1162 14.4729 25.1003 14.5472 25.0701 14.6164C25.0399 14.6855 24.996 14.7481 24.9409 14.8003L22.6351 17.067C22.5264 17.1702 22.3807 17.2274 22.2296 17.2261C22.0784 17.2248 21.9339 17.1652 21.827 17.0601C21.7201 16.955 21.6595 16.8129 21.6581 16.6643C21.6568 16.5158 21.7149 16.3726 21.8199 16.2657ZM13.5765 41.6H17.9V42.1666C17.9 42.3169 17.9607 42.4611 18.0688 42.5673C18.1769 42.6736 18.3236 42.7333 18.4764 42.7333H22.5117C22.6646 42.7333 22.8112 42.6736 22.9193 42.5673C23.0274 42.4611 23.0882 42.3169 23.0882 42.1666V41.6H24.7426C24.8416 41.5991 24.9376 41.6329 25.0136 41.6952L28.0343 44.1659C28.6896 44.7033 29.5155 44.9984 30.369 45H40.9875C41.3615 45.0009 41.7283 44.8992 42.0466 44.7061C42.3649 44.5131 42.622 44.2365 42.7889 43.9074C42.9642 43.5476 43.0324 43.1463 42.9857 42.75C42.939 42.3536 42.7792 41.9783 42.5249 41.6674C42.2887 41.3778 41.9605 41.1745 41.5928 41.09C41.7546 40.7886 41.8341 40.4512 41.8237 40.1106C41.8132 39.77 41.713 39.4379 41.533 39.1468C41.3529 38.8556 41.0992 38.6153 40.7964 38.4494C40.4937 38.2834 40.1523 38.1975 39.8057 38.1999H39.3169C39.4655 37.8983 39.5335 37.5645 39.5146 37.2299C39.4956 36.8953 39.3903 36.5709 39.2084 36.2874C39.0266 36.004 38.7744 35.7706 38.4755 35.6095C38.1765 35.4484 37.8408 35.3648 37.4999 35.3666H31.496L29.9868 33.8932C29.6167 33.5319 29.1168 33.3283 28.5952 33.3265C28.5952 33.3265 25.6189 33.3169 23.0882 33.3152V32.5332C23.0882 32.3829 23.0274 32.2388 22.9193 32.1325C22.8112 32.0262 22.6646 31.9665 22.5117 31.9665H18.4764C18.3236 31.9665 18.1769 32.0262 18.0688 32.1325C17.9607 32.2388 17.9 32.3829 17.9 32.5332V33.0999H13.5765C13.4236 33.0999 13.277 33.1596 13.1688 33.2658C13.0607 33.3721 13 33.5163 13 33.6665V41.0333C13 41.1836 13.0607 41.3277 13.1688 41.434C13.277 41.5403 13.4236 41.6 13.5765 41.6ZM39.8057 39.3333C40.0351 39.3333 40.255 39.4228 40.4172 39.5822C40.5793 39.7416 40.6704 39.9578 40.6704 40.1833C40.6704 40.4087 40.5793 40.6249 40.4172 40.7843C40.255 40.9437 40.0351 41.0333 39.8057 41.0333H35.9492C35.7035 41.0344 35.4604 40.9836 35.2365 40.8844C35.0125 40.7852 34.8128 40.6398 34.651 40.4581C34.297 40.0699 33.9258 39.6523 33.6416 39.3333H39.8057ZM37.4999 36.4999C37.7292 36.4999 37.9491 36.5895 38.1113 36.7489C38.2735 36.9083 38.3646 37.1245 38.3646 37.3499C38.3646 37.5754 38.2735 37.7916 38.1113 37.951C37.9491 38.1104 37.7292 38.1999 37.4999 38.1999H33.6335C33.5978 37.8651 33.4918 37.5411 33.3224 37.2485C33.1529 36.9559 32.9236 36.701 32.6489 36.4999H37.4999ZM23.0882 34.4486C25.6166 34.4486 28.5911 34.4599 28.5934 34.4599C28.8097 34.4613 29.0167 34.5461 29.1699 34.6962C29.1699 34.6962 32.2978 37.7834 32.3117 37.8033C32.426 37.9547 32.4829 38.1408 32.4723 38.3292C32.4618 38.5175 32.3846 38.6963 32.254 38.8346C32.1791 38.9083 32.0901 38.9667 31.9922 39.0066C31.8942 39.0465 31.7893 39.067 31.6833 39.067C31.5773 39.067 31.4724 39.0465 31.3744 39.0066C31.2765 38.9667 31.1875 38.9083 31.1126 38.8346L28.5825 36.348C28.5293 36.2939 28.4657 36.2507 28.3954 36.2211C28.325 36.1914 28.2494 36.1757 28.1729 36.1751C28.0963 36.1744 28.0204 36.1887 27.9496 36.2172C27.8787 36.2457 27.8143 36.2878 27.7602 36.341C27.7061 36.3942 27.6633 36.4575 27.6343 36.5271C27.6053 36.5968 27.5907 36.6714 27.5914 36.7466C27.5921 36.8219 27.608 36.8962 27.6382 36.9654C27.6684 37.0345 27.7123 37.097 27.7674 37.1493L30.294 39.6364C30.5968 39.9356 30.9919 40.1278 31.4175 40.1828C31.8432 40.2379 32.2754 40.1528 32.6466 39.9407C32.8887 40.2173 33.2467 40.6134 33.7845 41.2073C34.0546 41.51 34.3876 41.7522 34.761 41.9177C35.1344 42.0832 35.5396 42.1681 35.9492 42.1666C36.2991 42.1666 40.7471 42.1717 40.9304 42.1666C41.1367 42.1348 41.3474 42.1847 41.5163 42.3054C41.6852 42.4261 41.7985 42.6077 41.8314 42.8104C41.8688 43.0081 41.8375 43.2124 41.7427 43.3906C41.6317 43.5605 41.4736 43.6955 41.2871 43.7799C41.1006 43.8642 40.8934 43.8943 40.69 43.8666H30.369C29.7851 43.8652 29.2201 43.6629 28.7721 43.2949L25.7526 40.8253C25.4691 40.5931 25.1116 40.4662 24.7426 40.4666H23.0882V34.4486Z" fill="#5F2CED"/>
</svg>
