<svg width="57" height="56" viewBox="0 0 57 56" fill="none" xmlns="http://www.w3.org/2000/svg">
<rect width="56.4194" height="56" rx="28" fill="#F0F4FF"/>
<g clip-path="url(#clip0_290_228)">
<path d="M43 28C43 36.2844 36.2844 43 28 43C19.7156 43 13 36.2844 13 28C13 19.7156 19.7149 13 28 13C36.2851 13 43 19.7156 43 28Z" fill="#E0623D"/>
<path d="M31.3195 22.5812C30.4652 22.5809 29.6188 22.7451 28.8266 23.0649L28.939 22.4558C28.939 22.4558 29.6968 19.1825 26.5916 18.9857C26.3442 18.9857 26.2669 19.1156 26.2344 19.2857L25.6266 22.5831C24.8029 22.5936 23.9882 22.7569 23.2241 23.0649L23.3364 22.4558C23.3364 22.4558 24.0929 19.1844 20.987 18.9877C20.7409 18.9877 20.6624 19.1175 20.6312 19.2851L18.9695 28.2974C18.8921 28.7058 18.8501 29.1201 18.8442 29.5357C18.7968 33.3669 21.8007 36.4903 25.5409 36.4903C29.2812 36.4903 32.3643 33.3701 32.4156 29.5357C32.4286 28.5013 32.1773 27.8026 31.7312 27.3929C31.1318 26.8455 30.0818 26.9539 29.5766 27.6305C29.1091 28.2558 29.1805 29.2123 29.176 29.5338C29.166 30.3366 28.8958 31.1145 28.4059 31.7507C27.9308 31.1102 27.6797 30.3311 27.6916 29.5338C27.7169 27.5299 29.3273 25.8974 31.2818 25.8974C33.2364 25.8974 34.8059 27.5273 34.7812 29.5338C34.7741 30.1513 34.613 30.7572 34.3124 31.2966C34.0118 31.8361 33.5812 32.2919 33.0598 32.6227C32.9147 32.7079 32.7817 32.812 32.6643 32.9325C32.5659 33.052 32.482 33.1828 32.4143 33.3221C31.8171 34.4235 30.9725 35.3714 29.9468 36.0909C29.889 36.1318 29.7857 36.2097 29.8169 36.2896C29.8481 36.3695 30.0117 36.3903 30.0851 36.402C30.436 36.46 30.7911 36.4891 31.1468 36.489C34.887 36.489 37.9695 33.3688 38.0176 29.5344C38.0656 25.7 35.0604 22.5812 31.3195 22.5812ZM22.0838 29.5357C22.1059 27.7669 23.3637 26.289 25.0059 25.9688L24.576 28.2974C24.4989 28.7058 24.4569 29.1201 24.4507 29.5357C24.4313 30.808 24.7605 32.0613 25.4026 33.1597C23.5318 33.061 22.0591 31.476 22.0838 29.5357Z" fill="white"/>
</g>
<defs>
<clipPath id="clip0_290_228">
<rect width="30" height="30" fill="white" transform="translate(13 13)"/>
</clipPath>
</defs>
</svg>
