<svg width="56" height="56" viewBox="0 0 56 56" fill="none" xmlns="http://www.w3.org/2000/svg">
<rect width="56" height="56" rx="28" fill="#F0F4FF"/>
<g clip-path="url(#clip0_319_1034)">
<path d="M37.4709 16H17.2377C16.5919 16 16 16.5959 16 17.3002V19.5756C16 20.2799 16.5919 20.8758 17.2377 20.8758H37.4709C38.1704 20.8758 38.7085 20.2799 38.7623 19.5756V17.3002C38.7623 16.5959 38.1704 16 37.4709 16ZM37.4709 28.7856H17.2377C16.9148 28.7856 16.5919 28.9481 16.3229 29.1648C16.1076 29.3815 16 29.7065 16 30.0858V32.3612C16 33.0655 16.5919 33.6614 17.2377 33.6614H37.4709C38.1704 33.6614 38.7085 33.1196 38.7623 32.3612V30.0858C38.7623 29.3273 38.1704 28.7856 37.4709 28.7856ZM28.6457 35.1783H17.2377C16.9148 35.1783 16.5919 35.2867 16.3767 35.5576C16.1614 35.7743 16 36.0993 16 36.4786V38.7539C16 39.4582 16.5919 40.0542 17.2377 40.0542H28.5919C29.2915 40.0542 29.8296 39.4582 29.8296 38.7539V36.4244C29.8834 35.7201 29.3453 35.1783 28.6457 35.1783ZM38.7623 22.3928H17.2377C16.9148 22.3928 16.5919 22.5011 16.3767 22.772C16.1614 22.9887 16 23.3138 16 23.693V25.9684C16 26.6727 16.5919 27.2686 17.2377 27.2686H38.7085C39.4081 27.2686 39.9462 26.6727 39.9462 25.9684V23.693C40 22.9887 39.4619 22.3928 38.7623 22.3928Z" fill="#00C3F7"/>
</g>
<defs>
<clipPath id="clip0_319_1034">
<rect width="24" height="24" fill="white" transform="translate(16 16)"/>
</clipPath>
</defs>
</svg>
