<svg width="30" height="30" viewBox="0 0 30 30" fill="none" xmlns="http://www.w3.org/2000/svg">
<g clip-path="url(#clip0_674_457)">
<path d="M0 15C0 11.123 0 9.18453 0.490523 7.61038C1.54971 4.21135 4.21135 1.54971 7.61038 0.490523C9.18453 0 11.123 0 15 0C18.877 0 20.8155 0 22.3897 0.490523C25.7887 1.54971 28.4503 4.21135 29.5095 7.61038C30 9.18453 30 11.123 30 15C30 18.877 30 20.8155 29.5095 22.3897C28.4503 25.7887 25.7887 28.4503 22.3897 29.5095C20.8155 30 18.877 30 15 30C11.123 30 9.18453 30 7.61038 29.5095C4.21135 28.4503 1.54971 25.7887 0.490523 22.3897C0 20.8155 0 18.877 0 15Z" fill="#1F2852"/>
<path opacity="0.5" d="M17.8125 13.75H12.1875C11.8423 13.75 11.5625 14.0298 11.5625 14.375C11.5625 14.7202 11.8423 15 12.1875 15H17.8125C18.1577 15 18.4375 14.7202 18.4375 14.375C18.4375 14.0298 18.1577 13.75 17.8125 13.75Z" fill="white"/>
<path opacity="0.5" d="M17.8125 15.625H12.1875C11.8423 15.625 11.5625 15.9048 11.5625 16.25C11.5625 16.5952 11.8423 16.875 12.1875 16.875H17.8125C18.1577 16.875 18.4375 16.5952 18.4375 16.25C18.4375 15.9048 18.1577 15.625 17.8125 15.625Z" fill="white"/>
<path d="M17.8125 17.8125H15C14.6548 17.8125 14.375 18.0923 14.375 18.4375C14.375 18.7827 14.6548 19.0625 15 19.0625H17.8125C18.1577 19.0625 18.4375 18.7827 18.4375 18.4375C18.4375 18.0923 18.1577 17.8125 17.8125 17.8125Z" fill="white"/>
<path fill-rule="evenodd" clip-rule="evenodd" d="M16.977 8.75H20C20.6903 8.75 21.25 9.30965 21.25 10V21.5625C21.25 22.2528 20.6903 22.8125 20 22.8125H10C9.30965 22.8125 8.75 22.2528 8.75 21.5625V10C8.75 9.30965 9.30965 8.75 10 8.75H13.023C13.3741 8.01095 14.1274 7.5 15 7.5C15.8726 7.5 16.6259 8.01095 16.977 8.75ZM17.8125 11.5625V10.3125H19.6875V21.25H10.3125V10.3125H12.1875V11.5625H17.8125ZM15 10.625C15.5178 10.625 15.9375 10.2053 15.9375 9.6875C15.9375 9.16973 15.5178 8.75 15 8.75C14.4822 8.75 14.0625 9.16973 14.0625 9.6875C14.0625 10.2053 14.4822 10.625 15 10.625Z" fill="white"/>
</g>
<defs>
<clipPath id="clip0_674_457">
<rect width="30" height="30" fill="white"/>
</clipPath>
</defs>
</svg>
