<svg width="57" height="56" viewBox="0 0 57 56" fill="none" xmlns="http://www.w3.org/2000/svg">
<rect width="56.4194" height="56" rx="28" fill="#F0F4FF"/>
<path fill-rule="evenodd" clip-rule="evenodd" d="M36.2716 38.8939C35.1488 37.5787 34.0421 36.3116 32.9354 35.0124C32.1976 34.1463 32.2297 34.1624 32.8712 33.2481C34.2506 31.3234 35.3734 29.2383 36.0149 26.9447C36.5121 25.1163 36.6244 23.2717 35.9989 21.4433C35.1969 19.0695 33.4326 17.7222 31.0909 17.0966C26.0867 15.7493 21.724 17.0164 17.9708 20.497C16.0942 22.2292 14.8111 24.3464 13.8808 26.7202C13.7846 26.9608 13.5761 27.1372 13.4157 27.3457C13.1911 27.1693 12.9024 27.0249 12.7741 26.8004C11.7315 25.02 11.7957 23.1755 12.6458 21.347C14.6346 17.0966 18.035 14.5945 22.5259 13.4878C26.0385 12.6377 29.503 12.8783 32.8071 14.37C36.7207 16.1343 39.3671 19.0213 40.0568 23.368C40.5059 26.2069 39.9125 28.9496 38.6935 31.548C38.2283 32.5424 37.699 33.5048 37.1377 34.4511C36.8971 34.8681 36.9452 35.1247 37.2499 35.4295C39.1426 37.4183 41.2437 39.1185 43.7619 40.2733C44.7403 40.7224 44.7563 40.8347 43.9543 41.5565C42.3985 42.9679 40.5219 43.1764 38.5491 42.8877C36.2555 42.5669 34.1865 41.6206 32.2618 40.3535C31.7485 40.0167 31.3956 39.9846 30.8343 40.3695C28.3001 42.1178 25.4932 43.1443 22.3976 42.599C18.3718 41.8933 15.4366 39.7601 14.2337 35.6701C13.5921 33.4727 13.8327 31.2913 14.5705 29.1742C15.998 25.0681 18.4199 21.6839 22.2212 19.4865C25.2366 17.7382 28.3963 17.642 31.5079 19.2619C33.8978 20.513 35.0045 23.1434 34.4591 25.7739C34.2025 27.0089 33.7694 28.1637 32.9354 29.1261C31.5881 30.6819 29.8398 31.0828 27.867 30.6498C27.4339 30.5535 27.3377 30.2328 27.6264 29.8157C28.0434 29.2223 28.5086 28.677 28.9096 28.0675C29.7115 26.8806 30.337 25.6135 30.6899 24.2181C31.139 22.4056 30.2248 21.347 28.3482 21.4753C26.0385 21.6197 24.2101 22.7264 22.6061 24.2662C20.4088 26.3994 18.8209 28.9175 18.0029 31.8848C17.6019 33.3123 17.4736 34.7719 18.0029 36.1994C18.7246 38.1882 20.9381 39.4072 23.1675 39.1826C25.6536 38.926 27.6585 37.707 29.5351 36.1833C30.7701 35.1728 30.5135 35.4134 31.5721 36.1192C32.9354 37.0334 34.3468 37.8514 35.7423 38.7175C35.8545 38.8137 36.0791 38.8458 36.2716 38.8939Z" fill="#F22844"/>
</svg>
