<svg width="57" height="56" viewBox="0 0 57 56" fill="none" xmlns="http://www.w3.org/2000/svg">
<rect width="56.4194" height="56" rx="28" fill="#F0F4FF"/>
<g clip-path="url(#clip0_314_179)">
<path fill-rule="evenodd" clip-rule="evenodd" d="M14.1714 18C13.5245 18 13 18.4985 13 19.1135V22.454V34.1457C13 34.7606 13.5245 35.2592 14.1714 35.2592H14.4643H28.2286H28.5215C29.0068 35.2592 29.4001 34.8852 29.4001 34.424C29.4001 33.9628 29.0068 33.5889 28.5215 33.5889H15.6357C15.1505 33.5889 14.7572 33.215 14.7572 32.7538V24.4026C14.7572 23.9414 15.1505 23.5674 15.6357 23.5674H37.6001C38.2471 23.5674 38.7716 23.0689 38.7716 22.454V19.1135C38.7716 18.4985 38.2471 18 37.6001 18H14.1714ZM41.7002 29.8308H40.968V28.8566C40.968 26.8579 39.2635 25.2377 37.1609 25.2377C35.0582 25.2377 33.3537 26.8579 33.3537 28.8566V29.8308H32.3287C31.6817 29.8308 31.1572 30.3294 31.1572 30.9443V36.5118C31.1572 37.1268 31.6817 37.6253 32.3287 37.6253H41.7002C42.3471 37.6253 42.8716 37.1268 42.8716 36.5118V30.9443C42.8716 30.3294 42.3471 29.8308 41.7002 29.8308ZM39.2108 28.8566V29.8308H35.1108V28.8566C35.1108 27.7803 36.0287 26.9079 37.1609 26.9079C38.2931 26.9079 39.2108 27.7803 39.2108 28.8566ZM17.1001 28.0214C17.1001 27.7139 17.3623 27.4647 17.6858 27.4647H27.0573C27.3808 27.4647 27.643 27.7139 27.643 28.0214C27.643 28.3289 27.3808 28.5782 27.0573 28.5782H17.6858C17.3623 28.5782 17.1001 28.3289 17.1001 28.0214ZM17.1001 30.5268C17.1001 30.2193 17.3623 29.9701 17.6858 29.9701H21.2001C21.5236 29.9701 21.7858 30.2193 21.7858 30.5268C21.7858 30.8343 21.5236 31.0836 21.2001 31.0836H17.6858C17.3623 31.0836 17.1001 30.8343 17.1001 30.5268ZM32.6215 36.2334V31.2227H41.4073V36.2334H32.6215Z" fill="#428BCA"/>
</g>
<defs>
<clipPath id="clip0_314_179">
<rect width="30" height="20" fill="white" transform="translate(13 18)"/>
</clipPath>
</defs>
</svg>
