<svg width="56" height="56" viewBox="0 0 56 56" fill="none" xmlns="http://www.w3.org/2000/svg">
<rect width="56" height="56" rx="28" fill="#F0F4FF"/>
<g clip-path="url(#clip0_433_397)">
<path d="M16.5725 28.3803C16.5015 28.6291 16.3878 28.6145 16.3309 28.3803L16.2172 27.9559C16.2172 27.9559 16.0609 27.3413 15.7908 26.6096C15.7197 26.3754 15.6202 26.1413 15.4781 25.9364C15.2507 25.6876 14.9096 25.5998 14.5969 25.7023C14.3126 25.8047 14.0994 26.0828 14.071 26.3901C14.0568 26.6535 14.0852 26.9315 14.1421 27.1949C14.3553 28.7754 14.6964 30.3413 15.1654 31.8779C15.4639 32.5657 16.2314 32.873 16.8994 32.5803C16.9136 32.5657 16.9421 32.5657 16.9563 32.551C17.5532 32.0974 17.9796 31.4535 18.1644 30.7218C18.4913 29.9023 20.1685 25.1462 20.1685 25.1462C20.339 24.6779 20.4669 24.6925 20.4527 25.2047C20.4527 25.2047 20.3675 29.8584 20.3532 31.9803C20.3248 32.9754 20.4243 33.9706 20.6233 34.951C20.7512 35.4632 21.0355 35.9169 21.4334 36.2535C21.8314 36.5608 22.3289 36.7071 22.8263 36.6486C23.068 36.6047 23.3096 36.5315 23.5228 36.3998C23.8355 36.2096 24.1055 35.9754 24.3187 35.6681C24.802 34.9949 25.2142 34.2779 25.5553 33.5315C26.3654 31.8925 28.4548 26.8291 28.4548 26.8291C28.6395 26.3608 28.7817 26.4047 28.7675 26.9023C28.7675 26.9023 28.5116 35.4193 28.4974 38.6681C28.4974 39.473 28.6395 40.2779 28.9238 41.0389C29.1796 41.7559 29.6913 42.3413 30.3593 42.6632C31.0984 42.9998 31.937 42.9413 32.6334 42.5315C33.1593 42.1949 33.5857 41.7413 33.8842 41.1852C34.3106 40.4389 34.6659 39.6486 34.9502 38.8437C35.5756 37.1754 36.1015 35.4486 36.6131 33.7364C37.1248 32.0242 41.5451 15.7657 41.8294 14.3754C41.872 14.2145 41.8862 14.0535 41.872 13.9071C41.8294 13.5852 41.6446 13.3071 41.3603 13.1608C40.8771 12.9267 40.2944 13.1462 40.0527 13.6437C39.8111 14.1559 33.7705 29.2291 33.7705 29.2291C33.5857 29.6974 33.4294 29.6681 33.4294 29.1559C33.4294 29.1559 33.4436 23.9169 33.472 19.5706C33.4862 17.2145 32.3634 15.8974 30.7857 15.634C30.0609 15.5169 29.3076 15.6925 28.6964 16.1169C28.0568 16.5852 27.5451 17.1998 27.204 17.9315C26.7208 18.8828 23.7644 27.7803 23.7644 27.7803C23.6081 28.2486 23.4659 28.234 23.4517 27.7364C23.4517 27.7364 23.3664 23.9169 23.2812 23.0096C23.1532 21.634 22.8405 19.351 21.1065 19.234C19.472 19.1315 18.7471 21.1949 18.3208 22.4827C18.0507 23.3315 16.672 27.9413 16.672 27.9413L16.5725 28.3803Z" fill="#5F2CED"/>
</g>
<defs>
<clipPath id="clip0_433_397">
<rect width="28" height="30" fill="white" transform="translate(14 13)"/>
</clipPath>
</defs>
</svg>
