<svg width="56" height="56" viewBox="0 0 56 56" fill="none" xmlns="http://www.w3.org/2000/svg">
<rect width="56" height="56" rx="28" fill="#F0F4FF"/>
<path d="M28 12.25C36.6985 12.25 43.75 19.3015 43.75 28C43.75 28.4142 43.4142 28.75 43 28.75H37.999C32.8906 28.75 28.7501 32.8912 28.75 38V43C28.75 43.4142 28.4142 43.75 28 43.75C19.3015 43.75 12.25 36.6985 12.25 28C12.25 19.3015 19.3015 12.25 28 12.25Z" fill="white" stroke="#5F2CED"/>
<path fill-rule="evenodd" clip-rule="evenodd" d="M28 17.2097C28.6903 17.2097 29.25 17.7694 29.25 18.4597V27.9672C29.26 28.2996 29.1381 28.6352 28.8845 28.8889L23.1026 34.6707C22.6145 35.1589 21.823 35.1589 21.3348 34.6707C20.8467 34.1825 20.8467 33.3911 21.3348 32.903L26.75 27.4877V18.4597C26.75 17.7694 27.3096 17.2097 28 17.2097Z" fill="#5F2CED"/>
<path d="M37.0508 32.5239C37.2632 31.492 38.7368 31.492 38.9492 32.5239C39.1783 33.6385 39.7292 34.6615 40.5339 35.4662C41.3385 36.2708 42.3615 36.8217 43.4761 37.0508C44.508 37.2632 44.508 38.7368 43.4761 38.9492C42.3615 39.1783 41.3385 39.7292 40.5339 40.5338C39.7292 41.3385 39.1783 42.3615 38.9492 43.4761C38.7368 44.508 37.2632 44.508 37.0508 43.4761C36.8217 42.3615 36.2708 41.3385 35.4662 40.5338C34.6615 39.7292 33.6385 39.1783 32.5239 38.9492C31.492 38.7368 31.492 37.2632 32.5239 37.0508C33.6385 36.8217 34.6615 36.2708 35.4662 35.4662C36.2708 34.6615 36.8217 33.6385 37.0508 32.5239Z" fill="#5F2CED"/>
</svg>
