<svg width="56" height="56" viewBox="0 0 56 56" fill="none" xmlns="http://www.w3.org/2000/svg">
<rect width="56" height="56" rx="28" fill="#F0F4FF"/>
<g clip-path="url(#clip0_412_603)">
<path d="M33.9275 27.2971C33.9051 32.7838 31.5279 38.4482 26.6166 41.025C23.163 42.8465 15 44.2459 15 38.3149C15 38.3149 15 16.2571 15 16.2349C15 12.9473 17.8032 11.8589 20.6065 12.0144C24.7777 12.2365 28.7696 14.169 31.1916 17.7232C32.7389 19.9889 33.5912 22.7212 33.8603 25.4757C33.8827 26.0976 33.9275 26.6973 33.9275 27.2971Z" fill="url(#paint0_linear_412_603)"/>
<path d="M41.6634 25.3646C41.1925 20.8331 38.3892 17.0346 34.5095 14.7467C31.9305 13.2139 28.7012 12.8363 27.0192 15.9018C27.0192 15.924 15.6941 36.538 15.6941 36.538C14.7073 38.3372 14.9316 39.8255 15.8286 41.0473C17.1742 42.8688 19.8429 43.6907 22.0182 43.9128C24.0365 44.1349 26.0773 43.9128 28.0284 43.4685C33.9264 42.1357 39.1517 38.1595 40.9233 32.384C41.6185 30.1183 41.9101 27.7415 41.6634 25.3646Z" fill="url(#paint1_linear_412_603)"/>
<path d="M26.6156 41.0474C31.5269 38.4484 33.9041 32.784 33.9265 27.3196C33.9265 26.7198 33.9041 26.12 33.8368 25.5202C33.5901 22.7658 32.7155 20.0336 31.1681 17.7678C30.3159 16.5017 29.2619 15.4576 28.0733 14.5913C27.692 14.9245 27.3333 15.3688 27.0417 15.9241C27.0417 15.9463 15.7166 36.5603 15.7166 36.5603C14.9765 37.8931 14.9317 39.0704 15.3129 40.0922C15.3129 40.1144 15.3353 40.1366 15.3353 40.1589C15.3578 40.2033 15.3802 40.2699 15.4026 40.3144C15.425 40.3588 15.425 40.381 15.4475 40.4254C15.4475 40.4476 15.4699 40.4698 15.4699 40.4698C17.2415 43.8463 23.6554 42.6023 26.6156 41.0474Z" fill="#E23B7B"/>
</g>
<defs>
<linearGradient id="paint0_linear_412_603" x1="24.4158" y1="21.0601" x2="24.4158" y2="30.6531" gradientUnits="userSpaceOnUse">
<stop stop-color="#7047EB"/>
<stop offset="1" stop-color="#A244FF"/>
</linearGradient>
<linearGradient id="paint1_linear_412_603" x1="37.5991" y1="16.922" x2="24.4606" y2="42.6216" gradientUnits="userSpaceOnUse">
<stop stop-color="#FF9B53"/>
<stop offset="1" stop-color="#FF698F"/>
</linearGradient>
<clipPath id="clip0_412_603">
<rect width="27" height="32" fill="white" transform="translate(15 12)"/>
</clipPath>
</defs>
</svg>
