<svg width="57" height="56" viewBox="0 0 57 56" fill="none" xmlns="http://www.w3.org/2000/svg">
<rect width="56.4194" height="56" rx="28" fill="#F0F4FF"/>
<g clip-path="url(#clip0_291_756)">
<path fill-rule="evenodd" clip-rule="evenodd" d="M27.9553 13C19.6854 13 13 19.875 13 28.3803C13 35.1791 17.2836 40.9341 23.226 42.9709C23.969 43.1241 24.2411 42.64 24.2411 42.2328C24.2411 41.8762 24.2166 40.6541 24.2166 39.3806C20.0564 40.2975 19.1901 37.5472 19.1901 37.5472C18.5215 35.7647 17.5309 35.3066 17.5309 35.3066C16.1693 34.3644 17.6301 34.3644 17.6301 34.3644C19.1405 34.4662 19.9331 35.9431 19.9331 35.9431C21.2699 38.2856 23.4241 37.6237 24.2907 37.2162C24.4144 36.2231 24.8108 35.5356 25.2317 35.1537C21.9137 34.7972 18.4227 33.4731 18.4227 27.5653C18.4227 25.8847 19.0165 24.5097 19.9576 23.4403C19.8091 23.0584 19.289 21.4794 20.1063 19.3659C20.1063 19.3659 21.3691 18.9584 24.2163 20.9447C25.4353 20.608 26.6925 20.4368 27.9553 20.4353C29.2181 20.4353 30.5053 20.6137 31.694 20.9447C34.5415 18.9584 35.8043 19.3659 35.8043 19.3659C36.6216 21.4794 36.1012 23.0584 35.9528 23.4403C36.9186 24.5097 37.488 25.8847 37.488 27.5653C37.488 33.4731 33.9969 34.7716 30.6541 35.1537C31.199 35.6375 31.6692 36.5541 31.6692 38.0056C31.6692 40.0681 31.6447 41.7234 31.6447 42.2325C31.6447 42.64 31.9171 43.1241 32.6598 42.9712C38.6022 40.9337 42.8858 35.1791 42.8858 28.3803C42.9103 19.875 36.2004 13 27.9553 13Z" fill="#24292F"/>
</g>
<defs>
<clipPath id="clip0_291_756">
<rect width="30" height="30" fill="white" transform="translate(13 13)"/>
</clipPath>
</defs>
</svg>
