<svg width="56" height="56" viewBox="0 0 56 56" fill="none" xmlns="http://www.w3.org/2000/svg">
<rect width="56" height="56" rx="28" fill="#F0F4FF"/>
<g clip-path="url(#clip0_398_372)">
<path d="M28 10C37.936 10 46 18.064 46 28C46 37.936 37.936 46 28 46C18.064 46 10 37.936 10 28C10 18.064 18.064 10 28 10ZM28 14.752C20.656 14.752 14.752 20.656 14.752 28C14.752 35.344 20.656 41.248 28 41.248C35.344 41.248 41.248 35.344 41.248 28C41.248 20.656 35.344 14.752 28 14.752ZM32.464 28.72C34.5318 28.72 36.208 30.3962 36.208 32.464C36.208 34.5318 34.5318 36.208 32.464 36.208C30.3962 36.208 28.72 34.5318 28.72 32.464C28.72 30.3962 30.3962 28.72 32.464 28.72ZM23.536 28.72C25.6038 28.72 27.28 30.3962 27.28 32.464C27.28 34.5318 25.6038 36.208 23.536 36.208C21.4682 36.208 19.792 34.5318 19.792 32.464C19.792 30.3962 21.4682 28.72 23.536 28.72ZM32.464 19.792C34.5318 19.792 36.208 21.4682 36.208 23.536C36.208 25.6038 34.5318 27.28 32.464 27.28C30.3962 27.28 28.72 25.6038 28.72 23.536C28.72 21.4682 30.3962 19.792 32.464 19.792ZM23.536 19.792C25.6038 19.792 27.28 21.4682 27.28 23.536C27.28 25.6038 25.6038 27.28 23.536 27.28C21.4682 27.28 19.792 25.6038 19.792 23.536C19.792 21.4682 21.4682 19.792 23.536 19.792Z" fill="#F12E45"/>
</g>
<defs>
<clipPath id="clip0_398_372">
<rect width="36" height="36" fill="white" transform="translate(10 10)"/>
</clipPath>
</defs>
</svg>
