<svg width="57" height="56" viewBox="0 0 57 56" fill="none" xmlns="http://www.w3.org/2000/svg">
<rect width="56.4194" height="56" rx="28" fill="#F0F4FF"/>
<path d="M43.4272 16.468C43.4276 15.9664 43.2305 15.4851 42.8792 15.1297C42.5279 14.7742 42.051 14.5736 41.5532 14.5718H27.3876C26.8884 14.5718 26.4097 14.7717 26.0567 15.1273C25.7038 15.4829 25.5054 15.9651 25.5054 16.468L25.5054 18.8461H34.3271C35.4118 18.8479 35.7502 18.9632 36.5172 19.7359C37.2842 20.5086 37.5844 20.8495 37.5862 21.9423V26.6086H40.2274C40.3646 26.6077 40.4997 26.642 40.62 26.7084C40.7402 26.7748 40.8417 26.8709 40.9148 26.9878L43.4272 30.8709V16.468Z" fill="#E7E1FF"/>
<path d="M25.5054 18.8461V16.468C25.5054 15.9651 25.7038 15.4829 26.0567 15.1273C26.4097 14.7717 26.8884 14.5718 27.3876 14.5718H41.5532C42.051 14.5736 42.5279 14.7742 42.8792 15.1297C43.2305 15.4851 43.4276 15.9664 43.4272 16.468V30.8709L40.9148 26.9878C40.8417 26.8709 40.7402 26.7748 40.62 26.7084C40.4997 26.642 40.3646 26.6077 40.2274 26.6086H37.0517" stroke="#5F2CED" stroke-miterlimit="10" stroke-linecap="round" stroke-linejoin="round"/>
<path d="M37.2931 21.9141V21.9145L37.2931 31.9307V31.9314L36.7931 31.9314C36.7935 32.2563 36.7303 32.5781 36.607 32.8784C36.4838 33.1787 36.303 33.4515 36.0749 33.6813C35.8469 33.911 35.5761 34.0932 35.278 34.2173C34.98 34.3415 34.6605 34.4052 34.338 34.4047L37.2931 21.9141ZM37.2931 21.9141C37.2925 21.127 36.9819 20.3716 36.4283 19.8139C35.8746 19.2561 35.1231 18.9418 34.3384 18.9412H34.338L17.1446 18.9412L17.1431 18.9412C16.3593 18.9435 15.609 19.2582 15.0559 19.8155C14.5029 20.3726 14.1919 21.1267 14.1896 21.913L14.1896 21.9135C14.186 23.8194 14.1887 26.6618 14.1915 29.628C14.195 33.4608 14.1988 37.5002 14.1896 39.9926C14.1888 40.2144 14.3342 40.4103 14.5468 40.4736C14.7594 40.5369 14.9883 40.4526 15.1091 40.2665L18.4888 35.0561L18.4888 35.0561L18.4913 35.052C18.5203 35.0064 18.56 34.9692 18.6064 34.9436C18.6528 34.918 18.7045 34.9048 18.7569 34.9047H34.3373L37.2931 21.9141ZM30.3791 24.119C30.3815 24.1251 30.384 24.1311 30.3867 24.1371C30.8377 25.1537 30.4071 26.4261 29.4217 27.7894C28.4593 29.1208 27.083 30.3745 26.0024 31.2553C25.9891 31.2661 25.9765 31.2775 25.9644 31.2896C25.9056 31.3485 25.8268 31.3809 25.7454 31.3809C25.664 31.3809 25.5852 31.3485 25.5264 31.2896C25.5137 31.2769 25.5004 31.265 25.4865 31.2537C24.6143 30.5499 23.2159 29.3172 22.1912 27.9468C21.6788 27.2614 21.2771 26.5643 21.0725 25.9005C20.8695 25.2419 20.8681 24.6455 21.1099 24.1179C21.113 24.1109 21.116 24.104 21.1189 24.0969C21.2817 23.694 21.5411 23.3385 21.8734 23.0621C22.2058 22.7858 22.6008 22.5973 23.0228 22.5131C23.4448 22.4289 23.881 22.4516 24.2922 22.5792C24.7034 22.7068 25.0772 22.9355 25.3796 23.245C25.4736 23.3412 25.6023 23.3954 25.7368 23.3956C25.8712 23.3957 26 23.3417 26.0942 23.2457C26.3994 22.9345 26.7763 22.7051 27.1908 22.5777C27.6053 22.4503 28.0446 22.4289 28.4693 22.5153C28.894 22.6017 29.291 22.7933 29.6245 23.0731C29.958 23.353 30.2174 23.7123 30.3791 24.119Z" fill="white" stroke="#5F2CED" stroke-linejoin="round"/>
<path d="M26.3359 31.6716C28.5209 29.8908 31.9988 26.5271 30.8613 23.9631C30.6692 23.4797 30.3607 23.0521 29.9636 22.7189C29.5664 22.3856 29.0932 22.1571 28.5866 22.0541C28.08 21.951 27.5559 21.9766 27.0615 22.1285C26.5672 22.2804 26.1181 22.5539 25.7549 22.9243C25.3945 22.5556 24.9489 22.2828 24.458 22.1304C23.9672 21.9781 23.4464 21.9509 22.9426 22.0515C22.4388 22.152 21.9676 22.3771 21.5714 22.7064C21.1753 23.0358 20.8665 23.4591 20.6729 23.9384C19.4454 26.6178 23.4226 30.2453 25.1902 31.6716C25.3424 31.8241 25.5484 31.9096 25.763 31.9096C25.9777 31.9096 26.1836 31.8241 26.3359 31.6716Z" fill="#5F2CED"/>
</svg>
