<svg width="57" height="56" viewBox="0 0 57 56" fill="none" xmlns="http://www.w3.org/2000/svg">
<rect width="56.4194" height="56" rx="28" fill="#F0F4FF"/>
<g clip-path="url(#clip0_926_405)">
<path d="M22.9901 13.0129C22.9901 12.4535 22.5428 12 21.9911 12C21.4393 12 20.9921 12.4535 20.9921 13.0129V16.0514C20.9921 16.6108 21.4393 17.0643 21.9911 17.0643C22.5428 17.0643 22.9901 16.6108 22.9901 16.0514V13.0129Z" fill="#2653C7"/>
<path d="M34.9782 13.0129C34.9782 12.4535 34.5309 12 33.9792 12C33.4274 12 32.9802 12.4535 32.9802 13.0129V16.0514C32.9802 16.6108 33.4274 17.0643 33.9792 17.0643C34.5309 17.0643 34.9782 16.6108 34.9782 16.0514V13.0129Z" fill="#2653C7"/>
<path fill-rule="evenodd" clip-rule="evenodd" d="M30.1494 28.8126C30.045 29.6371 29.7077 30.3871 29.2042 30.9915C28.6757 31.6298 27.9644 32.1063 27.152 32.34L27.1169 32.3501L27.0376 32.3713L27.0309 32.373L20.7397 34.0829V32.5998C20.7397 32.5668 20.7397 32.5338 20.7431 32.5008C20.7798 31.8803 21.1647 31.3538 21.7024 31.121C21.7634 31.0939 21.826 31.0711 21.8911 31.0533L21.9504 31.0372L30.1486 28.8101V28.8126H30.1494Z" fill="#2653C7"/>
<path fill-rule="evenodd" clip-rule="evenodd" d="M35.2316 23.3442C35.0179 25.0363 33.8181 26.4161 32.2342 26.8716L32.1992 26.8817L32.1207 26.9029H32.1198L32.1132 26.9046L20.7397 29.9943V28.5113C20.7397 27.8476 21.1363 27.2779 21.7024 27.0324L21.8911 26.9647L21.9496 26.9486L35.2308 23.3408V23.3442H35.2316Z" fill="#2653C7"/>
<path fill-rule="evenodd" clip-rule="evenodd" d="M19.2438 15.5448H36.7264C39.0713 15.5448 40.9722 17.472 40.9722 19.8494V34.178H42.9702V19.8494C42.9702 16.3532 40.1748 13.519 36.7264 13.519H19.2438C15.7954 13.519 13 16.3532 13 19.8494V37.5744C13 41.0705 15.7954 43.9047 19.2438 43.9047H33.2976V41.879H19.2438C16.8989 41.879 14.998 39.9517 14.998 37.5744V19.8494C14.998 17.472 16.8989 15.5448 19.2438 15.5448Z" fill="#2653C7"/>
<path fill-rule="evenodd" clip-rule="evenodd" d="M42.9851 34.415V34.083H33.2976V43.9048H33.625L42.9851 34.415Z" fill="#2653C7"/>
</g>
<defs>
<clipPath id="clip0_926_405">
<rect width="30" height="32" fill="white" transform="translate(13 12)"/>
</clipPath>
</defs>
</svg>
