<svg width="56" height="56" viewBox="0 0 56 56" fill="none" xmlns="http://www.w3.org/2000/svg">
<rect width="56" height="56" rx="28" fill="#F0F4FF"/>
<g clip-path="url(#clip0_319_1194)">
<path d="M45.1562 35.0312C45.0382 35.0316 44.9216 35.0568 44.814 35.1053C44.7065 35.1537 44.6103 35.2243 44.5319 35.3125H43.1875V34.1875C43.187 33.7401 43.009 33.3112 42.6927 32.9948C42.3763 32.6784 41.9474 32.5005 41.5 32.5H38.125C37.6776 32.5005 37.2486 32.6784 36.9323 32.9948C36.6159 33.3112 36.4379 33.7401 36.4375 34.1875V35.3125H35.3125V34.1875C35.312 33.7401 35.134 33.3112 34.8177 32.9948C34.5013 32.6784 34.0724 32.5005 33.625 32.5H30.25C29.8026 32.5005 29.3736 32.6784 29.0573 32.9948C28.7409 33.3112 28.5629 33.7401 28.5625 34.1875V35.3125H27.4375V34.1875C27.437 33.7401 27.259 33.3112 26.9427 32.9948C26.6263 32.6784 26.1974 32.5005 25.75 32.5H22.375C21.9276 32.5005 21.4986 32.6784 21.1823 32.9948C20.8659 33.3112 20.6879 33.7401 20.6875 34.1875V35.3125H19.5625V34.1875C19.562 33.7401 19.384 33.3112 19.0677 32.9948C18.7513 32.6784 18.3224 32.5005 17.875 32.5H14.5C14.0526 32.5005 13.6236 32.6784 13.3073 32.9948C12.9909 33.3112 12.8129 33.7401 12.8125 34.1875V35.3125H11.468C11.3541 35.1851 11.2042 35.0954 11.0381 35.0551C10.8721 35.0148 10.6977 35.0258 10.538 35.0868C10.3784 35.1478 10.2411 35.2558 10.1442 35.3965C10.0472 35.5373 9.99536 35.7041 9.99536 35.875C9.99536 36.0459 10.0472 36.2127 10.1442 36.3535C10.2411 36.4942 10.3784 36.6022 10.538 36.6632C10.6977 36.7242 10.8721 36.7352 11.0381 36.6949C11.2042 36.6546 11.3541 36.5649 11.468 36.4375H12.8125V37.5625C12.8129 38.0099 12.9909 38.4388 13.3073 38.7552C13.6236 39.0716 14.0526 39.2495 14.5 39.25H17.875C18.3224 39.2495 18.7513 39.0716 19.0677 38.7552C19.384 38.4388 19.562 38.0099 19.5625 37.5625V36.4375H20.6875V37.5625C20.6879 38.0099 20.8659 38.4388 21.1823 38.7552C21.4986 39.0716 21.9276 39.2495 22.375 39.25H25.75C26.1974 39.2495 26.6263 39.0716 26.9427 38.7552C27.259 38.4388 27.437 38.0099 27.4375 37.5625V36.4375H28.5625V37.5625C28.5629 38.0099 28.7409 38.4388 29.0573 38.7552C29.3736 39.0716 29.8026 39.2495 30.25 39.25H33.625C34.0724 39.2495 34.5013 39.0716 34.8177 38.7552C35.134 38.4388 35.312 38.0099 35.3125 37.5625V36.4375H36.4375V37.5625C36.4379 38.0099 36.6159 38.4388 36.9323 38.7552C37.2486 39.0716 37.6776 39.2495 38.125 39.25H41.5C41.9474 39.2495 42.3763 39.0716 42.6927 38.7552C43.009 38.4388 43.187 38.0099 43.1875 37.5625V36.4375H44.5319C44.6259 36.5418 44.7445 36.621 44.8769 36.6678C45.0093 36.7146 45.1514 36.7275 45.29 36.7055C45.4287 36.6834 45.5597 36.627 45.671 36.5414C45.7824 36.4558 45.8706 36.3437 45.9275 36.2154C45.9845 36.087 46.0085 35.9465 45.9973 35.8065C45.9861 35.6665 45.9401 35.5315 45.8635 35.4138C45.7868 35.2962 45.6819 35.1995 45.5584 35.1327C45.4349 35.0659 45.2966 35.031 45.1562 35.0312ZM17.4207 35.7184L16.2479 36.8434C16.1431 36.9439 16.0036 37 15.8584 37C15.7133 37 15.5737 36.9439 15.469 36.8434L14.9542 36.3496C14.9008 36.2985 14.8579 36.2374 14.828 36.1697C14.7982 36.102 14.782 36.029 14.7804 35.9551C14.7788 35.8811 14.7918 35.8076 14.8187 35.7386C14.8455 35.6697 14.8857 35.6068 14.9369 35.5534C14.9881 35.5 15.0494 35.4572 15.1171 35.4276C15.1849 35.3979 15.2578 35.3818 15.3318 35.3804C15.4058 35.3789 15.4793 35.3921 15.5481 35.4191C15.617 35.4461 15.6799 35.4864 15.7332 35.5377L15.8584 35.658L16.6417 34.9066C16.695 34.8552 16.7579 34.8149 16.8268 34.7879C16.8956 34.7609 16.9692 34.7478 17.0431 34.7492C17.1171 34.7507 17.19 34.7667 17.2578 34.7964C17.3256 34.8261 17.3868 34.8688 17.438 34.9222C17.4892 34.9756 17.5294 35.0386 17.5563 35.1075C17.5831 35.1764 17.5961 35.25 17.5945 35.3239C17.5929 35.3979 17.5767 35.4708 17.5469 35.5385C17.517 35.6062 17.4742 35.6673 17.4207 35.7184ZM25.2957 35.7184L24.1229 36.8434C24.0181 36.9439 23.8786 37 23.7334 37C23.5883 37 23.4487 36.9439 23.344 36.8434L22.8292 36.3496C22.7758 36.2985 22.7329 36.2374 22.703 36.1697C22.6732 36.102 22.657 36.029 22.6554 35.9551C22.6538 35.8811 22.6668 35.8076 22.6937 35.7386C22.7205 35.6697 22.7607 35.6068 22.8119 35.5534C22.8631 35.5 22.9244 35.4572 22.9921 35.4276C23.0599 35.3979 23.1328 35.3818 23.2068 35.3804C23.2808 35.3789 23.3543 35.3921 23.4231 35.4191C23.492 35.4461 23.5549 35.4864 23.6082 35.5377L23.7334 35.658L24.5167 34.9066C24.57 34.8552 24.6329 34.8149 24.7018 34.7879C24.7706 34.7609 24.8442 34.7478 24.9181 34.7492C24.9921 34.7507 25.065 34.7667 25.1328 34.7964C25.2006 34.8261 25.2618 34.8688 25.313 34.9222C25.3642 34.9756 25.4044 35.0386 25.4313 35.1075C25.4581 35.1764 25.4711 35.25 25.4695 35.3239C25.4679 35.3979 25.4517 35.4708 25.4219 35.5385C25.392 35.6062 25.3492 35.6673 25.2957 35.7184ZM34.1875 37.5625C34.1873 37.7116 34.1279 37.8546 34.0225 37.96C33.917 38.0655 33.7741 38.1248 33.625 38.125H30.25C30.1008 38.1248 29.9579 38.0655 29.8524 37.96C29.747 37.8546 29.6876 37.7116 29.6875 37.5625V34.1875C29.6876 34.0384 29.747 33.8954 29.8524 33.79C29.9579 33.6845 30.1008 33.6252 30.25 33.625H33.625C33.7741 33.6252 33.917 33.6845 34.0225 33.79C34.1279 33.8954 34.1873 34.0384 34.1875 34.1875V37.5625ZM42.0625 37.5625C42.0623 37.7116 42.0029 37.8546 41.8975 37.96C41.792 38.0655 41.6491 38.1248 41.5 38.125H38.125C37.9758 38.1248 37.8329 38.0655 37.7274 37.96C37.622 37.8546 37.5626 37.7116 37.5625 37.5625V34.1875C37.5626 34.0384 37.622 33.8954 37.7274 33.79C37.8329 33.6845 37.9758 33.6252 38.125 33.625H41.5C41.6491 33.6252 41.792 33.6845 41.8975 33.79C42.0029 33.8954 42.0623 34.0384 42.0625 34.1875V37.5625Z" fill="#5F2CED"/>
<path d="M28 17.875C29.641 17.875 31.2148 18.5269 32.3752 19.6873C33.5356 20.8477 34.1875 22.4215 34.1875 24.0625C34.1875 25.7035 33.5356 27.2773 32.3752 28.4377C31.2148 29.5981 29.641 30.25 28 30.25C27.8508 30.25 27.7077 30.3093 27.6023 30.4148C27.4968 30.5202 27.4375 30.6633 27.4375 30.8125C27.4375 30.9617 27.4968 31.1048 27.6023 31.2102C27.7077 31.3157 27.8508 31.375 28 31.375C29.9394 31.375 31.7994 30.6046 33.1707 29.2332C34.5421 27.8619 35.3125 26.0019 35.3125 24.0625C35.3125 22.1231 34.5421 20.2631 33.1707 18.8918C31.7994 17.5204 29.9394 16.75 28 16.75C27.8508 16.75 27.7077 16.8093 27.6023 16.9148C27.4968 17.0202 27.4375 17.1633 27.4375 17.3125C27.4375 17.4617 27.4968 17.6048 27.6023 17.7102C27.7077 17.8157 27.8508 17.875 28 17.875Z" fill="#5F2CED"/>
<path d="M23.6547 19.4584C23.7876 19.4596 23.9164 19.4126 24.0175 19.3263C24.119 19.2411 24.1872 19.1228 24.2102 18.9922C24.2331 18.8617 24.2094 18.7272 24.1431 18.6124C24.0767 18.4976 23.9721 18.4098 23.8475 18.3645C23.7229 18.3192 23.5864 18.3192 23.4618 18.3646C23.3372 18.41 23.2326 18.4978 23.1664 18.6126C23.1001 18.7274 23.0764 18.8619 23.0994 18.9924C23.1224 19.123 23.1907 19.2412 23.2922 19.3265C23.3938 19.4117 23.5221 19.4584 23.6547 19.4584Z" fill="#5F2CED"/>
<path d="M21.2528 23.4493C21.2853 23.4548 21.3182 23.4577 21.3511 23.4578C21.4919 23.4578 21.6277 23.405 21.7314 23.3098C21.8352 23.2145 21.8994 23.0839 21.9115 22.9435C21.9235 22.8032 21.8825 22.6635 21.7965 22.552C21.7105 22.4405 21.5857 22.3653 21.447 22.3413C21.3002 22.3158 21.1492 22.3496 21.0273 22.4353C20.9054 22.521 20.8225 22.6516 20.7968 22.7983C20.7711 22.9451 20.8046 23.0961 20.8901 23.2181C20.9756 23.3402 21.1061 23.4233 21.2528 23.4493Z" fill="#5F2CED"/>
<path d="M25.6824 18.2829C25.7485 18.2827 25.8142 18.2713 25.8765 18.2492C26.0096 18.201 26.1198 18.1047 26.1853 17.9794C26.2509 17.854 26.2671 17.7086 26.2308 17.5718C26.1944 17.4351 26.1081 17.3169 25.989 17.2406C25.8698 17.1643 25.7264 17.1355 25.587 17.1597C25.4476 17.184 25.3223 17.2596 25.2359 17.3716C25.1495 17.4837 25.1082 17.624 25.1202 17.765C25.1322 17.906 25.1965 18.0374 25.3006 18.1333C25.4047 18.2291 25.5409 18.2825 25.6824 18.2829Z" fill="#5F2CED"/>
<path d="M21.3511 25.8005C21.3842 25.8004 21.4171 25.7975 21.4497 25.792C21.5926 25.7668 21.7203 25.6875 21.8062 25.5705C21.8921 25.4536 21.9295 25.308 21.9107 25.1641C21.8919 25.0202 21.8182 24.8891 21.7052 24.7982C21.5921 24.7072 21.4483 24.6634 21.3037 24.6759C21.1591 24.6884 21.0249 24.7562 20.9291 24.8652C20.8333 24.9741 20.7832 25.1159 20.7893 25.2609C20.7954 25.4059 20.8573 25.5429 20.9619 25.6434C21.0666 25.7439 21.206 25.8002 21.3511 25.8005Z" fill="white"/>
<path d="M23.23 28.8717C23.1589 28.9569 23.1146 29.0614 23.1028 29.1718C23.091 29.2822 23.1121 29.3937 23.1636 29.4921C23.2151 29.5905 23.2946 29.6715 23.3921 29.7247C23.4895 29.778 23.6006 29.8012 23.7112 29.7914C23.8218 29.7815 23.927 29.7392 24.0136 29.6696C24.1002 29.6 24.1642 29.5064 24.1975 29.4004C24.2309 29.2945 24.2321 29.1811 24.2011 29.0744C24.17 28.9678 24.108 28.8728 24.023 28.8013C23.9663 28.7538 23.9009 28.718 23.8303 28.6958C23.7598 28.6736 23.6856 28.6656 23.6119 28.6721C23.5383 28.6787 23.4667 28.6996 23.4011 28.7339C23.3356 28.7681 23.2775 28.8149 23.23 28.8717Z" fill="#5F2CED"/>
<path d="M21.8689 21.1797C21.9653 21.2356 22.0761 21.2617 22.1874 21.2546C22.2986 21.2475 22.4053 21.2076 22.4938 21.1399C22.5824 21.0721 22.6488 20.9796 22.6847 20.8741C22.7206 20.7685 22.7244 20.6547 22.6956 20.547C22.6668 20.4393 22.6067 20.3426 22.5229 20.2691C22.4391 20.1956 22.3353 20.1487 22.2248 20.1342C22.1142 20.1197 22.0019 20.1383 21.902 20.1877C21.802 20.2371 21.719 20.3151 21.6634 20.4117C21.5891 20.5409 21.569 20.6942 21.6075 20.8381C21.646 20.9821 21.74 21.1049 21.8689 21.1797Z" fill="#5F2CED"/>
<path d="M21.8715 26.9509C21.7746 27.0064 21.6963 27.0895 21.6467 27.1896C21.597 27.2897 21.5782 27.4023 21.5926 27.513C21.607 27.6238 21.654 27.7279 21.7276 27.8119C21.8012 27.8959 21.8982 27.9562 22.0061 27.9851C22.114 28.014 22.2281 28.0102 22.3338 27.9741C22.4396 27.9381 22.5322 27.8715 22.6001 27.7827C22.6679 27.6939 22.7078 27.587 22.7148 27.4755C22.7218 27.364 22.6954 27.2529 22.6392 27.1564C22.564 27.028 22.4413 26.9344 22.2976 26.8959C22.1539 26.8575 22.0008 26.8772 21.8715 26.9509Z" fill="#5F2CED"/>
<path d="M25.1623 30.2135C25.1368 30.2829 25.1252 30.3567 25.1281 30.4306C25.1311 30.5045 25.1487 30.5771 25.1797 30.6442C25.2108 30.7113 25.2548 30.7716 25.3092 30.8217C25.3636 30.8718 25.4274 30.9107 25.4969 30.9361C25.5583 30.958 25.6231 30.9694 25.6883 30.9699C25.8208 30.9705 25.9493 30.9243 26.0511 30.8394C26.1529 30.7545 26.2214 30.6364 26.2446 30.5059C26.2678 30.3754 26.2442 30.2409 26.1779 30.1262C26.1116 30.0114 26.0068 29.9238 25.8822 29.8787C25.813 29.8533 25.7394 29.8419 25.6657 29.845C25.592 29.8481 25.5197 29.8657 25.4528 29.8968C25.386 29.9279 25.3259 29.9719 25.2761 30.0262C25.2262 30.0806 25.1876 30.1442 25.1623 30.2135Z" fill="#5F2CED"/>
<path d="M28 29.125C29.0013 29.125 29.9801 28.8281 30.8126 28.2718C31.6451 27.7155 32.294 26.9249 32.6771 25.9998C33.0603 25.0748 33.1606 24.0569 32.9652 23.0749C32.7699 22.0928 32.2877 21.1908 31.5797 20.4828C30.8717 19.7748 29.9697 19.2926 28.9876 19.0973C28.0056 18.9019 26.9877 19.0022 26.0627 19.3854C25.1376 19.7685 24.347 20.4174 23.7907 21.2499C23.2344 22.0825 22.9375 23.0612 22.9375 24.0625C22.9391 25.4047 23.4729 26.6914 24.422 27.6405C25.3711 28.5896 26.6578 29.1234 28 29.125Z" fill="#5F2CED"/>
</g>
<defs>
<clipPath id="clip0_319_1194">
<rect width="36" height="36" fill="white" transform="translate(10 10)"/>
</clipPath>
</defs>
</svg>
