<svg width="56" height="56" viewBox="0 0 56 56" fill="none" xmlns="http://www.w3.org/2000/svg">
<rect width="56" height="56" rx="28" fill="#F0F4FF"/>
<path d="M23.3257 37.5H32.2583C32.9141 37.5 33.5443 37.7622 34.0093 38.2305C34.4744 38.699 34.7358 39.3358 34.7358 40V41.5C34.7358 41.7664 34.6307 42.0208 34.4448 42.208C34.2591 42.3951 34.0085 42.5 33.7476 42.5H21.8364C21.5754 42.5 21.3249 42.3951 21.1392 42.208C20.9533 42.0208 20.8481 41.7664 20.8481 41.5V40C20.8481 39.3358 21.1096 38.699 21.5747 38.2305C22.0396 37.7622 22.6699 37.5 23.3257 37.5ZM20.3481 13.5H35.2358C35.4969 13.5 35.7483 13.6049 35.9341 13.792C36.1198 13.9792 36.2251 14.2337 36.2251 14.5V22C36.2223 24.2547 35.3318 26.4156 33.7505 28.0088C32.1692 29.6018 30.0261 30.4964 27.7915 30.499C25.5572 30.4961 23.4146 29.6016 21.8335 28.0088C20.3508 26.515 19.4754 24.5222 19.3696 22.4209L19.3589 21.999V14.5C19.3589 14.2337 19.4641 13.9792 19.6499 13.792C19.8356 13.6049 20.0871 13.5 20.3481 13.5Z" fill="white" stroke="#5F2CED"/>
<path d="M27.7921 31C27.2929 30.9964 26.7949 30.9507 26.3032 30.8635V37H29.2809V30.8635C28.7893 30.9507 28.2913 30.9964 27.7921 31ZM41.1917 16H36.7252V19H39.7029V22C39.7021 22.7954 39.3881 23.558 38.8298 24.1204C38.2716 24.6829 37.5147 24.9992 36.7252 25H36.2041C35.8138 26.107 35.2118 27.1263 34.4323 28H36.7252C38.304 27.998 39.8177 27.3652 40.9341 26.2404C42.0505 25.1157 42.6786 23.5907 42.6806 22V17.5C42.6806 17.1022 42.5237 16.7206 42.2445 16.4393C41.9653 16.158 41.5866 16 41.1917 16ZM19.3801 25H18.859C18.0695 24.9992 17.3125 24.6829 16.7543 24.1204C16.196 23.558 15.8821 22.7954 15.8813 22V19H18.859V16H14.3924C13.9975 16 13.6189 16.158 13.3396 16.4393C13.0604 16.7206 12.9036 17.1022 12.9036 17.5V22C12.9055 23.5907 13.5336 25.1157 14.65 26.2404C15.7665 27.3652 17.2801 27.998 18.859 28H21.1518C20.3723 27.1263 19.7704 26.107 19.3801 25Z" fill="#5F2CED"/>
</svg>
