<svg width="57" height="56" viewBox="0 0 57 56" fill="none" xmlns="http://www.w3.org/2000/svg">
<rect width="56.4194" height="56" rx="28" fill="#F0F4FF"/>
<g clip-path="url(#clip0_292_1043)">
<path d="M98.2027 37.34C98.0925 37.2941 97.976 37.2647 97.8577 37.2528C97.616 37.2403 97.3754 37.2955 97.1637 37.4121C96.9762 37.5232 96.8233 37.6848 96.7235 37.8786C96.435 38.3147 96.2193 38.7926 95.9648 39.244C95.5806 39.8638 95.1427 40.4488 94.6564 40.9924C94.2052 41.5234 93.6895 41.9937 93.2077 42.5095C93.1679 42.5613 93.1125 42.5989 93.0497 42.6167C92.9868 42.6344 92.9199 42.6314 92.8587 42.6081C92.8125 42.5729 92.7774 42.5253 92.7577 42.4709C92.7375 42.4166 92.7329 42.3576 92.745 42.3009C92.8852 41.0114 92.9914 39.7143 93.1662 38.4247C93.2383 37.8369 93.3098 37.2869 93.386 36.6839C93.4806 35.8495 93.5793 35.0189 93.6779 34.1845L94.4856 27.9606C94.5618 27.5206 94.5843 26.6862 94.0229 26.197C93.7979 25.9924 93.5164 25.8602 93.2152 25.8177C92.9152 25.7966 92.6152 25.8652 92.3545 26.0149C91.5958 26.5686 91.3304 27.7406 91.1216 28.6129C90.6324 30.6648 90.5037 32.838 89.5172 34.742C89.3216 35.1221 89.0914 35.4839 88.8306 35.8229C88.6581 36.0637 88.4435 36.2717 88.1977 36.4373C87.9497 36.6023 87.6497 36.6686 87.3554 36.6232C87.1737 36.5752 87.0058 36.4854 86.8645 36.361C86.7237 36.2365 86.6141 36.0808 86.5437 35.9064C86.4075 35.557 86.3383 35.1852 86.3389 34.8103C86.2806 32.9646 86.5558 31.1234 87.1506 29.3752C87.3104 28.9563 87.4247 28.5214 87.4922 28.0781C87.5908 27.5358 87.5908 26.7772 87.1125 26.3107C86.8893 26.0958 86.6141 25.9423 86.3135 25.8652C86.0129 25.7881 85.6979 25.79 85.3985 25.8708C85.102 25.9905 84.8343 26.1727 84.6145 26.4051C84.3947 26.6374 84.2273 26.9144 84.1241 27.2172C83.445 28.795 83.2633 30.4562 83.047 32.1478C82.931 33.2596 82.5889 34.336 82.042 35.3109C81.6831 35.9298 81.2556 36.5062 80.7675 37.029C80.5281 37.2957 80.265 37.5407 79.9823 37.761C79.8277 37.8967 79.6472 38.0002 79.4516 38.0654C79.2566 38.1305 79.05 38.1559 78.8447 38.1403C78.6404 38.1069 78.4466 38.0251 78.2804 37.9018C78.1143 37.7784 77.9799 37.6169 77.8887 37.431C77.7162 37.0952 77.6077 36.7297 77.5702 36.3539C77.4641 35.6653 77.4231 34.968 77.4491 34.2717C77.4335 33.5192 77.4831 32.7666 77.5968 32.0226C77.8622 30.6913 79.9143 25.4308 80.362 24.0578C80.8397 22.6636 81.2412 21.2443 81.5643 19.8062C81.8527 18.5211 81.9802 17.205 81.9433 15.8883C81.9093 14.9629 81.7079 13.9426 80.9649 13.3927C80.6625 13.192 80.3147 13.0708 79.9535 13.0403C79.5924 13.0098 79.2289 13.071 78.8977 13.2182C78.2349 13.5222 77.6891 14.0333 77.3429 14.6746C77.0014 15.3118 76.7458 15.9916 76.5843 16.6962C76.2041 18.1485 75.8989 19.6195 75.6698 21.1033C75.4385 22.5445 75.1997 23.9782 74.9683 25.4194C74.771 26.6331 74.2706 30.9189 74.0771 31.8254C73.8516 32.7587 73.5088 33.6596 73.0569 34.5069C72.598 35.4095 72.1694 36.3273 71.6612 37.2073C71.5157 37.4976 71.3132 37.7556 71.0657 37.9658C70.9371 38.0695 70.7829 38.1366 70.6193 38.1599C70.4558 38.1833 70.289 38.1621 70.1365 38.0985C69.9707 37.992 69.8325 37.8479 69.733 37.6779C69.6334 37.5078 69.5755 37.3167 69.5638 37.12C69.2945 35.6409 69.5297 34.1351 69.8103 32.6788C70.0909 31.2223 71.3274 24.5016 71.5891 22.9541C71.9228 21.1526 72.4121 19.3738 72.5601 17.5381C72.6662 16.2145 72.871 14.557 71.8811 13.4989C71.6869 13.3013 71.4465 13.1552 71.1816 13.0737C70.9168 12.9923 70.6358 12.9781 70.3641 13.0324C69.8148 13.1924 69.3445 13.5505 69.0442 14.0374C68.6715 14.5212 68.3736 15.0582 68.1604 15.6304C67.7926 16.6445 67.4985 17.6839 67.2805 18.7404L67.1819 19.1842C66.8973 20.4893 66.6808 21.8085 66.5334 23.1362C66.455 23.8492 66.388 24.5648 66.3324 25.2829C66.3058 25.6318 66.2679 25.9845 66.2565 26.3335C66.2819 26.6132 66.247 26.8952 66.1541 27.1603C66.1141 27.2507 66.0545 27.331 65.9796 27.3955C65.6618 27.5893 65.2839 27.6595 64.9177 27.5927C63.0213 27.5358 61.3411 28.6091 60.2943 30.1604C59.7317 31.0453 59.2879 32.0004 58.9744 33.0011C58.9214 33.1718 58.8493 33.3424 58.7773 33.5169C58.5655 34.1143 58.312 34.696 58.0187 35.2578C57.7049 35.8097 57.3445 36.3337 56.9415 36.8242C56.5507 37.3348 56.107 37.8026 55.6179 38.2199C55.1257 38.6608 54.5269 38.9654 53.8808 39.1036C53.5381 39.1472 53.1899 39.1076 52.8658 38.988C52.5416 38.8686 52.251 38.6728 52.0186 38.4171C51.593 37.8956 51.3422 37.2534 51.3018 36.5815C51.2682 36.3889 51.306 36.1907 51.4079 36.0239C51.5088 35.9291 51.6284 35.8564 51.7591 35.8108C51.8897 35.765 52.0285 35.7472 52.1665 35.7584C53.1947 35.6764 54.1794 35.3083 55.0092 34.6956C55.839 34.083 56.4808 33.2503 56.8619 32.2919C57.3252 31.1682 57.4696 29.9385 57.2791 28.7381C57.1899 28.1505 56.9724 27.5898 56.6419 27.0958C56.2998 26.6128 55.8332 26.2313 55.2917 25.9922C54.743 25.7663 54.1548 25.6524 53.5615 25.6569C52.9682 25.6615 52.3817 25.7845 51.8365 26.0187C49.8795 26.8038 48.6051 28.5408 47.968 31.3285L47.8959 31.6206C47.5166 33.2894 47.1108 35.034 45.9085 36.2287C45.7557 36.4053 45.5623 36.542 45.3449 36.6272C45.1275 36.7125 44.8927 36.7436 44.6607 36.718C44.5817 36.7033 44.5069 36.6716 44.4414 36.6251C44.3759 36.5786 44.3213 36.5184 44.2814 36.4487C43.9628 35.9102 44.3042 34.6358 44.7972 33.0352C44.937 32.6269 45.051 32.2101 45.1386 31.7875C45.1727 31.1992 45.0413 30.6132 44.7593 30.0959C44.4629 29.6125 44.0282 29.2293 43.5115 28.996C42.9999 28.8209 42.4572 28.755 41.9185 28.8026H41.7479C41.5743 28.8099 41.4005 28.792 41.232 28.7494C41.1198 28.7239 41.0158 28.6701 40.9302 28.5931C40.8445 28.5161 40.78 28.4185 40.7428 28.3095C40.6961 28.0476 40.713 27.7784 40.7921 27.5244C40.8149 27.4523 40.8414 27.3538 40.8641 27.2817C40.9299 27.019 40.911 26.7423 40.8102 26.491C40.7094 26.2397 40.5318 26.0266 40.3029 25.8821C40.0659 25.7371 39.798 25.6504 39.521 25.6294C39.244 25.6083 38.966 25.6533 38.7099 25.7608C38.1781 26.0098 37.7406 26.4234 37.4621 26.9403C37.1725 27.436 37.0514 28.0123 37.1169 28.5826C37.2798 29.1047 37.3302 29.6553 37.2648 30.1983C37.0676 31.1541 36.5063 31.9354 35.9412 32.7205C35.816 32.8911 35.6947 33.0997 35.5619 33.259C34.8683 34.2843 34.0631 35.2294 33.1611 36.077C31.9764 37.1864 30.5248 37.9704 28.9474 38.3527C26.4025 38.914 23.8044 38.1479 22.4315 35.8457C21.7036 34.5176 21.2933 33.039 21.233 31.5257C21.0378 28.5938 21.5503 25.6579 22.7273 22.9656C23.8424 20.3751 25.4998 17.7809 28.5719 17.4585C29.7666 17.3333 31.1396 17.7467 31.6743 18.8239C32.0537 19.609 31.9285 20.5534 31.6743 21.3953C31.4203 22.2373 31.0751 23.068 31.0599 23.9441C31.0447 24.8202 31.4847 25.7911 32.3229 26.0452C33.1611 26.2994 34.0221 25.7722 34.4924 25.0629C34.9627 24.3537 35.1258 23.4928 35.3306 22.6659C35.8099 20.7131 36.5701 18.8403 37.5872 17.1058C38.0575 16.3055 38.6037 15.437 38.4444 14.5229C38.383 14.194 38.2334 13.888 38.0117 13.6375C37.7899 13.387 37.5042 13.2014 37.1852 13.1006C36.8632 13.0092 36.5225 13.0067 36.1993 13.0935C35.876 13.1803 35.5823 13.3532 35.3495 13.5937C34.8906 14.083 34.663 14.8491 34.0296 15.0653C33.3963 15.2815 32.8425 14.8832 32.3002 14.5912C30.271 13.4989 27.7489 13.5368 25.6098 14.4167C23.4872 15.3576 21.6871 16.9005 20.4327 18.8542C18.5304 21.6441 17.3736 24.8743 17.0723 28.2374C16.9775 29.4138 16.9775 30.5959 17.0723 31.7723C17.1538 33.1612 17.397 34.5358 17.7967 35.8684C18.2033 37.2059 18.8329 38.4651 19.659 39.5929C20.4865 40.7107 21.5948 41.5899 22.8714 42.1416C24.1626 42.6584 25.5473 42.9 26.9372 42.8508C28.3288 42.793 29.6951 42.4604 30.9576 41.8723C32.2297 41.2768 33.4088 40.5001 34.4582 39.5663C35.532 38.6733 36.4946 37.6547 37.3255 36.5321C37.8936 35.773 38.4009 34.9703 38.8426 34.1313C39.0626 33.7065 39.2674 33.2704 39.4533 32.8267C39.5016 32.6384 39.5872 32.4619 39.7052 32.3074C39.8231 32.153 39.9709 32.0239 40.1398 31.9278C40.2459 31.8683 40.3671 31.8413 40.4885 31.8501C40.6098 31.8588 40.7259 31.903 40.8224 31.9771C41.0298 32.0703 41.1958 32.2363 41.2889 32.4436C41.4079 32.8148 41.3999 33.2152 41.2662 33.5814V33.6307C41.1676 33.972 41.0689 34.3134 40.9476 34.6585C40.4811 36.1035 40.1398 37.4272 40.409 38.7243C40.5308 39.3866 40.8266 40.0045 41.2662 40.5145C41.7158 41.0056 42.3215 41.3259 42.9805 41.421C43.8336 41.5142 44.6954 41.3574 45.4609 40.9697C45.9541 40.7379 46.4114 40.4364 46.8187 40.0746C47.0297 39.8845 47.225 39.6777 47.4028 39.4563C47.5659 39.2515 47.7176 38.9481 48.0249 38.9671C48.1006 38.9743 48.1738 38.9981 48.2393 39.0368C48.3049 39.0755 48.3611 39.1281 48.4041 39.1909C48.484 39.3094 48.5501 39.4367 48.6013 39.5702C49.0058 40.4336 49.6497 41.1629 50.4565 41.6712C51.2633 42.1795 52.1991 42.4454 53.1526 42.4375H53.3991C54.3404 42.4005 55.2595 42.1405 56.0806 41.6789C56.9589 41.1582 57.767 40.5273 58.4852 39.8015C58.5457 39.7344 58.6229 39.6847 58.7089 39.6574C58.7728 39.6509 58.8373 39.6607 58.8963 39.6859C58.9554 39.7111 59.007 39.7509 59.0465 39.8015C59.1203 39.9079 59.179 40.0241 59.221 40.1466C59.4656 40.7237 59.8504 41.2306 60.3405 41.6213C60.8306 42.0121 61.4106 42.2744 62.0276 42.3843C62.6471 42.4805 63.2808 42.4202 63.871 42.2088C64.4613 41.9976 64.9893 41.6419 65.407 41.1745C65.5717 40.9549 65.7585 40.7528 65.9644 40.5714C66.0676 40.4837 66.191 40.4232 66.3235 40.3954C66.456 40.3675 66.5934 40.3733 66.723 40.4121C67.0757 40.5562 67.1857 40.9848 67.3412 41.3299C67.5306 41.7202 67.8276 42.0483 68.1971 42.2754C68.5667 42.5025 68.9935 42.6193 69.4273 42.6119C70.4132 42.5651 71.3451 42.1479 72.0366 41.4438C72.6795 40.7964 73.2729 40.1016 73.8116 39.3653C73.9044 39.2308 74.023 39.1161 74.1606 39.0278C74.2305 38.986 74.3104 38.964 74.3919 38.964C74.4734 38.964 74.5533 38.986 74.6233 39.0278C74.7168 39.1158 74.7849 39.2271 74.8206 39.3502C75.1148 40.0175 75.5995 40.5828 76.2145 40.975C76.8295 41.3671 77.5466 41.5685 78.2758 41.5537C79.7054 41.4663 81.0485 40.8401 82.0345 39.8015C82.3091 39.4457 82.6927 39.1898 83.1266 39.0733C83.6008 39.0202 83.8281 39.4526 83.9949 39.8319C84.1639 40.2855 84.4604 40.6807 84.8487 40.9697C85.1147 41.1618 85.4198 41.2925 85.7429 41.3522C86.0654 41.4119 86.3972 41.3991 86.7145 41.3148C87.3537 41.1342 87.9191 40.7558 88.3304 40.2339C88.5727 39.9343 88.7095 39.5474 88.9789 39.2705C89.2483 38.9936 89.411 39.3615 89.4375 39.6005C89.4768 40.0026 89.486 40.407 89.4641 40.8104C89.4225 41.6106 89.2858 42.4033 89.1837 43.1998C89.1768 43.4313 89.1018 43.6557 88.9673 43.8445C88.8502 43.9482 88.7095 44.022 88.5577 44.0597C88.406 44.0973 88.2474 44.0977 88.095 44.0608C87.716 44.0076 87.3785 43.9773 87.0064 43.9583L86.5402 43.909C85.8572 43.8635 85.1672 43.7876 84.4581 43.7649H83.8206C82.6299 43.7351 81.4431 43.9174 80.3164 44.3035C79.5289 44.601 78.8158 45.0662 78.2268 45.6667C77.6372 46.2673 77.1854 46.9889 76.9027 47.7814C76.6616 48.4821 76.6033 49.2326 76.732 49.9622C76.8699 50.6962 77.1999 51.3806 77.6879 51.9459C78.1812 52.5046 78.7829 52.9577 79.4562 53.2777C80.1295 53.5978 80.861 53.7782 81.6058 53.808C83.1248 53.8637 84.6352 53.5623 86.0164 52.9282C87.4235 52.3355 88.676 51.429 89.6781 50.2779C90.6808 49.1269 91.4066 47.7618 91.8006 46.287C91.8012 46.2556 91.811 46.2251 91.8283 46.1989C91.8462 46.1727 91.8704 46.152 91.8993 46.1392C92.8904 45.8018 93.8245 45.3145 94.6679 44.6941C95.5039 44.0596 96.2527 43.3174 96.8943 42.4867C97.2035 42.084 97.4908 41.665 97.755 41.2313C98.0095 40.8104 98.2143 40.359 98.4566 39.9266C98.6625 39.5962 98.8148 39.2352 98.9083 38.8571C98.9556 38.6647 98.9637 38.4647 98.9314 38.2692C98.8997 38.0736 98.8287 37.8866 98.7225 37.7193C98.5893 37.5455 98.4087 37.4138 98.2027 37.34ZM51.5521 31.7875C51.609 31.5409 51.6848 31.2982 51.7569 31.0744C51.9562 30.4582 52.2533 29.8781 52.6368 29.3563C52.7655 29.1751 52.9232 29.0162 53.1033 28.886C53.2862 28.7569 53.511 28.7014 53.7329 28.7305C53.9142 28.78 54.0765 28.8828 54.1988 29.0254C54.3212 29.1681 54.398 29.3441 54.4194 29.5308C54.4691 30.1857 54.3379 30.8417 54.0401 31.4271C53.8034 31.9784 53.4379 32.4648 52.9743 32.8456C52.7859 32.9948 52.581 33.1221 52.3637 33.2249C52.2425 33.2745 52.1148 33.3065 51.9844 33.3197H51.9352C51.8396 33.3278 51.7442 33.3034 51.6643 33.2504C51.5844 33.1973 51.5248 33.1188 51.4952 33.0277C51.4414 32.6088 51.471 32.1834 51.5824 31.776M66.2906 31.1427C66.2717 31.4006 66.2072 31.6585 66.1882 31.9012C66.1693 32.2312 66.1541 32.5612 66.1465 32.8911C66.1465 33.4487 66.1465 34.01 66.192 34.5675C66.2376 35.125 66.3475 35.584 66.1465 36.0846C65.934 36.7198 65.5541 37.2859 65.0466 37.7231C64.7923 37.9371 64.512 38.118 64.2122 38.2616C63.9532 38.3913 63.6675 38.4588 63.3778 38.4589C63.3058 38.4589 63.2565 38.4361 63.1844 38.4361C62.9932 38.4203 62.8093 38.3554 62.6505 38.2479C62.4918 38.1402 62.3634 37.9934 62.2779 37.8217C62.1104 37.5341 61.9936 37.2197 61.9328 36.8925C61.6715 35.619 61.7567 34.2988 62.1793 33.0694C62.4465 32.2977 62.8938 31.6008 63.484 31.0365C64.0051 30.5413 64.6886 30.2528 65.407 30.2248C65.5308 30.2136 65.6557 30.2273 65.7743 30.2651C65.8929 30.3029 66.0026 30.364 66.0972 30.4448C66.2352 30.5968 66.3075 30.7972 66.2983 31.0023C66.2983 31.044 66.2983 31.0896 66.2983 31.1351M88.2277 46.9849C88.1608 47.1553 88.072 47.316 87.9623 47.4628C87.8002 47.7459 87.611 48.0127 87.397 48.2593C87.0681 48.6334 86.7081 48.9785 86.3198 49.2909C85.5225 49.8894 84.6231 50.3379 83.6654 50.6146C83.1214 50.7607 82.5629 50.8422 82.0004 50.8573H81.8787C81.2377 50.8643 80.6147 50.6485 80.115 50.2467C79.8456 50.0271 79.6558 49.7243 79.5768 49.3858C79.5289 49.0338 79.5889 48.6757 79.7475 48.3579C80.0112 47.7771 80.4722 47.3082 81.0479 47.0342C82.1441 46.5664 83.34 46.3813 84.5262 46.4957L85.8993 46.5715C86.2783 46.5905 86.6308 46.6208 86.9989 46.6474C87.1962 46.6474 87.3785 46.6474 87.5868 46.6853C87.7402 46.6822 87.8931 46.6885 88.046 46.7043C88.2202 46.7536 88.2543 46.8598 88.2202 46.9849" fill="#FF6A00"/>
</g>
<defs>
<clipPath id="clip0_292_1043">
<rect width="23.0769" height="30" fill="white" transform="translate(17 13)"/>
</clipPath>
</defs>
</svg>
