<svg width="56" height="56" viewBox="0 0 56 56" fill="none" xmlns="http://www.w3.org/2000/svg">
<rect width="56" height="56" rx="28" fill="#F0F4FF"/>
<g clip-path="url(#clip0_429_222)">
<path d="M12.3965 13.0328C12.4743 13.0246 12.6308 13.0082 12.7096 13C13.4095 13.6443 14.0573 14.3471 14.7091 15.0407C15.0938 15.4409 15.5359 15.7979 15.8203 16.2832C15.5737 16.1673 15.3179 16.0513 15.1276 15.8502C14.3949 15.1136 13.6735 14.3656 12.9286 13.6423C12.7618 13.4812 12.6052 13.3099 12.465 13.1241L12.3965 13.0328Z" fill="white"/>
<path d="M11.6474 13.8543C11.9216 13.6122 12.1283 13.289 12.465 13.1238C12.6052 13.3095 12.7617 13.4808 12.9285 13.6419C13.6735 14.3652 14.3949 15.1132 15.1275 15.8499C15.3178 16.051 15.5737 16.1669 15.8203 16.2829C16.1058 16.5137 16.4138 16.7271 16.8016 16.6984C19.4212 17.1437 22.0643 17.4699 24.6706 17.9973C24.2735 19.0808 24.1272 20.273 24.34 21.4139C24.2449 21.4047 24.0556 21.3852 23.9604 21.3759C23.4017 20.906 22.9238 20.3458 22.3682 19.8739C22.1031 19.9005 21.9456 20.1909 21.7419 20.3448C21.743 20.4084 21.745 20.5377 21.746 20.6023C22.2004 21.0702 22.6741 21.5186 23.1234 21.9915C23.4283 22.3065 23.5388 22.7436 23.6933 23.1407C24.3083 24.7905 24.9499 26.43 25.5454 28.0871C25.6928 28.4698 25.8135 28.8617 25.9169 29.2588C25.8197 29.4855 25.7173 29.7102 25.613 29.9338C25.1822 29.9308 24.7176 30.0047 24.3984 30.3206C23.8356 30.8142 23.8304 31.8187 24.4107 32.2998C24.8905 32.7626 25.7644 32.742 26.2167 32.2475C26.3835 32.0813 26.4838 31.8638 26.5943 31.6586C27.9184 31.6616 29.2456 31.6248 30.5677 31.674C30.889 32.0679 31.2819 32.4896 31.8293 32.502C32.5262 32.4681 33.2005 31.8453 33.1391 31.1148C33.1893 30.374 32.4658 29.703 31.7322 29.8108C31.1529 29.7954 30.7365 30.2868 30.5277 30.7762C29.2568 30.7773 27.986 30.7793 26.715 30.7773C26.4971 30.8183 26.3538 30.5771 26.3405 30.3905C26.4909 29.9616 26.7641 29.5891 27.0067 29.2085C29.2312 29.1952 31.4569 29.2033 33.6814 29.2074C34.0887 29.2147 34.5011 29.2095 34.8961 29.1018C35.5234 27.1575 36.1721 25.2193 36.8393 23.2895C36.9426 22.9068 37.0808 22.5354 37.2066 22.1608C37.443 21.3852 37.5402 20.5695 37.5187 19.76C37.9802 19.7795 38.4376 19.8461 38.893 19.9139C39.8763 20.0955 40.872 20.1899 41.8563 20.3571C42.7139 20.472 43.5693 20.6054 44.4248 20.7337C44.6131 20.7839 44.8064 20.8065 44.9998 20.826C44.0175 23.4598 42.9093 26.0443 41.8778 28.6596C41.8072 28.8288 41.7397 29.0002 41.6732 29.1716C41.1411 30.5167 40.5834 31.8504 40.0503 33.1945C39.8375 33.6778 39.6748 34.1835 39.4251 34.6504C33.9987 34.6719 28.5723 34.6381 23.1469 34.6473C23.0169 34.6422 22.976 34.8074 22.9003 34.8864C22.3672 35.777 21.8729 36.6901 21.3418 37.5828C21.5352 37.8628 21.7072 38.1563 21.8719 38.4549C25.2169 38.4148 28.5641 38.5102 31.9092 38.4487C32.0719 38.261 32.1547 38.0208 32.2868 37.8126C32.6817 37.1826 33.2977 36.7076 33.9966 36.4603C34.1941 36.411 34.3927 36.368 34.5901 36.3156C35.0721 36.2633 35.554 36.3279 36.0196 36.4582C37.0623 36.8225 37.9106 37.7274 38.1409 38.8201C38.3005 39.3864 38.2207 39.9825 38.0672 40.5407C37.5853 42.0038 36.0135 42.9672 34.4939 42.7404C33.3407 42.5475 32.3471 41.7176 31.947 40.6156C28.5999 40.6228 25.2538 40.5879 21.9077 40.6085C21.5946 41.578 20.8087 42.3609 19.853 42.6973C19.193 42.9087 18.4869 42.8995 17.8269 42.6963C16.8804 42.3639 16.1088 41.5944 15.7814 40.6433C15.7333 40.4443 15.6903 40.2442 15.6381 40.0462C15.4406 38.5523 16.4035 37.0348 17.8259 36.5608C18.3887 36.3844 18.9843 36.3587 19.5634 36.4716C19.9184 35.9873 20.1866 35.4466 20.4997 34.9357C20.6327 34.7489 20.6266 34.517 20.6378 34.2985C20.7085 34.3703 20.7791 34.4422 20.8507 34.515C20.5437 33.4018 20.074 32.346 19.7056 31.2553C18.7305 28.6647 17.8382 26.0433 16.8497 23.4577C16.1375 21.7669 15.6647 19.9857 14.93 18.3041C14.6926 17.8167 14.2669 17.4648 13.8976 17.0821C13.1393 16.3054 12.3606 15.5493 11.6013 14.7736C11.453 14.6217 11.2923 14.4822 11.1143 14.3652C11.28 14.1826 11.4632 14.0174 11.6474 13.8543Z" fill="#5F2CED"/>
<path d="M25.4698 16.4425C26.4316 14.9076 28.1293 13.9421 29.8882 13.6517C30.9811 13.5286 32.1118 13.583 33.1483 13.979C34.9882 14.6593 36.5221 16.1747 37.1657 18.0399C37.3356 18.6002 37.4737 19.1758 37.5188 19.7606C37.5403 20.5701 37.443 21.3857 37.2066 22.1614C37.0808 22.5359 36.9427 22.9073 36.8393 23.29C36.4474 23.2172 36.0545 23.1525 35.6605 23.094C35.7342 23.0797 35.8815 23.052 35.9552 23.0377C36.1046 22.7247 36.2407 22.4046 36.3461 22.0742C35.8324 22.1809 35.3433 22.3727 34.8542 22.5585C34.8634 22.6447 34.8808 22.817 34.89 22.9032C34.761 22.9083 34.6321 22.9145 34.5042 22.9207L34.5738 22.7298C34.4745 22.7186 34.3742 22.7093 34.276 22.6991C34.2678 22.7432 34.2514 22.8324 34.2433 22.8776C34.2126 22.8879 34.1502 22.9083 34.1184 22.9186C33.837 22.8386 33.5444 22.8099 33.2527 22.8088C33.2384 22.7904 33.2087 22.7524 33.1934 22.7339C33.6702 22.6765 34.1174 22.4979 34.5544 22.3081C34.5185 21.2996 34.3661 20.289 34.012 19.3409C33.0348 19.6436 32.0524 19.9401 31.1111 20.3423C31.3484 21.0554 31.4999 21.8156 31.8744 22.4713C32.2182 22.5831 32.5805 22.6211 32.9284 22.7186C31.505 22.5441 30.0826 22.3461 28.6624 22.145C28.339 22.104 28.0249 22.0209 27.7087 21.9542C27.68 21.8618 27.6237 21.6792 27.5961 21.5879C27.4395 21.6197 27.283 21.6525 27.1275 21.6853C27.1479 21.7408 27.1909 21.8526 27.2113 21.908C26.8031 21.8465 26.3989 21.7541 25.9875 21.711C26.491 21.6494 26.9688 21.4678 27.4324 21.2688C27.1745 20.29 26.9699 19.2999 26.8788 18.2903C26.3662 18.4801 25.8105 18.5765 25.3357 18.8567C24.9847 19.7185 25.1137 20.7045 25.2794 21.6002C24.8906 21.5304 24.4956 21.5017 24.1006 21.4986C24.0658 21.4678 23.9962 21.4073 23.9604 21.3765C24.0556 21.3857 24.2449 21.4052 24.3401 21.4145C24.1273 20.2736 24.2735 19.0813 24.6706 17.9979C24.996 17.5095 25.1167 16.9154 25.4698 16.4425Z" fill="white"/>
<path d="M11.4009 14.9731C11.2219 14.7822 10.9302 14.6088 11.0152 14.301L11.1144 14.3657C11.2925 14.4826 11.4531 14.6222 11.6015 14.774C12.3608 15.5497 13.1395 16.3058 13.8977 17.0825C14.2671 17.4652 14.6928 17.8172 14.9302 18.3045C15.6649 19.9861 16.1377 21.7673 16.8498 23.4581C17.8384 26.0436 18.7306 28.6651 19.7058 31.2558C20.0742 32.3464 20.5439 33.4022 20.8508 34.5154C20.7792 34.4425 20.7086 34.3708 20.638 34.2989L20.5643 34.224C20.1478 33.1251 19.7549 32.017 19.3456 30.9162C19.2166 30.5355 19.0765 30.1579 18.922 29.7876C18.4952 28.584 18.0256 27.397 17.5979 26.1934C17.5099 25.9442 17.4137 25.6969 17.3277 25.4465C17.2489 25.2167 17.165 24.99 17.075 24.7642C17.0228 24.6216 16.9675 24.48 16.9133 24.3374C16.8632 24.2061 16.8171 24.0737 16.769 23.9414C16.7066 23.766 16.637 23.5936 16.5644 23.4233C16.55 23.3709 16.5203 23.2663 16.505 23.214C16.4139 23.0128 16.3382 22.8056 16.2645 22.5983C15.9923 21.8463 15.714 21.0963 15.4459 20.3421C15.2996 19.9728 15.1676 19.5973 15.0305 19.2238C14.8811 18.8473 14.8013 18.4204 14.5096 18.1198C13.4577 17.0866 12.4406 16.0186 11.4009 14.9731Z" fill="white"/>
<path d="M30.916 14.4529C31.9802 14.4714 33.0403 14.7945 33.9408 15.3609C33.9469 15.3865 33.9602 15.4378 33.9664 15.4635C33.5018 15.6143 33.0526 15.8452 32.5655 15.9026C32.3199 15.6728 32.1183 15.3989 31.8594 15.1824C31.5699 14.9074 31.2117 14.7207 30.916 14.4529Z" fill="#5F2CED"/>
<path d="M29.2119 14.6766C29.5414 14.6592 29.8658 14.5135 30.1942 14.5576C31.0149 14.8264 31.6729 15.4297 32.2459 16.0566C31.4539 16.3121 30.6936 16.6835 29.874 16.8415C29.701 16.2536 29.4749 15.6831 29.2733 15.1045C29.2191 14.968 29.2171 14.8203 29.2119 14.6766Z" fill="#5F2CED"/>
<path d="M27.949 15.3133C28.1956 15.0968 28.5169 14.9932 28.7993 14.8311C29.0746 15.5431 29.3058 16.2705 29.573 16.9857C28.8116 17.2801 28.0421 17.5541 27.2583 17.7819C27.2634 16.92 27.4537 16.0294 27.949 15.3133Z" fill="#5F2CED"/>
<path d="M32.8496 16.2176C33.3684 16.0329 33.8965 15.8718 34.4081 15.6687C35.195 16.35 35.9645 17.1718 36.2264 18.206C35.5378 18.404 34.887 18.7262 34.185 18.8699C33.9077 17.9075 33.3572 17.0651 32.8496 16.2176Z" fill="#5F2CED"/>
<path d="M26.3173 16.7472C26.6038 16.3881 26.8811 15.9982 27.2934 15.7725C27.0458 16.4671 26.8995 17.1976 26.8872 17.9363C26.6713 18.0122 26.4441 18.0625 26.2139 18.0482C26.1648 18.0461 26.0655 18.042 26.0164 18.0409C25.8875 18.0317 25.7585 18.0204 25.6306 18.0061C25.7483 17.5351 26.0348 17.134 26.3173 16.7472Z" fill="#5F2CED"/>
<path d="M30.0134 17.2281C30.8413 16.9377 31.6547 16.6012 32.5 16.3652C33.073 17.1973 33.601 18.0817 33.8783 19.0595C33.6757 19.0739 33.4731 19.0913 33.2705 19.0882C32.4468 19.0287 31.6333 18.8687 30.8177 18.7497C30.6898 18.7035 30.52 18.6891 30.4647 18.5425C30.2692 18.1218 30.1966 17.6549 30.0134 17.2281Z" fill="#5F2CED"/>
<path d="M27.4201 18.08C28.2008 17.9076 28.9172 17.5157 29.7061 17.3772C29.8207 17.8071 30.0714 18.2072 30.0653 18.6628L29.8964 18.6207C29.0502 18.4688 28.1968 18.2822 27.3352 18.2606C27.3567 18.2155 27.3997 18.1251 27.4201 18.08Z" fill="#5F2CED"/>
<path d="M27.2422 18.2621L27.3353 18.26C28.1969 18.2816 29.0503 18.4683 29.8966 18.6201C30.006 18.6653 30.1094 18.7228 30.2158 18.7772C30.3703 19.2132 30.5136 19.6544 30.6835 20.0853C30.2762 20.3316 29.8116 20.4536 29.3696 20.6188C28.8354 20.7953 28.3136 21.0087 27.7702 21.1513C27.41 20.2341 27.2637 19.244 27.2422 18.2621Z" fill="#5F2CED"/>
<path d="M25.3354 18.8564C25.8102 18.5763 26.3659 18.4799 26.8785 18.29C26.9696 19.2996 27.1742 20.2897 27.4321 21.2686C26.9685 21.4676 26.4907 21.6492 25.9872 21.7107C25.7498 21.682 25.5145 21.6379 25.2791 21.5999C25.1134 20.7042 24.9844 19.7182 25.3354 18.8564Z" fill="#5F2CED"/>
<path d="M34.6815 19.0985C35.2412 18.9046 35.7999 18.7076 36.3607 18.5178C36.4313 18.6922 36.508 18.8646 36.5694 19.0421C36.5776 19.2298 36.5715 19.4176 36.5705 19.6054C35.89 19.4689 35.2003 19.3704 34.5065 19.3325C34.4789 19.3684 34.4216 19.4392 34.3939 19.4751L34.3356 19.4853C34.2814 19.2853 34.5239 19.155 34.6815 19.0985Z" fill="#5F2CED"/>
<path d="M30.8171 18.7495C31.6327 18.8686 32.4461 19.0286 33.2699 19.0881C33.1983 19.3139 32.9455 19.3395 32.7583 19.4185C32.1627 19.6104 31.5856 19.8576 30.9788 20.0115C30.8386 19.6308 30.7097 19.2451 30.5818 18.8603C30.6585 18.8214 30.7373 18.7844 30.8171 18.7495Z" fill="#5F2CED"/>
<path d="M36.5691 19.0417C36.7348 19.8964 36.6673 20.7798 36.4852 21.6262C35.9551 21.8386 35.4179 22.0367 34.8633 22.1731C34.8244 21.2825 34.6688 20.3941 34.4233 19.5374L34.3936 19.4748C34.4212 19.4388 34.4785 19.3681 34.5062 19.3321C35.1999 19.3701 35.8896 19.4686 36.5701 19.6051C36.5711 19.4173 36.5772 19.2295 36.5691 19.0417Z" fill="#5F2CED"/>
<path d="M31.1111 20.3422C32.0525 19.94 33.0348 19.6435 34.012 19.3408C34.3661 20.2888 34.5186 21.2995 34.5544 22.308C34.1174 22.4978 33.6703 22.6763 33.1934 22.7338C33.128 22.7297 32.9949 22.7226 32.9284 22.7184C32.5805 22.621 32.2183 22.583 31.8745 22.4712C31.4999 21.8155 31.3485 21.0553 31.1111 20.3422Z" fill="#5F2CED"/>
<path d="M21.7419 20.345C21.9455 20.1911 22.1032 19.9008 22.3682 19.874C22.9238 20.346 23.4017 20.9062 23.9604 21.3761C23.9962 21.4069 24.0658 21.4674 24.1006 21.4982C24.4955 21.5013 24.8905 21.53 25.2794 21.5998C25.5147 21.6378 25.7501 21.6819 25.9875 21.7106C26.3989 21.7537 26.803 21.846 27.2113 21.9076C27.3771 21.923 27.5428 21.9384 27.7086 21.9538C28.0248 22.0205 28.339 22.1036 28.6623 22.1446C30.0826 22.3457 31.505 22.5437 32.9283 22.7182C32.9949 22.7223 33.1279 22.7294 33.1933 22.7335C33.2087 22.752 33.2384 22.79 33.2527 22.8084C33.5443 22.8095 33.837 22.8382 34.1184 22.9182C34.3773 22.9808 34.6464 22.9674 34.9104 22.9859C35.158 23.0373 35.4087 23.069 35.6605 23.0936C36.0544 23.1521 36.4474 23.2168 36.8392 23.2896C36.1721 25.2195 35.5233 27.1577 34.8961 29.102C34.5011 29.2097 34.0887 29.2148 33.6815 29.2076C31.4568 29.2035 29.2313 29.1953 27.0066 29.2087C26.7642 29.5893 26.4909 29.9617 26.3405 30.3906C26.3538 30.5773 26.497 30.8184 26.715 30.7774C27.9859 30.7794 29.2568 30.7774 30.5277 30.7764C30.7364 30.287 31.1529 29.7955 31.7321 29.8109C32.4658 29.7032 33.1893 30.3742 33.1391 31.115C33.2005 31.8455 32.5262 32.4683 31.8293 32.5021C31.2819 32.4898 30.889 32.0681 30.5677 31.6741C29.2455 31.6249 27.9184 31.6618 26.5943 31.6588C26.4838 31.8639 26.3835 32.0814 26.2167 32.2477C25.7644 32.7422 24.8905 32.7627 24.4106 32.3C23.8304 31.8188 23.8355 30.8143 24.3984 30.3208C24.7176 30.0048 25.1821 29.931 25.613 29.934C25.7174 29.7103 25.8196 29.4857 25.9169 29.2589C25.8135 28.8619 25.6927 28.4699 25.5454 28.0872C24.9499 26.4303 24.3083 24.7907 23.6933 23.1408C23.5388 22.7438 23.4283 22.3067 23.1234 21.9918C22.6742 21.5187 22.2003 21.0703 21.746 20.6025C21.745 20.5378 21.743 20.4086 21.7419 20.345Z" fill="white"/>
<path d="M27.8872 21.4659C28.8378 21.113 29.7935 20.7713 30.7554 20.4502C31.1023 21.0627 31.2517 21.7583 31.4482 22.4293C30.5129 22.3103 29.5817 22.1657 28.6475 22.0456C28.4367 22.0077 28.2126 21.9974 28.0223 21.8917C27.9639 21.7542 27.9271 21.6085 27.8872 21.4659Z" fill="#5F2CED"/>
<path d="M27.1274 21.6854C27.283 21.6525 27.4396 21.6197 27.5961 21.5879C27.6237 21.6792 27.68 21.8618 27.7086 21.9542C27.5429 21.9388 27.3771 21.9234 27.2114 21.908C27.1909 21.8526 27.1479 21.7408 27.1274 21.6854Z" fill="#5F2CED"/>
<path d="M34.8544 22.5583C35.3435 22.3725 35.8327 22.1807 36.3463 22.074C36.2409 22.4043 36.1049 22.7244 35.9555 23.0374C35.8818 23.0518 35.7344 23.0795 35.6608 23.0938C35.409 23.0692 35.1583 23.0374 34.9107 22.9861C34.6467 22.9676 34.3776 22.9809 34.1187 22.9184C34.1504 22.9081 34.2128 22.8876 34.2435 22.8774C34.2517 22.8322 34.2681 22.7429 34.2763 22.6988C34.3745 22.7091 34.4748 22.7183 34.574 22.7296L34.5045 22.9205C34.6324 22.9142 34.7613 22.9081 34.8902 22.903C34.881 22.8168 34.8636 22.6445 34.8544 22.5583Z" fill="#5F2CED"/>
</g>
<defs>
<clipPath id="clip0_429_222">
<rect width="34" height="30" fill="white" transform="translate(11 13)"/>
</clipPath>
</defs>
</svg>
