<svg width="57" height="56" viewBox="0 0 57 56" fill="none" xmlns="http://www.w3.org/2000/svg">
<rect width="56.4194" height="56" rx="28" fill="#F0F4FF"/>
<g clip-path="url(#clip0_314_226)">
<path d="M40.2262 28.9832L41.3181 36.5787L23.9698 36.4899C23.9392 36.526 23.9092 36.5621 23.8791 36.5989C23.8491 36.635 23.8185 36.6711 23.7884 36.7079C23.7578 36.744 23.7284 36.7807 23.6978 36.8168C23.6677 36.8536 23.6377 36.8903 23.6083 36.9264C23.5813 36.9601 23.5544 36.9938 23.5274 37.0275C23.5005 37.0611 23.4735 37.0948 23.4465 37.1285C23.4196 37.1621 23.3932 37.1964 23.3663 37.2301C23.3399 37.2638 23.313 37.2981 23.2866 37.3317L42.0197 37.6709L40.7213 28.9397L40.2268 28.9832H40.2262Z" fill="#658C3C"/>
<path d="M25.2511 35.0023C25.188 35.0727 25.1249 35.1437 25.0618 35.2147C24.9993 35.2852 24.9368 35.3568 24.8737 35.4278C24.8112 35.4994 24.7487 35.5705 24.6862 35.6427L40.0627 35.5245L39.0805 28.1635L38.9622 27.2727L38.3195 27.3437L39.2288 34.5113L25.4404 34.7911C25.3767 34.8615 25.3136 34.9319 25.2505 35.0023H25.2511Z" fill="#658C3C"/>
<path d="M36.9788 25.7672L35.9935 25.897C35.8918 25.9613 35.7907 26.0256 35.6896 26.0911C35.5891 26.1554 35.4886 26.2209 35.3881 26.2864C35.2876 26.3519 35.1877 26.4174 35.0872 26.4835C34.9874 26.5497 34.8875 26.6164 34.7882 26.6837C34.654 26.7744 34.5199 26.8656 34.3869 26.9568C34.2533 27.0486 34.1204 27.1411 33.9874 27.2342C33.855 27.3272 33.7233 27.4215 33.5916 27.5158C33.4598 27.6101 33.3287 27.7056 33.1982 27.8011C33.083 27.8856 32.9678 27.9707 32.8526 28.0558C32.738 28.1409 32.6234 28.226 32.5095 28.3129C32.3955 28.3993 32.2815 28.4862 32.1682 28.5725C32.0548 28.6601 31.9415 28.7476 31.8287 28.8364C31.7552 28.8939 31.6823 28.9521 31.6088 29.0103C31.5358 29.0684 31.4629 29.1266 31.39 29.1854C31.3177 29.2435 31.2442 29.3023 31.1719 29.3611C31.0996 29.4199 31.0267 29.4786 30.955 29.538C30.928 29.5607 30.9004 29.5827 30.8735 29.606C30.8465 29.6286 30.8189 29.6519 30.792 29.6746C30.7644 29.6978 30.7375 29.7211 30.7105 29.7431C30.6829 29.7664 30.6554 29.7891 30.6284 29.8123C30.5365 29.8882 30.4452 29.9654 30.3539 30.0425C30.2632 30.1209 30.1719 30.1974 30.0812 30.2758C29.9905 30.3542 29.8999 30.4325 29.8098 30.5109C29.7191 30.5893 29.629 30.6682 29.539 30.7472C29.2534 30.9988 28.9703 31.2548 28.6891 31.5137C28.4085 31.7727 28.1309 32.0348 27.8552 32.3005C27.58 32.5656 27.3074 32.8344 27.0378 33.1056C26.7688 33.3774 26.5016 33.6523 26.2375 33.9303L37.8752 33.5501L37.0762 26.6097L36.9794 25.7666L36.9788 25.7672Z" fill="#658C3C"/>
<g opacity="0.5">
<mask id="mask0_314_226" style="mask-type:luminance" maskUnits="userSpaceOnUse" x="23" y="25" width="14" height="13">
<path d="M36.9787 25.7671L35.9935 25.8969C35.8918 25.9612 35.7907 26.0255 35.6896 26.091C35.5891 26.1553 35.4886 26.2208 35.3881 26.2863C35.2876 26.3518 35.1877 26.4173 35.0872 26.4834C34.9874 26.5495 34.8875 26.6163 34.7882 26.6836C34.654 26.7742 34.5198 26.8655 34.3869 26.9567C34.2533 27.0485 34.1203 27.141 33.9874 27.234C33.855 27.3271 33.7233 27.4214 33.5916 27.5157C33.4598 27.61 33.3287 27.7055 33.1982 27.801C33.083 27.8855 32.9678 27.9706 32.8526 28.0557C32.738 28.1408 32.6234 28.2259 32.5095 28.3128C32.3955 28.3991 32.2815 28.4861 32.1682 28.5724C32.0548 28.66 31.9415 28.7475 31.8287 28.8363C31.7552 28.8938 31.6823 28.952 31.6088 29.0102C31.5358 29.0683 31.4629 29.1265 31.39 29.1853C31.3177 29.2434 31.2442 29.3022 31.1719 29.361C31.0996 29.4197 31.0267 29.4785 30.955 29.5379C30.928 29.5606 30.9004 29.5826 30.8735 29.6059C30.8465 29.6285 30.8189 29.6518 30.792 29.6744C30.7644 29.6977 30.7374 29.721 30.7105 29.743C30.6829 29.7663 30.6553 29.7889 30.6284 29.8122C30.5365 29.8881 30.4452 29.9653 30.3539 30.0424C30.2632 30.1208 30.1719 30.1973 30.0812 30.2757C29.9905 30.354 29.8998 30.4324 29.8098 30.5108C29.7191 30.5891 29.629 30.6681 29.5389 30.7471C29.2534 30.9987 28.9703 31.2546 28.6891 31.5136C28.4085 31.7726 28.1309 32.0346 27.8552 32.3004C27.58 32.5655 27.3074 32.8342 27.0378 33.1055C26.7688 33.3773 26.4955 33.6461 26.2375 33.9302C26.028 34.161 25.7933 34.3851 25.441 34.7897C25.1083 35.1718 25.0274 35.2391 24.6867 35.642C24.4802 35.8863 24.1824 36.234 23.9704 36.49C23.563 36.9822 23.2872 37.3318 23.2872 37.3318L25.3325 37.3685C27.7571 34.0165 32.6541 28.993 36.98 25.7659L36.9787 25.7671Z" fill="white"/>
</mask>
<g mask="url(#mask0_314_226)">
<path d="M40.2262 28.9834L41.3181 36.5789L23.9698 36.4901C23.9392 36.5263 23.9092 36.5624 23.8791 36.5991C23.8491 36.6352 23.8185 36.6714 23.7884 36.7081C23.7578 36.7442 23.7284 36.781 23.6978 36.8171C23.6677 36.8538 23.6377 36.8906 23.6083 36.9267C23.5813 36.9603 23.5544 36.994 23.5274 37.0277C23.5005 37.0614 23.4735 37.095 23.4465 37.1287C23.4196 37.1624 23.3932 37.1967 23.3663 37.2304C23.3399 37.264 23.313 37.2983 23.2866 37.332L42.0197 37.6712L40.7213 28.9399L40.2268 28.9834H40.2262Z" fill="#465F2C"/>
<path d="M25.2511 35.0023C25.188 35.0727 25.1249 35.1437 25.0618 35.2147C24.9993 35.2852 24.9368 35.3568 24.8737 35.4278C24.8112 35.4994 24.7487 35.5705 24.6862 35.6427L40.0627 35.5245L39.0805 28.1635L38.9622 27.2727L38.3195 27.3437L39.2288 34.5113L25.4404 34.7911C25.3767 34.8615 25.3136 34.9319 25.2505 35.0023H25.2511Z" fill="#465F2C"/>
<path d="M36.9788 25.7672L35.9935 25.897C35.8918 25.9613 35.7907 26.0256 35.6896 26.0911C35.5891 26.1554 35.4886 26.2209 35.3881 26.2864C35.2876 26.3519 35.1877 26.4174 35.0872 26.4835C34.9874 26.5497 34.8875 26.6164 34.7882 26.6837C34.654 26.7744 34.5199 26.8656 34.3869 26.9568C34.2533 27.0486 34.1204 27.1411 33.9874 27.2342C33.855 27.3272 33.7233 27.4215 33.5916 27.5158C33.4598 27.6101 33.3287 27.7056 33.1982 27.8011C33.083 27.8856 32.9678 27.9707 32.8526 28.0558C32.738 28.1409 32.6234 28.226 32.5095 28.3129C32.3955 28.3993 32.2815 28.4862 32.1682 28.5725C32.0548 28.6601 31.9415 28.7476 31.8287 28.8364C31.7552 28.8939 31.6823 28.9521 31.6088 29.0103C31.5358 29.0684 31.4629 29.1266 31.39 29.1854C31.3177 29.2435 31.2442 29.3023 31.1719 29.3611C31.0996 29.4199 31.0267 29.4786 30.955 29.538C30.928 29.5607 30.9004 29.5827 30.8735 29.606C30.8465 29.6286 30.8189 29.6519 30.792 29.6746C30.7644 29.6978 30.7375 29.7211 30.7105 29.7431C30.6829 29.7664 30.6554 29.7891 30.6284 29.8123C30.5365 29.8882 30.4452 29.9654 30.3539 30.0425C30.2632 30.1209 30.1719 30.1974 30.0812 30.2758C29.9905 30.3542 29.8999 30.4325 29.8098 30.5109C29.7191 30.5893 29.629 30.6682 29.539 30.7472C29.2534 30.9988 28.9703 31.2548 28.6891 31.5137C28.4085 31.7727 28.1309 32.0348 27.8552 32.3005C27.58 32.5656 27.3074 32.8344 27.0378 33.1056C26.7688 33.3774 26.5016 33.6523 26.2375 33.9303L37.8752 33.5501L37.0762 26.6097L36.9794 25.7666L36.9788 25.7672Z" fill="#465F2C"/>
</g>
</g>
<path d="M42.277 21.1627C41.7072 21.3751 41.1349 21.5961 40.5614 21.8257C39.9952 22.0523 39.4284 22.2868 38.8629 22.5286C38.304 22.768 37.7458 23.0147 37.1895 23.2688C37.1748 23.2749 37.1607 23.281 37.1466 23.2878C37.1325 23.2945 37.1184 23.3012 37.1037 23.308C37.0896 23.3147 37.0749 23.3214 37.0608 23.3288C37.0461 23.3355 37.032 23.3423 37.0179 23.349C36.5663 23.5566 36.116 23.7684 35.6681 23.9857C35.2238 24.2006 34.7821 24.4204 34.3427 24.6445C33.9071 24.8668 33.4745 25.0933 33.045 25.3241C32.6185 25.5531 32.1957 25.7857 31.776 26.0221C31.6265 26.1066 31.477 26.1917 31.3281 26.2774C31.1798 26.3625 31.0321 26.4482 30.8851 26.5339C30.738 26.6202 30.5922 26.7072 30.4464 26.7941C30.3011 26.881 30.1565 26.968 30.0119 27.0561C29.8869 27.1321 29.7619 27.2086 29.6376 27.2851C29.5138 27.3617 29.39 27.4388 29.2662 27.5166C29.1431 27.5937 29.0205 27.6708 28.898 27.7492C28.7761 27.8276 28.6541 27.9053 28.5334 27.9843C28.4525 28.037 28.3723 28.0896 28.2914 28.1423C28.2111 28.1955 28.1308 28.2482 28.0506 28.3014C27.9709 28.3541 27.8913 28.4074 27.811 28.4606C27.7313 28.5139 27.6523 28.5672 27.5726 28.621C27.5457 28.64 27.5181 28.6584 27.4912 28.6774C27.4642 28.6963 27.4372 28.7153 27.409 28.7343C27.3821 28.7533 27.3545 28.7717 27.3276 28.7906C27.3006 28.809 27.2736 28.828 27.2461 28.8463C27.1486 28.9137 27.0518 28.9817 26.9556 29.0496C26.8594 29.1176 26.7632 29.1855 26.6683 29.2541C26.5727 29.3221 26.4771 29.39 26.3827 29.4592C26.2877 29.5278 26.1934 29.5963 26.099 29.6655C25.4771 30.1229 24.8693 30.5919 24.278 31.0737C23.6928 31.5506 23.1224 32.0404 22.5697 32.5431C22.0219 33.0414 21.4907 33.5539 20.9778 34.0798C20.468 34.6027 19.976 35.1402 19.5036 35.6943C19.4607 35.7445 19.4178 35.7947 19.3749 35.8455C19.332 35.8957 19.2897 35.9459 19.2468 35.9968C19.2046 36.0476 19.1623 36.0984 19.12 36.1486C19.0783 36.2 19.0367 36.2502 18.995 36.301C18.9631 36.3396 18.9313 36.3788 18.9 36.418C18.8682 36.4572 18.8369 36.4963 18.8057 36.5355C18.7744 36.5747 18.7426 36.6139 18.7119 36.6531C18.6813 36.6923 18.6506 36.7321 18.6194 36.7712C18.6022 36.7504 18.5857 36.7308 18.5692 36.7112C18.552 36.691 18.5361 36.6714 18.5195 36.6525C18.503 36.6335 18.4864 36.6139 18.4705 36.5955C18.4546 36.5766 18.4386 36.5576 18.4227 36.5386C18.2628 36.3494 18.1127 36.1755 17.9705 36.0139C17.8296 35.8535 17.6972 35.7047 17.5704 35.5639C17.4442 35.4243 17.3235 35.2921 17.207 35.1653C17.0912 35.0392 16.9791 34.918 16.8688 34.798C16.84 34.7674 16.8112 34.7361 16.7824 34.7049C16.7536 34.6743 16.7254 34.6437 16.6973 34.6125C16.6691 34.5812 16.6409 34.5506 16.6127 34.5194C16.5845 34.4882 16.5569 34.4576 16.5294 34.4257C16.4068 34.2923 16.2849 34.1557 16.1605 34.0131C16.0367 33.8717 15.9105 33.7229 15.7788 33.5655C15.6489 33.4082 15.5141 33.2417 15.3725 33.0604C15.2322 32.881 15.0845 32.6888 14.9289 32.4794C14.8584 32.3851 14.7861 32.2872 14.7126 32.1861C14.6391 32.0851 14.5631 31.9804 14.4859 31.8721C14.4093 31.7643 14.3297 31.6523 14.2482 31.5366C14.1667 31.4214 14.084 31.3014 13.9982 31.1778C14.1667 31.7214 14.3266 32.2339 14.481 32.7206C14.6379 33.2153 14.788 33.6819 14.9338 34.1263C15.0815 34.5776 15.2242 35.0055 15.3633 35.4145C15.5043 35.8308 15.6427 36.2282 15.7794 36.6133C15.8112 36.7027 15.8425 36.7921 15.8744 36.8808C15.9062 36.9696 15.9375 37.0572 15.9693 37.1453C16.0012 37.2329 16.0331 37.3198 16.0649 37.4074C16.0968 37.4949 16.1286 37.5819 16.1605 37.6688C16.1746 37.7086 16.1899 37.7484 16.2046 37.7882C16.2193 37.828 16.2346 37.8684 16.2493 37.9082C16.2641 37.948 16.2788 37.9884 16.2941 38.0282C16.3088 38.068 16.3241 38.109 16.3388 38.1488C16.3547 38.1898 16.3701 38.2314 16.3854 38.2725C16.4013 38.3141 16.4166 38.3557 16.4326 38.3974C16.4485 38.439 16.4644 38.48 16.4797 38.5217C16.4957 38.5633 16.5116 38.6049 16.5275 38.6466C16.5392 38.6766 16.5502 38.7059 16.5612 38.7359C16.5735 38.7659 16.5845 38.7959 16.5962 38.8253C16.6078 38.8553 16.6194 38.8853 16.6311 38.9147C16.6427 38.9453 16.6544 38.9747 16.666 39.0053C16.6709 39.0182 16.6758 39.031 16.6807 39.0439C16.6856 39.0568 16.6905 39.0696 16.6954 39.0819C16.7003 39.0947 16.7052 39.1076 16.7101 39.1204C16.715 39.1333 16.7205 39.1455 16.7254 39.159C16.742 39.2 16.7579 39.2404 16.7738 39.2815C16.7898 39.3225 16.8057 39.3641 16.8223 39.4051C16.8382 39.4468 16.8547 39.4878 16.8713 39.5294C16.8872 39.571 16.9037 39.6127 16.9197 39.6549L16.9086 39.6972L16.9332 39.6874C17.0306 39.9323 17.1292 40.1802 17.2322 40.4343C17.3351 40.6908 17.4423 40.9535 17.5532 41.2247C17.6648 41.4984 17.7812 41.78 17.9019 42.0739C18.0244 42.3702 18.1519 42.6782 18.2855 43.0008C18.5091 42.5943 18.737 42.1933 18.9699 41.7978C19.2021 41.4023 19.4386 41.0123 19.68 40.6278C19.9215 40.2427 20.1672 39.8631 20.4159 39.4884C20.6659 39.1137 20.9196 38.7433 21.1776 38.3784C21.1831 38.371 21.188 38.3637 21.1929 38.3563C21.1984 38.349 21.2033 38.341 21.2088 38.3337C21.2143 38.327 21.2198 38.319 21.2247 38.3117C21.2303 38.3043 21.2352 38.2963 21.2401 38.2896C21.2903 38.2192 21.3399 38.1494 21.3896 38.0796C21.4398 38.0098 21.4894 37.94 21.5403 37.8715C21.5905 37.8017 21.6408 37.7325 21.691 37.6639C21.7413 37.5947 21.7927 37.5261 21.843 37.457C21.8871 37.3976 21.9306 37.3388 21.9741 37.2806C22.0182 37.2219 22.0623 37.1637 22.1058 37.1055C22.15 37.0474 22.1947 36.9892 22.2382 36.931C22.2829 36.8735 22.327 36.8153 22.3718 36.7572C22.3797 36.7468 22.3883 36.7357 22.3963 36.7247C22.4042 36.7143 22.4122 36.7039 22.4202 36.6929C22.4281 36.6825 22.4361 36.6721 22.4441 36.6617C22.452 36.6512 22.4606 36.6408 22.4686 36.6304C22.5219 36.5606 22.5752 36.4921 22.6291 36.4223C22.683 36.3537 22.737 36.2851 22.7909 36.2166C22.8454 36.1474 22.8993 36.0794 22.9539 36.0114C23.0084 35.9429 23.0635 35.8755 23.1181 35.8082C23.1732 35.7396 23.2284 35.671 23.2835 35.6037C23.3387 35.5351 23.3944 35.4672 23.4502 35.3998C23.5059 35.3319 23.5617 35.2645 23.6181 35.1966C23.6738 35.1292 23.7302 35.0619 23.7866 34.9945C24.1855 34.52 24.5923 34.0547 25.0047 33.5992C25.4189 33.1419 25.8398 32.6931 26.2675 32.2541C26.6971 31.8133 27.1321 31.3804 27.5739 30.958C28.0181 30.5325 28.4678 30.1161 28.9231 29.7096C29.0107 29.6312 29.099 29.5529 29.1872 29.4751C29.2754 29.3974 29.3637 29.3196 29.4519 29.2425C29.5407 29.1653 29.6296 29.0888 29.719 29.0123C29.8079 28.9357 29.8974 28.8598 29.9868 28.7845C30.0138 28.7619 30.0407 28.7392 30.0671 28.7159C30.0934 28.6933 30.1204 28.6706 30.1467 28.648C30.1731 28.6253 30.2 28.6021 30.2264 28.5794C30.2527 28.5561 30.2791 28.5341 30.3054 28.5121C30.3759 28.4533 30.447 28.3945 30.5181 28.3363C30.5885 28.2788 30.6596 28.2206 30.7307 28.1625C30.8017 28.1049 30.8728 28.0468 30.9445 27.9898C31.0156 27.9323 31.0873 27.8747 31.159 27.8178C31.2693 27.7302 31.3802 27.6427 31.4905 27.557C31.6014 27.47 31.7123 27.3843 31.8238 27.2992C31.9353 27.2135 32.0474 27.129 32.1583 27.0445C32.2705 26.96 32.3826 26.8761 32.4953 26.7923C32.6228 26.6974 32.7508 26.6031 32.8789 26.5094C33.0076 26.4157 33.1363 26.3227 33.2655 26.2302C33.3948 26.1378 33.5247 26.0459 33.6546 25.9547C33.7845 25.8635 33.915 25.7735 34.0462 25.6835C34.2931 25.5139 34.5406 25.3474 34.7882 25.1827C35.0376 25.018 35.2876 24.8557 35.5388 24.6966C35.79 24.5368 36.0431 24.3794 36.2961 24.2251C36.551 24.0708 36.8065 23.919 37.0626 23.7696C37.6258 23.4421 38.1913 23.1292 38.7587 22.8317C39.3322 22.531 39.9076 22.2451 40.4835 21.9757C41.0656 21.7039 41.649 21.4486 42.2317 21.211C42.8211 20.971 43.4099 20.7488 43.9963 20.5461C43.4253 20.7433 42.8499 20.9496 42.2727 21.1645L42.277 21.1627Z" fill="#2897C8"/>
<path opacity="0.5" d="M17.905 42.0732C17.905 42.0732 18.155 42.6775 18.2886 43.0001C18.5122 42.5936 18.7401 42.1926 18.973 41.797C19.2052 41.4015 19.4417 41.0115 19.6831 40.627C19.9246 40.2419 20.1703 39.8624 20.419 39.4877C20.669 39.113 20.9227 38.7426 21.1807 38.3777C21.1862 38.3703 21.1911 38.363 21.196 38.3556C21.2015 38.3483 21.2064 38.3403 21.2119 38.333C21.2174 38.3262 21.2229 38.3183 21.2278 38.3109C21.2334 38.3036 21.2383 38.2956 21.2432 38.2889C21.2934 38.2185 21.343 38.1487 21.3927 38.0789C21.4429 38.0091 21.4925 37.9393 21.5434 37.8707C21.5936 37.8009 21.6439 37.7317 21.6941 37.6632C21.7444 37.594 21.7958 37.5254 21.8461 37.4562C21.8902 37.3968 21.9337 37.3381 21.9772 37.2799C22.0213 37.2211 22.0654 37.163 22.1089 37.1048C22.1531 37.0466 22.1978 36.9885 22.2413 36.9303C22.286 36.8728 22.3301 36.8146 22.3749 36.7564C22.3828 36.746 22.3914 36.735 22.3994 36.724C22.4073 36.7136 22.4153 36.7032 22.4233 36.6921C22.4312 36.6817 22.4392 36.6713 22.4472 36.6609C22.4551 36.6505 22.4637 36.6401 22.4717 36.6297C22.525 36.5599 22.5783 36.4913 22.6322 36.4215C22.6861 36.353 22.7401 36.2844 22.794 36.2158C22.8485 36.1466 22.9024 36.0787 22.957 36.0107C23.0115 35.9421 23.0666 35.8748 23.1212 35.8075C23.1763 35.7389 23.2315 35.6703 23.2866 35.603C23.3418 35.5344 23.3975 35.4664 23.4533 35.3991C23.509 35.3311 23.5648 35.2638 23.6212 35.1958C23.6769 35.1285 23.7333 35.0611 23.7897 34.9938C24.1886 34.5193 24.5954 34.054 25.0078 33.5985C25.422 33.1411 25.8429 32.6923 26.2706 32.2534C26.7002 31.8126 27.1352 31.3797 27.577 30.9572C28.0212 30.5317 28.471 30.1154 28.9262 29.7089C29.0138 29.6305 29.1021 29.5521 29.1903 29.4744C29.2785 29.3966 29.3668 29.3189 29.455 29.2417C29.5438 29.1646 29.6327 29.0881 29.7222 29.0115C29.811 28.935 29.9005 28.8591 29.9899 28.7838C30.0169 28.7611 30.0438 28.7385 30.0702 28.7152C30.0965 28.6926 30.1235 28.6699 30.1498 28.6472C30.1762 28.6246 30.2031 28.6013 30.2295 28.5787C30.2558 28.5554 30.2822 28.5334 30.3085 28.5113C30.379 28.4526 30.4501 28.3938 30.5212 28.3356C30.5916 28.2781 30.6627 28.2199 30.7338 28.1617C30.8048 28.1042 30.8759 28.046 30.9476 27.9891C31.0187 27.9315 31.0904 27.874 31.1621 27.817C31.2724 27.7295 31.3833 27.6419 31.4936 27.5562C31.6045 27.4693 31.7154 27.3836 31.8269 27.2985C31.9384 27.2128 32.0505 27.1283 32.1614 27.0438C32.2736 26.9593 32.3857 26.8754 32.4984 26.7915C32.6259 26.6966 32.754 26.6023 32.882 26.5087C33.0107 26.415 33.1394 26.3219 33.2686 26.2295C33.3979 26.137 33.5278 26.0452 33.6577 25.954C33.7876 25.8628 33.9181 25.7728 34.0493 25.6828C34.2962 25.5132 34.5437 25.3466 34.7913 25.1819C35.0407 25.0172 35.2907 24.855 35.5419 24.6958C35.7931 24.536 36.0462 24.3787 36.2992 24.2244C36.5541 24.0701 36.8096 23.9183 37.0658 23.7689C37.6289 23.4413 38.1944 23.1285 38.7618 22.8309C39.3353 22.5303 39.9107 22.2444 40.4866 21.975C41.0687 21.7032 41.6521 21.4479 42.2348 21.2103C42.8242 20.9703 43.413 20.7481 43.9994 20.5454C43.4284 20.7426 42.853 20.9489 42.2758 21.1638C41.706 21.3762 41.1337 21.5972 40.5602 21.8268C39.994 22.0534 39.4272 22.2879 38.8617 22.5297C38.3029 22.7691 37.7447 23.0158 37.1883 23.2699C37.1736 23.276 37.1595 23.2821 37.1454 23.2889C37.1313 23.2956 37.1172 23.3023 37.1025 23.3091C37.0884 23.3158 37.0737 23.3226 37.0596 23.3299C37.0449 23.3366 37.0308 23.3434 37.0167 23.3501C36.5651 23.5577 36.1148 23.7695 35.6669 23.9868C35.2226 24.2017 34.3415 24.6456 34.3415 24.6456C31.0904 26.7872 23.055 32.003 17.5067 41.107L17.9038 42.0744L17.905 42.0732Z" fill="#1C698C"/>
<path d="M35.874 19.5878C35.8525 19.3962 35.7876 19.2241 35.6877 19.0772C35.589 18.9309 35.4567 18.8102 35.2998 18.719C35.1448 18.629 34.9653 18.569 34.7723 18.5433C34.5805 18.5182 34.3746 18.5274 34.1638 18.5764L32.6829 18.9186L32.6804 18.8825L32.1847 18.9976L32.0242 16.7323C31.9702 15.9651 31.7435 15.2953 31.3863 14.7443C31.0377 14.2056 30.5659 13.7813 30.0095 13.4862C29.4672 13.1984 28.8453 13.0337 28.178 13.0043C27.5267 12.9756 26.8306 13.0753 26.118 13.3147C25.4201 13.5492 24.7663 13.8988 24.1781 14.328C23.5973 14.7517 23.0758 15.2574 22.6353 15.8139C22.1965 16.3686 21.835 16.9784 21.5759 17.6145C21.3142 18.2537 21.1531 18.926 21.1181 19.6019L21.0164 21.588L20.7094 21.659L20.7076 21.6902L19.5177 21.9658C19.381 21.997 19.2487 22.0582 19.1274 22.1415C19.006 22.2247 18.8945 22.3294 18.7989 22.4507C18.7034 22.5707 18.6231 22.7072 18.563 22.8504C18.5036 22.9949 18.465 23.148 18.4528 23.3029L17.6378 33.8115L18.5263 34.8162L18.7309 31.0447C18.7524 30.6553 18.8351 30.2813 18.9662 29.936C19.0973 29.5925 19.2769 29.2772 19.4932 29.0053C19.7095 28.7329 19.9638 28.5027 20.2432 28.3307C20.5244 28.1574 20.8326 28.0429 21.1567 28.0025L21.5569 27.9517C21.3945 27.899 21.2456 27.817 21.1145 27.7104C20.984 27.6051 20.8712 27.4753 20.7799 27.3253C20.6886 27.1772 20.6194 27.0082 20.574 26.8258C20.5299 26.6433 20.5091 26.4462 20.5177 26.238C20.5287 25.9692 20.5851 25.7072 20.6776 25.4635C20.7701 25.2198 20.8994 24.9933 21.0563 24.7943C21.2131 24.5953 21.3975 24.4239 21.6022 24.2911C21.8075 24.1576 22.0323 24.0639 22.2689 24.0198H22.2713C22.2713 24.0198 22.2713 24.0198 22.2725 24.0198C22.2725 24.0198 22.2725 24.0198 22.2738 24.0198C22.5121 23.9764 22.74 23.9886 22.9478 24.0486C23.1573 24.1092 23.3473 24.2188 23.5072 24.3682C23.6683 24.5194 23.7988 24.7111 23.8895 24.9351C23.9808 25.1604 24.0311 25.4182 24.0292 25.6992C24.028 25.9178 23.9961 26.1333 23.9373 26.3409C23.8785 26.549 23.7933 26.7474 23.6867 26.9304C23.5795 27.1141 23.4508 27.2813 23.3056 27.4276C23.1604 27.5733 22.9992 27.697 22.8258 27.7937L23.1775 27.749C23.4214 27.7184 23.6585 27.7288 23.8834 27.7753C24.1113 27.8225 24.327 27.9058 24.5262 28.0227C24.7271 28.1402 24.9116 28.2909 25.0746 28.4696C25.2222 28.6325 25.3491 28.8229 25.4569 29.0298C25.5482 28.96 25.6389 28.8902 25.7296 28.8235L25.7149 27.5849C25.7118 27.2953 25.762 27.0143 25.8552 26.7529C25.9483 26.4921 26.0849 26.2509 26.2553 26.0396C26.4256 25.8284 26.6303 25.6484 26.8594 25.5094C27.0898 25.3698 27.3453 25.2737 27.6174 25.2321L27.9513 25.1807C27.8116 25.147 27.6817 25.0913 27.5659 25.016C27.4501 24.9419 27.3484 24.8488 27.2632 24.7398C27.1787 24.6315 27.1107 24.5078 27.0629 24.3719C27.0157 24.2366 26.9881 24.089 26.9838 23.9317C26.9789 23.7296 27.0132 23.5307 27.08 23.3433C27.1462 23.1566 27.2455 22.9815 27.3692 22.8272C27.493 22.6723 27.6425 22.5382 27.8104 22.4329C27.9789 22.327 28.1652 22.2511 28.3643 22.2125C28.5647 22.1745 28.7577 22.1788 28.936 22.2192C29.1155 22.2602 29.2797 22.338 29.4207 22.4476C29.5622 22.5572 29.6805 22.6974 29.7662 22.8627C29.8526 23.0286 29.9059 23.2202 29.917 23.4296C29.9256 23.5925 29.909 23.7535 29.8692 23.9096C29.83 24.0651 29.7675 24.2145 29.6866 24.3535C29.6057 24.4925 29.5064 24.6204 29.3919 24.7331C29.2779 24.8458 29.1486 24.9425 29.0083 25.0202L29.3 24.9768C29.455 24.9529 29.6075 24.9474 29.7552 24.9584C29.9041 24.97 30.0481 24.9976 30.1872 25.0404C30.3257 25.0839 30.4586 25.1421 30.5824 25.2149C30.7074 25.2878 30.8238 25.3753 30.9304 25.4745C30.8974 25.4935 30.8655 25.5143 30.833 25.5327C30.8741 25.5339 30.9151 25.5345 30.9562 25.5364C31.1051 25.4476 31.2484 25.3637 31.3955 25.2774L31.3587 24.7264C31.344 24.5072 31.3747 24.2923 31.4433 24.0915C31.5113 23.89 31.6167 23.7021 31.7521 23.5362C31.8875 23.3709 32.0524 23.227 32.2398 23.1156C32.428 23.0035 32.6387 22.9233 32.8648 22.8853L33.1418 22.8394C33.0241 22.8174 32.9139 22.7776 32.814 22.7231C32.7141 22.6686 32.6253 22.6 32.5493 22.518C32.4739 22.4366 32.4126 22.3429 32.3673 22.2394C32.322 22.136 32.2932 22.0227 32.284 21.9021C32.2717 21.746 32.2932 21.5911 32.3422 21.4453C32.3912 21.2996 32.4678 21.1631 32.5664 21.0413C32.6651 20.9194 32.7864 20.8135 32.9237 20.7296C33.0615 20.6451 33.2159 20.5833 33.3814 20.5515C33.5474 20.5196 33.7086 20.5209 33.8593 20.5496C34.01 20.579 34.1485 20.6378 34.2692 20.7192C34.3905 20.8013 34.4923 20.9078 34.5682 21.0333C34.6442 21.1594 34.6938 21.3045 34.7092 21.4643C34.7214 21.588 34.7122 21.7111 34.684 21.8298C34.6565 21.9486 34.6105 22.0631 34.548 22.1702C34.4855 22.2774 34.4077 22.3766 34.317 22.4641C34.2269 22.5523 34.124 22.6288 34.0106 22.69L34.2472 22.6496C34.3856 22.6264 34.5217 22.6196 34.6534 22.6276C34.7858 22.6356 34.9138 22.6582 35.0364 22.6943C35.1583 22.7311 35.2747 22.7807 35.3819 22.8431C35.4156 22.8627 35.4463 22.8847 35.4781 22.9062C35.4788 22.9056 35.4818 22.9037 35.483 22.9037C35.5296 22.8804 35.5774 22.8566 35.624 22.8339C35.722 22.7856 35.8188 22.7378 35.915 22.6913C36.0112 22.6441 36.1062 22.5976 36.2006 22.5523L35.8721 19.5841L35.874 19.5878ZM22.8748 21.1894L22.9398 19.1231C22.9533 18.6933 23.0507 18.2641 23.2155 17.8545C23.3791 17.4462 23.6101 17.0549 23.8926 16.6998C24.1763 16.3447 24.5127 16.0239 24.8864 15.7582C25.2639 15.49 25.6818 15.277 26.1248 15.1398C26.5739 15.0009 27.0083 14.9525 27.4115 14.9856C27.8202 15.0192 28.1964 15.1368 28.5199 15.3296C28.8484 15.5249 29.1229 15.7974 29.3208 16.1353C29.5212 16.4788 29.6431 16.889 29.6639 17.3537L29.7613 19.5951L22.8742 21.1894H22.8748Z" fill="#474748"/>
</g>
<defs>
<clipPath id="clip0_314_226">
<rect width="30" height="30" fill="white" transform="translate(14 13)"/>
</clipPath>
</defs>
</svg>
