<svg width="56" height="56" viewBox="0 0 56 56" fill="none" xmlns="http://www.w3.org/2000/svg">
<rect width="56" height="56" rx="28" fill="#F0F4FF"/>
<path d="M44.4117 26.147C42 32.5 44 36.4705 44 36.4705C44 36.4705 38.5 35 34.0882 36.4705C29.6764 37.9411 23.7646 31.8485 23.7646 26.147C23.7646 20.4455 28.3867 15.8235 34.0882 15.8235C39.7897 15.8235 44.4117 20.4455 44.4117 26.147Z" fill="white"/>
<path d="M43.2471 32.0235C44.3588 30.2764 44.9412 28.2647 44.9412 26.2C44.9412 23.2352 43.7765 20.4823 41.6588 18.4176C39.5412 16.3529 36.7353 15.2941 33.8235 15.347C31.1235 15.4 28.6353 16.5117 26.7824 18.3117L23.1294 13.6L23.3941 13.3882C23.4471 13.3352 23.553 13.3352 23.553 13.3352C23.6059 13.3352 23.6588 13.3352 23.7118 13.3882L24.7706 14.8176C24.9294 15.0294 25.3 15.0823 25.5118 14.9235C25.7235 14.7647 25.7765 14.3941 25.6177 14.1823L24.5588 12.7529C24.0824 12.2235 23.2882 12.1176 22.7059 12.5411L22.4412 12.7529L22.2824 12.5411C21.2235 11.1647 19.2647 10.9529 17.9412 11.9588C16.6177 13.0176 16.3 14.9235 17.3588 16.3L22.1765 22.6C19.2118 22.4941 16.4588 23.6058 14.3412 25.6705C12.2235 27.7352 11.0588 30.4882 11.0588 33.4529C11.0588 35.5176 11.6412 37.5294 12.753 39.2764L11.4294 43.247C11.1647 44.0411 11.9059 44.8353 12.8059 44.5705L17.0941 43.1411C21.0647 45.1529 26.253 44.5705 29.6941 40.9705C30.8588 39.8058 31.7059 38.3764 32.1824 36.8941C34.5118 37.3176 36.8941 36.947 38.9059 35.9411L43.2471 37.3705C44.0941 37.6352 44.8353 36.8411 44.5706 35.9941L43.2471 32.0235ZM38.853 34.8294C38.7471 34.8294 38.6941 34.8294 38.5883 34.8823C37.2118 35.6235 35.6765 35.9941 34.0353 35.9941C31.3883 35.9941 28.9 34.9352 26.9941 33.0294C25.1412 31.1235 24.1353 28.5823 24.2412 25.9352C24.2412 25.4058 24.2941 24.8764 24.4 24.4C24.453 24.4529 27.5765 28.6352 27.6294 28.6882C27.6824 28.7941 27.7882 28.847 27.8941 28.847L31.0177 29.9058C31.1765 29.9588 31.3353 29.9588 31.4941 29.8C31.653 29.6941 31.7059 29.5352 31.7059 29.3235C31.6 28 31.4941 25.9352 31.4941 26.0411C31.4941 25.9352 31.4412 25.8294 31.3883 25.7235C31.3883 25.6705 27.3647 20.3764 27.3118 20.3235C27.5235 19.9529 27.5235 19.4764 27.3118 19.1058C29.0059 17.4647 31.2824 16.4588 33.7177 16.3529C36.4177 16.3 38.9059 17.2529 40.8118 19.1058C44.3059 22.4941 44.6765 27.7352 42.1353 31.547C42.0294 31.7058 42.0294 31.8647 42.0824 32.0235L43.5118 36.2588L39.0118 34.7235C39.0118 34.8294 38.9588 34.8294 38.853 34.8294ZM26.6235 21.1176L30.2765 25.9882C30.2235 26.0411 28.1059 27.6823 28.2118 27.5764C27.7353 26.9941 24.9824 23.3411 24.5588 22.7058C24.6118 22.7058 26.7824 21.0647 26.6235 21.1176ZM30.5941 27.1L30.7 28.6352L29.2706 28.1588L30.5941 27.1ZM24.5059 35.2L24.8235 36.8941C24.9294 37.6352 24.1353 38.2176 23.4471 37.9L21.9118 37.1058C21.6471 36.947 21.3294 36.947 21.0647 37.1058L19.5294 37.9C18.8412 38.2705 18.0471 37.6882 18.153 36.8941L18.4706 35.2C18.5235 34.8823 18.4177 34.5647 18.2059 34.3529L16.9882 33.1352C16.4059 32.6058 16.7235 31.6529 17.5177 31.547L19.2118 31.2823C19.5294 31.2294 19.7941 31.0705 19.9 30.7529L20.6941 29.2176C21.0118 28.5294 22.0177 28.5294 22.3883 29.2176L23.1824 30.7529C23.3412 31.0176 23.6059 31.2294 23.8706 31.2823L24.6647 31.3882C25.0353 32.0235 25.4588 32.6588 25.9353 33.2411L24.8235 34.3529C24.5588 34.6176 24.453 34.8823 24.5059 35.2Z" fill="#5F2CED"/>
<path d="M40.1235 28.8472H33.6117C33.294 28.8472 33.0823 29.1119 33.0823 29.3766C33.0823 29.6413 33.347 29.906 33.6117 29.906H40.1235C40.4411 29.906 40.6529 29.6413 40.6529 29.3766C40.6529 29.1119 40.4411 28.8472 40.1235 28.8472ZM40.1235 25.2472H33.4529C33.1352 25.2472 32.9235 25.5119 32.9235 25.7766C32.9235 26.0942 33.1352 26.306 33.4529 26.306H40.1235C40.4411 26.306 40.6529 26.0413 40.6529 25.7766C40.6529 25.4589 40.4411 25.2472 40.1235 25.2472ZM40.1235 21.5942H31.547C31.2293 21.5942 31.0176 21.8589 31.0176 22.1237C31.0176 22.4413 31.2823 22.6531 31.547 22.6531H40.1235C40.4411 22.6531 40.6529 22.3884 40.6529 22.1237C40.6529 21.8589 40.4411 21.5942 40.1235 21.5942Z" fill="#5F2CED"/>
</svg>
