<svg width="30" height="30" viewBox="0 0 30 30" fill="none" xmlns="http://www.w3.org/2000/svg">
<path fill-rule="evenodd" clip-rule="evenodd" d="M15 30C23.2843 30 30 23.2843 30 15C30 6.71574 23.2843 0 15 0C6.71574 0 0 6.71574 0 15C0 23.2843 6.71574 30 15 30ZM15.0646 7.5C13.8602 7.5 12.1934 8.1888 11.3417 9.03847L9.02861 11.3462H20.5581L24.4133 7.5H15.0646ZM18.6389 20.9615C17.7872 21.8112 16.1204 22.5001 14.916 22.5001H5.56735L9.42252 18.6539H20.952L18.6389 20.9615ZM22.3861 13.2693H7.1052L6.3834 13.9904C4.67425 15.5289 5.18116 16.7308 7.57474 16.7308H22.8969L23.619 16.0096C25.3115 14.4802 24.7797 13.2693 22.3861 13.2693Z" fill="#01824C"/>
</svg>
