<svg width="56" height="56" viewBox="0 0 56 56" fill="none" xmlns="http://www.w3.org/2000/svg">
<rect width="56" height="56" rx="28" fill="black"/>
<path d="M43 28C43 28.5934 42.8241 29.1734 42.4944 29.6668C42.1648 30.1601 41.6962 30.5446 41.1481 30.7717C40.5999 30.9987 39.9967 31.0582 39.4147 30.9424C38.8328 30.8266 38.2982 30.5409 37.8787 30.1214C37.4591 29.7018 37.1734 29.1673 37.0576 28.5853C36.9419 28.0034 37.0013 27.4002 37.2284 26.852C37.4554 26.3038 37.8399 25.8353 38.3333 25.5056C38.8266 25.176 39.4067 25 40 25C40.7956 25 41.5587 25.3161 42.1213 25.8787C42.6839 26.4413 43 27.2044 43 28ZM13 28C13 25.0334 13.8798 22.1333 15.528 19.6666C17.1762 17.1999 19.5189 15.2773 22.2598 14.142C25.0006 13.0067 28.0166 12.7097 30.9263 13.2885C33.836 13.8672 36.5087 15.2958 38.6065 17.3935L28 28L38.6065 38.6065C36.5087 40.7043 33.836 42.1329 30.9263 42.7116C28.0166 43.2904 25.0006 42.9933 22.2598 41.858C19.5189 40.7227 17.1762 38.8002 15.528 36.3335C13.8798 33.8668 13 30.9667 13 28ZM22 20.5C22 21.0934 22.1759 21.6734 22.5056 22.1668C22.8352 22.6601 23.3038 23.0446 23.852 23.2717C24.4001 23.4987 25.0033 23.5582 25.5853 23.4424C26.1672 23.3266 26.7018 23.0409 27.1213 22.6214C27.5409 22.2018 27.8266 21.6673 27.9424 21.0853C28.0581 20.5034 27.9987 19.9002 27.7716 19.352C27.5446 18.8038 27.1601 18.3353 26.6667 18.0056C26.1734 17.676 25.5933 17.5 25 17.5C24.2044 17.5 23.4413 17.8161 22.8787 18.3787C22.3161 18.9413 22 19.7044 22 20.5Z" fill="#FFDB3B"/>
</svg>
