<svg width="56" height="56" viewBox="0 0 56 56" fill="none" xmlns="http://www.w3.org/2000/svg">
<rect width="56" height="56" rx="28" fill="#F0F4FF"/>
<g clip-path="url(#clip0_460_439)">
<path d="M38.5344 35.2917C37.4146 35.9845 36.1725 36.5767 34.8265 37.0609C33.6082 37.5712 32.1053 37.9679 30.4456 38.1802C29.8072 38.2882 29.1579 38.3794 28.4941 38.4483H28.4831H28.4722C22.333 38.9828 17.0894 37.6345 14.091 34.7535C14.0636 34.733 14.0417 34.6995 14.0162 34.679C14.0089 34.7908 14.0016 34.9062 13.9961 35.0235C13.9815 36.3346 14.5178 37.547 15.3148 38.5061C17.7497 41.3573 22.4315 42.9123 27.8721 42.9998C31.498 43.024 34.8028 42.3294 37.3362 41.0835C38.5983 40.4522 39.6798 39.6868 40.5042 38.7258C41.3195 37.7742 41.8703 36.5749 41.8794 35.2619C41.8867 34.4406 41.6788 33.6547 41.3286 32.9452C40.5845 33.8 39.6616 34.5691 38.5308 35.288L38.5344 35.2917ZM27.8302 31.3492C22.0905 31.7962 17.1478 30.703 14.0746 28.2019C14.1475 29.3882 14.6509 30.4795 15.3786 31.3585C17.8098 34.2134 22.4954 35.7629 27.9341 35.8523C31.56 35.8765 34.8648 35.18 37.3945 33.9322C38.6548 33.3065 39.7455 32.5392 40.5644 31.5764C41.3724 30.6266 41.9305 29.4273 41.936 28.1144C41.9487 27.092 41.6277 26.1366 41.1079 25.3041C40.3018 26.375 36.9185 30.6378 27.8302 31.3473V31.3492ZM27.9961 28.7103C31.6238 28.7327 34.9287 28.0361 37.4547 26.7921C38.7168 26.1608 39.8039 25.3954 40.6264 24.4344C41.4417 23.4884 41.9943 22.2853 41.998 20.9761C42.0126 19.6613 41.4836 18.4564 40.6848 17.4936C38.2499 14.6349 33.5717 13.0892 28.1275 12.9998C24.4998 12.9719 21.1949 13.6665 18.6689 14.9087C17.4013 15.5438 16.3197 16.3092 15.4972 17.2664C14.6819 18.2199 14.1311 19.4174 14.1183 20.7303C14.1074 22.0414 14.6436 23.2519 15.4406 24.2147C17.87 27.0696 22.5592 28.6172 27.9961 28.7103ZM17.4013 17.9257C18.7218 16.2812 22.8328 14.6722 27.6387 14.756C30.8505 14.7765 33.7358 15.4748 35.6801 16.4917C36.6595 16.9908 37.3891 17.5625 37.825 18.1026C38.27 18.6464 38.4086 19.0896 38.4086 19.5012C38.4049 19.9165 38.2499 20.356 37.8031 20.8923C36.4844 22.5405 32.3734 24.1458 27.5621 24.0638C24.3521 24.0396 21.4703 23.3413 19.5243 22.33C18.5485 21.8272 17.8153 21.2499 17.3776 20.7191C16.9399 20.1716 16.794 19.7321 16.794 19.3149C16.7994 18.9015 16.9526 18.462 17.3995 17.9275L17.4013 17.9257Z" fill="#5F2CED"/>
</g>
<defs>
<clipPath id="clip0_460_439">
<rect width="28" height="30" fill="white" transform="translate(14 13)"/>
</clipPath>
</defs>
</svg>
