<svg width="56" height="56" viewBox="0 0 56 56" fill="none" xmlns="http://www.w3.org/2000/svg">
<rect width="56" height="56" rx="28" fill="#F0F4FF"/>
<circle cx="28" cy="23.625" r="12.625" fill="white" stroke="#5F2CED"/>
<path d="M22.375 21.4824L27.7977 26.125L34.875 19.875" stroke="#5F2CED" stroke-width="3" stroke-linecap="round" stroke-linejoin="round"/>
<path d="M38 35.6188V42.9625C38.0044 43.358 37.915 43.7489 37.739 44.1031C37.563 44.4573 37.3054 44.7647 36.9875 45C36.5599 45.3253 36.0372 45.501 35.5 45.5C35.2677 45.5 35.0364 45.4685 34.8125 45.4063L28.8188 43.6813C28.1517 43.4846 27.4421 43.4846 26.775 43.6813L21.2125 45.375C20.8431 45.4874 20.4525 45.5108 20.0723 45.4435C19.6922 45.3761 19.3333 45.2199 19.025 44.9875C18.7064 44.7492 18.4478 44.4397 18.2699 44.0838C18.0919 43.7279 17.9995 43.3354 18 42.9375V35.6188C20.8044 37.9642 24.3441 39.2493 28 39.2493C31.6559 39.2493 35.1956 37.9642 38 35.6188Z" fill="#5F2CED"/>
</svg>
