<svg width="56" height="56" viewBox="0 0 56 56" fill="none" xmlns="http://www.w3.org/2000/svg">
<rect width="56" height="56" rx="28" fill="#0672CD"/>
<g clip-path="url(#clip0_460_456)">
<path fill-rule="evenodd" clip-rule="evenodd" d="M23.7273 14C28.4949 14 32.6502 16.6289 34.8305 20.5201C35.3583 20.429 35.9009 20.3818 36.4545 20.3818C41.7264 20.3818 46 24.6676 46 29.9544C46 35.1884 41.8114 39.4412 36.6124 39.5258L36.4545 39.5271L35.6989 39.527V40.2051C35.6989 41.1964 34.8976 42 33.9091 42H23.1705C22.182 42 21.3807 41.1964 21.3807 40.2051L21.3808 39.3106C15.4726 38.2063 11 33.0087 11 26.7635C11 19.7144 16.6982 14 23.7273 14Z" fill="white"/>
<path d="M26.0341 24.0218C26.0297 24.2788 25.8605 24.5036 25.6153 24.5782L22.9434 25.3832C22.6607 25.4693 22.4394 25.6913 22.3536 25.9751L21.5515 28.6565C21.4772 28.9026 21.2532 29.0724 20.997 29.0768C20.7404 29.0852 20.5078 28.926 20.422 28.6832L18.1895 21.9589C18.1188 21.7462 18.174 21.5116 18.3319 21.3531C18.4899 21.1945 18.7236 21.1392 18.9356 21.2101L25.6359 23.4505C25.8781 23.534 26.039 23.7648 26.0341 24.0218Z" fill="#0672CD"/>
</g>
<defs>
<clipPath id="clip0_460_456">
<rect width="35" height="28" fill="white" transform="translate(11 14)"/>
</clipPath>
</defs>
</svg>
