<svg width="56" height="56" viewBox="0 0 56 56" fill="none" xmlns="http://www.w3.org/2000/svg">
<g clip-path="url(#clip0_448_426)">
<rect width="56" height="56" rx="28" fill="#F0F4FF"/>
<path d="M56 28C56 43.4638 43.4639 56 28 56C12.5361 56 0 43.4638 0 28C0 12.536 12.5361 9.34794e-06 28 9.34794e-06C43.4639 9.34794e-06 56 12.536 56 28Z" fill="#D93D21"/>
<path d="M54.7201 27.9999C54.7201 42.7571 42.7571 54.7202 27.9998 54.7202C13.2426 54.7202 1.27954 42.7571 1.27954 27.9999C1.27954 13.2427 13.2426 1.27961 27.9998 1.27961C42.7571 1.27961 54.7201 13.2427 54.7201 27.9999Z" fill="white"/>
<path d="M52.0074 27.9994C52.0074 41.2584 41.2587 52.0068 28 52.0068C14.7411 52.0068 3.99268 41.2584 3.99268 27.9994C3.99268 14.7405 14.7411 3.99206 28 3.99206C41.2587 3.99206 52.0074 14.7405 52.0074 27.9994Z" fill="#D93D21"/>
<path d="M26.4521 33.9039L32.39 28.0685C32.39 28.0685 43.242 28.0685 41.9111 41.9917H10.8909C10.8909 41.9917 8.74091 28.6827 20.5143 28.0685C24.8141 32.3682 26.4521 33.9039 26.4521 33.9039Z" fill="white"/>
<path d="M36.8381 27.4534L38.2716 25.8154C38.2716 25.8154 47.2839 24.3822 47.2804 37.5888C45.3354 37.6911 43.6973 37.5888 43.6973 37.5888C43.6973 37.5888 43.3903 29.3987 36.8381 27.4534Z" fill="white"/>
<path d="M41.222 17.1683C41.222 21.6916 37.5552 25.3584 33.0319 25.3584C28.5086 25.3584 24.8418 21.6916 24.8418 17.1683C24.8418 12.645 28.5086 8.97808 33.0319 8.97808C37.5552 8.97808 41.222 12.645 41.222 17.1683Z" fill="white"/>
<path d="M36.3367 19.9043C36.3367 25.4028 31.8792 29.8604 26.3806 29.8604C20.8821 29.8604 16.4246 25.4028 16.4246 19.9043C16.4246 14.4057 20.8821 9.94805 26.3806 9.94805C31.8792 9.94805 36.3367 14.4057 36.3367 19.9043Z" fill="#D93D21"/>
<path d="M34.5714 19.9808C34.5714 24.5041 30.9046 28.1709 26.3812 28.1709C21.8579 28.1709 18.1912 24.5041 18.1912 19.9808C18.1912 15.4576 21.8579 11.7907 26.3812 11.7907C30.9046 11.7907 34.5714 15.4576 34.5714 19.9808Z" fill="white"/>
</g>
<defs>
<clipPath id="clip0_448_426">
<rect width="56" height="56" rx="28" fill="white"/>
</clipPath>
</defs>
</svg>
