<svg width="56" height="56" viewBox="0 0 56 56" fill="none" xmlns="http://www.w3.org/2000/svg">
<rect width="56" height="56" rx="28" fill="#F0F4FF"/>
<path fill-rule="evenodd" clip-rule="evenodd" d="M41.8308 17.8H14.1555C12.4041 17.8 10.9863 19.2432 11.0001 20.9946V31.6429C11.0001 33.4083 12.418 34.8374 14.1694 34.8374H27.2773H31.9061H41.8308C43.5822 34.8374 45 33.4083 45 31.6429V20.9946C45 19.2292 43.5822 17.8 41.8308 17.8ZM13.5718 20.266C13.1826 20.294 12.8907 20.4341 12.6961 20.7003C12.5015 20.9525 12.432 21.2748 12.4737 21.6391C13.2938 26.8932 14.0583 30.438 14.7672 32.2734C15.0452 32.9459 15.3649 33.2682 15.7402 33.2402C16.324 33.1981 17.019 32.3855 17.8391 30.8023C18.27 29.9055 18.9373 28.5605 19.8408 26.7671C20.5913 29.4151 21.6199 31.4048 22.9127 32.7358C23.2742 33.1141 23.6494 33.2822 24.0108 33.2542C24.3306 33.2262 24.5807 33.058 24.7475 32.7497C24.8865 32.4836 24.9421 32.1753 24.9143 31.825C24.8309 30.5501 24.9561 28.7707 25.3036 26.4869C25.6649 24.133 26.1097 22.4377 26.6518 21.4289C26.7631 21.2187 26.8047 21.0086 26.7909 20.7564C26.7631 20.4341 26.624 20.1679 26.36 19.9577C26.0959 19.7476 25.8039 19.6495 25.4842 19.6775C25.0811 19.7055 24.7753 19.9017 24.5668 20.294C23.705 21.8772 23.0934 24.4413 22.732 28C22.2038 26.655 21.759 25.0718 21.4115 23.2083C21.2586 22.3816 20.8833 21.9893 20.2717 22.0314C19.8547 22.0594 19.5072 22.3396 19.2292 22.872L16.185 28.7146C15.6846 26.683 15.212 24.2031 14.7811 21.2748C14.6838 20.5462 14.2807 20.2099 13.5718 20.266ZM40.3574 21.2748C41.3444 21.485 42.0811 22.0174 42.5814 22.9001C43.0263 23.6567 43.2486 24.5674 43.2486 25.6603C43.2486 27.1034 42.8873 28.4204 42.1644 29.6254C41.3304 31.0265 40.2462 31.727 38.8979 31.727C38.6616 31.727 38.4114 31.699 38.1473 31.6429C37.1604 31.4328 36.4237 30.9004 35.9232 30.0177C35.4785 29.2471 35.2561 28.3224 35.2561 27.2435C35.2561 25.8004 35.6175 24.4833 36.3403 23.2924C37.1882 21.8913 38.2724 21.1908 39.6068 21.1908C39.8431 21.1908 40.0933 21.2188 40.3574 21.2748ZM39.7737 28.8547C40.288 28.3924 40.6354 27.7058 40.8301 26.7811C40.8857 26.4589 40.9273 26.1086 40.9273 25.7443C40.9273 25.338 40.8439 24.9037 40.6771 24.4693C40.4686 23.9229 40.1906 23.6287 39.857 23.5586C39.3566 23.4605 38.8701 23.7408 38.4114 24.4273C38.0361 24.9597 37.7998 25.5202 37.6747 26.0946C37.6051 26.4169 37.5774 26.7672 37.5774 27.1174C37.5774 27.5237 37.6608 27.9581 37.8276 28.3924C38.0361 28.9388 38.3141 29.233 38.6477 29.3031C38.9952 29.3731 39.3705 29.2191 39.7737 28.8547ZM33.866 22.9001C33.3656 22.0174 32.615 21.485 31.642 21.2748C31.3778 21.2188 31.1277 21.1908 30.8913 21.1908C29.557 21.1908 28.4728 21.8913 27.6248 23.2924C26.902 24.4833 26.5406 25.8004 26.5406 27.2435C26.5406 28.3224 26.7631 29.2471 27.2078 30.0177C27.7083 30.9004 28.445 31.4328 29.4318 31.6429C29.6959 31.699 29.9461 31.727 30.1825 31.727C31.5308 31.727 32.615 31.0265 33.449 29.6254C34.1719 28.4204 34.5332 27.1034 34.5332 25.6603C34.5332 24.5674 34.3108 23.6567 33.866 22.9001ZM32.1146 26.7811C31.92 27.7058 31.5724 28.3924 31.0581 28.8547C30.6551 29.2191 30.2798 29.3731 29.9323 29.3031C29.5986 29.233 29.3206 28.9388 29.1121 28.3924C28.9453 27.9581 28.8619 27.5237 28.8619 27.1174C28.8619 26.7672 28.8897 26.4169 28.9593 26.0946C29.0843 25.5202 29.3206 24.9597 29.6959 24.4273C30.1547 23.7408 30.6412 23.4605 31.1416 23.5586C31.4752 23.6287 31.7532 23.9229 31.9617 24.4693C32.1285 24.9037 32.2119 25.338 32.2119 25.7443C32.2119 26.1086 32.1841 26.4589 32.1146 26.7811Z" fill="#873EFF"/>
<path d="M17.6786 40.8702C17.6247 40.8702 17.4916 40.859 17.2792 40.8365C17.2602 41.2853 17.2506 42.0224 17.2506 43.0481C17.2506 43.2179 17.192 43.3638 17.0747 43.4856C16.9574 43.6074 16.8084 43.6683 16.6277 43.6683C16.447 43.6683 16.2964 43.6074 16.1759 43.4856C16.0586 43.3638 16 43.2179 16 43.0481V41.7067C16 41.2099 16.0317 40.4744 16.0951 39.5C16.1553 38.5096 16.187 37.7708 16.1902 37.2837C16.1934 36.4503 16.4248 36.0513 16.8845 36.0865C16.9923 36.0577 17.1413 36.0369 17.3315 36.024C17.5217 36.008 17.7531 36 18.0258 36C18.6471 36 19.2304 36.2035 19.7757 36.6106C20.3812 37.0657 20.684 37.6202 20.684 38.274C20.684 39.0946 20.3622 39.7468 19.7186 40.2308C19.148 40.6571 18.468 40.8702 17.6786 40.8702ZM17.9164 37.2404C17.8149 37.2404 17.7246 37.242 17.6453 37.2452C17.5692 37.2452 17.5043 37.2484 17.4504 37.2548C17.4504 37.4054 17.4488 37.6314 17.4456 37.9327C17.4393 38.2885 17.4092 38.8429 17.3553 39.5962C17.5169 39.6218 17.6247 39.6346 17.6786 39.6346C18.1732 39.6346 18.5837 39.516 18.9102 39.2788C19.259 39.0256 19.4333 38.6907 19.4333 38.274C19.4333 38.0016 19.2701 37.7596 18.9435 37.5481C18.6297 37.3429 18.2873 37.2404 17.9164 37.2404Z" fill="#873EFF"/>
<path d="M25.8625 43.3702C25.4884 43.5369 24.9098 43.6859 24.1268 43.8173C23.4103 43.9391 22.8223 44 22.3626 44C21.5859 44 21.1975 43.6554 21.1975 42.9663C21.1975 43.0208 21.2292 42.5128 21.2926 41.4423C21.3751 40.0513 21.4163 38.5032 21.4163 36.7981C21.4163 36.6154 21.4781 36.4599 21.6017 36.3317C21.7286 36.2035 21.8871 36.1394 22.0773 36.1394C22.2675 36.1394 22.426 36.2035 22.5528 36.3317C22.6796 36.4599 22.743 36.6154 22.743 36.7981C22.743 38.5064 22.7002 40.0801 22.6146 41.5192C22.5861 41.7756 22.556 42.1683 22.5243 42.6971C23.2756 42.6843 24.2394 42.4984 25.4155 42.1394C25.4884 42.117 25.5582 42.1058 25.6247 42.1058C25.8245 42.1058 25.9861 42.1795 26.1098 42.3269C26.2207 42.4583 26.2762 42.6058 26.2762 42.7692C26.2762 43.0449 26.1383 43.2452 25.8625 43.3702Z" fill="#873EFF"/>
<path d="M31.7591 42.7212C31.5276 43.0385 31.2487 43.3029 30.9221 43.5144C30.5227 43.7708 30.1121 43.899 29.6905 43.899C28.8821 43.899 28.2814 43.742 27.8883 43.4279C27.0577 42.7644 26.6424 41.6122 26.6424 39.9712C26.6424 39.8141 26.6503 39.5801 26.6661 39.2692C26.682 38.9583 26.6899 38.7244 26.6899 38.5673C26.6899 38.4423 26.6931 38.2564 26.6994 38.0096C26.7058 37.7596 26.7089 37.5721 26.7089 37.4471C26.7089 37.1907 26.7549 36.9487 26.8468 36.7212C26.9705 36.4199 27.1433 36.2692 27.3652 36.2692C27.5395 36.2692 27.6933 36.3269 27.8264 36.4423C27.9723 36.5641 28.0452 36.7212 28.0452 36.9135C28.0452 37.0962 28.042 37.3734 28.0357 37.7452C28.0325 38.1138 28.0309 38.391 28.0309 38.5769C28.0309 38.7308 28.023 38.9631 28.0071 39.274C27.9913 39.5849 27.9834 39.8173 27.9834 39.9712C27.9834 40.4679 28.0404 40.9295 28.1545 41.3558C28.2877 41.8654 28.4827 42.2212 28.7394 42.4231C28.8726 42.5288 29.1896 42.5849 29.6905 42.5913C30.5274 42.6042 31.0917 41.883 31.3834 40.4279C31.5356 39.6747 31.6117 38.617 31.6117 37.2548C31.6117 37.0753 31.664 36.9022 31.7686 36.7356C31.9112 36.5144 32.1141 36.4038 32.3773 36.4038C32.5928 36.4038 32.7545 36.484 32.8623 36.6442C32.9447 36.7628 32.9859 36.8942 32.9859 37.0385C32.9859 38.3045 32.9273 39.2917 32.81 40C32.6325 41.0929 32.2821 42 31.7591 42.7212Z" fill="#873EFF"/>
<path d="M36.1672 43.8462C35.362 43.8462 34.728 43.6651 34.2651 43.3029C33.8752 43.0016 33.6802 42.6538 33.6802 42.2596C33.6802 42.0577 33.7404 41.891 33.8609 41.7596C33.9814 41.625 34.1478 41.5577 34.3602 41.5577C34.6455 41.5577 34.8548 41.7051 34.9879 42C35.1686 42.3942 35.5776 42.5913 36.2148 42.5913C36.7601 42.5913 37.2879 42.4712 37.7983 42.2308C38.3277 41.984 38.5924 41.7131 38.5924 41.4183C38.5924 41.0144 38.4276 40.7484 38.0979 40.6202C37.8633 40.5272 37.3925 40.4728 36.6856 40.4567C36.1371 40.4439 35.6457 40.3397 35.2114 40.1442C34.6249 39.8782 34.3364 39.4968 34.3459 39C34.3555 38.375 34.6852 37.8029 35.3351 37.2837C35.9849 36.7612 36.7014 36.5 37.4844 36.5C37.7951 36.5 38.1787 36.5721 38.6352 36.7163C39.2027 36.8958 39.4864 37.1026 39.4864 37.3365C39.4864 37.5032 39.4294 37.6506 39.3152 37.7788C39.1884 37.9231 39.0252 37.9952 38.8254 37.9952C38.6764 37.9952 38.4529 37.9631 38.1549 37.899C37.8601 37.8349 37.6366 37.8029 37.4844 37.8029C37.0755 37.8061 36.6871 37.9054 36.3194 38.101C35.939 38.2997 35.7488 38.516 35.7488 38.75C35.7488 38.8718 35.8058 38.9728 35.92 39.0529C36.0373 39.1298 36.2116 39.1843 36.443 39.2163C36.8488 39.2388 37.253 39.2612 37.6556 39.2837C38.3594 39.3381 38.9158 39.5385 39.3247 39.8846C39.7749 40.2692 40 40.8013 40 41.4808C40 42.3077 39.534 42.9343 38.6019 43.3606C37.8918 43.6843 37.0802 43.8462 36.1672 43.8462Z" fill="#873EFF"/>
</svg>
