<svg width="57" height="56" viewBox="0 0 57 56" fill="none" xmlns="http://www.w3.org/2000/svg">
<rect width="56.4194" height="56" rx="28" fill="#F0F4FF"/>
<path d="M20.5613 31.3972H16.8349C15.2997 31.3972 14.0436 32.6974 14.0436 34.2866V41.5101C14.0436 42.3047 14.6717 42.9548 15.4393 42.9548H20.5613C21.3289 42.9548 21.9569 42.3047 21.9569 41.5101V32.8419C21.9569 32.0473 21.3289 31.3972 20.5613 31.3972Z" fill="white" stroke="#5F2CED" stroke-miterlimit="10" stroke-linecap="round" stroke-linejoin="round"/>
<path d="M29.8562 25.6184H26.1298C24.5946 25.6184 23.3386 26.9187 23.3386 28.5078V41.5101C23.3386 42.3047 23.9666 42.9548 24.7342 42.9548H31.2518C32.0194 42.9548 32.6475 42.3047 32.6475 41.5101V28.5078C32.6475 26.9187 31.4054 25.6184 29.8562 25.6184Z" fill="#E7E1FF" stroke="#5F2CED" stroke-miterlimit="10" stroke-linecap="round" stroke-linejoin="round"/>
<path d="M39.1651 35.7314H35.4387C34.6711 35.7314 34.0431 36.3816 34.0431 37.1761V41.5102C34.0431 42.3048 34.6711 42.9549 35.4387 42.9549H40.5607C41.3283 42.9549 41.9564 42.3048 41.9564 41.5102V38.6208C41.9564 37.0317 40.7003 35.7314 39.1651 35.7314Z" fill="white" stroke="#5F2CED" stroke-miterlimit="10" stroke-linecap="round" stroke-linejoin="round"/>
<path d="M32.2009 18.1783C32.6335 17.7305 32.801 17.1959 32.6614 16.7336C32.5219 16.2713 32.0892 15.939 31.4751 15.8379L30.1353 15.6068C30.0795 15.6068 29.9539 15.5056 29.926 15.4478L29.1863 13.9165C28.628 12.7463 27.358 12.7463 26.7997 13.9165L26.06 15.4478C26.0461 15.5056 25.9205 15.6068 25.8647 15.6068L24.5248 15.8379C23.9108 15.939 23.4921 16.2713 23.3385 16.7336C23.199 17.1959 23.3665 17.7305 23.7991 18.1783L24.8319 19.2618C24.8877 19.3052 24.9296 19.4785 24.9156 19.5363L24.6225 20.8655C24.3992 21.8623 24.7621 22.3102 24.9994 22.4835C25.2366 22.6569 25.753 22.888 26.6043 22.3679L27.8604 21.6023C27.9162 21.5589 28.0977 21.5589 28.1535 21.6023L29.3956 22.3679C29.7864 22.6135 30.1074 22.6858 30.3586 22.6858C30.6517 22.6858 30.861 22.5702 30.9866 22.4835C31.2239 22.3102 31.5868 21.8623 31.3635 20.8655L31.0704 19.5363C31.0564 19.4641 31.0983 19.3052 31.1541 19.2618L32.2009 18.1783Z" fill="#5F2CED"/>
</svg>
