<svg width="56" height="56" viewBox="0 0 56 56" fill="none" xmlns="http://www.w3.org/2000/svg">
<rect width="56" height="56" rx="28" fill="#F0F4FF"/>
<g clip-path="url(#clip0_402_484)">
<path fill-rule="evenodd" clip-rule="evenodd" d="M46.973 41.306C46.973 42.7255 39.8797 43.8763 31.1299 43.8763C22.3799 43.8763 15.2869 42.7255 15.2869 41.306C15.2869 39.8867 22.3799 38.7358 31.1299 38.7358C39.8797 38.7358 46.973 39.8867 46.973 41.306Z" fill="#D38E44"/>
<path fill-rule="evenodd" clip-rule="evenodd" d="M26.323 40.899C29.6111 40.8169 33.7808 42.4724 36.4683 40.6409C37.0753 40.2275 36.7489 39.9397 36.7073 39.9828C34.1615 42.6489 30.7007 40.428 25.8137 40.1875C25.7805 40.1858 26.3199 40.8607 26.323 40.899Z" fill="#3E0000"/>
<path fill-rule="evenodd" clip-rule="evenodd" d="M21.64 23.577C19.6733 21.402 16.581 21.6382 15.0806 22.4841C12.9959 23.6601 9.10674 27.9681 11.5614 30.2321C13.1799 31.725 13.5138 32.7406 15.8717 34.1328C17.1493 34.8872 18.7097 36.6747 20.4747 37.6763C21.3783 38.1893 22.7831 38.9312 22.9009 39.9401C23.095 41.6025 25.4534 41.9347 27.5525 41.8222C27.9633 41.8003 26.8395 40.969 27.2124 40.9196C27.8383 40.8368 29.8979 41.3566 30.2918 41.405C32.2625 41.6481 33.7264 41.7681 34.7973 41.7634C37.0706 41.7538 37.8191 40.6869 38.1848 40.317C39.3666 39.1206 38.1962 38.4855 37.8253 37.8493C37.6924 37.6218 38.029 37.2072 38.099 37.0279C38.6764 35.5528 39.0466 35.0319 39.9569 33.7142C40.6713 32.6801 40.492 34.0554 41.1079 32.3382C42.6372 28.0747 41.399 30.9542 41.6026 28.8754C41.6755 28.129 44.2803 27.321 42.2087 23.822C41.5304 22.6759 40.3515 19.749 39.0636 18.262C37.7316 16.7246 38.375 18.0232 37.182 17.6707C27.7903 14.8982 32.8904 18.7086 26.7004 17.1107C23.8201 16.3674 23.5185 16.178 22.9609 19.973C22.6952 21.782 22.6624 21.0032 21.64 23.577Z" fill="#AA7B55"/>
<path fill-rule="evenodd" clip-rule="evenodd" d="M32.749 36.6581C34.4289 36.9127 36.5968 35.1611 39.0493 30.8388C38.1096 42.3461 22.6962 41.9538 19.6961 32.8545C19.3221 31.7195 20.0169 27.3717 21.2644 24.8708C24.7391 17.9068 21.0744 24.5122 20.2762 24.8625C19.7301 25.1023 18.9306 24.8818 18.7865 25.2039C16.644 29.9938 15.5929 32.6336 17.2412 34.8268C18.7593 36.8465 21.3567 37.6268 21.6786 37.8552C21.7682 37.9183 22.4283 40.6705 23.7475 41.2054C24.6705 41.5795 25.843 41.9355 26.6848 41.7385C27.0645 41.6496 27.0982 41.0428 27.4973 40.9799C28.4356 40.8317 29.7503 41.0802 29.8536 41.0868C30.5794 41.1357 33.5907 42.1159 35.5234 41.7209C37.8692 41.2414 39.1473 39.3395 39.4661 39.0185C39.8875 38.5943 36.7034 37.8244 37.1522 37.3319C39.3098 34.9649 41.2944 31.8385 40.3619 30.1305C40.3329 30.0776 42.9588 28.4755 42.9932 26.4821C43.0288 24.4218 42.1163 30.3832 36.4899 29.1411C34.7326 28.7531 34.8277 32.7023 33.8811 32.6618C27.5643 32.3889 32.547 35.8159 32.749 36.6581Z" fill="#8C5D40"/>
<path fill-rule="evenodd" clip-rule="evenodd" d="M33.9819 26.8484C33.9953 27.271 30.5944 28.3966 29.7357 29.0496C28.9105 29.6776 28.3703 29.4251 28.3209 30.9571C28.3132 31.199 29.1384 33.5467 29.3284 33.9324C30.1561 35.6129 30.9462 36.6157 33.045 36.4722C33.6461 36.4314 34.2995 35.966 34.7789 35.6376C35.4319 35.19 37.3988 31.6037 38.1341 30.6058C39.5229 28.7204 37.6012 29.0192 35.9987 27.4114C35.7638 27.1759 34.3222 26.8484 33.9819 26.8484Z" fill="white"/>
<path fill-rule="evenodd" clip-rule="evenodd" d="M33.982 26.8484C33.9953 27.0983 31.1298 28.618 30.2714 29.0046C29.4461 29.3762 28.661 28.4364 28.3209 29.2799C27.727 30.7531 30.2209 34.3736 30.4107 34.6016C30.0983 33.6051 29.4593 32.1644 29.9341 31.3154C30.4128 30.4606 33.1522 29.2305 33.1395 30.1119C33.1266 31.0063 32.8965 32.6423 32.6118 34.9514C33.2129 34.9274 34.567 30.5886 34.9231 30.2195C35.4738 29.6484 36.6135 30.2731 36.7435 30.7552C36.8735 31.2369 36.3033 32.6213 34.8732 34.8425C35.4133 34.4086 37.8591 32.1131 38.214 30.9025C38.7709 29.0025 36.977 27.9922 35.9988 27.4114C35.7641 27.2724 34.3223 26.8484 33.982 26.8484Z" fill="#ECE1DA"/>
<path fill-rule="evenodd" clip-rule="evenodd" d="M23.4191 16.6207C22.8381 16.6574 23.4272 15.1256 24.0398 14.5852C26.3704 12.5282 26.4701 13.0927 28.7398 12.3153C29.6764 11.9948 32.3957 12.5567 33.2597 12.9882C33.5835 13.1499 34.2357 14.8774 35.1317 15.2776C36.2573 15.7805 37.0355 17.2329 35.1271 17.5146C33.1141 17.8117 29.9783 18.127 28.2915 16.8009C27.152 15.9049 27.8276 17.6668 26.2799 17.0016C26.277 17.0007 23.4241 16.6202 23.4191 16.6207Z" fill="#FA9339"/>
<path fill-rule="evenodd" clip-rule="evenodd" d="M28.4867 16.7723C28.1743 16.7921 29.4924 16.3512 29.8212 16.0608C31.0743 14.9549 31.2303 15.6097 32.4506 15.1916C32.9539 15.0196 34.9388 15.4848 35.4031 15.717C35.5771 15.8036 35.5982 16.0763 36.0797 16.2912C36.6849 16.5615 37.1148 16.9443 36.0888 17.0959C35.0066 17.2559 33.0142 17.9648 32.1074 17.2519C31.4949 16.7702 31.933 17.3984 31.0257 17.3601C30.6677 17.345 25.1515 16.641 28.4867 16.7723Z" fill="#8B4519"/>
<path fill-rule="evenodd" clip-rule="evenodd" d="M17.671 22.6074C17.1541 22.0222 12.1794 29.609 11.7339 30.038C10.7815 30.9547 12.1878 31.4262 13.8251 32.7641C16.6952 35.1095 16.1606 34.8843 18.2202 35.8314C18.2305 35.8034 18.23 35.7935 18.0488 35.6177C17.9473 35.5191 18.6915 33.5269 18.5015 33.345C18.3115 33.1629 17.9599 34.3617 17.5197 35.0907C17.1251 34.7172 16.5152 34.1455 16.5458 34.0714C17.183 32.5365 18.9243 28.741 18.6609 28.5796C18.3105 28.3652 16.4452 32.6958 15.81 33.4001C15.5841 33.6509 14.9802 33.3111 14.7887 33.1048C14.6702 32.9773 14.4852 32.7892 14.6128 32.5163C15.6252 30.3544 19.684 23.4365 19.3585 23.214C19.0591 23.0088 15.484 29.493 13.9967 31.409C13.4803 32.0742 12.8237 30.965 12.508 30.7509C12.9564 30.1248 17.8072 22.7617 17.671 22.6074Z" fill="#3E0000"/>
<path fill-rule="evenodd" clip-rule="evenodd" d="M32.7259 25.1789C32.8688 25.3495 33.0005 25.4822 33.1317 25.6128C32.9931 25.2485 32.9847 24.8313 33.1112 24.4624C32.6738 24.6153 32.4549 24.8553 32.7259 25.1789Z" fill="#3E0000"/>
<path fill-rule="evenodd" clip-rule="evenodd" d="M38.5886 21.9187C38.6419 21.9187 38.6928 21.9279 38.7403 21.9444C38.578 21.7929 38.3589 21.6992 38.1175 21.6992C37.6182 21.6992 37.2141 22.0978 37.2141 22.5889C37.2141 23.0804 37.6182 23.4785 38.1175 23.4785C38.6165 23.4785 39.0211 23.0804 39.0211 22.5889C39.0211 22.5604 39.0195 22.5322 39.0171 22.5046C38.9571 22.6809 38.7879 22.8082 38.5886 22.8082C38.339 22.8082 38.1366 22.6093 38.1366 22.3635C38.1366 22.1178 38.339 21.9187 38.5886 21.9187Z" fill="#3E0000"/>
<path fill-rule="evenodd" clip-rule="evenodd" d="M26.7673 40.3198C26.6466 40.2314 26.4103 40.106 26.3665 40.1396C26.303 40.189 26.7145 40.7481 26.5233 41.1676C26.3317 41.5869 23.8598 40.8697 23.7147 40.5692C23.5596 40.2483 24.0225 39.2156 23.9279 38.8935C23.833 38.5714 23.0845 38.1942 22.6294 37.9514C18.9124 35.9681 11.5397 30.1318 11.9008 28.0311C12.2409 26.053 15.5141 22.4031 16.2686 22.2283C17.0231 22.0535 19.9546 22.5318 20.0237 22.3196C20.1002 22.0848 16.1063 20.5422 15.2744 20.7815C14.4881 21.0071 9.37558 26.1582 9.03788 28.0568C8.24156 32.5372 20.2459 38.3005 21.8309 39.2154C22.2998 39.4855 21.4729 40.554 21.83 41.1434C22.2986 41.9156 27.9437 42.4732 28.055 41.9817C28.1459 41.5815 27.2989 40.7083 26.7673 40.3198Z" fill="#3E0000"/>
<path fill-rule="evenodd" clip-rule="evenodd" d="M33.6025 36.0241C33.3833 36.134 32.9954 36.1758 32.6044 36.1683C33.622 33.6577 34.6853 30.8361 35.197 27.4399C35.947 28.3253 37.0874 29.4504 37.9715 29.9366C37.4572 31.6994 34.6081 35.5199 33.6025 36.0241ZM32.1489 36.1373C31.8523 36.1024 31.5954 36.0403 31.4642 35.961C30.7281 35.5151 29.1842 32.558 28.8078 30.557C30.138 30.3319 32.6976 28.7669 33.9198 27.5471C33.6572 30.3083 32.8912 33.3264 32.1489 36.1373ZM31.9642 16.5726C30.8194 16.5942 29.671 16.6639 28.7858 16.7194C30.6961 15.2333 35.2596 14.9822 35.7367 16.6133C34.8043 16.6093 33.4383 16.545 31.9642 16.5726ZM26.9302 16.545C26.4661 16.0283 25.6258 14.865 25.1113 14.8535C24.9055 14.8488 24.4258 15.1394 23.8714 15.5504C24.123 13.7784 26.6243 12.7815 28.9574 12.5864C29.5248 13.0262 30.0054 13.5279 30.6423 14.9029C29.5577 14.9535 28.6868 15.054 28.391 15.2119C27.8647 15.493 27.326 16.013 26.9302 16.545ZM32.6873 13.2742C32.9827 13.5286 33.5257 14.2321 33.8852 14.8843C33.2131 14.8643 32.5028 14.8589 31.8217 14.8683C31.3033 13.789 30.7094 13.101 30.0723 12.5549C31.1908 12.5881 32.1661 12.8267 32.6873 13.2742ZM39.627 18.1911C39.6181 17.6462 40.5344 17.1086 40.458 16.4217C40.4066 15.9577 38.4249 15.0568 37.977 15.2396C37.6261 15.3829 37.4158 15.9991 37.118 16.3351C37.2359 15.8843 37.2808 15.4384 37.1391 15.2676C37.0198 15.1239 36.2433 15.0135 35.1961 14.9448C34.8125 14.0874 33.9516 13.1563 33.374 12.642C32.7767 12.11 31.2498 11.9599 29.5317 12.1269C29.3563 11.9973 29.2872 11.9726 28.8589 12.0274C28.4603 12.078 28.4309 12.1751 28.52 12.2587C26.0041 12.6681 23.3896 13.6975 22.8153 15.161C22.7111 15.4267 22.6384 15.9133 22.6659 16.529C21.8901 17.21 21.2362 17.8864 21.2288 18.0977C21.2123 18.569 22.061 19.2403 22.1236 19.5919C22.186 19.9434 20.5962 22.3403 19.6412 25.6462C18.467 29.7095 19.167 35.3203 22.843 35.2904C24.8345 35.274 24.3427 32.2886 22.9897 32.3471C22.5889 32.3646 22.8184 34.7862 21.9078 34.3881C20.2934 33.6817 20.0721 29.473 21.2408 26.5537C23.5963 20.6704 24.5052 20.3551 24.4328 19.9344C24.3604 19.5137 23.4366 18.7843 23.4142 18.4996C23.3881 18.1695 24.7327 16.9031 25.1376 17.0422C25.4925 17.1641 26.0742 18.5034 26.5744 18.5907C27.0172 18.6681 35.4633 17.2055 37.4956 18.11C39.528 19.0144 42.5307 25.6591 42.3044 26.3486C42.0779 27.0377 40.1889 28.2283 38.4829 28.149C37.2923 28.0937 35.7352 27.0271 35.0696 26.4566C35.0859 26.4471 35.1009 26.4333 35.1169 26.4227C34.9415 26.4928 34.7436 26.5363 34.5166 26.5363C34.3034 26.5363 34.118 26.4956 33.9502 26.4335C32.9866 27.2271 31.2825 28.2999 29.7666 28.398C27.7839 28.5255 25.8256 27.2184 25.5044 26.6516C25.1409 26.01 26.4872 23.5599 26.2976 23.4069C25.9157 23.0984 22.4534 26.7396 22.8365 28.0163C23.1272 28.9843 25.2922 29.9641 27.0435 30.3789C27.4871 31.974 29.449 35.8502 30.1132 36.2761C30.8215 36.7304 32.9001 36.9001 33.7743 36.546C34.7723 36.1417 38.0083 32.9175 38.9901 30.1787C39.3034 30.158 39.6767 30.0831 40.0761 29.9686C39.7147 35.3709 34.557 39.1182 34.7532 39.4758C34.9532 39.8403 37.905 38.962 38.2597 39.3123C38.5876 39.6361 37.156 41.1867 37.2433 41.2231C37.3305 41.2594 40.7873 39.0022 40.5268 38.0881C40.3743 37.5535 38.2387 37.829 38.1144 37.6142C37.9961 37.409 41.7997 34.7843 42.6837 28.8187C43.3053 28.4373 43.7869 28.0304 43.9497 27.6756C44.4501 26.5853 39.6289 18.3328 39.627 18.1911Z" fill="#3E0000"/>
<path fill-rule="evenodd" clip-rule="evenodd" d="M30.5139 21.9183C30.5674 21.9183 30.6185 21.9274 30.6661 21.9444C30.5038 21.7924 30.2847 21.699 30.0433 21.699C29.5443 21.699 29.1396 22.0976 29.1396 22.5889C29.1396 23.0799 29.5443 23.4783 30.0433 23.4783C30.5423 23.4783 30.9467 23.0799 30.9467 22.5889C30.9467 22.5604 30.9452 22.5319 30.9426 22.5042C30.8931 22.6503 30.7686 22.7627 30.6138 22.7969C30.5815 22.8042 30.5483 22.8077 30.5139 22.8077C30.2646 22.8077 30.0624 22.6091 30.0624 22.3632C30.0624 22.23 30.1214 22.1105 30.2154 22.0293C30.2952 21.9601 30.3996 21.9183 30.5139 21.9183Z" fill="#3E0000"/>
<path fill-rule="evenodd" clip-rule="evenodd" d="M38.1299 23.4644C38.6216 23.4644 39.0223 23.0696 39.0223 22.5858C39.0223 22.1018 38.6216 21.7068 38.1299 21.7068C37.6383 21.7068 37.2373 22.1018 37.2373 22.5858C37.2373 23.0696 37.6383 23.4644 38.1299 23.4644Z" fill="#3E0000"/>
<path fill-rule="evenodd" clip-rule="evenodd" d="M38.1301 23.0993C38.4176 23.0993 38.6516 22.8687 38.6516 22.5857C38.6516 22.3028 38.4176 22.072 38.1301 22.072C37.8426 22.072 37.6082 22.3028 37.6082 22.5857C37.6082 22.8687 37.8426 23.0993 38.1301 23.0993Z" fill="black"/>
<path fill-rule="evenodd" clip-rule="evenodd" d="M38.5898 22.5508C38.7349 22.5508 38.8529 22.4346 38.8529 22.2918C38.8529 22.1492 38.7349 22.0327 38.5898 22.0327C38.445 22.0327 38.3264 22.1492 38.3264 22.2918C38.3264 22.4346 38.445 22.5508 38.5898 22.5508Z" fill="white"/>
<path fill-rule="evenodd" clip-rule="evenodd" d="M30.0606 23.4679C30.5522 23.4679 30.953 23.073 30.953 22.5893C30.953 22.1053 30.5522 21.7102 30.0606 21.7102C29.569 21.7102 29.168 22.1053 29.168 22.5893C29.168 23.073 29.569 23.4679 30.0606 23.4679Z" fill="#3E0000"/>
<path fill-rule="evenodd" clip-rule="evenodd" d="M30.061 23.1027C30.3485 23.1027 30.5825 22.8724 30.5825 22.5891C30.5825 22.3063 30.3485 22.0754 30.061 22.0754C29.7735 22.0754 29.5391 22.3063 29.5391 22.5891C29.5391 22.8724 29.7735 23.1027 30.061 23.1027Z" fill="black"/>
<path fill-rule="evenodd" clip-rule="evenodd" d="M30.5207 22.5542C30.6655 22.5542 30.7838 22.438 30.7838 22.2952C30.7838 22.1526 30.6655 22.0361 30.5207 22.0361C30.3759 22.0361 30.2573 22.1526 30.2573 22.2952C30.2573 22.438 30.3759 22.5542 30.5207 22.5542Z" fill="white"/>
<path fill-rule="evenodd" clip-rule="evenodd" d="M33.9584 26.4325C33.8891 26.388 34.205 25.9786 34.2729 25.681C34.363 25.2861 34.0258 25.209 33.7873 25.2581C33.3428 25.3499 33.653 25.8433 33.7512 26.0287C33.832 26.1812 33.7761 26.2755 33.5213 26.0158C33.3934 25.8854 33.2837 25.764 33.169 25.6499C33.0268 25.5087 32.8841 25.3668 32.7293 25.1819C31.7795 24.048 36.8359 23.9381 36.2883 25.0146C36.0878 25.4082 35.8367 25.6918 35.5527 26.0151C35.129 26.4974 35.6041 25.6567 35.6075 25.4664C35.6118 25.2348 35.4739 25.2657 35.3802 25.3537C35.1505 25.5685 35.6141 26.5219 34.607 26.5906C34.3704 26.6068 34.1257 26.5581 33.9584 26.4325Z" fill="black"/>
<path fill-rule="evenodd" clip-rule="evenodd" d="M16.8164 22.1892C18.6538 22.3094 19.9221 22.6972 21.7449 23.3153C21.1572 22.6489 20.2624 22.2958 18.6213 21.6064C17.9215 21.3122 17.2115 21.7847 16.8164 22.1892Z" fill="#3E0000"/>
<path fill-rule="evenodd" clip-rule="evenodd" d="M19.6089 33.36C19.2315 34.0405 11.8796 28.0807 11.3512 27.7558C10.2217 27.0614 11.7484 25.676 13.0559 24.0243C15.3486 21.1287 14.0783 22.8595 15.8842 21.5005C15.8973 21.5207 18.5798 23.8471 18.5026 23.9393C18.3945 24.0683 15.5319 22.0344 15.362 22.2172C15.0658 22.5348 14.774 22.8586 14.834 22.9212C15.9224 24.0567 19.0623 26.1737 18.7939 26.4635C18.4256 26.8617 15.3634 24.2763 14.471 23.6581C13.7014 23.125 13.3606 24.4883 13.4964 24.6652C14.9552 26.5633 20.2209 30.237 19.9521 30.5226C19.7042 30.7859 15.1031 27.4162 13.1123 25.8977C12.4403 25.3852 12.2144 26.6203 11.952 26.896C12.5265 27.4132 19.7083 33.1807 19.6089 33.36Z" fill="#3E0000"/>
</g>
<defs>
<clipPath id="clip0_402_484">
<rect width="38" height="32" fill="white" transform="translate(9 12)"/>
</clipPath>
</defs>
</svg>
