<svg width="57" height="56" viewBox="0 0 57 56" fill="none" xmlns="http://www.w3.org/2000/svg">
<rect width="56.4194" height="56" rx="28" fill="#F0F4FF"/>
<path fill-rule="evenodd" clip-rule="evenodd" d="M22.2199 31.8057L21.2097 31.2286L18.496 35.9045C16.0431 32.4987 15.5523 27.9087 17.4572 23.9543L17.4858 23.9253C17.6012 23.6653 17.7458 23.4345 17.8612 23.2036C19.7952 19.8551 23.1728 17.8052 26.7518 17.4303C27.3871 16.5647 28.08 15.8135 28.8594 15.0924C23.7499 14.8038 18.64 17.3435 15.8981 22.0781C12.3764 28.1977 13.9932 35.8754 19.4198 40.0906L22.1331 32.0365C22.1622 31.9793 22.1913 31.892 22.2199 31.8057ZM38.7315 24.3292C40.1752 27.6492 40.0884 31.5744 38.1539 34.9234C38.039 35.1543 37.8945 35.3847 37.75 35.616L37.7213 35.6455C35.2389 39.2822 31.0242 41.1585 26.8386 40.7254L29.5523 36.049L28.5417 35.4715C28.484 35.5296 28.4263 35.5873 28.3686 35.6455L22.7684 42.0246C29.1193 44.6229 36.5953 42.1691 40.117 36.049C42.8594 31.3154 42.5131 25.6284 39.6844 21.3564C39.4531 22.3662 39.1646 23.3768 38.7315 24.3292Z" fill="#466DD8"/>
<path fill-rule="evenodd" clip-rule="evenodd" d="M29.3501 31.6321C28.628 32.585 27.4738 33.0762 26.2328 33.1912C25.8574 33.2203 25.5107 33.018 25.3376 32.6718C24.8178 31.5457 24.6451 30.3047 25.1358 29.2078L19.4775 25.9455C19.1026 25.7147 18.9295 25.3394 19.0449 24.9358C19.1312 24.5314 19.4775 24.2424 19.8819 24.2424L25.6262 24.0406C26.0592 22.2798 26.7808 20.6057 27.8201 19.0466C29.4655 16.5932 31.8035 14.7747 34.5458 13.6777C35.2102 13.4178 35.8736 13.1874 36.538 13.0138C37.0283 12.8984 37.5191 13.1874 37.6345 13.6491C37.8367 14.3125 37.9812 15.0055 38.0966 15.6981C38.5006 18.6427 38.0676 21.5868 36.7979 24.2424C35.9895 25.9169 34.8635 27.3606 33.5643 28.6302L36.249 33.6819C36.4512 34.0573 36.3935 34.4903 36.0759 34.7789C35.7873 35.0674 35.3538 35.0965 35.008 34.8943L29.3501 31.6321ZM33.622 19.5374C34.4881 20.0572 34.7767 21.1542 34.2864 22.0199C33.7952 22.886 32.67 23.175 31.8035 22.6842C30.9378 22.193 30.6492 21.0674 31.1396 20.2013C31.6594 19.3356 32.7564 19.0466 33.622 19.5374Z" fill="#2295FF"/>
<path fill-rule="evenodd" clip-rule="evenodd" d="M20.8921 41.4183L27.0117 34.4612C26.7808 34.4903 26.55 34.5189 26.3187 34.548C25.3953 34.6057 24.5292 34.1149 24.1257 33.2493C24.0098 33.0471 23.923 32.8449 23.8367 32.614L20.8921 41.4183Z" fill="#F8954F"/>
</svg>
