<svg width="56" height="56" viewBox="0 0 56 56" fill="none" xmlns="http://www.w3.org/2000/svg">
<rect width="56" height="56" rx="28" fill="#F0F4FF"/>
<path d="M39.4791 20.3651C39.5594 16.1913 36.1154 12.9873 31.3799 12.9873H21.5864C21.3581 12.9874 21.1373 13.0689 20.9638 13.2173C20.7903 13.3656 20.6754 13.571 20.6399 13.7966L16.7151 38.3186C16.6975 38.4297 16.7043 38.5433 16.7348 38.6515C16.7654 38.7598 16.8191 38.8601 16.8921 38.9457C16.9652 39.0312 17.0559 39.0999 17.1581 39.147C17.2602 39.1941 17.3714 39.2185 17.4839 39.2186H23.2866L22.3791 44.8976C22.3615 45.0087 22.3683 45.1224 22.3989 45.2307C22.4295 45.339 22.4832 45.4394 22.5564 45.525C22.6295 45.6105 22.7203 45.6792 22.8226 45.7262C22.9248 45.7733 23.0361 45.7976 23.1486 45.7976H27.8751C28.1039 45.7976 28.3071 45.7151 28.4804 45.5673C28.6536 45.4188 28.6821 45.2141 28.7174 44.9883L30.1049 36.8246C30.1401 36.5996 30.2549 36.3071 30.4289 36.1586C30.6021 36.0101 30.7536 35.9291 30.9816 35.9283H33.8751C38.5124 35.9283 42.4476 32.6328 43.1669 28.0481C43.6754 24.7931 42.2796 21.8328 39.4791 20.3651Z" fill="#001C64"/>
<path d="M24.542 30.175L23.0967 39.34L22.1892 45.088C22.1717 45.1992 22.1784 45.3128 22.209 45.4211C22.2396 45.5295 22.2933 45.6299 22.3665 45.7154C22.4396 45.801 22.5304 45.8696 22.6327 45.9167C22.7349 45.9637 22.8462 45.9881 22.9587 45.988H27.9612C28.1894 45.9877 28.41 45.9061 28.5833 45.7578C28.7567 45.6094 28.8714 45.4041 28.907 45.1787L30.2255 36.8237C30.261 36.5984 30.3758 36.3932 30.5492 36.245C30.7226 36.0968 30.9431 36.0153 31.1712 36.0152H34.1165C38.7537 36.0152 42.6882 32.6327 43.4075 28.048C43.9175 24.7937 42.2795 21.8335 39.479 20.365C39.4715 20.7115 39.4415 21.0572 39.3882 21.4C38.669 25.984 34.7337 29.3672 30.0965 29.3672H25.4877C25.2597 29.3673 25.0393 29.4487 24.8659 29.5967C24.6925 29.7448 24.5777 29.9498 24.542 30.175Z" fill="#0070E0"/>
<path d="M23.096 39.3401H17.276C17.1634 39.3402 17.0522 39.3159 16.95 39.2688C16.8478 39.2218 16.757 39.1531 16.6839 39.0675C16.6108 38.9819 16.5572 38.8815 16.5267 38.7732C16.4962 38.6649 16.4895 38.5512 16.5072 38.4401L20.4312 13.5536C20.4668 13.3282 20.5817 13.1229 20.7552 12.9746C20.9287 12.8264 21.1495 12.745 21.3777 12.7451H31.3805C36.1152 12.7451 39.5592 16.1914 39.479 20.3651C38.3007 19.7471 36.9162 19.3939 35.399 19.3939H27.0597C26.8317 19.3941 26.6112 19.4756 26.4378 19.6238C26.2645 19.772 26.1497 19.9771 26.114 20.2024L24.5427 30.1751L23.096 39.3401Z" fill="#003087"/>
</svg>
