<svg width="57" height="56" viewBox="0 0 57 56" fill="none" xmlns="http://www.w3.org/2000/svg">
<rect width="56.4194" height="56" rx="28" fill="#F0F4FF"/>
<g clip-path="url(#clip0_291_661)">
<path fill-rule="evenodd" clip-rule="evenodd" d="M37.4671 38.9952H18.4297L13 23.3644L19.7949 28.3524C19.7609 28.5249 19.7427 28.6936 19.7427 28.8628C19.7427 30.4065 20.9988 31.6628 22.5427 31.6628C24.0858 31.6628 25.3427 30.4067 25.3427 28.8628C25.3427 27.6597 24.5927 26.6359 23.511 26.2446L27.9485 16.8889L32.3724 26.2201C31.2609 26.595 30.4704 27.6409 30.4704 28.8638C30.4704 30.4075 31.7265 31.6638 33.2704 31.6638C34.8131 31.6638 36.0704 30.4077 36.0704 28.8638C36.0704 28.6592 36.0465 28.4536 35.9985 28.2509L42.9089 23.328L37.4671 38.9952Z" fill="#0098D7"/>
</g>
<defs>
<clipPath id="clip0_291_661">
<rect width="30" height="22.2222" fill="white" transform="translate(13 16.8889)"/>
</clipPath>
</defs>
</svg>
