<svg width="57" height="56" viewBox="0 0 57 56" fill="none" xmlns="http://www.w3.org/2000/svg">
<rect width="56.4194" height="56" rx="28" fill="#F0F4FF"/>
<g clip-path="url(#clip0_315_333)">
<path fill-rule="evenodd" clip-rule="evenodd" d="M34.314 42.9681C34.089 42.9892 33.8547 43 33.625 43H20.5C18.5125 43 16.6047 42.2097 15.1984 40.8034C13.7922 39.3967 13 37.4889 13 35.5V22.375C13 20.3861 13.7922 18.4783 15.1984 17.0716C16.4922 15.7759 18.2125 15.0034 20.0312 14.8895V13.9375C20.0312 13.42 20.4531 13 20.9688 13C21.4844 13 21.9062 13.42 21.9062 13.9375V14.875H32.2188V13.9375C32.2188 13.42 32.6406 13 33.1562 13C33.6719 13 34.0938 13.42 34.0938 13.9375V14.8895C35.9125 15.0034 37.6328 15.7759 38.9266 17.0716C40.3328 18.4783 41.125 20.3861 41.125 22.375V29.8984C42.2969 31.2855 43 33.0766 43 35.0312C43 36.9287 42.3344 38.672 41.2281 40.0413H42.0625C42.5781 40.0413 43 40.4613 43 40.9788C43 41.4963 42.5781 41.9163 42.0625 41.9163H38.7812C38.2609 41.9163 37.8438 41.4967 37.8438 40.9788V37.6975C37.8438 37.18 38.2656 36.76 38.7812 36.76C39.2969 36.76 39.7188 37.18 39.7188 37.6975V38.9233C40.5953 37.8672 41.125 36.5106 41.125 35.0312C41.125 31.668 38.3969 28.9375 35.0312 28.9375C31.6703 28.9375 28.9375 31.668 28.9375 35.0312C28.9375 38.3945 31.6703 41.125 35.0312 41.125C35.5469 41.125 35.9688 41.545 35.9688 42.0625C35.9688 42.58 35.5469 43 35.0312 43C34.7922 43 34.5484 42.9892 34.314 42.9681ZM21.9062 31.75C23.4578 31.75 24.7188 33.0105 24.7188 34.5625C24.7188 36.1145 23.4578 37.375 21.9062 37.375C20.3547 37.375 19.0938 36.1145 19.0938 34.5625C19.0938 33.0105 20.3547 31.75 21.9062 31.75ZM21.9062 22.375C23.4578 22.375 24.7188 23.6355 24.7188 25.1875C24.7188 26.7395 23.4578 28 21.9062 28C20.3547 28 19.0938 26.7395 19.0938 25.1875C19.0938 23.6355 20.3547 22.375 21.9062 22.375ZM34.2812 27.0972C34.7453 26.5956 35.0312 25.9244 35.0312 25.1875C35.0312 23.6355 33.7703 22.375 32.2188 22.375C30.6672 22.375 29.4062 23.6355 29.4062 25.1875C29.4062 26.4817 30.2828 27.573 31.4734 27.9002C32.3312 27.4698 33.2828 27.1909 34.2812 27.0972Z" fill="#5F2CED"/>
<path d="M39.5021 34.9248L37.9156 36.543L38.288 38.8441C38.3138 38.984 38.2987 39.1283 38.2446 39.2599C38.1904 39.3915 38.0995 39.5048 37.9826 39.5864C37.8677 39.6658 37.7328 39.7114 37.5932 39.7179C37.4536 39.7245 37.3149 39.6918 37.1931 39.6235L35.2713 38.5472L33.3347 39.6087C33.2264 39.6722 33.1029 39.7056 32.9772 39.7052C32.8228 39.7063 32.6718 39.6596 32.5452 39.5715C32.4283 39.49 32.3373 39.3766 32.2832 39.2451C32.2291 39.1135 32.214 38.9691 32.2398 38.8293L32.6197 36.5282L31.0257 34.9248C30.9293 34.8269 30.8621 34.7044 30.8313 34.5708C30.8006 34.4371 30.8076 34.2976 30.8516 34.1677C30.8955 34.0378 30.9747 33.9225 31.0804 33.8347C31.1861 33.747 31.3141 33.69 31.4503 33.6703L33.6178 33.3363L34.5935 31.2727C34.6489 31.1383 34.7427 31.0231 34.8632 30.9413C34.9836 30.8595 35.1256 30.8147 35.2713 30.8125C35.413 30.8115 35.552 30.8508 35.6721 30.9257C35.7921 31.0007 35.8882 31.1082 35.9492 31.2356L36.9175 33.3363L39.085 33.6703C39.2206 33.6905 39.348 33.7477 39.4532 33.8354C39.5583 33.9232 39.6371 34.0381 39.6809 34.1677C39.7242 34.298 39.7305 34.4378 39.6989 34.5714C39.6674 34.7051 39.5992 34.8274 39.5021 34.9248Z" fill="#5F2CED"/>
</g>
<defs>
<clipPath id="clip0_315_333">
<rect width="30" height="30" fill="white" transform="translate(13 13)"/>
</clipPath>
</defs>
</svg>
