<svg width="56" height="56" viewBox="0 0 56 56" fill="none" xmlns="http://www.w3.org/2000/svg">
<rect width="56" height="56" rx="28" fill="#F0F4FF"/>
<path fill-rule="evenodd" clip-rule="evenodd" d="M48 28.267C48 25.5327 46.6222 23.3752 43.9889 23.3752C41.3444 23.3752 39.7444 25.5327 39.7444 28.2457C39.7444 31.4606 41.6333 33.0841 44.3444 33.0841C45.6667 33.0841 46.6667 32.7957 47.4222 32.3899V30.2537C46.6667 30.6168 45.8 30.8411 44.7 30.8411C43.6222 30.8411 42.6667 30.478 42.5444 29.2176H47.9778C47.9778 29.0788 48 28.5234 48 28.267ZM42.5111 27.2523C42.5111 26.0454 43.2778 25.5434 43.9778 25.5434C44.6556 25.5434 45.3778 26.0454 45.3778 27.2523H42.5111ZM35.4556 23.3752C34.3667 23.3752 33.6667 23.8665 33.2778 24.2083L33.1333 23.5461H30.6889V36L33.4667 35.4339L33.4778 32.4112C33.8778 32.6889 34.4667 33.0841 35.4444 33.0841C37.4333 33.0841 39.2444 31.5461 39.2444 28.1602C39.2333 25.0628 37.4 23.3752 35.4556 23.3752ZM34.7889 30.7343C34.1333 30.7343 33.7444 30.51 33.4778 30.2323L33.4667 26.2697C33.7556 25.9599 34.1556 25.7463 34.7889 25.7463C35.8 25.7463 36.5 26.8358 36.5 28.235C36.5 29.6662 35.8111 30.7343 34.7889 30.7343ZM26.8667 22.745L29.6556 22.1682V20L26.8667 20.5661V22.745ZM26.8667 23.5567H29.6556V32.9025H26.8667V23.5567ZM23.8778 24.3471L23.7 23.5567H21.3V32.9025H24.0778V26.5688C24.7333 25.7463 25.8444 25.8959 26.1889 26.0134V23.5567C25.8333 23.4286 24.5333 23.1936 23.8778 24.3471ZM18.3222 21.239L15.6111 21.7944L15.6 30.3498C15.6 31.9306 16.8333 33.0948 18.4778 33.0948C19.3889 33.0948 20.0556 32.9346 20.4222 32.7423V30.5741C20.0667 30.713 18.3111 31.2043 18.3111 29.6235V25.8318H20.4222V23.5567H18.3111L18.3222 21.239ZM10.8111 26.2697C10.8111 25.8531 11.1667 25.6929 11.7556 25.6929C12.6 25.6929 13.6667 25.9386 14.5111 26.3765V23.8665C13.5889 23.514 12.6778 23.3752 11.7556 23.3752C9.5 23.3752 8 24.5073 8 26.3979C8 29.3458 12.2222 28.8758 12.2222 30.1469C12.2222 30.6382 11.7778 30.7984 11.1556 30.7984C10.2333 30.7984 9.05556 30.4352 8.12222 29.9439V32.486C9.15556 32.9132 10.2 33.0948 11.1556 33.0948C13.4667 33.0948 15.0556 31.9947 15.0556 30.0828C15.0444 26.8999 10.8111 27.466 10.8111 26.2697Z" fill="#635BFF"/>
</svg>
