<svg width="56" height="56" viewBox="0 0 56 56" fill="none" xmlns="http://www.w3.org/2000/svg">
<rect width="56" height="56" rx="28" fill="#0052FF"/>
<g clip-path="url(#clip0_444_278)">
<path fill-rule="evenodd" clip-rule="evenodd" d="M23.7164 34.6865C24.9787 35.5141 26.4496 35.9695 27.9598 36C31.1678 36 35.9799 32.8 35.9799 29.6H44C43.5885 33.6842 41.6191 37.4545 38.499 40.1309C35.379 42.8075 31.3471 44.1854 27.2372 43.9799C23.1272 43.7744 19.2537 42.0012 16.4176 39.0268C13.5816 36.0525 12 32.1048 12 28C12 23.8952 13.5816 19.9475 16.4176 16.9732C19.2537 13.9988 23.1272 12.2256 27.2372 12.0201C31.3471 11.8146 35.379 13.1926 38.499 15.8691C41.6191 18.5455 43.5885 22.3158 44 26.4H35.9799C35.6775 24.9237 34.9633 23.5627 33.9195 22.4735C32.8756 21.3844 31.5447 20.6115 30.0798 20.2436C28.6149 19.8758 27.0757 19.9282 25.6395 20.3947C24.2031 20.8611 22.928 21.7227 21.961 22.8802C20.994 24.0377 20.3743 25.4441 20.1733 26.9375C19.9724 28.4308 20.1984 29.9505 20.8252 31.3213C21.452 32.6923 22.4542 33.8588 23.7164 34.6865Z" fill="white"/>
</g>
<defs>
<clipPath id="clip0_444_278">
<rect width="32" height="32" fill="white" transform="translate(12 12)"/>
</clipPath>
</defs>
</svg>
