<svg width="57" height="56" viewBox="0 0 57 56" fill="none" xmlns="http://www.w3.org/2000/svg">
<rect width="56.4194" height="56" rx="28" fill="#F0F4FF"/>
<path d="M17.7047 29.2907C17.611 29.1582 17.5875 28.9884 17.6415 28.8354C19.1931 24.4441 23.3419 21.5059 27.9997 21.5L28.0017 21.5C30.8693 21.5082 33.6199 22.6355 35.6681 24.6418C35.8133 24.784 35.858 24.9999 35.7812 25.188C35.7044 25.3761 35.5214 25.499 35.3183 25.499H29.4988C28.9507 25.499 28.4998 25.9411 28.4998 26.502C28.4998 26.8483 28.6722 27.1488 28.9344 27.3271C28.6692 27.1453 28.5018 26.8393 28.5018 26.502C28.5018 25.9682 28.924 25.5 29.4998 25.5H36.2196C36.3722 25.5 36.5164 25.5697 36.6113 25.6892C37.3611 26.6341 37.9505 27.6959 38.3556 28.832C38.4103 28.9852 38.387 29.1553 38.2933 29.2881C38.1999 29.4206 38.0481 29.4996 37.8861 29.5H38.1835C38.284 29.5 38.3787 29.5299 38.4582 29.5822C39.9521 28.0933 40.943 26.7488 41.3322 25.7205C41.5591 25.1208 41.5242 24.7844 41.4605 24.6224C41.4102 24.4947 41.2793 24.3178 40.8624 24.1798C40.4659 24.0486 39.8475 23.9883 39.0102 24.0501C38.1813 24.1113 37.1707 24.2895 36.0088 24.6073C35.8409 24.6532 35.6612 24.6085 35.5343 24.4893C35.2526 24.2244 34.9535 23.9769 34.6413 23.7403C34.4909 23.6264 34.4175 23.4375 34.4514 23.2519C34.4853 23.0664 34.6208 22.9157 34.8017 22.8623L35.0067 22.8017C35.0067 22.8017 35.0067 22.8017 35.0068 22.8017C36.6804 22.3073 38.1818 22.026 39.4461 22.0059C40.2055 21.9939 40.8953 22.0759 41.492 22.2734L17.7047 29.2907ZM17.7047 29.2907C17.7985 29.4232 17.9507 29.502 18.113 29.502H17.8132C17.5837 29.502 17.3836 29.6582 17.328 29.8809C17.1143 30.7369 17.0044 31.6155 17.0007 32.4979L17.0008 32.5133C17.0055 32.6888 17.0144 32.8641 17.0274 33.0391C17.0469 33.3001 17.2643 33.502 17.526 33.502L24.5027 33.502H17.6237C17.4747 33.502 17.3335 33.5684 17.2385 33.6832C17.1435 33.7979 17.1047 33.9491 17.1325 34.0954C17.162 34.2505 17.1921 34.4016 17.2199 34.5416C17.226 34.5721 17.2319 34.6021 17.2377 34.6314M17.7047 29.2907L17.2377 34.6314M17.2377 34.6314C17.6661 36.7952 18.7335 38.7731 20.2918 40.3148C18.1587 40.9303 16.4986 41.1063 15.4783 40.9112C14.8961 40.7999 14.6746 40.6074 14.5883 40.4783L14.5883 40.4781C14.5047 40.3531 14.432 40.1331 14.5513 39.6528L14.5513 39.6527C14.781 38.7277 15.633 37.378 17.2337 35.7269C17.355 35.6017 17.4024 35.4224 17.3587 35.2536C17.2623 34.8814 17.1809 34.5124 17.1249 34.1429C17.0967 33.9571 16.9668 33.8028 16.7886 33.7434C16.6104 33.684 16.4139 33.7295 16.28 33.8612C14.3049 35.803 13.0041 37.6256 12.6198 39.1735L13.1051 39.2939L12.6198 39.1735C12.4076 40.0281 12.4572 40.89 12.9343 41.6047L12.9344 41.6048C13.4097 42.3168 14.1965 42.7119 15.0952 42.8837C16.8676 43.2225 19.3512 42.7634 21.9393 41.9053C22.3397 41.7725 22.7481 41.6284 23.1634 41.4734C23.0051 41.554 22.9 41.7139 22.891 41.8941C22.8811 42.0933 22.9905 42.2793 23.1694 42.3675C24.6721 43.1078 26.3241 43.4952 27.9994 43.5L28.0024 43.5C28.3514 43.4988 28.6999 43.481 29.0469 43.4468C29.3027 43.4216 29.4977 43.2066 29.4979 42.9496L29.498 42.8121C29.501 42.9576 29.5672 43.0947 29.6798 43.1875C29.7951 43.2826 29.9469 43.3211 30.0935 43.2925C32.6767 42.7889 34.9936 41.3758 36.6239 39.3097C36.7426 39.1593 36.7649 38.9543 36.6813 38.7819C36.5977 38.6095 36.423 38.5 36.2314 38.5H36.9218C37.0952 38.5 37.2562 38.4102 37.3473 38.2627C38.3304 36.6702 38.891 34.8532 38.976 32.9836C38.9851 32.7841 38.8745 32.5982 38.6947 32.511C38.5323 32.4323 38.3416 32.4477 38.1949 32.5478C38.3997 32.3701 38.5997 32.1928 38.7948 32.0159C40.9338 30.0763 42.5471 28.1308 43.1913 26.4289L42.7236 26.252L43.1913 26.4289C43.5234 25.5514 43.6233 24.667 43.312 23.8756C42.996 23.0722 42.34 22.554 41.492 22.2734L17.2377 34.6314ZM14.1725 40.7559C14.3602 41.0371 14.728 41.2769 15.3844 41.4023C16.5674 41.6285 18.4216 41.4011 20.7145 40.7115L14.1725 40.7559ZM14.1725 40.7559C13.9846 40.4746 13.9261 40.0957 14.066 39.5322L14.1725 40.7559ZM30.8016 37.7858C31.7872 37.2077 32.7402 36.6086 33.651 35.9971C32.7417 36.6082 31.7897 37.207 30.8035 37.7855C29.9256 38.3005 29.049 38.7828 28.1814 39.2303C29.0489 38.7824 29.9252 38.2999 30.8016 37.7858ZM29.4998 27.5L29.4988 27.5C29.4992 27.5 29.4995 27.5 29.4998 27.5ZM22.4997 30.5029C22.4997 29.9654 22.0764 29.5036 21.5048 29.502L21.5086 29.5019C22.0452 29.4945 22.4997 29.9369 22.4997 30.5029C22.4997 30.5231 22.5003 30.5431 22.5015 30.563C22.5003 30.5431 22.4997 30.5231 22.4997 30.5029ZM32.4957 29.5L32.492 29.5C31.9558 29.5074 31.5008 29.0645 31.5008 28.498C31.5008 29.0343 31.9228 29.4983 32.4957 29.5ZM25.5007 32.5C25.5007 32.2528 25.4109 32.0225 25.2585 31.8455C25.4094 32.0196 25.5008 32.2475 25.5008 32.5C25.5008 32.7559 25.4071 32.9868 25.2532 33.1623C25.4092 32.9829 25.5007 32.7485 25.5007 32.5ZM30.4999 40.499L30.4989 40.499C30.4992 40.499 30.4995 40.499 30.4999 40.499ZM32.7631 40.1441C32.911 39.9676 32.9979 39.7404 32.9979 39.498C32.9979 39.3798 33.0186 39.2661 33.0566 39.1605C33.0199 39.2651 32.9999 39.3785 32.9999 39.498C32.9999 39.7433 32.9111 39.9692 32.7631 40.1441ZM33.998 38.5H33.9979H33.998Z" fill="#E7E1FF" stroke="#5F2CED" stroke-miterlimit="10" stroke-linecap="round" stroke-linejoin="round"/>
<path d="M27.8172 13.0342L16.318 17.5332C15.9359 17.6825 15.8862 18.2029 16.2331 18.4219C16.3223 18.4776 16.4115 18.5331 16.5007 18.5889V22C16.2237 22 16.0007 22.223 16.0007 22.5V25C16.0007 25.277 16.2237 25.5 16.5007 25.5H17.5007C17.7777 25.5 18.0007 25.277 18.0007 25V22.5C18.0007 22.223 17.7777 22 17.5007 22V19.2148C18.5003 19.8403 19.4999 20.4657 20.4997 21.0908C20.4998 20.5665 20.4994 20.0426 20.5007 19.5195C20.4998 19.3697 20.5661 19.2275 20.6814 19.1318C22.7416 17.4308 25.3222 16.5007 28.0018 16.5C30.6814 16.5007 33.2599 17.4308 35.3202 19.1318C35.4355 19.2275 35.5018 19.3698 35.5009 19.5195C35.5022 20.0426 35.5019 20.5665 35.5019 21.0908C36.9243 20.2016 38.3463 19.3114 39.7686 18.4219C40.1155 18.2029 40.0658 17.6824 39.6836 17.5332L28.1844 13.0342C28.1297 13.0118 28.0565 13.0001 28.0003 13C27.9444 13.0001 27.8719 13.0114 27.8172 13.0342ZM27.9969 17.5C25.5964 17.5 23.3046 18.3304 21.5007 19.7598V23.0137C23.3154 21.7633 25.5844 20.998 28.0008 20.998C30.4139 20.998 32.65 21.7416 34.5009 23.0146V19.7588C32.6781 18.3145 30.37 17.5 27.9969 17.5Z" fill="#5F2CED"/>
</svg>
