<svg width="56" height="56" viewBox="0 0 56 56" fill="none" xmlns="http://www.w3.org/2000/svg">
<rect width="56" height="56" rx="28" fill="#F0F4FF"/>
<path d="M28.1406 18.4853L18.1323 40.6028C18.1323 40.6028 21.3667 44.0622 28.3558 44.2591C35.3448 44.4559 38.5131 40.6028 38.5131 40.6028L29.0828 18.4966C29.0437 18.4047 28.9786 18.3261 28.8956 18.2705C28.8126 18.2149 28.7153 18.1847 28.6154 18.1835C28.5155 18.1823 28.4174 18.2102 28.3331 18.2638C28.2488 18.3174 28.1819 18.3944 28.1406 18.4853Z" fill="#5F2CED"/>
<path d="M32.2652 12.9151C32.2652 12.8223 32.2568 12.7281 32.2498 12.6339C32.223 12.2781 32.0866 11.838 31.7323 11.7986C31.4651 11.7691 31.2457 11.9969 31.0854 12.2106C30.7462 12.6656 30.4598 13.1577 30.2318 13.6773C30.0912 13.1753 30.1404 12.6451 30.1066 12.1305C30.0644 11.492 29.8254 10.6314 29.073 10.5386C28.2715 10.4416 27.7835 11.3444 27.626 12.0053C27.4952 12.5551 27.6119 13.1303 27.5023 13.6661C27.1374 13.1294 26.7276 12.6246 26.2774 12.1572C25.961 11.8211 25.4027 11.343 25.0357 11.9012C24.9477 12.0558 24.8962 12.2285 24.8852 12.4061C24.7207 13.7631 25.1412 15.078 25.7852 16.2578C26.1062 16.8365 26.4616 17.3953 26.8498 17.9312C27.4024 18.7033 27.6035 19.2109 28.6329 19.2953C28.8577 19.3268 29.0861 19.3215 29.3093 19.2798C29.6777 19.1912 29.8788 18.858 30.0813 18.5655C31.2626 16.8639 32.3355 15.0625 32.2652 12.9151ZM39.5749 40.0501C39.2177 39.3695 38.0716 38.9069 37.391 39.3611C37.2748 39.4438 37.1829 39.5562 37.125 39.6866C37.0671 39.817 37.0453 39.9605 37.0619 40.1022C36.767 40.0874 36.4714 40.1087 36.1816 40.1655C35.833 40.2183 35.4933 40.3186 35.1719 40.4636C34.6966 40.7012 34.3957 41.1569 34.203 41.6378C33.6813 41.6378 33.1132 41.6125 32.6323 41.8262C32.1913 42.0317 31.816 42.3554 31.548 42.7614C31.1471 42.5601 30.6942 42.486 30.2501 42.5491C29.8184 42.6345 29.4196 42.8402 29.0998 43.1425C28.6413 42.6306 27.9621 42.3676 27.2913 42.265C26.7485 42.182 26.0257 42.2214 25.6938 42.6869C25.2543 42.2038 24.6817 41.8615 24.0482 41.7031C23.4146 41.5448 22.7483 41.5773 22.1332 41.7967C21.8154 41.005 20.9294 40.6239 20.1012 40.7617C19.8621 39.963 19.398 39.0826 18.4404 39.1305C17.9173 39.1572 17.3576 39.4117 17.1157 39.8997C17.0032 40.128 16.9524 40.3818 16.9681 40.6359C16.9839 40.8899 17.0658 41.1354 17.2057 41.3481C17.3666 41.5707 17.5779 41.7521 17.8223 41.8774C18.0667 42.0028 18.3373 42.0686 18.6119 42.0695C18.6455 42.284 18.7238 42.489 18.8418 42.6712C18.9598 42.8533 19.1148 43.0087 19.2968 43.127C19.7313 43.4251 20.2812 43.4983 20.7944 43.4912C21.3316 44.5037 22.7069 44.9298 23.7293 44.4334C23.8676 44.6441 24.0475 44.8243 24.2578 44.9631C24.4682 45.1019 24.7046 45.1963 24.9527 45.2406C25.5588 45.3559 26.1649 45.2055 26.7162 44.9523C27.0731 45.3656 27.5781 45.6222 28.1224 45.6667C28.4051 45.6843 28.6883 45.6434 28.9545 45.5467C29.2206 45.4499 29.464 45.2993 29.6693 45.1042C30.1965 45.4157 30.8139 45.539 31.4204 45.4539C32.0269 45.3689 32.5865 45.0805 33.0077 44.6359C33.3794 44.7811 33.7818 44.8299 34.1774 44.7778C34.573 44.7257 34.949 44.5743 35.2704 44.3378C35.4435 44.2041 35.5981 44.048 35.7302 43.8737C35.7905 43.7779 35.8743 43.699 35.9735 43.6445C36.1014 43.6056 36.2351 43.5889 36.3687 43.5953C36.8805 43.5855 37.3795 43.4336 37.8101 43.1566C38.0051 43.0244 38.1708 42.8536 38.2971 42.6548C38.4234 42.4559 38.5075 42.2333 38.5441 42.0006C38.8832 41.8271 39.1733 41.5713 39.3879 41.2567C39.6241 40.8981 39.7873 40.4551 39.5749 40.0501Z" fill="#5F2CED"/>
<path d="M21.1474 33.9386L19.7285 37.1406C19.7285 37.1406 22.8546 39.5214 28.391 39.5594C33.9274 39.5973 36.8693 36.7469 36.8693 36.7469L35.6712 33.9344C35.6712 33.9344 33.4662 36.0212 28.391 35.9031C23.3159 35.785 21.1474 33.9386 21.1474 33.9386ZM23.7391 28.1406L22.5466 30.7773C22.5466 30.7773 25.781 32.0992 28.8551 32.0078C30.7345 31.9417 32.5742 31.4493 34.2354 30.5678L33.1582 28.0366C33.1582 28.0366 32.0515 28.9998 28.8551 29.0645C25.6587 29.1292 23.7391 28.1406 23.7391 28.1406ZM26.411 22.375L25.5673 24.2523C25.5673 24.2523 26.1438 25.2747 28.6413 25.3281C31.1388 25.3816 31.714 24.6447 31.714 24.6447L30.8055 22.517C30.8055 22.517 30.7395 23.1231 28.8143 23.0922C26.8891 23.0612 26.411 22.375 26.411 22.375Z" fill="white"/>
</svg>
