<svg width="56" height="56" viewBox="0 0 56 56" fill="none" xmlns="http://www.w3.org/2000/svg">
<rect width="56" height="56" rx="28" fill="#F0F4FF"/>
<path d="M23.7446 13.1462L38.7578 14.9684V41.0316L23.7446 42.3756V13.1462Z" fill="white"/>
<path d="M38.7419 13.8315L23.6331 12.1368C23.4841 12.1203 23.3333 12.1356 23.1906 12.1815C23.0478 12.2275 22.9165 12.3031 22.8051 12.4035C22.6937 12.5038 22.6048 12.6266 22.5442 12.7638C22.4837 12.901 22.4528 13.0494 22.4537 13.1993V14.1874H17.375C17.0932 14.1874 16.823 14.2994 16.6237 14.4986C16.4244 14.6979 16.3125 14.9682 16.3125 15.2499V40.7499C16.3125 41.0317 16.4244 41.302 16.6237 41.5012C16.823 41.7005 17.0932 41.8124 17.375 41.8124H22.4537V42.8165C22.4537 43.0983 22.5657 43.3685 22.7649 43.5678C22.9642 43.7671 23.2345 43.879 23.5162 43.879C23.6225 43.879 38.625 42.1896 38.7419 42.179C39.003 42.1501 39.2441 42.0255 39.4187 41.8293C39.5933 41.6331 39.6891 41.3792 39.6875 41.1165V14.8834C39.6865 14.6225 39.5895 14.3712 39.4152 14.1772C39.2408 13.9833 39.0011 13.8602 38.7419 13.8315ZM18.4375 39.6874V16.3124H22.4537V39.6874H18.4375ZM37.5625 40.1762L24.5787 41.6159V14.384L37.5625 15.8343V40.1762Z" fill="#5F2CED"/>
<path d="M28 30.4224C28.2818 30.4224 28.552 30.3105 28.7513 30.1112C28.9506 29.9119 29.0625 29.6417 29.0625 29.3599V26.6399C29.0625 26.3581 28.9506 26.0878 28.7513 25.8886C28.552 25.6893 28.2818 25.5774 28 25.5774C27.7182 25.5774 27.448 25.6893 27.2487 25.8886C27.0494 26.0878 26.9375 26.3581 26.9375 26.6399V29.3599C26.9375 29.6417 27.0494 29.9119 27.2487 30.1112C27.448 30.3105 27.7182 30.4224 28 30.4224Z" fill="#5F2CED"/>
</svg>
