<svg width="56" height="56" viewBox="0 0 56 56" fill="none" xmlns="http://www.w3.org/2000/svg">
<rect width="56" height="56" rx="28" fill="#F0F4FF"/>
<g clip-path="url(#clip0_448_511)">
<path d="M40.7741 15.2227C37.548 11.9956 33.0891 10 28.1656 10C23.2408 10 18.7825 11.9956 15.5554 15.2227C12.3277 18.4498 10.332 22.9087 10.332 27.8329C10.332 32.7571 12.3277 37.216 15.5548 40.4431C18.7818 43.6709 23.2408 45.6658 28.1656 45.6658C33.0898 45.6658 37.5487 43.6692 40.7748 40.4431C44.0019 37.2153 45.9975 32.7571 45.9975 27.8329C45.9975 22.9087 44.0012 18.4498 40.7741 15.2227ZM40.1859 39.8535C37.1099 42.9298 32.8595 44.8327 28.1649 44.8327C23.4703 44.8327 19.2196 42.9298 16.1433 39.8535C13.067 36.7772 11.1641 32.5272 11.1641 27.8329C11.1641 23.1383 13.067 18.8883 16.1433 15.812C19.2196 12.7357 23.4697 10.8328 28.1643 10.8328C32.8589 10.8328 37.1089 12.7357 40.1852 15.812C43.2615 18.8883 45.1641 23.1383 45.1641 27.8329C45.1648 32.5272 43.2618 36.7775 40.1859 39.8535Z" fill="#5F2CED"/>
<path d="M43.5056 27.6844C43.4254 19.2801 36.5885 12.4917 28.1655 12.4917C19.7419 12.4917 12.9042 19.2808 12.8254 27.6851L19.8597 20.6508L22.2187 23.0098L17.0711 28.1575H39.2596L34.112 23.0098L36.471 20.6508L43.5056 27.6844ZM28.1648 25.0482L21.6285 18.1892H25.9722V14.8083C25.9722 13.9307 26.9592 13.2114 28.1648 13.2114C29.3705 13.2114 30.3574 13.93 30.3574 14.8083V18.1892H34.7012L28.1648 25.0482Z" fill="#5F2CED"/>
<path d="M30.0715 36.4666C29.723 36.2401 29.2815 36.0363 28.749 35.8594C28.3418 35.7191 28.0066 35.5867 27.7451 35.459C27.4856 35.3326 27.294 35.1924 27.1714 35.0443C27.0458 34.8935 26.987 34.7128 26.987 34.5057C26.987 34.3399 27.0369 34.1823 27.1439 34.0332C27.2489 33.8845 27.4129 33.7605 27.6357 33.6668C27.8609 33.5717 28.1475 33.5204 28.5034 33.5187C28.7901 33.5201 29.0519 33.5432 29.2886 33.5843C29.5226 33.6267 29.7302 33.678 29.9078 33.7368C30.0878 33.7975 30.2331 33.8549 30.3476 33.9089L30.7436 32.7148C30.5042 32.5946 30.2043 32.4948 29.8402 32.4139C29.5311 32.3457 29.1772 32.3063 28.7755 32.2927V31.0571H27.687V32.3545C27.5124 32.3827 27.345 32.4207 27.1867 32.4666C26.7863 32.5848 26.4423 32.7488 26.1577 32.9631C25.8754 33.1764 25.6567 33.426 25.5066 33.712C25.3558 33.9979 25.2814 34.3131 25.2784 34.652C25.2804 35.0443 25.3833 35.39 25.5861 35.6886C25.7888 35.9874 26.0779 36.2466 26.4511 36.4687C26.8226 36.6901 27.2662 36.881 27.779 37.0416C28.1638 37.1649 28.4776 37.2936 28.7167 37.4257C28.9562 37.5572 29.1314 37.7022 29.2404 37.8604C29.3518 38.0187 29.4068 38.2021 29.4048 38.4072C29.4048 38.6324 29.3386 38.8277 29.2095 38.9965C29.0818 39.1629 28.893 39.2937 28.6447 39.3864C28.3965 39.4801 28.0935 39.526 27.7383 39.529C27.4492 39.527 27.1691 39.5022 26.8957 39.4553C26.6243 39.4064 26.3696 39.3432 26.1349 39.2645C25.8979 39.1857 25.6907 39.1001 25.5107 39.0043L25.1279 40.248C25.3011 40.3431 25.5171 40.4287 25.7817 40.5075C26.0463 40.5869 26.3373 40.6501 26.6562 40.6983C26.9728 40.7452 27.2981 40.769 27.6289 40.772L27.687 40.7714V42.0487H28.7755V40.6688C28.9137 40.642 29.0451 40.61 29.1701 40.573C29.6069 40.4416 29.9696 40.2623 30.2566 40.0327C30.5456 39.8051 30.7596 39.5416 30.9015 39.2444C31.0428 38.9472 31.1134 38.6328 31.1134 38.2979C31.1134 37.9056 31.0295 37.5585 30.8563 37.26C30.6814 36.9588 30.4213 36.6949 30.0715 36.4666Z" fill="#5F2CED"/>
</g>
<defs>
<clipPath id="clip0_448_511">
<rect width="36" height="36" fill="white" transform="translate(10 10)"/>
</clipPath>
</defs>
</svg>
