<svg xmlns="http://www.w3.org/2000/svg" width="64" height="64" viewBox="0 0 64 64" fill="none">
  <path d="M57.6 0H6.4C2.86538 0 0 2.86538 0 6.4V57.6C0 61.1346 2.86538 64 6.4 64H57.6C61.1346 64 64 61.1346 64 57.6V6.4C64 2.86538 61.1346 0 57.6 0Z" fill="#DD1F13"/>
  <path d="M38.4577 22.6325L23.8412 14.1936C21.1262 12.6261 17.7324 14.5855 17.7324 17.7205V27.5445C17.7324 30.6795 21.1262 32.639 23.8412 31.0714L38.4577 22.6325ZM45.4057 37.3561C49.5288 34.9756 49.5287 29.0244 45.4055 26.6439C44.9759 26.3959 44.4467 26.3959 44.017 26.644L20.2252 40.3802C18.6827 41.2709 17.7324 42.9167 17.7324 44.698C17.7324 48.5359 21.887 50.9346 25.2108 49.0156L45.4057 37.3561Z" fill="white"/>
</svg>