<svg width="56" height="56" viewBox="0 0 56 56" fill="none" xmlns="http://www.w3.org/2000/svg">
<rect width="56" height="56" rx="28" fill="#F0F4FF"/>
<g clip-path="url(#clip0_537_845)">
<mask id="mask0_537_845" style="mask-type:luminance" maskUnits="userSpaceOnUse" x="13" y="13" width="30" height="30">
<path d="M43 13H13V43H43V13Z" fill="white"/>
</mask>
<g mask="url(#mask0_537_845)">
<mask id="mask1_537_845" style="mask-type:luminance" maskUnits="userSpaceOnUse" x="13" y="13" width="30" height="30">
<path d="M13 13H43V43H13V13Z" fill="white"/>
</mask>
<g mask="url(#mask1_537_845)">
<path d="M21.3367 23.891L13.8789 42.1211L32.109 34.6633C29.623 29.9677 26.0323 26.377 21.3367 23.891Z" fill="white" stroke="#5E2CED" stroke-miterlimit="10" stroke-linecap="round" stroke-linejoin="round"/>
<path d="M41.1306 15.7615L40.1455 18.6665L41.9801 21.1248C42.3288 21.5921 41.9903 22.2564 41.4073 22.2489L38.3401 22.2097L36.569 24.7142C36.2323 25.1902 35.4959 25.0736 35.3229 24.5169L34.4124 21.5877L31.4831 20.6771C30.9264 20.5041 30.8097 19.7677 31.2858 19.4311L33.7902 17.6599L33.751 14.5927C33.7436 14.0097 34.4079 13.6712 34.8751 14.0199L37.3336 15.8545L40.2385 14.8694C40.7906 14.6821 41.3179 15.2093 41.1306 15.7615Z" fill="#5E2CED"/>
<path d="M30.1895 25.8105L34.4123 21.5877" stroke="#5E2CED" stroke-miterlimit="10" stroke-linecap="round" stroke-linejoin="round"/>
<path d="M41.6062 31.1966C40.9197 31.883 39.8068 31.883 39.1203 31.1966C38.4338 30.5101 38.4338 29.3971 39.1203 28.7107C39.8068 28.0242 40.9197 28.0242 41.6062 28.7107C42.2927 29.3971 42.2927 30.5101 41.6062 31.1966Z" fill="white" stroke="#5E2CED" stroke-miterlimit="10" stroke-linecap="round" stroke-linejoin="round"/>
<path d="M24.8029 14.3938C24.1165 15.0803 24.1165 16.1932 24.8029 16.8797C25.4894 17.5662 26.6024 17.5662 27.2888 16.8797C27.9753 16.1932 27.9753 15.0803 27.2888 14.3938C26.6024 13.7073 25.4894 13.7073 24.8029 14.3938Z" fill="white" stroke="#5E2CED" stroke-miterlimit="10" stroke-linecap="round" stroke-linejoin="round"/>
<path d="M38.91 28.9684C37.1973 28.2269 35.1353 28.5527 33.7344 29.9536" stroke="#5E2CED" stroke-miterlimit="10" stroke-linecap="round" stroke-linejoin="round"/>
<path d="M27.0312 17.09C27.7727 18.8027 27.4469 20.8646 26.0459 22.2656" stroke="#5E2CED" stroke-miterlimit="10" stroke-linecap="round" stroke-linejoin="round"/>
</g>
</g>
</g>
<defs>
<clipPath id="clip0_537_845">
<rect width="30" height="30" fill="white" transform="translate(13 13)"/>
</clipPath>
</defs>
</svg>
