<svg width="58" height="56" viewBox="0 0 58 56" fill="none" xmlns="http://www.w3.org/2000/svg">
<rect width="57.3023" height="56" rx="28" fill="#F0F4FF"/>
<g clip-path="url(#clip0_537_605)">
<path fill-rule="evenodd" clip-rule="evenodd" d="M42.7448 33.087C43.0755 32.769 43.0863 32.244 42.7683 31.9133C42.6123 31.7504 42.3964 31.6581 42.1707 31.6581L33.5571 34.4708C33.509 34.5905 33.4511 34.7063 33.3834 34.8162C32.9074 35.5905 32.03 36.0223 31.1262 35.9271C31.0761 35.9213 31.0271 35.9085 30.98 35.8889L26.8365 34.1126C26.5775 34.0017 26.4577 33.7014 26.5686 33.4423C26.6795 33.1832 26.9798 33.0635 27.2389 33.1744L31.3058 34.9173C32.0379 34.9575 32.664 34.3972 32.7042 33.665C32.717 33.4295 32.667 33.195 32.559 32.9849L24.4587 29.5138C24.0239 29.3165 23.5254 29.3175 23.0926 29.5177L19.1602 31.2302V37.6053L22.3555 36.7574C22.7461 36.6494 23.1642 36.7122 23.5067 36.9291L27.9475 39.6927C28.4568 40.0225 29.1045 40.0499 29.6394 39.7644L42.7438 33.086L42.7448 33.087Z" fill="#5E2CED"/>
<path fill-rule="evenodd" clip-rule="evenodd" d="M18.1406 39.5051V29.8276H12.3809V39.5051H18.1406ZM15.6469 31.3557C15.6469 31.6373 15.8746 31.866 16.1562 31.867C16.4379 31.867 16.6666 31.6393 16.6675 31.3576V31.3007C16.6675 31.019 16.4399 30.7904 16.1582 30.7894C15.8766 30.7894 15.6479 31.0171 15.6469 31.2987V31.3557Z" fill="#5E2CED"/>
<path d="M39.1702 22.4372C39.1702 25.2801 36.8656 27.5848 34.0226 27.5848C31.1797 27.5848 28.875 25.2801 28.875 22.4372C28.875 19.5942 31.1797 17.2896 34.0226 17.2896C36.8656 17.2896 39.1702 19.5942 39.1702 22.4372Z" fill="white" stroke="#5E2CED" stroke-width="0.5"/>
<path fill-rule="evenodd" clip-rule="evenodd" d="M34.9352 20.9983C34.9352 21.2607 35.148 21.4735 35.4104 21.4735C35.6727 21.4735 35.8855 21.2607 35.8855 20.9983C35.8845 20.1249 35.2931 19.363 34.4471 19.145V18.9798C34.4435 18.7174 34.2276 18.5077 33.9652 18.5113C33.708 18.5149 33.5003 18.7225 33.4967 18.9798V19.145C32.473 19.4079 31.8563 20.4508 32.1192 21.4745C32.2928 22.1506 32.8206 22.6785 33.4967 22.852V24.711C33.1956 24.54 33.0097 24.2208 33.0091 23.8747C33.0128 23.6123 32.8031 23.3964 32.5407 23.3928C32.2783 23.3892 32.0624 23.5989 32.0588 23.8613C32.0588 23.866 32.0588 23.8701 32.0588 23.8747C32.0598 24.7482 32.6512 25.51 33.4967 25.7285V25.8938C33.5003 26.1562 33.7162 26.3659 33.9786 26.3623C34.2358 26.3586 34.4435 26.151 34.4471 25.8938V25.7285C35.4708 25.4661 36.088 24.4233 35.8256 23.3995C35.6521 22.7229 35.1237 22.1945 34.4471 22.021V20.1626C34.7482 20.333 34.9347 20.6527 34.9352 20.9988V20.9983ZM33.0091 20.9983C33.0091 21.3443 33.1956 21.6641 33.4967 21.835V20.1626C33.1961 20.3335 33.0097 20.6527 33.0091 20.9988V20.9983ZM34.9362 23.8753C34.9362 23.5292 34.7492 23.2095 34.4481 23.039V24.7115C34.7492 24.541 34.9357 24.2213 34.9362 23.8753Z" fill="#5E2CED"/>
</g>
<defs>
<clipPath id="clip0_537_605">
<rect width="30" height="30" fill="white" transform="translate(13 13)"/>
</clipPath>
</defs>
</svg>
