<svg width="57" height="56" viewBox="0 0 57 56" fill="none" xmlns="http://www.w3.org/2000/svg">
<rect width="56.2129" height="56" rx="28" fill="#F0F4FF"/>
<path d="M32.1143 28.2673C32.1143 29.7026 33.2735 30.8066 34.6535 30.8066H40.9465V25.6729H34.6535C33.2183 25.7281 32.1143 26.8321 32.1143 28.2673ZM35.4264 28.2673C35.4264 28.7089 35.0399 29.0402 34.5983 29.0402C34.1567 29.0402 33.7703 28.7089 33.7703 28.2673C33.7703 27.8257 34.1567 27.4945 34.5983 27.4945C35.0399 27.4945 35.4264 27.8257 35.4264 28.2673Z" fill="#5E2CED"/>
<path d="M34.6518 32.4628C32.3333 32.4628 30.4565 30.586 30.4565 28.2675C30.4565 25.949 32.3333 24.0722 34.6518 24.0722H40.9448V20.7049C40.9448 19.2144 39.7304 18 38.2399 18H17.7049C16.2144 18 15 19.2144 15 20.7049V35.8301C15 37.3206 16.2144 38.535 17.7049 38.535H38.2951C39.7856 38.535 41 37.3206 41 35.8301V32.4628H34.6518Z" fill="#5E2CED"/>
<path d="M24.7155 32.2974V33.6222H23.4459V32.4078C22.5627 32.3526 21.6794 32.1318 21.1826 31.8558L21.569 30.3101C22.121 30.5861 22.8939 30.9174 23.7771 30.9174C24.5499 30.9174 25.0467 30.6414 25.0467 30.0893C25.0467 29.5925 24.6051 29.2613 23.6667 28.9301C22.2314 28.4333 21.293 27.7709 21.293 26.5012C21.293 25.342 22.121 24.4036 23.5011 24.1275V22.8579H24.7707V24.0171C25.654 24.0723 26.2612 24.238 26.7028 24.4588L26.3164 25.9492C25.9852 25.7836 25.3779 25.5076 24.4395 25.5076C23.5563 25.5076 23.2803 25.894 23.2803 26.2252C23.2803 26.6668 23.7219 26.9428 24.8811 27.3845C26.4268 27.9365 27.0892 28.6541 27.0892 29.8685C27.0892 31.083 26.2612 32.0214 24.7155 32.2974Z" fill="white"/>
</svg>
