<svg width="56" height="56" viewBox="0 0 56 56" fill="none" xmlns="http://www.w3.org/2000/svg">
<rect width="56" height="56" rx="28" fill="#F0F4FF"/>
<path fill-rule="evenodd" clip-rule="evenodd" d="M13.6445 25.4819H42.3555V28.4116C41.5465 28.4116 40.8906 29.0675 40.8906 29.8765C40.8906 30.6855 41.5465 31.3413 42.3555 31.3413V34.2709C41.5465 34.2709 40.8906 34.9268 40.8906 35.7358C40.8906 36.5448 41.5465 37.2006 42.3555 37.2006V40.1303H13.6445V37.2006C14.4535 37.2006 15.1094 36.5448 15.1094 35.7358C15.1094 34.9268 14.4535 34.2709 13.6445 34.2709V31.3413C14.4535 31.3413 15.1094 30.6855 15.1094 29.8765C15.1094 29.0675 14.4535 28.4116 13.6445 28.4116V25.4819Z" fill="white" stroke="#5E2CED" stroke-miterlimit="22.9256" stroke-linecap="round" stroke-linejoin="round"/>
<path fill-rule="evenodd" clip-rule="evenodd" d="M20.2285 25.4199L36.7701 15.8696L38.2349 18.4068C37.5343 18.8113 37.2942 19.7072 37.6987 20.4078C38.1032 21.1084 38.9991 21.3485 39.6997 20.944L41.1646 23.4811C40.5092 23.8595 40.2568 24.668 40.5581 25.3443" fill="#5E2CED"/>
<path d="M21.7012 30.1694L18.7715 35.4429" stroke="#5E2CED" stroke-miterlimit="22.9256" stroke-linecap="round" stroke-linejoin="round"/>
<path d="M18.7715 30.1694H18.7727" stroke="#5E2CED" stroke-miterlimit="22.9256" stroke-linecap="round" stroke-linejoin="round"/>
<path d="M21.7012 35.4429H21.7024" stroke="#5E2CED" stroke-miterlimit="22.9256" stroke-linecap="round" stroke-linejoin="round"/>
<path d="M25.3633 25.7749V39.8374" stroke="#5E2CED" stroke-miterlimit="22.9256" stroke-linecap="round" stroke-linejoin="round"/>
<path d="M29.0254 30.1694H37.2285" stroke="#5E2CED" stroke-miterlimit="22.9256" stroke-linecap="round" stroke-linejoin="round"/>
<path d="M29.0254 32.8062H37.2285" stroke="#5E2CED" stroke-miterlimit="22.9256" stroke-linecap="round" stroke-linejoin="round"/>
<path d="M29.0254 35.4429H33.127" stroke="#5E2CED" stroke-miterlimit="22.9256" stroke-linecap="round" stroke-linejoin="round"/>
</svg>
