<svg width="57" height="57" viewBox="0 0 57 57" fill="none" xmlns="http://www.w3.org/2000/svg">
<rect width="57" height="57" rx="28.5" fill="#F0F4FF"/>
<g clip-path="url(#clip0_537_440)">
<mask id="mask0_537_440" style="mask-type:luminance" maskUnits="userSpaceOnUse" x="13" y="13" width="31" height="31">
<path d="M13 13H44V44H13V13Z" fill="white"/>
</mask>
<g mask="url(#mask0_537_440)">
<path d="M42.7891 26.1288V42.7891H14.2109V26.1288L28.5 35.6445L42.7891 26.1288Z" fill="white" stroke="#5E2CED" stroke-miterlimit="10" stroke-linecap="round" stroke-linejoin="round"/>
<path d="M19 29V17H38V29" stroke="#5E2CED" stroke-miterlimit="10" stroke-linecap="round" stroke-linejoin="round"/>
<path d="M25 24H33.2031" stroke="#5E2CED" stroke-miterlimit="22.9256" stroke-linecap="round" stroke-linejoin="round"/>
<path d="M25 26.6367H33.2031" stroke="#5E2CED" stroke-miterlimit="22.9256" stroke-linecap="round" stroke-linejoin="round"/>
<path d="M25 29.2734H29.1016" stroke="#5E2CED" stroke-miterlimit="22.9256" stroke-linecap="round" stroke-linejoin="round"/>
<path d="M37.5 21C39.433 21 41 19.433 41 17.5C41 15.567 39.433 14 37.5 14C35.567 14 34 15.567 34 17.5C34 19.433 35.567 21 37.5 21Z" fill="#5F2CED" stroke="#5F2CED" stroke-miterlimit="10"/>
<path d="M42.7894 26.1289L38.0264 22.1563" stroke="#5E2CED" stroke-miterlimit="10" stroke-linecap="round" stroke-linejoin="round"/>
<path d="M18.974 22.1563L14.2109 26.1289" stroke="#5E2CED" stroke-miterlimit="10" stroke-linecap="round" stroke-linejoin="round"/>
</g>
</g>
<defs>
<clipPath id="clip0_537_440">
<rect width="31" height="31" fill="white" transform="translate(13 13)"/>
</clipPath>
</defs>
</svg>
