<svg width="56" height="56" viewBox="0 0 56 56" fill="none" xmlns="http://www.w3.org/2000/svg">
<rect width="56" height="56" rx="28" fill="#F0F4FF"/>
<g clip-path="url(#clip0_537_758)">
<path d="M39.5 31L41 24L39.5 23L38 19H18.5L21 32.5H37L38.5 32L39.5 31Z" fill="white"/>
<path d="M18.3906 18.8594H39.4844C40.7788 18.8594 41.8281 19.9087 41.8281 21.2031C41.8281 21.3998 41.8039 21.5908 41.7583 21.7734L39.4145 30.6797" fill="white"/>
<path d="M18.3906 18.8594H39.4844C40.7788 18.8594 41.8281 19.9087 41.8281 21.2031C41.8281 21.3998 41.8039 21.5908 41.7583 21.7734L39.4145 30.6797" stroke="#5E2CED" stroke-miterlimit="10" stroke-linecap="round" stroke-linejoin="round"/>
<rect x="25.5" y="13.5" width="10" height="10" rx="5" fill="#5F2CED" stroke="#5F2CED"/>
<path d="M30.5003 15.9331V21.0664M27.9336 18.4998H33.0669" stroke="white" stroke-linecap="round"/>
<path d="M39.5571 30.1094L39.4145 30.6797C39.1598 31.6985 38.2383 32.4531 37.1406 32.4531H20.7344L17.6094 14.1719H14.1719" stroke="#5E2CED" stroke-miterlimit="10" stroke-linecap="round" stroke-linejoin="round"/>
<path d="M39.4844 37.1406H34.7969" stroke="#5E2CED" stroke-miterlimit="10" stroke-linecap="round" stroke-linejoin="round"/>
<path d="M35.5 37.1406H20.7344C19.44 37.1406 18.3906 36.0913 18.3906 34.7969C18.3906 33.5025 19.44 32.4531 20.7344 32.4531" stroke="#5E2CED" stroke-miterlimit="10" stroke-linecap="round" stroke-linejoin="round"/>
<path d="M23.0781 41.8281C24.3725 41.8281 25.4219 40.7788 25.4219 39.4844C25.4219 38.19 24.3725 37.1406 23.0781 37.1406C21.7837 37.1406 20.7344 38.19 20.7344 39.4844C20.7344 40.7788 21.7837 41.8281 23.0781 41.8281Z" fill="#CBC2FA" stroke="#5E2CED" stroke-miterlimit="10" stroke-linecap="round" stroke-linejoin="round"/>
<path d="M34.7969 41.8281C36.0913 41.8281 37.1406 40.7788 37.1406 39.4844C37.1406 38.19 36.0913 37.1406 34.7969 37.1406C33.5025 37.1406 32.4531 38.19 32.4531 39.4844C32.4531 40.7788 33.5025 41.8281 34.7969 41.8281Z" fill="#CBC2FA" stroke="#5E2CED" stroke-miterlimit="10" stroke-linecap="round" stroke-linejoin="round"/>
</g>
<defs>
<clipPath id="clip0_537_758">
<rect width="30" height="30" fill="white" transform="translate(13 13)"/>
</clipPath>
</defs>
</svg>
