<svg width="195" height="59" viewBox="0 0 195 59" fill="none" xmlns="http://www.w3.org/2000/svg">
<path d="M50.3161 26.9642C50.3161 26.4976 50.0042 26.1281 49.3999 25.8753C49.166 25.7781 48.971 25.6031 48.8346 25.4086C48.6981 25.1947 48.6201 24.942 48.6201 24.6892C48.6201 24.0669 49.088 23.5225 49.7313 23.4641L53.4158 23.0947C53.6107 23.0752 53.7861 23.153 53.9226 23.2697C54.0786 23.4058 54.215 23.6002 54.293 23.7947C54.332 23.9114 54.449 24.0086 54.5659 24.0086C54.6244 24.0086 54.6829 23.9891 54.7219 23.9697C55.5407 23.4058 56.5349 23.0947 57.5486 23.0947C58.8742 23.0947 59.9074 23.3864 60.6677 23.9697C60.7847 24.0669 60.9601 24.1253 61.1161 24.1253C61.2135 24.1253 61.311 24.1058 61.389 24.0475C62.5392 23.4058 63.8453 23.0558 65.1709 23.0752C66.8669 23.0752 68.0951 23.4836 68.8749 24.3003C69.6546 25.117 70.0445 26.342 70.0445 27.9948V33.9255C70.0445 34.3533 70.3369 34.7617 70.9218 35.1117C71.1362 35.2284 71.2922 35.4034 71.4091 35.6173C71.5261 35.8312 71.6041 36.0645 71.6041 36.3173C71.6041 36.959 71.0972 37.484 70.4539 37.484H65.6778C65.0344 37.484 64.5081 36.959 64.5081 36.3367C64.5081 35.9089 64.703 35.4811 65.0539 35.2284C65.2294 35.0728 65.3659 34.9561 65.4633 34.8589C65.5803 34.7422 65.6778 34.6061 65.7557 34.4506C65.8532 34.295 65.8922 34.12 65.8922 33.945V29.1226C65.8922 28.0337 65.7557 27.2365 65.5023 26.7503C65.2489 26.2642 64.82 26.0309 64.1962 26.0309C63.8063 26.0309 63.3774 26.2059 62.9096 26.5364C62.4612 26.8476 62.2467 27.3726 62.2467 28.0726V33.945C62.2467 34.3533 62.5197 34.7811 63.085 35.2284C63.4164 35.4811 63.6114 35.8895 63.6114 36.3173C63.6114 36.6284 63.4944 36.9201 63.2799 37.134C63.0655 37.3479 62.7731 37.4645 62.4612 37.4645H57.88C57.5681 37.4645 57.2757 37.3479 57.0612 37.134C56.8468 36.9201 56.7103 36.6284 56.7298 36.3173C56.7103 35.8895 56.9248 35.4617 57.2562 35.2089C57.8215 34.7617 58.1139 34.3533 58.1139 33.945V29.1226C58.1139 28.0337 57.9775 27.2365 57.724 26.7503C57.4706 26.2642 56.9637 25.992 56.4374 26.0309C56.028 26.0309 55.5796 26.2253 55.0923 26.5948C54.6634 26.9059 54.449 27.4309 54.449 28.1698V33.9644C54.449 34.3728 54.7219 34.82 55.2677 35.2673C55.5991 35.52 55.7941 35.9284 55.7941 36.3367C55.7941 36.6478 55.6771 36.9395 55.4627 37.1534C55.2482 37.3673 54.9558 37.5034 54.6439 37.5034H49.7898C49.1465 37.5034 48.6201 36.9784 48.6201 36.3367C48.6201 36.0645 48.6981 35.8117 48.8346 35.5978C48.971 35.3839 49.166 35.1895 49.3999 35.0922C50.0042 34.8006 50.2966 34.4311 50.2966 33.9644L50.3161 26.9642Z" fill="white"/>
<path d="M81.3902 26.6336C81.3902 26.2836 81.1953 25.9336 80.8249 25.603C80.513 25.3503 80.357 24.9614 80.357 24.5725C80.357 23.9308 80.8833 23.4058 81.5267 23.4058H86.0884C86.4003 23.4058 86.7122 23.5224 86.9266 23.7558C87.1606 23.9697 87.2775 24.2808 87.2775 24.5919C87.2775 24.8641 87.1996 25.1169 87.0631 25.3503C86.9266 25.5836 86.7122 25.7586 86.4783 25.8753C86.2053 26.0114 85.9519 26.1864 85.718 26.3614C85.523 26.517 85.3671 26.7309 85.2696 26.9836L80.1815 40.4007C80.0061 40.8868 79.7527 41.3535 79.4603 41.7813C79.1678 42.2091 78.8169 42.598 78.4076 42.948C77.5498 43.6869 76.4581 44.0953 75.3079 44.0953C74.3917 44.0953 73.6314 43.8619 73.0661 43.4147C72.5007 42.948 72.2083 42.248 72.2083 41.2952C72.1888 40.8285 72.3643 40.3618 72.6957 40.0118C73.0076 39.6812 73.4365 39.5062 73.8848 39.5062C74.2162 39.5062 74.5477 39.5646 74.8401 39.7007C75.1325 39.8174 75.4054 39.9924 75.6198 40.2257C75.7173 40.3424 75.8538 40.4396 76.0097 40.459C76.1462 40.4396 76.2632 40.3618 76.3022 40.2257C76.6531 39.5451 76.9455 38.8257 77.1989 38.1062C77.2964 37.834 77.3548 37.5423 77.3548 37.2701C77.3548 36.9589 77.2964 36.6673 77.1794 36.3756L73.5729 26.9836C73.417 26.5559 73.0076 26.1864 72.3448 25.9142C72.0914 25.7975 71.8574 25.6225 71.7015 25.3892C71.5455 25.1558 71.4675 24.8836 71.4675 24.5919C71.4675 23.9308 71.9939 23.4058 72.6567 23.4058H77.5693C77.8812 23.4058 78.1931 23.5224 78.4076 23.7558C78.6415 23.9697 78.7585 24.2808 78.7585 24.6114C78.7585 25.0391 78.583 25.4475 78.2516 25.7197C77.8617 26.0697 77.6668 26.4003 77.6668 26.7503C77.6668 26.8281 77.6863 26.9253 77.7058 27.0031L79.1483 31.1643C79.2068 31.3004 79.3433 31.3782 79.4992 31.3588C79.6552 31.3588 79.7722 31.2421 79.8501 31.0477L81.3707 26.9253C81.3902 26.8281 81.3902 26.7309 81.3902 26.6336Z" fill="white"/>
<path d="M97.0639 37.8339C96.4791 37.8339 95.9137 37.7756 95.3484 37.6589C94.744 37.5423 94.1592 37.3673 93.5939 37.1339C93.009 36.9006 92.4437 36.5895 91.8979 36.2395C91.352 35.87 90.8452 35.4422 90.3968 34.9561C89.9289 34.4505 89.5195 33.8866 89.1881 33.2838C88.8177 32.6227 88.5448 31.9227 88.3889 31.1838C88.1939 30.3476 88.0964 29.5115 88.0964 28.6559C88.0964 26.5753 88.4863 24.7669 89.2661 23.2113C90.0069 21.6946 91.1766 20.4307 92.6386 19.5945C94.1202 18.7389 95.8552 18.3112 97.8437 18.3112C98.2725 18.3112 98.6819 18.3306 99.0718 18.3695C99.4812 18.4084 99.8906 18.4667 100.3 18.5445C100.709 18.6223 101.099 18.7584 101.47 18.9334C101.821 19.1084 102.132 19.3029 102.425 19.5556C102.717 19.8084 102.951 20.1195 103.107 20.489C103.283 20.8973 103.361 21.3251 103.341 21.7724V22.4724C103.341 23.4835 102.522 24.3197 101.489 24.3197C100.456 24.3197 99.5397 23.7169 99.1498 22.7641C99.0328 22.4724 98.8574 22.2002 98.6234 22.0057C98.409 21.8113 98.1166 21.714 97.8242 21.7335C96.1866 21.7918 94.9195 22.3946 94.0227 23.5224C93.126 24.6697 92.6971 26.2447 92.7166 28.267C92.7166 28.8892 92.7751 29.5309 92.9116 30.1337C93.1065 31.0865 93.5744 31.981 94.2567 32.7005C94.5296 33.0116 94.861 33.2644 95.2314 33.4588C95.5628 33.6338 95.9137 33.7699 96.2646 33.8672C96.596 33.9644 96.9469 34.0033 97.2978 34.0033C97.9411 34.0227 98.5845 33.9449 99.2083 33.7894C99.7931 33.6144 100.358 33.3616 100.865 33.031C101.119 32.8755 101.392 32.7977 101.684 32.7977C102.093 32.7782 102.483 32.9338 102.756 33.2449C103.029 33.556 103.185 33.9449 103.166 34.3533C103.146 34.8783 102.932 35.3839 102.542 35.7339C102.113 36.2006 101.587 36.57 101.002 36.8422C100.378 37.1534 99.7151 37.3867 99.0328 37.5617C98.3895 37.7562 97.7267 37.8339 97.0639 37.8339Z" fill="white"/>
<path d="M106.441 26.8864C106.441 26.4197 106.129 26.0503 105.524 25.7975C105.29 25.7003 105.096 25.5253 104.959 25.3308C104.823 25.1169 104.745 24.8836 104.745 24.6114C104.745 23.9697 105.232 23.4447 105.856 23.3669L109.56 22.9974C109.755 22.978 109.93 23.0363 110.086 23.1724C110.262 23.3085 110.379 23.4835 110.437 23.678C110.457 23.8141 110.593 23.8919 110.729 23.8919C110.788 23.8919 110.846 23.8724 110.885 23.8336C111.626 23.2891 112.523 22.9974 113.439 22.9974C114.238 22.9974 114.862 23.2113 115.311 23.6586C115.759 24.1058 115.993 24.728 115.993 25.5058V25.8169C115.993 26.7309 115.252 27.4698 114.336 27.4698C113.673 27.4698 113.03 27.2559 112.523 26.8475C112.133 26.5559 111.821 26.4003 111.568 26.4003C111.431 26.4003 111.275 26.4392 111.158 26.5364C110.768 26.7892 110.573 27.2753 110.573 27.9753V33.8088C110.573 34.0616 110.671 34.3144 110.827 34.5089C110.983 34.7033 111.217 34.8394 111.47 34.8589C111.802 34.8978 112.094 35.0728 112.308 35.3256C112.523 35.5783 112.64 35.8895 112.64 36.22C112.64 36.8617 112.133 37.3867 111.49 37.3867C111.49 37.3867 111.49 37.3867 111.47 37.3867H105.914C105.602 37.3867 105.31 37.2701 105.096 37.0562C104.862 36.8423 104.745 36.5506 104.745 36.2395C104.745 35.9672 104.823 35.7145 104.959 35.4811C105.096 35.2478 105.31 35.0728 105.544 34.9561C106.148 34.6839 106.441 34.3144 106.441 33.8672V26.8864Z" fill="white"/>
<path d="M116.89 30.6782C116.871 29.6282 117.007 28.5976 117.299 27.5865C117.553 26.7114 117.962 25.8948 118.508 25.1753C119.073 24.4753 119.795 23.9308 120.613 23.5808C121.569 23.1725 122.582 22.978 123.616 22.9975C124.356 22.978 125.117 23.0947 125.818 23.328C126.988 23.678 127.982 24.4753 128.587 25.5253C128.879 26.0309 129.094 26.5948 129.23 27.1587C129.366 27.7615 129.425 28.3837 129.425 29.006C129.425 29.5115 129.211 29.9977 128.84 30.3477C128.47 30.7171 127.963 30.9116 127.437 30.9116H122.056C121.822 30.9116 121.608 30.9893 121.452 31.1449C121.296 31.281 121.198 31.4949 121.198 31.7088C121.237 32.1172 121.335 32.5255 121.491 32.9144C121.881 34.0422 122.738 34.6256 124.083 34.6256C124.59 34.6256 125.078 34.5672 125.565 34.4506C126.052 34.3144 126.54 34.12 126.988 33.8672C127.164 33.77 127.359 33.7311 127.534 33.7311C127.865 33.7311 128.177 33.8672 128.392 34.12C128.626 34.3728 128.743 34.7033 128.743 35.0534C128.743 35.52 128.47 35.9673 127.943 36.3756C127.339 36.8229 126.676 37.1534 125.955 37.3479C125.195 37.5812 124.415 37.6979 123.635 37.6979C121.374 37.6979 119.678 37.0951 118.547 35.9089C117.416 34.7228 116.89 32.9922 116.89 30.6782ZM122.115 28.3448L124.2 28.2087C124.415 28.2087 124.61 28.1115 124.766 27.9559C124.922 27.8198 125 27.6059 125 27.4115C125 27.2559 124.961 27.1198 124.902 26.9837C124.629 26.1087 124.103 25.6809 123.343 25.6809C122.465 25.6809 121.861 26.1864 121.51 27.1781C121.452 27.3337 121.413 27.5087 121.393 27.6837C121.393 28.0532 121.725 28.3643 122.115 28.3448Z" fill="white"/>
<path d="M140.01 22.3946V20.4113C140.01 19.9446 139.698 19.5751 139.094 19.3029C138.86 19.2057 138.665 19.0307 138.529 18.8168C138.392 18.6029 138.314 18.3501 138.314 18.0973C138.314 17.7862 138.431 17.4751 138.646 17.2417C138.86 17.0084 139.152 16.8528 139.464 16.8334L142.564 16.5417C143.012 16.5028 143.461 16.6778 143.734 17.0473C144.065 17.3973 144.24 17.864 144.221 18.3501L144.24 33.8478C144.24 34.0811 144.318 34.3144 144.494 34.4894C144.669 34.6839 144.903 34.8394 145.137 34.9367C145.391 35.0339 145.586 35.2089 145.741 35.4228C145.897 35.6367 145.975 35.9089 145.975 36.1812C145.975 36.4923 145.858 36.784 145.644 37.0173C145.43 37.2506 145.137 37.3867 144.825 37.4062L141.063 37.7173C140.868 37.7368 140.692 37.6784 140.536 37.5423C140.381 37.4062 140.244 37.2312 140.166 37.0367C140.127 36.9006 140.01 36.8034 139.874 36.8034C139.815 36.8034 139.757 36.8228 139.718 36.8423C138.938 37.3867 138.022 37.6979 137.066 37.6979C135.137 37.6979 133.635 37.0756 132.544 35.8506C131.452 34.6256 130.887 32.9144 130.887 30.7754C130.867 29.6865 131.043 28.617 131.374 27.6059C131.686 26.692 132.173 25.8559 132.797 25.1364C133.421 24.4558 134.181 23.9114 135.039 23.5613C135.975 23.1724 136.969 22.9974 137.983 22.9974C138.178 22.9974 138.373 23.0169 138.568 23.0363C138.762 23.0558 138.957 23.0752 139.152 23.0752C139.367 23.0752 139.562 23.0169 139.737 22.8808C139.913 22.7835 140.01 22.5891 140.01 22.3946ZM138.256 34.6644C138.568 34.6644 138.86 34.6061 139.152 34.5283C139.425 34.47 139.64 34.3144 139.796 34.0811C139.952 33.8478 140.03 33.5755 140.03 33.3033V26.9642C140.03 26.692 139.952 26.4392 139.776 26.2253C139.62 26.0114 139.386 25.8753 139.113 25.8559C138.977 25.8364 138.86 25.8364 138.723 25.8364C137.651 25.8364 136.813 26.2448 136.209 27.042C135.604 27.8392 135.312 28.9671 135.312 30.406C135.312 31.8255 135.546 32.8949 136.033 33.595C136.501 34.3144 137.242 34.6644 138.256 34.6644Z" fill="white"/>
<path d="M147.555 35.0145C147.613 33.6922 148.744 32.6616 150.089 32.7199C151.434 32.7783 152.448 33.9061 152.389 35.2478C152.331 36.5895 151.2 37.6006 149.855 37.5423C149.251 37.5229 148.685 37.2701 148.256 36.8423C147.788 36.3562 147.535 35.695 147.555 35.0145Z" fill="white"/>
<path d="M156.23 26.8281C156.23 26.3614 155.937 25.992 155.313 25.7392C155.08 25.6419 154.885 25.4669 154.748 25.2725C154.612 25.0586 154.534 24.8058 154.534 24.553C154.534 24.2419 154.651 23.9502 154.846 23.7363C155.041 23.503 155.333 23.3669 155.625 23.3474L159.31 22.978C159.505 22.9585 159.68 23.0363 159.817 23.153C159.973 23.2891 160.109 23.4835 160.187 23.678C160.226 23.7947 160.343 23.8919 160.46 23.8919C160.518 23.8919 160.577 23.8724 160.616 23.853C161.454 23.2891 162.429 22.978 163.443 22.978C164.768 22.978 165.801 23.2697 166.562 23.853C166.679 23.9502 166.854 24.0086 167.01 24.0086C167.108 24.0086 167.205 23.9891 167.283 23.9308C168.433 23.2891 169.739 22.9391 171.065 22.9585C172.761 22.9585 173.989 23.3669 174.769 24.1836C175.549 25.0003 175.919 26.2253 175.939 27.8781V33.8088C175.939 34.2366 176.231 34.645 176.816 34.9755C177.011 35.0922 177.186 35.2672 177.303 35.4811C177.42 35.695 177.498 35.9284 177.498 36.1811C177.498 36.8228 176.991 37.3478 176.348 37.3478H171.572C170.928 37.3478 170.402 36.8423 170.402 36.2006C170.402 35.7728 170.597 35.345 170.948 35.0922C171.123 34.9561 171.26 34.82 171.357 34.7228C171.474 34.6061 171.572 34.47 171.65 34.3339C171.747 34.1783 171.786 34.0033 171.786 33.8283V29.0059C171.786 27.917 171.65 27.1198 171.396 26.6336C171.143 26.1475 170.714 25.9142 170.09 25.9142C169.7 25.9142 169.271 26.0892 168.804 26.4197C168.355 26.7309 168.141 27.2559 168.141 27.9559V33.8283C168.141 34.2366 168.414 34.6644 168.979 35.1117C169.31 35.3644 169.505 35.7728 169.505 36.2006C169.505 36.5117 169.388 36.8034 169.174 37.0173C168.96 37.2312 168.667 37.3478 168.355 37.3478H163.774C163.462 37.3478 163.17 37.2312 162.955 37.0173C162.741 36.8034 162.624 36.5117 162.624 36.2006C162.604 35.7728 162.799 35.345 163.15 35.0922C163.716 34.645 164.008 34.2366 164.008 33.8283V29.0059C164.008 27.917 163.872 27.1198 163.618 26.6336C163.365 26.1475 162.858 25.8753 162.331 25.9142C161.922 25.9142 161.474 26.1086 160.986 26.4781C160.557 26.7892 160.343 27.3142 160.343 28.0337V33.8283C160.343 34.2366 160.616 34.6839 161.162 35.1311C161.493 35.3839 161.688 35.7922 161.688 36.2006C161.688 36.5117 161.571 36.8034 161.357 37.0173C161.142 37.2312 160.85 37.3673 160.538 37.3673H155.684C155.372 37.3673 155.08 37.2506 154.865 37.0367C154.651 36.8228 154.514 36.5311 154.514 36.22C154.514 35.9478 154.592 35.695 154.729 35.4811C154.865 35.2672 155.06 35.0922 155.294 34.9755C155.898 34.6839 156.191 34.3144 156.191 33.8477L156.23 26.8281Z" fill="white"/>
<path d="M178.629 30.6004C178.609 29.5504 178.746 28.5198 179.038 27.5087C179.292 26.6337 179.701 25.817 180.247 25.0975C180.812 24.3975 181.533 23.853 182.352 23.503C183.307 23.1141 184.321 22.9197 185.354 22.9391C186.095 22.9197 186.855 23.0363 187.557 23.2697C188.727 23.6197 189.721 24.4169 190.325 25.467C190.618 25.9725 190.832 26.5364 190.969 27.1003C191.105 27.7031 191.164 28.3254 191.164 28.9476C191.164 29.4532 190.949 29.9393 190.579 30.2893C190.208 30.6588 189.702 30.8532 189.175 30.8532H183.834C183.6 30.8532 183.385 30.931 183.229 31.0866C183.074 31.2227 182.976 31.4366 182.976 31.6505C183.015 32.0588 183.113 32.4672 183.268 32.8561C183.658 34.0033 184.516 34.5672 185.861 34.5672C186.368 34.5672 186.855 34.5283 187.343 34.3922C187.83 34.2561 188.318 34.0616 188.766 33.8089C188.941 33.7116 189.136 33.6727 189.312 33.6727C189.643 33.6727 189.955 33.8089 190.17 34.0616C190.403 34.3144 190.52 34.645 190.52 34.995C190.52 35.4617 190.247 35.9089 189.721 36.3173C189.117 36.7645 188.454 37.0951 187.733 37.2895C186.972 37.5229 186.193 37.6395 185.413 37.6395C183.151 37.6395 181.455 37.0367 180.325 35.8506C179.194 34.6644 178.629 32.9144 178.629 30.6004ZM183.853 28.267L185.939 28.1309C186.154 28.1309 186.368 28.0337 186.505 27.8781C186.661 27.742 186.738 27.5281 186.738 27.3337C186.738 27.1781 186.7 27.042 186.641 26.9059C186.368 26.0309 185.842 25.6031 185.081 25.6031C184.204 25.6031 183.6 26.1086 183.249 27.1003C183.19 27.2559 183.152 27.4309 183.132 27.6059C183.171 27.9754 183.483 28.2865 183.853 28.267C183.873 28.267 183.873 28.267 183.853 28.267Z" fill="white"/>
<path d="M36.7091 49.5399C38.1127 49.501 39.3994 46.7204 39.3214 40.1869C39.107 20.4113 38.99 17.0279 38.99 17.0279C38.951 15.5695 37.7229 14.4028 36.2608 14.4417H36.2413L9.00753 15.2389C7.54544 15.2778 6.37578 16.5029 6.41477 17.9807C6.41477 17.9807 6.47325 21.3641 7.40898 41.1202C7.72089 47.6343 9.16348 50.3372 10.5671 50.2983L36.7091 49.5399Z" fill="url(#paint0_radial_70_143)"/>
<path d="M39.2629 34.5089C39.068 18.739 38.99 17.0279 38.99 17.0279C38.951 15.5695 37.7229 14.4028 36.2608 14.4417H36.2413L9.00753 15.2389C7.54544 15.2778 6.37578 16.5028 6.41477 17.9807C6.41477 17.9807 6.43426 19.6918 7.17505 35.4812C7.29202 35.6173 7.36999 35.6756 7.36999 35.6756C7.29202 26.0115 8.38371 22.0641 8.38371 22.0641C8.38371 22.0641 9.43641 22.8419 12.9064 22.9197C20.3338 23.0753 35.9294 18.2918 35.9294 18.2918C38.9705 25.2337 39.0875 34.7617 39.0875 34.7617C39.146 34.6645 39.2044 34.5867 39.2629 34.5089Z" fill="#C9955D"/>
<path d="M34.0773 30.5615C34.1163 32.0005 32.9856 33.2061 31.543 33.245C30.1004 33.2838 28.8918 32.156 28.8528 30.7171C28.8138 29.2782 29.9445 28.0726 31.3871 28.0337C32.8297 27.9948 34.0383 29.1226 34.0773 30.5615Z" fill="#C9955D"/>
<path d="M33.7656 30.3865C33.8045 31.6699 32.7908 32.7199 31.5237 32.7588C30.2371 32.7977 29.1844 31.7866 29.1454 30.5226C29.1064 29.2393 30.1201 28.1892 31.3872 28.1503C32.6739 28.1114 33.7266 29.1031 33.7656 30.3865Z" fill="url(#paint1_radial_70_143)"/>
<path d="M35.4809 41.2758C35.5198 42.2675 34.7206 43.1036 33.7264 43.1425C32.7321 43.1814 31.8939 42.3841 31.8549 41.3924C31.8159 40.4007 32.6152 39.5646 33.6094 39.5257C34.6231 39.4868 35.4419 40.2841 35.4809 41.2758Z" fill="#F7B180"/>
<path d="M15.3236 41.8591C15.3626 42.8508 14.5633 43.6869 13.5691 43.7258C12.5749 43.7647 11.7366 42.9674 11.6977 41.9758C11.6587 40.9841 12.4579 40.1479 13.4522 40.109C14.4464 40.0701 15.2846 40.8674 15.3236 41.8591Z" fill="#F7B180"/>
<path d="M12.1072 31.2032C12.1462 32.6422 13.3548 33.77 14.7974 33.7311C16.24 33.6922 17.3707 32.4866 17.3317 31.0477C17.2927 29.6088 16.084 28.4809 14.6415 28.5198C13.1989 28.5587 12.0682 29.7643 12.1072 31.2032Z" fill="#C9955D"/>
<path d="M12.3995 31.0088C12.4385 32.2922 13.4912 33.2839 14.7778 33.2644C16.0645 33.2255 17.0587 32.1755 17.0392 30.8921C17.0197 29.6088 15.9475 28.6171 14.6609 28.6365C13.3742 28.6754 12.3605 29.7254 12.3995 31.0088Z" fill="url(#paint2_radial_70_143)"/>
<path d="M16.3571 29.7837C16.6495 30.2504 16.5326 30.8532 16.1232 31.0865C15.7138 31.3199 15.1485 31.1449 14.856 30.6588C14.5636 30.1726 14.6806 29.5893 15.09 29.3559C15.4994 29.1226 16.0647 29.2976 16.3571 29.7837Z" fill="white"/>
<path d="M33.1027 29.2976C33.3951 29.7838 33.2782 30.3671 32.8688 30.6199C32.4594 30.8727 31.8746 30.6782 31.6016 30.1921C31.3287 29.706 31.4262 29.1226 31.8356 28.8893C32.245 28.6559 32.8103 28.8115 33.1027 29.2976Z" fill="white"/>
<path d="M29.2818 41.7035C29.3208 41.9563 29.1454 42.1702 28.9114 42.2091C28.9114 42.2091 28.9114 42.2091 28.8919 42.2091C25.266 42.7341 21.601 42.8508 17.9555 42.5202C17.7021 42.5008 17.5267 42.2869 17.5462 42.0341C17.5656 41.7813 17.7801 41.6063 18.0335 41.6258C21.601 41.9369 25.2075 41.8397 28.7555 41.3146C28.9894 41.2952 29.2233 41.4702 29.2818 41.7035Z" fill="#836848"/>
<path d="M46.1248 11.311L46.1833 11.3499C46.1833 11.3499 45.8519 11.3499 45.3256 11.3499C44.0779 11.3888 41.6801 11.6027 39.8866 12.4582L40.0621 12.4194C41.8945 11.9721 42.6548 12.6333 42.6548 12.6333C42.6548 12.6333 40.5299 13.8 41.4852 16.3472C42.4404 18.8945 45.0916 30.6199 39.0873 37.0562C39.1068 36.8034 39.9646 26.7503 37.4888 19.6918H37.4693C36.7285 19.8279 20.5286 22.6863 13.1402 21.8891C9.61173 21.5196 8.55903 20.2751 8.55903 20.2751C8.55903 20.2751 7.44784 25.5447 6.68756 35.1311C6.59009 35.0145 3.23704 31.5144 3.84137 23.6975C4.46519 15.7445 6.72655 12.7694 6.72655 12.7694L7.13593 14.4805L8.6565 12.1666L9.04639 13.8972L10.7034 12.0888L10.6644 13.5083C15.2261 11.7777 19.9438 10.4554 24.7394 9.52205C28.9112 8.72481 33.4729 8.25812 37.6837 8.66647C40.8418 8.95815 43.7855 9.75539 46.2028 11.2915L46.1248 11.311Z" fill="#201A14"/>
<path d="M38.6977 12.6138C38.1908 13.3138 39.2825 13.2944 40.2572 13.0221C40.9005 12.8471 41.3489 12.6916 41.3684 12.9055C41.3879 13.0221 41.2709 13.236 41.0175 13.6055C40.9395 13.7027 40.881 13.7999 40.8226 13.8972C40.6276 14.1694 40.4717 14.4805 40.3742 14.7916C40.2377 15.2778 40.2962 15.8222 40.5107 16.8334C40.9005 18.6417 41.8753 19.7696 41.9727 24.1252C42.1482 32.5449 39.7309 35.345 39.7309 35.345C39.7309 35.345 39.7504 35.0339 39.7699 34.4505C39.8284 32.9533 39.8868 29.5893 39.5944 24.8836C39.458 22.803 38.9511 20.7613 38.0933 18.8362H38.0738C36.9237 19.089 35.8125 19.3029 34.7598 19.4973L34.6623 19.5168C9.18307 24.3586 10.2358 18.7779 7.83795 19.7501C7.83795 19.7501 7.42857 19.264 6.78525 26.1475C6.62929 27.8587 6.47334 29.9976 6.27839 32.7199C6.2589 32.9144 6.20042 32.9922 6.08345 32.9533C5.67407 32.8172 4.73833 31.1449 4.34844 27.9559C4.11451 25.992 4.25097 23.7169 4.54339 21.5974V21.5779C4.8358 19.439 5.24519 17.3195 5.81053 15.2194C6.14193 14.0916 6.47334 13.8194 6.6098 13.7222C6.68778 13.6638 6.70727 14.1888 6.76576 14.5972V14.6166C6.76576 14.6555 6.76575 14.675 6.78525 14.7139C6.80474 14.7722 6.80474 14.8305 6.82424 14.8694C6.82424 14.8889 6.84373 14.9083 6.84373 14.9083C6.84373 14.9083 6.84373 14.9083 6.84373 14.9277C6.88272 15.0444 6.9412 15.1222 7.03868 15.0833C7.17514 15.0444 7.27261 14.9472 7.35059 14.8305C7.38958 14.7916 7.40907 14.7527 7.42857 14.7139L7.46756 14.6555C7.46756 14.6361 7.48705 14.6361 7.48705 14.6361V14.6166C7.68199 14.2861 7.89643 13.9749 8.13037 13.6638C8.46177 13.3138 8.53975 13.5083 8.57874 13.8777C8.59823 14.0333 8.59823 14.2083 8.63722 14.3833V14.4416C8.63722 14.4416 8.63722 14.4416 8.63722 14.4611C8.63722 14.5388 8.67621 14.6166 8.7152 14.675C8.83217 14.7916 9.00762 14.675 9.22206 14.4027C9.31953 14.2861 9.39751 14.15 9.47548 14.0138C9.84588 13.3527 10.1773 13.0416 10.2553 13.0999C10.2748 13.1194 10.2748 13.236 10.2553 13.3527C10.2358 13.6249 10.2358 14.0138 10.6841 14.1111H10.7231C10.9181 14.1111 11.4444 13.9555 12.2632 13.6833L12.3217 13.6638C14.8754 12.8082 20.1389 10.9221 26.9035 9.89149L27.04 9.87205C27.4689 9.81371 27.8977 9.75538 28.3266 9.69704C28.3266 9.69704 35.9295 8.64701 42.2846 10.1832C43.9222 10.5721 44.6045 10.7665 44.6825 10.8443C44.741 10.9221 44.4485 10.9415 43.9612 10.961C42.5966 11.0776 39.7309 11.1943 38.6977 12.6138Z" fill="#44221B"/>
<path d="M40.2571 13.0027C40.7055 12.886 41.0759 12.7693 41.2514 12.7888C41.3293 12.7888 41.3683 12.8277 41.3683 12.886C41.3293 12.9832 41.2709 13.0805 41.2124 13.1777C41.1149 13.3721 40.9784 13.6055 40.8225 13.8777C40.6665 14.1499 40.5106 14.4611 40.3741 14.7722C39.9842 15.6472 39.7308 16.6583 40.1402 17.4361C40.9979 19.1667 42.1871 27.8198 40.6081 32.1171C40.5886 32.1755 40.1792 33.2838 39.7698 34.4116C39.8283 32.9144 39.8868 29.5504 39.5943 24.8447C39.4579 22.7641 38.951 20.7223 38.0933 18.7973H38.0738C36.9236 19.0501 35.8124 19.264 34.7597 19.4584L34.6622 19.4779C9.18299 24.3197 10.2357 18.739 7.83787 19.7112C7.83787 19.7112 7.42849 19.2251 6.78517 26.1086C6.62921 27.8587 6.47326 29.9976 6.27831 32.7199C6.25882 32.9144 6.20034 32.9921 6.08337 32.9533C5.82994 32.4477 5.6155 31.9227 5.44005 31.3782C5.2646 30.9893 5.14763 30.581 5.06966 30.1532C4.73825 28.2281 4.28988 24.6891 4.83572 21.9085C4.83572 21.9085 6.12236 14.9083 6.47326 14.7333C6.82416 14.5583 6.45376 16.3278 6.98011 16.0361C7.50646 15.7444 8.18877 14.1694 8.46169 14.2277C8.73461 14.286 8.32523 15.7444 8.7736 15.6472C9.59237 15.4722 9.65085 14.2666 10.0212 14.2083C10.3916 14.1499 10.0797 15.9 12.575 14.4027C14.5635 13.2166 31.0558 8.16087 40.2182 10.0859C40.2182 10.0859 43.0059 10.3193 44.7019 10.8832C44.7604 10.961 44.468 10.9804 43.9806 10.9998C42.616 11.0776 40.0622 12.0499 38.6976 12.8471C37.9178 13.2944 39.2824 13.2749 40.2571 13.0027Z" fill="#4E2B1F"/>
<path d="M43.1811 11.0776C43.1226 11.0582 43.0447 11.0387 42.9862 11.0193C42.7132 10.9221 42.4208 10.8637 42.1284 10.8054C41.0172 10.5915 39.4382 10.4165 39.4382 10.4165C28.8917 8.58866 12.3799 14.7138 11.5611 15.0444C11.4636 15.0833 11.3662 15.1222 11.2882 15.1416C11.2102 15.1611 11.1322 15.1805 11.0737 15.2C10.6059 15.2777 10.3914 15.0833 10.138 14.7138C9.80661 14.2277 9.61166 15.5889 8.90986 15.8416C8.20806 16.0944 8.442 14.7916 8.36402 14.5583C8.28604 14.3249 7.3698 16.3083 6.94092 16.1528C6.51205 15.9972 6.84345 14.85 6.49255 15.0444C6.14165 15.2389 4.87451 22.1807 4.87451 22.1807V22.1613C5.10845 20.0612 5.47884 17.9806 5.9662 15.9389C6.25862 14.8305 6.57053 14.5583 6.70699 14.4611C6.78497 14.4027 6.80446 14.9083 6.88244 15.3166V15.3361C6.88244 15.375 6.88244 15.3944 6.90194 15.4333C6.90194 15.4916 6.92143 15.5305 6.94092 15.5889C6.94092 15.6083 6.94092 15.6278 6.96042 15.6278C6.96042 15.6278 6.96042 15.6278 6.96042 15.6472C7.09688 15.9194 7.31132 15.725 7.44778 15.55C7.48677 15.5111 7.50626 15.4722 7.52576 15.4333L7.56475 15.375L7.58424 15.3361V15.3166C7.68171 15.0833 8.55896 13.0999 8.63694 14.5777C8.63694 14.7527 8.65644 14.9472 8.69542 15.1222C8.69542 15.1222 8.69542 15.1222 8.69542 15.1416C8.71492 15.2194 8.73441 15.2972 8.7734 15.3555C8.94885 15.6083 9.22177 15.1222 9.26076 15.0833C9.31925 14.9666 10.4694 12.6138 10.255 14.0527C10.177 14.5583 10.3719 14.7527 10.6839 14.7916H10.7228C10.7813 14.7916 10.8593 14.7916 10.9178 14.7916C10.9958 14.7916 11.0543 14.7722 11.1322 14.7527C11.5026 14.6555 11.873 14.5194 12.2239 14.3444L12.2629 14.3249C12.8867 14.1305 19.6708 11.8943 26.3574 10.3387L26.4744 10.3193C34.623 8.78311 40.4129 9.89148 42.8692 10.5721C43.415 10.7276 43.8049 10.8443 44.0194 10.9221C44.1363 10.961 44.1948 10.9804 44.1948 10.9804C44.4677 11.0971 43.7465 11.2137 43.1811 11.0776Z" fill="#7C4C2B"/>
<path d="M7.72097 19.8862C7.72097 19.8862 7.13614 20.2168 6.90221 21.3252C6.66827 22.4335 6.5708 28.6754 6.5708 28.6754C6.5708 28.6754 7.19462 20.5668 7.72097 19.8862Z" fill="#7C4C2B"/>
<path d="M40.9979 13.0999C40.9589 13.1777 40.8224 13.1777 40.7639 13.2944C39.7307 14.1694 39.3408 14.4028 38.2296 15.2194C36.4946 16.5028 34.5842 17.5528 32.5568 18.3306C26.8449 20.5279 22.6536 21.1113 19.554 20.8391C14.1345 20.3529 12.3605 17.8251 11.6392 15.8417L11.4053 15.375C12.263 17.3584 14.5634 19.8279 19.6124 20.2557C22.1857 20.4696 26.3185 20.0418 32.5957 17.8251C34.3502 17.2417 36.0268 16.4056 37.5473 15.3361C38.5416 14.6555 39.6138 13.975 40.9979 13.0999C41.0563 13.0999 40.9979 13.0222 40.9979 13.0999Z" fill="#7C4C2B"/>
<path d="M44.0585 10.9415C43.805 10.9804 43.5126 11.0193 43.1812 11.0777C42.07 11.2915 40.9783 11.6416 39.9451 12.1277C33.9018 15.1611 23.4723 19.4196 13.9785 15.4528C23.4528 18.9334 34.8181 14.4222 41.1733 11.2138C41.4852 11.0582 41.7971 10.9221 42.109 10.8054C42.3624 10.7082 42.6159 10.6304 42.8888 10.5721C43.4541 10.7276 43.844 10.8443 44.0585 10.9415Z" fill="#7C4C2B"/>
<path d="M46.164 11.3304C46.164 11.3304 42.2846 11.2332 39.7309 12.5165C33.3367 15.7639 22.8487 19.8279 13.5498 15.2972C23.453 19.2056 34.2919 14.9666 41.0565 11.5637C42.1872 11.0387 43.4153 10.6693 44.6435 10.4943C45.1698 10.747 45.6767 11.0193 46.164 11.3304Z" fill="#201A14"/>
<path d="M41.3684 12.9055C41.3294 13.0027 41.2709 13.0999 41.2125 13.1972C40.1598 14.0916 39.7699 14.325 38.6197 15.1806C36.8262 16.5028 34.8768 17.5723 32.7909 18.3695C26.9425 20.6057 22.6342 21.228 19.4567 20.9557C13.9007 20.4696 12.2047 17.7279 11.4444 15.7056L11.3665 15.4139C12.2437 17.4362 14.3491 20.0029 19.5151 20.4502C22.6927 20.7224 27.001 20.1196 32.8493 17.864C34.9158 17.0667 36.8847 15.9972 38.6782 14.675C39.6724 13.9361 40.2572 13.6055 41.2709 12.7888C41.3294 12.8083 41.3684 12.8472 41.3684 12.9055Z" fill="#201A14"/>
<path d="M15.8892 15.4528C16.8444 15.6278 17.7996 15.7445 18.7548 15.7833C19.2422 15.8028 19.7101 15.8417 20.1974 15.8417H20.9187C21.1527 15.8417 21.4061 15.8222 21.64 15.8222L22.3613 15.8028C22.5953 15.7833 22.8487 15.7639 23.0826 15.7445C23.57 15.7056 24.0378 15.6861 24.5252 15.6083C25.0126 15.55 25.4804 15.5111 25.9678 15.4333L27.3909 15.2C27.6248 15.1611 27.8588 15.1028 28.0927 15.0639L28.7945 14.9083L29.4963 14.7528C29.7302 14.6944 29.9642 14.6361 30.1981 14.5778L31.6017 14.2083L32.9858 13.7611L33.6681 13.5277C33.902 13.4499 34.1165 13.3527 34.3504 13.2749L35.6955 12.7499L36.0269 12.6138L36.3583 12.4583L37.0211 12.1666L38.3468 11.5638L37.0406 12.186L36.3778 12.4971L36.0464 12.6527L35.715 12.7888L34.3699 13.3333C34.136 13.4111 33.9215 13.5277 33.6876 13.5861L33.0053 13.8194L31.6407 14.2861L30.2371 14.675C30.0031 14.7333 29.7692 14.8111 29.5353 14.8694L28.8335 15.025L28.1317 15.1806C27.8977 15.2389 27.6638 15.2972 27.4299 15.3167L26.0068 15.55C25.5389 15.6278 25.0516 15.6667 24.5642 15.725C24.0768 15.7833 23.609 15.8028 23.1216 15.8417C22.8877 15.8611 22.6342 15.8806 22.4003 15.8806L21.679 15.9C21.4451 15.9 21.1917 15.9195 20.9577 15.9195L20.2364 15.9C19.7491 15.9 19.2617 15.8611 18.7938 15.8417C17.7996 15.7833 16.8249 15.6472 15.8892 15.4528Z" fill="#7C4C2B"/>
<path d="M38.522 13.8777C36.5141 14.9277 34.4282 15.8416 32.3033 16.6389C30.1784 17.4556 27.995 18.0973 25.7727 18.6028C23.5503 19.0695 21.2694 19.3417 18.9886 19.1278C17.8579 19.0306 16.7272 18.7584 15.6745 18.3111C14.6218 17.8639 13.6861 17.1833 12.9453 16.3278C13.7056 17.1833 14.6413 17.8445 15.7135 18.2723C16.7662 18.7 17.8774 18.9723 19.0081 19.0501C21.2694 19.264 23.5503 18.9723 25.7727 18.5056C27.995 18.0195 30.1784 17.3778 32.3033 16.5805C33.3755 16.1916 34.4282 15.7639 35.4614 15.3166C36.4946 14.8694 37.5083 14.3833 38.522 13.8777Z" fill="#7C4C2B"/>
<path d="M33.9602 11.6415C32.8101 12.0499 31.6209 12.3999 30.4123 12.6721C29.2231 12.9638 28.0144 13.2166 26.8058 13.4305C25.5971 13.6444 24.3885 13.8583 23.1603 14.0138C22.556 14.0916 21.9322 14.1499 21.3278 14.1888C21.0159 14.2083 20.704 14.2277 20.4116 14.2083C20.2556 14.2083 20.0997 14.1888 19.9437 14.1694C19.7878 14.1694 19.6318 14.1305 19.4954 14.0527C19.6318 14.1111 19.7878 14.1499 19.9437 14.1499C20.0997 14.1694 20.2556 14.1694 20.4116 14.1694C20.7235 14.1694 21.0159 14.1499 21.3278 14.1305C21.9322 14.0916 22.556 14.0138 23.1603 13.9361C23.7646 13.8583 24.369 13.761 24.9733 13.6638C25.5776 13.5666 26.182 13.4694 26.7863 13.3527C27.9949 13.1388 29.2036 12.886 30.3928 12.6138C31.6014 12.3805 32.7906 12.0499 33.9602 11.6415Z" fill="#7C4C2B"/>
<path d="M8.63696 16.9305C8.73444 17.1833 8.8514 17.4167 9.02685 17.6306C9.18281 17.8445 9.33876 18.0584 9.53371 18.2334C9.9041 18.6028 10.3135 18.9334 10.7814 19.2056C11.2297 19.4778 11.7171 19.7306 12.2044 19.9251C12.4579 20.0223 12.7113 20.1001 12.9452 20.1973L13.7055 20.4306L12.9257 20.2556C12.6723 20.1779 12.4189 20.1001 12.1655 20.0029L11.7951 19.8473L11.6001 19.7695L11.4247 19.6917L11.0543 19.4973L10.7229 19.3028C10.2745 19.0306 9.84562 18.6806 9.47522 18.2917C9.10483 17.9028 8.81241 17.4361 8.63696 16.9305Z" fill="#7C4C2B"/>
<path d="M8.98804 16.5805C9.06601 16.7361 9.18298 16.8722 9.29995 17.0083C9.41692 17.1444 9.53388 17.2611 9.67034 17.3583C9.94327 17.5722 10.2357 17.7667 10.5476 17.9028C10.8595 18.0583 11.1909 18.175 11.5223 18.2722C11.6978 18.3306 11.8537 18.35 12.0292 18.4083L12.5555 18.5056C12.3801 18.4861 12.2046 18.4667 12.0292 18.4472C11.8537 18.4278 11.6783 18.3889 11.5028 18.35C11.1519 18.2722 10.8205 18.1361 10.5086 18C10.1967 17.8444 9.88478 17.65 9.63135 17.4166C9.35843 17.1833 9.14399 16.9111 8.98804 16.5805Z" fill="#7C4C2B"/>
<path d="M7.03841 17.1445C7.01892 17.6307 6.97993 18.1362 6.90195 18.6224C6.82397 19.1085 6.70701 19.5946 6.57055 20.0807C6.43408 20.5669 6.18066 20.9946 6.06369 21.4808C5.92723 21.9474 5.82976 22.4336 5.75178 22.9197C5.59582 23.8919 5.51785 24.8836 5.47886 25.8753C5.45936 26.3615 5.45936 26.867 5.49835 27.3532C5.51785 27.8393 5.59582 28.3449 5.73228 28.8115C5.55683 28.3449 5.45936 27.8587 5.43987 27.3532C5.42037 27.1004 5.40088 26.8476 5.40088 26.6143C5.40088 26.3809 5.40088 26.1087 5.40088 25.8753C5.42037 24.8836 5.53734 23.8919 5.71279 22.9197C5.79077 22.4336 5.90773 21.9474 6.0442 21.4613C6.18066 20.9752 6.3951 20.528 6.51206 20.0613C6.746 19.089 6.94094 18.1168 7.03841 17.1445Z" fill="#7C4C2B"/>
<path d="M28.5215 20.2167C29.5742 19.8667 30.6659 19.5556 31.7381 19.2834C32.8103 19.0111 33.9214 18.7778 35.0326 18.6028C35.598 18.5056 36.1438 18.4667 36.6702 18.3306C37.1965 18.1944 37.7034 17.9611 38.1517 17.65C38.6001 17.3389 38.9705 16.9305 39.2824 16.4638C39.4384 16.2305 39.5748 15.9777 39.6918 15.7444C39.8088 15.4916 39.9062 15.2388 40.0427 14.986C39.9452 15.2388 39.8673 15.511 39.7698 15.7833C39.6723 16.0555 39.5553 16.3083 39.3994 16.5416C39.1265 17.0472 38.7366 17.475 38.2687 17.8055C37.8008 18.1361 37.2745 18.3695 36.7092 18.5056C36.4362 18.5639 36.1438 18.6222 35.8709 18.6417C35.598 18.6806 35.3056 18.7 35.0326 18.7389C33.9214 18.8945 32.8298 19.1084 31.7381 19.3806C30.6464 19.6528 29.5937 19.9056 28.5215 20.2167Z" fill="#7C4C2B"/>
<path d="M38.9121 18.389C39.3605 19.1473 39.7309 19.9446 40.0428 20.7613C40.3547 21.578 40.5301 22.453 40.5496 23.3475C40.5691 24.2225 40.5496 25.0975 40.5107 25.9725C40.4717 26.8476 40.3937 27.7226 40.2962 28.5976C40.3547 27.7226 40.4132 26.8476 40.4327 25.9725C40.4522 25.0975 40.4717 24.2225 40.4522 23.3475C40.4327 22.4724 40.2572 21.6168 39.9648 20.7807C39.6919 19.964 39.3215 19.1668 38.9121 18.389Z" fill="#7C4C2B"/>
<defs>
<radialGradient id="paint0_radial_70_143" cx="0" cy="0" r="1" gradientUnits="userSpaceOnUse" gradientTransform="translate(23.1394 32.377) rotate(-1.66573) scale(16.9556 16.9127)">
<stop stop-color="#F9C387"/>
<stop offset="0.56" stop-color="#F9C086"/>
<stop offset="0.94" stop-color="#F8B782"/>
<stop offset="1" stop-color="#F8B581"/>
</radialGradient>
<radialGradient id="paint1_radial_70_143" cx="0" cy="0" r="1" gradientUnits="userSpaceOnUse" gradientTransform="translate(31.4552 30.4528) rotate(-1.66573) scale(2.31599 2.31013)">
<stop stop-color="#333333"/>
<stop offset="0.46" stop-color="#313131"/>
<stop offset="0.71" stop-color="#292929"/>
<stop offset="0.9" stop-color="#1B1B1B"/>
<stop offset="1" stop-color="#111111"/>
</radialGradient>
<radialGradient id="paint2_radial_70_143" cx="0" cy="0" r="1" gradientUnits="userSpaceOnUse" gradientTransform="translate(14.6697 31.0993) rotate(178.286) scale(2.31503 2.30917)">
<stop stop-color="#333333"/>
<stop offset="0.46" stop-color="#313131"/>
<stop offset="0.71" stop-color="#292929"/>
<stop offset="0.9" stop-color="#1B1B1B"/>
<stop offset="1" stop-color="#111111"/>
</radialGradient>
</defs>
</svg>
