 <svg xmlns="http://www.w3.org/2000/svg" width="102" height="30" viewBox="0 0 102 30" fill="none">
                    <path d="M26.3193 13.7013C26.3193 13.4622 26.1561 13.273 25.84 13.1435C25.7176 13.0937 25.6157 13.0041 25.5443 12.9045C25.4729 12.795 25.4321 12.6655 25.4321 12.536C25.4321 12.2173 25.6769 11.9385 26.0134 11.9086L27.9406 11.7194C28.0426 11.7094 28.1344 11.7493 28.2057 11.809C28.2873 11.8787 28.3587 11.9783 28.3995 12.0779C28.4199 12.1377 28.4811 12.1875 28.5422 12.1875C28.5728 12.1875 28.6034 12.1775 28.6238 12.1675C29.0521 11.8787 29.5722 11.7194 30.1024 11.7194C30.7958 11.7194 31.3362 11.8688 31.7339 12.1675C31.7951 12.2173 31.8869 12.2472 31.9685 12.2472C32.0195 12.2472 32.0704 12.2373 32.1112 12.2074C32.7129 11.8787 33.3961 11.6995 34.0895 11.7094C34.9766 11.7094 35.619 11.9186 36.0269 12.3369C36.4348 12.7551 36.6387 13.3826 36.6387 14.2291V17.2666C36.6387 17.4857 36.7917 17.6949 37.0976 17.8742C37.2098 17.9339 37.2914 18.0235 37.3525 18.1331C37.4137 18.2426 37.4545 18.3622 37.4545 18.4916C37.4545 18.8203 37.1894 19.0892 36.8529 19.0892H34.3546C34.0181 19.0892 33.7428 18.8203 33.7428 18.5016C33.7428 18.2825 33.8447 18.0634 34.0283 17.9339C34.1201 17.8542 34.1914 17.7945 34.2424 17.7447C34.3036 17.6849 34.3546 17.6152 34.3954 17.5355C34.4464 17.4559 34.4668 17.3662 34.4668 17.2766V14.8067C34.4668 14.249 34.3954 13.8407 34.2628 13.5917C34.1303 13.3427 33.9059 13.2232 33.5796 13.2232C33.3757 13.2232 33.1513 13.3129 32.9066 13.4822C32.6721 13.6415 32.5599 13.9104 32.5599 14.2689V17.2766C32.5599 17.4857 32.7027 17.7048 32.9984 17.9339C33.1717 18.0634 33.2737 18.2725 33.2737 18.4916C33.2737 18.651 33.2125 18.8004 33.1003 18.9099C32.9882 19.0195 32.8352 19.0792 32.6721 19.0792H30.2758C30.1126 19.0792 29.9596 19.0195 29.8475 18.9099C29.7353 18.8004 29.6639 18.651 29.6741 18.4916C29.6639 18.2725 29.7761 18.0534 29.9494 17.9239C30.2452 17.6949 30.3981 17.4857 30.3981 17.2766V14.8067C30.3981 14.249 30.3267 13.8407 30.1942 13.5917C30.0616 13.3427 29.7965 13.2033 29.5212 13.2232C29.307 13.2232 29.0725 13.3228 28.8176 13.512C28.5932 13.6714 28.4811 13.9403 28.4811 14.3187V17.2866C28.4811 17.4957 28.6238 17.7248 28.9093 17.9538C29.0827 18.0833 29.1847 18.2924 29.1847 18.5016C29.1847 18.6609 29.1235 18.8103 29.0113 18.9199C28.8991 19.0294 28.7462 19.0991 28.583 19.0991H26.044C25.7075 19.0991 25.4321 18.8302 25.4321 18.5016C25.4321 18.3622 25.4729 18.2327 25.5443 18.1231C25.6157 18.0136 25.7176 17.914 25.84 17.8642C26.1561 17.7148 26.3091 17.5256 26.3091 17.2866L26.3193 13.7013Z" fill="#5E2CED"/>
                    <path d="M42.5734 13.532C42.5734 13.3527 42.4715 13.1734 42.2777 13.0041C42.1146 12.8747 42.033 12.6755 42.033 12.4763C42.033 12.1476 42.3083 11.8787 42.6448 11.8787H45.0309C45.1941 11.8787 45.3572 11.9385 45.4694 12.058C45.5918 12.1676 45.653 12.3269 45.653 12.4862C45.653 12.6257 45.6122 12.7551 45.5408 12.8747C45.4694 12.9942 45.3572 13.0838 45.2349 13.1436C45.0921 13.2133 44.9596 13.3029 44.8372 13.3925C44.7352 13.4722 44.6536 13.5818 44.6027 13.7112L41.9412 20.5831C41.8494 20.832 41.7169 21.0711 41.5639 21.2902C41.411 21.5093 41.2274 21.7084 41.0133 21.8877C40.5646 22.2662 39.9936 22.4753 39.3919 22.4753C38.9127 22.4753 38.515 22.3558 38.2193 22.1267C37.9236 21.8877 37.7706 21.5292 37.7706 21.0412C37.7604 20.8022 37.8522 20.5631 38.0255 20.3839C38.1887 20.2146 38.413 20.1249 38.6476 20.1249C38.8209 20.1249 38.9943 20.1548 39.1472 20.2245C39.3002 20.2843 39.4429 20.3739 39.5551 20.4934C39.6061 20.5532 39.6775 20.603 39.759 20.6129C39.8304 20.603 39.8916 20.5631 39.912 20.4934C40.0955 20.1449 40.2485 19.7764 40.3811 19.4079C40.432 19.2684 40.4626 19.1191 40.4626 18.9796C40.4626 18.8203 40.432 18.6709 40.3709 18.5215L38.4844 13.7112C38.4028 13.4921 38.1887 13.3029 37.842 13.1635C37.7094 13.1037 37.5871 13.0141 37.5055 12.8946C37.4239 12.7751 37.3831 12.6356 37.3831 12.4862C37.3831 12.1476 37.6584 11.8787 38.0051 11.8787H40.5748C40.738 11.8787 40.9011 11.9385 41.0133 12.058C41.1357 12.1676 41.1968 12.3269 41.1968 12.4962C41.1968 12.7153 41.1051 12.9245 40.9317 13.0639C40.7278 13.2431 40.6258 13.4125 40.6258 13.5917C40.6258 13.6316 40.636 13.6813 40.6462 13.7212L41.4008 15.8524C41.4314 15.9222 41.5027 15.962 41.5843 15.952C41.6659 15.952 41.7271 15.8923 41.7679 15.7927L42.5632 13.6813C42.5734 13.6316 42.5734 13.5818 42.5734 13.532Z" fill="#5E2CED"/>
                    <path d="M50.7719 19.2685C50.466 19.2685 50.1703 19.2386 49.8746 19.1788C49.5584 19.1191 49.2525 19.0294 48.9568 18.9099C48.6509 18.7904 48.3552 18.6311 48.0697 18.4518C47.7842 18.2626 47.519 18.0435 47.2845 17.7945C47.0398 17.5356 46.8256 17.2467 46.6523 16.938C46.4585 16.5994 46.3158 16.2409 46.2342 15.8624C46.1322 15.4342 46.0812 15.0059 46.0812 14.5677C46.0812 13.5021 46.2852 12.5759 46.6931 11.7792C47.0806 11.0023 47.6924 10.355 48.4572 9.92674C49.2321 9.48854 50.1397 9.26944 51.1798 9.26944C51.4041 9.26944 51.6183 9.2794 51.8222 9.29932C52.0363 9.31924 52.2505 9.34911 52.4646 9.38895C52.6788 9.42879 52.8827 9.4985 53.0764 9.58813C53.26 9.67777 53.4232 9.77736 53.5761 9.90683C53.7291 10.0363 53.8514 10.1956 53.933 10.3849C54.0248 10.594 54.0656 10.8131 54.0554 11.0422V11.4007C54.0554 11.9186 53.6271 12.3468 53.0866 12.3468C52.5462 12.3468 52.0669 12.0381 51.863 11.5501C51.8018 11.4007 51.71 11.2613 51.5877 11.1617C51.4755 11.0621 51.3225 11.0123 51.1696 11.0223C50.313 11.0521 49.6502 11.3609 49.1812 11.9385C48.7121 12.5261 48.4878 13.3328 48.498 14.3685C48.498 14.6872 48.5285 15.0159 48.5999 15.3246C48.7019 15.8126 48.9466 16.2707 49.3035 16.6392C49.4463 16.7986 49.6196 16.928 49.8134 17.0276C49.9867 17.1173 50.1703 17.187 50.3538 17.2368C50.5272 17.2866 50.7107 17.3065 50.8943 17.3065C51.2308 17.3165 51.5673 17.2766 51.8936 17.1969C52.1995 17.1073 52.4952 16.9778 52.7603 16.8085C52.8929 16.7289 53.0357 16.689 53.1886 16.689C53.4028 16.6791 53.6067 16.7587 53.7495 16.9181C53.8922 17.0774 53.9738 17.2766 53.9636 17.4858C53.9534 17.7547 53.8412 18.0136 53.6373 18.1929C53.413 18.4319 53.1376 18.6211 52.8317 18.7605C52.5054 18.9199 52.1587 19.0394 51.8018 19.129C51.4653 19.2286 51.1186 19.2685 50.7719 19.2685Z" fill="#7B4B2C"/>
                    <path d="M55.6767 13.6614C55.6767 13.4224 55.5135 13.2332 55.1974 13.1037C55.0751 13.0539 54.9731 12.9643 54.9017 12.8647C54.8303 12.7551 54.7896 12.6356 54.7896 12.4962C54.7896 12.1676 55.0445 11.8987 55.3708 11.8588L57.3082 11.6696C57.4102 11.6596 57.502 11.6895 57.5836 11.7592C57.6753 11.8289 57.7365 11.9186 57.7671 12.0182C57.7773 12.0879 57.8487 12.1277 57.9201 12.1277C57.9507 12.1277 57.9812 12.1178 58.0016 12.0978C58.3891 11.819 58.8582 11.6696 59.3375 11.6696C59.7555 11.6696 60.0818 11.7791 60.3164 12.0082C60.5509 12.2373 60.6733 12.556 60.6733 12.9543V13.1137C60.6733 13.5818 60.2858 13.9602 59.8065 13.9602C59.4598 13.9602 59.1233 13.8507 58.8582 13.6415C58.6543 13.4921 58.4911 13.4124 58.3585 13.4124C58.2872 13.4124 58.2056 13.4324 58.1444 13.4822C57.9405 13.6116 57.8385 13.8606 57.8385 14.2191V17.2069C57.8385 17.3364 57.8895 17.4658 57.971 17.5654C58.0526 17.665 58.175 17.7347 58.3075 17.7447C58.4809 17.7646 58.6339 17.8542 58.746 17.9837C58.8582 18.1132 58.9194 18.2725 58.9194 18.4418C58.9194 18.7705 58.6543 19.0394 58.3178 19.0394C58.3178 19.0394 58.3177 19.0394 58.3075 19.0394H55.4014C55.2382 19.0394 55.0853 18.9796 54.9731 18.8701C54.8507 18.7605 54.7896 18.6111 54.7896 18.4518C54.7896 18.3124 54.8303 18.1829 54.9017 18.0634C54.9731 17.9439 55.0853 17.8542 55.2076 17.7945C55.5237 17.6551 55.6767 17.4658 55.6767 17.2368V13.6614Z" fill="#7B4B2C"/>
                    <path d="M61.1424 15.6035C61.1322 15.0657 61.2036 14.5378 61.3565 14.02C61.4891 13.5718 61.7032 13.1535 61.9887 12.785C62.2845 12.4265 62.6617 12.1476 63.09 11.9684C63.5897 11.7592 64.1199 11.6596 64.6604 11.6696C65.0479 11.6596 65.4456 11.7194 65.8127 11.8389C66.4245 12.0182 66.9445 12.4265 67.2606 12.9643C67.4136 13.2232 67.5258 13.512 67.5971 13.8009C67.6685 14.1096 67.6991 14.4283 67.6991 14.747C67.6991 15.0059 67.5869 15.2549 67.3932 15.4342C67.1995 15.6234 66.9343 15.723 66.659 15.723H63.8446C63.7222 15.723 63.6101 15.7628 63.5285 15.8425C63.4469 15.9122 63.3959 16.0217 63.3959 16.1313C63.4163 16.3404 63.4673 16.5496 63.5489 16.7488C63.7528 17.3264 64.2015 17.6252 64.9051 17.6252C65.1702 17.6252 65.4252 17.5953 65.6801 17.5355C65.935 17.4658 66.1899 17.3662 66.4245 17.2368C66.5163 17.187 66.6182 17.1671 66.71 17.1671C66.8833 17.1671 67.0465 17.2368 67.1587 17.3662C67.281 17.4957 67.3422 17.665 67.3422 17.8443C67.3422 18.0833 67.1995 18.3124 66.9241 18.5215C66.608 18.7506 66.2613 18.9199 65.884 19.0195C65.4863 19.139 65.0785 19.1987 64.6706 19.1987C63.4877 19.1987 62.6006 18.89 62.0091 18.2825C61.4177 17.675 61.1424 16.7886 61.1424 15.6035ZM63.8752 14.4084L64.9663 14.3386C65.0785 14.3386 65.1804 14.2889 65.262 14.2092C65.3436 14.1395 65.3844 14.0299 65.3844 13.9303C65.3844 13.8506 65.364 13.7809 65.3334 13.7112C65.1906 13.2631 64.9153 13.044 64.5176 13.044C64.0587 13.044 63.7426 13.3029 63.5591 13.8108C63.5285 13.8905 63.5081 13.9801 63.4979 14.0698C63.4979 14.259 63.6713 14.4183 63.8752 14.4084Z" fill="#7B4B2C"/>
                    <path d="M73.2361 11.3609V10.345C73.2361 10.106 73.073 9.91678 72.7569 9.77735C72.6345 9.72756 72.5325 9.63793 72.4612 9.52837C72.3898 9.41882 72.349 9.28935 72.349 9.15989C72.349 9.00054 72.4102 8.84119 72.5223 8.72168C72.6345 8.60217 72.7875 8.5225 72.9506 8.51254L74.572 8.36315C74.8065 8.34323 75.041 8.43287 75.1838 8.62209C75.3571 8.80136 75.4489 9.04037 75.4387 9.28935L75.4489 17.2268C75.4489 17.3463 75.4897 17.4658 75.5815 17.5555C75.6732 17.6551 75.7956 17.7347 75.918 17.7845C76.0505 17.8343 76.1525 17.924 76.2341 18.0335C76.3157 18.1431 76.3565 18.2825 76.3565 18.4219C76.3565 18.5813 76.2953 18.7307 76.1831 18.8502C76.0709 18.9697 75.918 19.0394 75.7548 19.0493L73.7868 19.2087C73.6848 19.2187 73.593 19.1888 73.5115 19.1191C73.4299 19.0493 73.3585 18.9597 73.3177 18.8601C73.2973 18.7904 73.2361 18.7406 73.1648 18.7406C73.1342 18.7406 73.1036 18.7506 73.0832 18.7605C72.6753 19.0394 72.196 19.1987 71.6964 19.1987C70.6869 19.1987 69.9017 18.88 69.3307 18.2526C68.7596 17.6252 68.4639 16.7488 68.4639 15.6533C68.4537 15.0956 68.5455 14.5478 68.7188 14.0299C68.882 13.5618 69.1369 13.1336 69.4632 12.7651C69.7895 12.4165 70.1872 12.1377 70.6359 11.9584C71.1253 11.7592 71.6454 11.6696 72.1756 11.6696C72.2776 11.6696 72.3796 11.6796 72.4816 11.6895C72.5835 11.6995 72.6855 11.7094 72.7875 11.7094C72.8996 11.7094 73.0016 11.6796 73.0934 11.6098C73.1852 11.56 73.2361 11.4605 73.2361 11.3609ZM72.3184 17.6451C72.4816 17.6451 72.6345 17.6152 72.7875 17.5754C72.9302 17.5455 73.0424 17.4658 73.124 17.3463C73.2055 17.2268 73.2463 17.0874 73.2463 16.948V13.7013C73.2463 13.5618 73.2055 13.4324 73.1138 13.3228C73.0322 13.2133 72.9098 13.1436 72.7671 13.1336C72.6957 13.1236 72.6345 13.1236 72.5631 13.1236C72.0023 13.1236 71.5638 13.3328 71.2477 13.7411C70.9316 14.1494 70.7786 14.7271 70.7786 15.464C70.7786 16.1911 70.901 16.7388 71.1559 17.0973C71.4007 17.4658 71.7882 17.6451 72.3184 17.6451Z" fill="#7B4B2C"/>
                    <path d="M77.1824 17.8244C77.213 17.1471 77.8045 16.6193 78.5081 16.6492C79.2117 16.6791 79.7419 17.2567 79.7113 17.9439C79.6807 18.6311 79.0893 19.1489 78.3857 19.1191C78.0696 19.1091 77.7739 18.9796 77.5495 18.7605C77.3048 18.5116 77.1722 18.1729 77.1824 17.8244Z" fill="#7B4B2C"/>
                    <path d="M81.7201 13.6315C81.7201 13.3925 81.5671 13.2033 81.2408 13.0738C81.1185 13.024 81.0165 12.9344 80.9451 12.8348C80.8737 12.7253 80.833 12.5958 80.833 12.4663C80.833 12.307 80.8941 12.1576 80.9961 12.048C81.0981 11.9285 81.251 11.8588 81.404 11.8489L83.3312 11.6596C83.4332 11.6497 83.525 11.6895 83.5964 11.7493C83.6779 11.819 83.7493 11.9186 83.7901 12.0182C83.8105 12.0779 83.8717 12.1277 83.9329 12.1277C83.9635 12.1277 83.9941 12.1178 84.0145 12.1078C84.4529 11.819 84.9628 11.6596 85.493 11.6596C86.1864 11.6596 86.7269 11.809 87.1246 12.1078C87.1857 12.1576 87.2775 12.1875 87.3591 12.1875C87.4101 12.1875 87.4611 12.1775 87.5019 12.1476C88.1035 11.819 88.7867 11.6397 89.4801 11.6497C90.3672 11.6497 91.0097 11.8588 91.4175 12.2771C91.8254 12.6954 92.0192 13.3228 92.0294 14.1693V17.2069C92.0294 17.426 92.1823 17.6351 92.4882 17.8044C92.5902 17.8642 92.682 17.9538 92.7432 18.0634C92.8043 18.1729 92.8451 18.2924 92.8451 18.4219C92.8451 18.7506 92.58 19.0195 92.2435 19.0195H89.7452C89.4087 19.0195 89.1334 18.7605 89.1334 18.4319C89.1334 18.2128 89.2354 17.9937 89.4189 17.8642C89.5107 17.7945 89.5821 17.7248 89.633 17.675C89.6942 17.6152 89.7452 17.5455 89.786 17.4758C89.837 17.3961 89.8574 17.3065 89.8574 17.2168V14.747C89.8574 14.1893 89.786 13.7809 89.6534 13.532C89.5209 13.283 89.2965 13.1635 88.9702 13.1635C88.7663 13.1635 88.542 13.2531 88.2972 13.4224C88.0627 13.5818 87.9505 13.8506 87.9505 14.2092V17.2168C87.9505 17.426 88.0933 17.6451 88.389 17.8742C88.5624 18.0036 88.6643 18.2128 88.6643 18.4319C88.6643 18.5912 88.6031 18.7406 88.491 18.8502C88.3788 18.9597 88.2258 19.0195 88.0627 19.0195H85.6664C85.5032 19.0195 85.3503 18.9597 85.2381 18.8502C85.1259 18.7406 85.0648 18.5912 85.0648 18.4319C85.0546 18.2128 85.1565 17.9937 85.3401 17.8642C85.6358 17.6351 85.7887 17.426 85.7887 17.2168V14.747C85.7887 14.1893 85.7174 13.7809 85.5848 13.532C85.4522 13.283 85.1871 13.1435 84.9118 13.1635C84.6977 13.1635 84.4631 13.2631 84.2082 13.4523C83.9839 13.6116 83.8717 13.8805 83.8717 14.249V17.2168C83.8717 17.426 84.0144 17.6551 84.3 17.8841C84.4733 18.0136 84.5753 18.2227 84.5753 18.4319C84.5753 18.5912 84.5141 18.7406 84.4019 18.8502C84.2898 18.9597 84.1368 19.0294 83.9737 19.0294H81.4346C81.2714 19.0294 81.1185 18.9697 81.0063 18.8601C80.8941 18.7506 80.8228 18.6012 80.8228 18.4418C80.8228 18.3024 80.8635 18.1729 80.9349 18.0634C81.0063 17.9538 81.1083 17.8642 81.2306 17.8044C81.5467 17.6551 81.6997 17.4658 81.6997 17.2268L81.7201 13.6315Z" fill="#7B4B2C"/>
                    <path d="M93.4366 15.5636C93.4264 15.0258 93.4978 14.498 93.6508 13.9801C93.7833 13.532 93.9975 13.1137 94.283 12.7452C94.5787 12.3867 94.956 12.1078 95.3843 11.9285C95.8839 11.7293 96.4142 11.6298 96.9546 11.6397C97.3421 11.6298 97.7398 11.6895 98.1069 11.809C98.7187 11.9883 99.2388 12.3966 99.5549 12.9344C99.7078 13.1933 99.82 13.4822 99.8914 13.771C99.9628 14.0797 99.9934 14.3984 99.9934 14.7171C99.9934 14.976 99.8812 15.225 99.6874 15.4043C99.4937 15.5935 99.2286 15.6931 98.9533 15.6931H96.1593C96.0369 15.6931 95.9247 15.7329 95.8431 15.8126C95.7616 15.8823 95.7106 15.9919 95.7106 16.1014C95.731 16.3106 95.782 16.5197 95.8635 16.7189C96.0675 17.3065 96.5162 17.5953 97.2198 17.5953C97.4849 17.5953 97.7398 17.5754 97.9947 17.5057C98.2497 17.436 98.5046 17.3364 98.7391 17.2069C98.8309 17.1571 98.9329 17.1372 99.0246 17.1372C99.198 17.1372 99.3611 17.2069 99.4733 17.3364C99.5957 17.4658 99.6569 17.6351 99.6569 17.8144C99.6569 18.0534 99.5141 18.2825 99.2388 18.4916C98.9227 18.7207 98.576 18.89 98.1987 18.9896C97.801 19.1091 97.3931 19.1688 96.9852 19.1688C95.8024 19.1688 94.9152 18.8601 94.3238 18.2526C93.7323 17.6451 93.4366 16.7488 93.4366 15.5636ZM96.1694 14.3685L97.2605 14.2988C97.3727 14.2988 97.4849 14.249 97.5563 14.1693C97.6378 14.0996 97.6786 13.9901 97.6786 13.8905C97.6786 13.8108 97.6582 13.7411 97.6276 13.6714C97.4849 13.2232 97.2096 13.0041 96.8119 13.0041C96.353 13.0041 96.0369 13.2631 95.8533 13.771C95.8227 13.8506 95.8024 13.9403 95.7922 14.0299C95.8126 14.2191 95.9757 14.3785 96.1694 14.3685C96.1796 14.3685 96.1796 14.3685 96.1694 14.3685Z" fill="#7B4B2C"/>
                    <path d="M19.2017 25.2639C19.9359 25.244 20.6089 23.8198 20.5681 20.4735C20.4559 10.345 20.3948 8.61213 20.3948 8.61213C20.3744 7.8652 19.732 7.26764 18.9672 7.28756H18.957L4.71163 7.69589C3.94685 7.71581 3.33502 8.34323 3.35541 9.10013C3.35541 9.10013 3.38601 10.833 3.87547 20.9515C4.03862 24.2879 4.79321 25.6722 5.5274 25.6523L19.2017 25.2639Z" fill="url(#paint0_radial_105_75)"/>
                    <path d="M20.5375 17.5654C20.4356 9.48854 20.3948 8.61213 20.3948 8.61213C20.3744 7.8652 19.732 7.26764 18.9672 7.28756H18.957L4.71163 7.69589C3.94685 7.71581 3.33502 8.34323 3.35541 9.10013C3.35541 9.10013 3.36561 9.97654 3.7531 18.0634C3.81428 18.1331 3.85507 18.163 3.85507 18.163C3.81428 13.2133 4.38532 11.1916 4.38532 11.1916C4.38532 11.1916 4.93596 11.5899 6.75105 11.6298C10.6361 11.7094 18.7938 9.25948 18.7938 9.25948C20.3846 12.8149 20.4458 17.6949 20.4458 17.6949C20.4763 17.6451 20.5069 17.6053 20.5375 17.5654Z" fill="#C9955D"/>
                    <path d="M17.8251 15.5437C17.8455 16.2807 17.2541 16.8982 16.4995 16.9181C15.7449 16.938 15.1127 16.3604 15.0923 15.6234C15.0719 14.8864 15.6633 14.2689 16.4179 14.249C17.1725 14.2291 17.8047 14.8067 17.8251 15.5437Z" fill="#C9955D"/>
                    <path d="M17.662 15.4541C17.6824 16.1114 17.1521 16.6492 16.4893 16.6691C15.8163 16.689 15.2657 16.1711 15.2453 15.5238C15.2249 14.8665 15.7551 14.3287 16.4179 14.3088C17.0909 14.2889 17.6416 14.7968 17.662 15.4541Z" fill="url(#paint1_radial_105_75)"/>
                    <path d="M18.5593 21.0312C18.5797 21.5391 18.1616 21.9674 17.6416 21.9873C17.1215 22.0072 16.683 21.5989 16.6626 21.091C16.6422 20.5831 17.0603 20.1548 17.5804 20.1349C18.1106 20.115 18.5389 20.5233 18.5593 21.0312Z" fill="#F7B180"/>
                    <path d="M8.01548 21.33C8.03587 21.8379 7.61779 22.2662 7.09774 22.2861C6.57769 22.306 6.13921 21.8977 6.11882 21.3897C6.09842 20.8818 6.51651 20.4536 7.03656 20.4337C7.55661 20.4137 7.99508 20.8221 8.01548 21.33Z" fill="#F7B180"/>
                    <path d="M6.33297 15.8724C6.35336 16.6093 6.98559 17.187 7.74017 17.1671C8.49476 17.1471 9.08619 16.5297 9.06579 15.7927C9.0454 15.0557 8.41318 14.4781 7.65859 14.498C6.90401 14.5179 6.31258 15.1354 6.33297 15.8724Z" fill="#C9955D"/>
                    <path d="M6.48592 15.7728C6.50631 16.4301 7.05696 16.938 7.72997 16.928C8.40298 16.9081 8.92303 16.3703 8.91283 15.713C8.90263 15.0557 8.34179 14.5478 7.66878 14.5578C6.99578 14.5777 6.46553 15.1155 6.48592 15.7728Z" fill="url(#paint2_radial_105_75)"/>
                    <path d="M8.55593 15.1454C8.70889 15.3844 8.64771 15.6931 8.43357 15.8126C8.21943 15.9321 7.92371 15.8425 7.77076 15.5935C7.6178 15.3445 7.67898 15.0458 7.89312 14.9263C8.10726 14.8067 8.40298 14.8964 8.55593 15.1454Z" fill="white"/>
                    <path d="M17.3153 14.8964C17.4682 15.1454 17.407 15.4441 17.1929 15.5736C16.9788 15.7031 16.6728 15.6035 16.5301 15.3545C16.3873 15.1055 16.4383 14.8067 16.6524 14.6872C16.8666 14.5677 17.1623 14.6474 17.3153 14.8964Z" fill="white"/>
                    <path d="M15.3166 21.2503C15.337 21.3798 15.2452 21.4893 15.1229 21.5093C15.1229 21.5093 15.1229 21.5093 15.1127 21.5093C13.216 21.7782 11.299 21.8379 9.3921 21.6686C9.25953 21.6586 9.16776 21.5491 9.17796 21.4196C9.18815 21.2902 9.30032 21.2005 9.43289 21.2105C11.299 21.3698 13.1854 21.32 15.0413 21.0511C15.1637 21.0412 15.286 21.1308 15.3166 21.2503Z" fill="#836848"/>
                    <path d="M24.1269 5.68413L24.1575 5.70405C24.1575 5.70405 23.9841 5.70405 23.7088 5.70405C23.0562 5.72397 21.802 5.83352 20.8638 6.27172L20.9556 6.2518C21.9141 6.02274 22.3118 6.36135 22.3118 6.36135C22.3118 6.36135 21.2003 6.95891 21.7 8.26356C22.1997 9.56821 23.5865 15.5736 20.4458 18.8701C20.456 18.7406 20.9046 13.5917 19.6096 9.97654H19.5994C19.2119 10.0462 10.7381 11.5102 6.87342 11.1019C5.02774 10.9127 4.4771 10.2753 4.4771 10.2753C4.4771 10.2753 3.89587 12.9742 3.49818 17.8841C3.44719 17.8244 1.69329 16.0317 2.0094 12.0281C2.33571 7.95482 3.51857 6.43107 3.51857 6.43107L3.73271 7.30748L4.52809 6.12233L4.73203 7.0087L5.59878 6.0825L5.57839 6.80952C7.96451 5.92315 10.4322 5.24593 12.9407 4.76789C15.1229 4.35956 17.509 4.12054 19.7116 4.32968C21.3635 4.47907 22.9033 4.8874 24.1677 5.67417L24.1269 5.68413Z" fill="#201A14"/>
                    <path d="M20.2418 6.35139C19.9767 6.70992 20.5477 6.69996 21.0576 6.56053C21.3941 6.4709 21.6286 6.39123 21.6388 6.50078C21.649 6.56053 21.5878 6.67008 21.4552 6.85931C21.4144 6.9091 21.3839 6.9589 21.3533 7.0087C21.2513 7.14812 21.1697 7.30747 21.1187 7.46682C21.0474 7.7158 21.0779 7.99465 21.1901 8.51253C21.3941 9.43874 21.9039 10.0164 21.9549 12.2472C22.0467 16.5595 20.7822 17.9937 20.7822 17.9937C20.7822 17.9937 20.7924 17.8343 20.8026 17.5355C20.8332 16.7687 20.8638 15.0457 20.7108 12.6356C20.6395 11.57 20.3743 10.5243 19.9257 9.53833H19.9155C19.3138 9.6678 18.7326 9.77735 18.182 9.87694L18.131 9.8869C4.80338 12.3667 5.35402 9.50845 4.09978 10.0064C4.09978 10.0064 3.88564 9.75743 3.54913 13.283C3.46756 14.1594 3.38598 15.2549 3.28401 16.6492C3.27381 16.7488 3.24322 16.7886 3.18204 16.7687C2.9679 16.699 2.47844 15.8425 2.27449 14.2092C2.15213 13.2033 2.22351 12.0381 2.37647 10.9525V10.9426C2.52942 9.84706 2.74356 8.76151 3.03928 7.68592C3.21263 7.10829 3.38598 6.96886 3.45736 6.91906C3.49815 6.88919 3.50834 7.15808 3.53894 7.36723V7.37719C3.53894 7.3971 3.53894 7.40706 3.54913 7.42698C3.55933 7.45686 3.55933 7.48674 3.56953 7.50665C3.56953 7.51661 3.57972 7.52657 3.57972 7.52657C3.57972 7.52657 3.57972 7.52657 3.57972 7.53653C3.60012 7.59629 3.63071 7.63612 3.68169 7.61621C3.75307 7.59629 3.80406 7.54649 3.84485 7.48674C3.86524 7.46682 3.87544 7.4469 3.88564 7.42698L3.90603 7.3971C3.90603 7.38714 3.91623 7.38714 3.91623 7.38714V7.37719C4.0182 7.20788 4.13037 7.04853 4.25273 6.88919C4.42608 6.70992 4.46687 6.80951 4.48727 6.99874C4.49746 7.07841 4.49746 7.16804 4.51786 7.25768V7.28755C4.51786 7.28755 4.51786 7.28755 4.51786 7.29751C4.51786 7.33735 4.53825 7.37719 4.55865 7.40706C4.61983 7.46682 4.7116 7.40706 4.82377 7.26763C4.87475 7.20788 4.91554 7.13817 4.95633 7.06845C5.15008 6.72984 5.32343 6.57049 5.36422 6.60037C5.37441 6.61033 5.37441 6.67008 5.36422 6.72984C5.35402 6.86927 5.35402 7.06845 5.58855 7.11825H5.60895C5.71092 7.11825 5.98624 7.03857 6.41452 6.89914L6.44511 6.88919C7.78093 6.45098 10.5341 5.48494 14.0725 4.95711L14.1439 4.94715C14.3683 4.91727 14.5926 4.88739 14.8169 4.85751C14.8169 4.85751 18.7938 4.31972 22.118 5.10649C22.9746 5.30568 23.3315 5.40527 23.3723 5.44511C23.4029 5.48494 23.2499 5.4949 22.995 5.50486C22.2812 5.56462 20.7822 5.62437 20.2418 6.35139Z" fill="#44221B"/>
                    <path d="M21.0576 6.55057C21.2921 6.49082 21.4859 6.43106 21.5777 6.44102C21.6184 6.44102 21.6388 6.46094 21.6388 6.49082C21.6184 6.54061 21.5878 6.59041 21.5573 6.6402C21.5063 6.7398 21.4349 6.85931 21.3533 6.99873C21.2717 7.13816 21.1902 7.29751 21.1188 7.45686C20.9148 7.90502 20.7823 8.4229 20.9964 8.82126C21.4451 9.70763 22.0671 14.1395 21.2411 16.3404C21.231 16.3703 21.0168 16.938 20.8027 17.5156C20.8333 16.7488 20.8639 15.0258 20.7109 12.6157C20.6395 11.5501 20.3744 10.5044 19.9257 9.51841H19.9155C19.3139 9.64788 18.7327 9.75743 18.182 9.85702L18.131 9.86698C4.80343 12.3468 5.35407 9.48853 4.09983 9.98649C4.09983 9.98649 3.88569 9.73751 3.54918 13.2631C3.46761 14.1594 3.38603 15.2549 3.28406 16.6492C3.27386 16.7488 3.24327 16.7886 3.18209 16.7687C3.04953 16.5097 2.93736 16.2408 2.84558 15.962C2.75381 15.7628 2.69263 15.5537 2.65184 15.3346C2.47849 14.3486 2.24396 12.536 2.52947 11.1119C2.52947 11.1119 3.20248 7.52657 3.38603 7.43694C3.56958 7.34731 3.37583 8.25359 3.65115 8.1042C3.92648 7.95482 4.28338 7.14812 4.42613 7.178C4.56889 7.20788 4.35475 7.95482 4.58929 7.90502C5.01757 7.81539 5.04816 7.19792 5.2419 7.16804C5.43565 7.13816 5.27249 8.03449 6.57772 7.26763C7.61783 6.66012 16.2446 4.07074 21.0372 5.0567C21.0372 5.0567 22.4954 5.17621 23.3825 5.46502C23.4131 5.50486 23.2602 5.51482 23.0052 5.52478C22.2915 5.56461 20.9556 6.06257 20.2418 6.4709C19.8339 6.69996 20.5477 6.69 21.0576 6.55057Z" fill="#4E2B1F"/>
                    <path d="M22.5872 5.56463C22.5566 5.55467 22.5158 5.54471 22.4852 5.53475C22.3424 5.48495 22.1895 5.45507 22.0365 5.4252C21.4553 5.31565 20.6293 5.22601 20.6293 5.22601C15.1127 4.28985 6.47575 7.42699 6.04747 7.5963C5.99648 7.61622 5.9455 7.63613 5.90471 7.64609C5.86392 7.65605 5.82313 7.66601 5.79254 7.67597C5.54781 7.71581 5.43564 7.61622 5.30308 7.42699C5.12973 7.17801 5.02776 7.87515 4.66067 8.00462C4.29357 8.13409 4.41593 7.46683 4.37515 7.34732C4.33436 7.22781 3.85509 8.24364 3.63076 8.16397C3.40642 8.0843 3.57977 7.49671 3.39622 7.5963C3.21268 7.69589 2.54987 11.2513 2.54987 11.2513V11.2414C2.67223 10.1658 2.86598 9.10013 3.1209 8.05442C3.27386 7.48675 3.43701 7.34732 3.50839 7.29752C3.54918 7.26764 3.55938 7.52658 3.60017 7.73573V7.74569C3.60017 7.7656 3.60017 7.77556 3.61036 7.79548C3.61036 7.82536 3.62056 7.84528 3.63076 7.87515C3.63076 7.88511 3.63076 7.89507 3.64096 7.89507C3.64096 7.89507 3.64096 7.89507 3.64096 7.90503C3.71233 8.04446 3.8245 7.94487 3.89588 7.85524C3.91628 7.83532 3.92647 7.8154 3.93667 7.79548L3.95707 7.7656L3.96726 7.74569V7.73573C4.01825 7.61622 4.47712 6.60038 4.51791 7.35728C4.51791 7.44691 4.5281 7.5465 4.5485 7.63613C4.5485 7.63613 4.5485 7.63613 4.5485 7.64609C4.55869 7.68593 4.56889 7.72577 4.58929 7.75564C4.68106 7.88511 4.82382 7.63613 4.84421 7.61622C4.8748 7.55646 5.47643 6.3514 5.36426 7.08838C5.32348 7.34732 5.42545 7.44691 5.5886 7.46683H5.60899C5.63959 7.46683 5.68037 7.46683 5.71097 7.46683C5.75175 7.46683 5.78235 7.45687 5.82313 7.44691C6.01688 7.39711 6.21062 7.3274 6.39417 7.23777L6.41457 7.22781C6.74087 7.12822 10.2895 5.98291 13.7871 5.18618L13.8483 5.17622C18.1106 4.38944 21.1392 4.95712 22.424 5.30569C22.7095 5.38536 22.9135 5.44512 23.0256 5.48495C23.0868 5.50487 23.1174 5.51483 23.1174 5.51483C23.2602 5.57459 22.8829 5.63434 22.5872 5.56463Z" fill="#7C4C2B"/>
                    <path d="M4.03864 10.0761C4.03864 10.0761 3.73273 10.2454 3.61036 10.8131C3.488 11.3808 3.43701 14.5777 3.43701 14.5777C3.43701 14.5777 3.76332 10.4247 4.03864 10.0761Z" fill="#7C4C2B"/>
                    <path d="M21.4451 6.60038C21.4247 6.64021 21.3533 6.64021 21.3227 6.69997C20.7823 7.14813 20.5783 7.26764 19.9971 7.68593C19.0895 8.34323 18.0902 8.88103 17.0297 9.2794C14.042 10.4048 11.8496 10.7036 10.2283 10.5641C7.39348 10.3151 6.46554 9.02046 6.08825 8.00462L5.96588 7.7656C6.41455 8.78144 7.61781 10.0463 10.2589 10.2654C11.6049 10.3749 13.7667 10.1558 17.0501 9.02046C17.9679 8.72168 18.8448 8.29344 19.6402 7.74568C20.1602 7.39711 20.7211 7.04854 21.4451 6.60038C21.4757 6.60038 21.4451 6.56054 21.4451 6.60038Z" fill="#7C4C2B"/>
                    <path d="M23.046 5.4949C22.9135 5.51482 22.7605 5.53474 22.5871 5.56462C22.0059 5.67417 21.4349 5.85343 20.8944 6.10241C17.7333 7.65604 12.2779 9.8371 7.31189 7.80543C12.2677 9.58812 18.2126 7.2776 21.5368 5.63433C21.7 5.55466 21.8631 5.48494 22.0263 5.42519C22.1589 5.37539 22.2914 5.33556 22.4342 5.30568C22.7299 5.38535 22.9338 5.44511 23.046 5.4949Z" fill="#7C4C2B"/>
                    <path d="M24.1473 5.69408C24.1473 5.69408 22.1181 5.64429 20.7823 6.30159C17.4376 7.96478 11.9516 10.0462 7.08759 7.72575C12.2677 9.72755 17.9373 7.55645 21.4757 5.81359C22.0671 5.5447 22.7095 5.35547 23.352 5.26584C23.6273 5.39531 23.8924 5.53474 24.1473 5.69408Z" fill="#201A14"/>
                    <path d="M21.6388 6.50078C21.6184 6.55058 21.5878 6.60037 21.5573 6.65017C21.0066 7.10829 20.8027 7.2278 20.201 7.666C19.2629 8.34323 18.2432 8.89098 17.1521 9.29931C14.093 10.4446 11.8394 10.7633 10.1773 10.6239C7.27112 10.3749 6.38397 8.97066 5.98628 7.9349L5.9455 7.78551C6.40436 8.82127 7.50565 10.1359 10.2079 10.3649C11.87 10.5044 14.1236 10.1956 17.1827 9.04037C18.2636 8.63204 19.2935 8.08429 20.2316 7.40706C20.7517 7.02862 21.0576 6.85931 21.5878 6.44102C21.6184 6.45098 21.6388 6.4709 21.6388 6.50078Z" fill="#201A14"/>
                    <path d="M8.31122 7.80543C8.81088 7.89507 9.31053 7.95482 9.81019 7.97474C10.0651 7.9847 10.3098 8.00462 10.5648 8.00462H10.9421C11.0644 8.00462 11.197 7.99466 11.3194 7.99466L11.6967 7.9847C11.819 7.97474 11.9516 7.96478 12.0739 7.95482C12.3289 7.9349 12.5736 7.92494 12.8285 7.88511C13.0835 7.85523 13.3282 7.83531 13.5831 7.79547L14.3275 7.67596C14.4499 7.65605 14.5722 7.62617 14.6946 7.60625L15.0617 7.52658L15.4288 7.4469C15.5512 7.41703 15.6735 7.38715 15.7959 7.35727L16.5301 7.16805L17.2541 6.93899L17.611 6.81948C17.7333 6.77964 17.8455 6.72984 17.9679 6.69001L18.6715 6.42111L18.8448 6.35139L19.0182 6.27172L19.3649 6.12233L20.0583 5.8136L19.3751 6.13229L19.0284 6.29164L18.855 6.37131L18.6817 6.44103L17.9781 6.71988C17.8557 6.75972 17.7435 6.81948 17.6212 6.84935L17.2643 6.96886L16.5505 7.20788L15.8163 7.40707C15.6939 7.43694 15.5716 7.47678 15.4492 7.50666L15.0821 7.58633L14.715 7.66601C14.5926 7.69588 14.4703 7.72576 14.3479 7.73572L13.6035 7.85523C13.3588 7.89507 13.1039 7.91498 12.8489 7.94486C12.594 7.97474 12.3493 7.9847 12.0943 8.00462C11.972 8.01458 11.8394 8.02454 11.717 8.02454L11.3398 8.03449C11.2174 8.03449 11.0848 8.04445 10.9625 8.04445L10.5852 8.03449C10.3302 8.03449 10.0753 8.01458 9.83059 8.00462C9.31053 7.97474 8.80068 7.90503 8.31122 7.80543Z" fill="#7C4C2B"/>
                    <path d="M20.15 6.99875C19.0997 7.53654 18.0086 8.00463 16.8971 8.41295C15.7857 8.83124 14.6436 9.15989 13.4811 9.41883C12.3186 9.65785 11.1256 9.79728 9.93252 9.68773C9.34109 9.63793 8.74966 9.4985 8.19902 9.26944C7.64837 9.04038 7.15891 8.69181 6.77142 8.2536C7.16911 8.69181 7.65857 9.03042 8.21941 9.24952C8.77005 9.46862 9.35129 9.60805 9.94272 9.64789C11.1256 9.75744 12.3186 9.60805 13.4811 9.36903C14.6436 9.12005 15.7857 8.7914 16.8971 8.38307C17.458 8.18389 18.0086 7.96479 18.5491 7.73573C19.0895 7.50667 19.6198 7.25769 20.15 6.99875Z" fill="#7C4C2B"/>
                    <path d="M17.7639 5.85344C17.1623 6.06258 16.5403 6.24185 15.9081 6.38128C15.286 6.53066 14.6538 6.66013 14.0216 6.76968C13.3894 6.87923 12.7572 6.98879 12.1147 7.06846C11.7986 7.1083 11.4723 7.13817 11.1562 7.15809C10.9931 7.16805 10.8299 7.17801 10.677 7.16805C10.5954 7.16805 10.5138 7.15809 10.4322 7.14813C10.3506 7.14813 10.2691 7.12821 10.1977 7.08838C10.2691 7.11825 10.3506 7.13817 10.4322 7.13817C10.5138 7.14813 10.5954 7.14813 10.677 7.14813C10.8401 7.14813 10.9931 7.13817 11.1562 7.12821C11.4723 7.1083 11.7986 7.06846 12.1147 7.02862C12.4309 6.98879 12.747 6.93899 13.0631 6.88919C13.3792 6.8394 13.6953 6.7896 14.0114 6.72985C14.6436 6.6203 15.2758 6.49083 15.8979 6.3514C16.5301 6.23189 17.1521 6.06258 17.7639 5.85344Z" fill="#7C4C2B"/>
                    <path d="M4.51788 8.56233C4.56887 8.6918 4.63005 8.81131 4.72183 8.92086C4.8034 9.03041 4.88498 9.13996 4.98695 9.2296C5.18069 9.41882 5.39483 9.58813 5.63956 9.72756C5.8741 9.86698 6.12902 9.99645 6.38395 10.096C6.51651 10.1458 6.64908 10.1857 6.77144 10.2355L7.16913 10.355L6.76125 10.2654C6.62868 10.2255 6.49612 10.1857 6.36356 10.1359L6.16981 10.0562L6.06784 10.0164L5.97607 9.97653L5.78232 9.87694L5.60897 9.77735C5.37444 9.63792 5.1501 9.45866 4.95636 9.25947C4.76261 9.06029 4.60966 8.82127 4.51788 8.56233Z" fill="#7C4C2B"/>
                    <path d="M4.70142 8.38307C4.7422 8.46275 4.80339 8.53246 4.86457 8.60217C4.92575 8.67189 4.98693 8.73164 5.05831 8.78144C5.20107 8.89099 5.35403 8.99058 5.51718 9.0603C5.68034 9.13997 5.85369 9.19972 6.02704 9.24952C6.11881 9.2794 6.20039 9.28936 6.29216 9.31923L6.56749 9.36903C6.47571 9.35907 6.38394 9.34911 6.29216 9.33915C6.20039 9.32919 6.10862 9.30927 6.01684 9.28936C5.83329 9.24952 5.65994 9.17981 5.49679 9.11009C5.33364 9.03042 5.17048 8.93083 5.03792 8.81132C4.89516 8.69181 4.78299 8.55238 4.70142 8.38307Z" fill="#7C4C2B"/>
                    <path d="M3.68175 8.67189C3.67155 8.92087 3.65116 9.17981 3.61037 9.42879C3.56958 9.67777 3.5084 9.92675 3.43702 10.1757C3.36564 10.4247 3.23308 10.6438 3.1719 10.8928C3.10052 11.1318 3.04953 11.3808 3.00874 11.6298C2.92717 12.1277 2.88638 12.6356 2.86598 13.1436C2.85579 13.3925 2.85579 13.6515 2.87618 13.9005C2.88638 14.1494 2.92717 14.4084 2.99855 14.6474C2.90677 14.4084 2.85579 14.1594 2.84559 13.9005C2.83539 13.771 2.8252 13.6415 2.8252 13.522C2.8252 13.4025 2.8252 13.2631 2.8252 13.1436C2.83539 12.6356 2.89657 12.1277 2.98835 11.6298C3.02914 11.3808 3.09032 11.1318 3.1617 10.8828C3.23308 10.6338 3.34525 10.4048 3.40643 10.1658C3.5288 9.66781 3.63077 9.16985 3.68175 8.67189Z" fill="#7C4C2B"/>
                    <path d="M14.9189 10.2454C15.4696 10.0662 16.0406 9.90683 16.6015 9.7674C17.1623 9.62797 17.7435 9.50846 18.3248 9.41883C18.6205 9.36903 18.906 9.34911 19.1813 9.2794C19.4567 9.20969 19.7218 9.09018 19.9563 8.93083C20.1908 8.77148 20.3846 8.56234 20.5477 8.32332C20.6293 8.20381 20.7007 8.07434 20.7619 7.95483C20.8231 7.82536 20.8741 7.69589 20.9454 7.56642C20.8944 7.69589 20.8537 7.83532 20.8027 7.97475C20.7517 8.11418 20.6905 8.24365 20.6089 8.36316C20.4662 8.62209 20.2622 8.8412 20.0175 9.0105C19.7728 9.17981 19.4974 9.29932 19.2017 9.36903C19.059 9.39891 18.906 9.42879 18.7633 9.43875C18.6205 9.45866 18.4675 9.46862 18.3248 9.48854C17.7435 9.56822 17.1725 9.67777 16.6015 9.81719C16.0304 9.95662 15.4798 10.0861 14.9189 10.2454Z" fill="#7C4C2B"/>
                    <path d="M20.354 9.30928C20.5885 9.69769 20.7823 10.106 20.9454 10.5243C21.1086 10.9426 21.2004 11.3907 21.2106 11.8489C21.2208 12.297 21.2106 12.7452 21.1902 13.1934C21.1698 13.6415 21.129 14.0897 21.078 14.5378C21.1086 14.0897 21.1392 13.6415 21.1494 13.1934C21.1596 12.7452 21.1698 12.297 21.1596 11.8489C21.1494 11.4007 21.0576 10.9625 20.9046 10.5343C20.7619 10.116 20.5681 9.70765 20.354 9.30928Z" fill="#7C4C2B"/>
                    <defs>
                      <radialGradient id="paint0_radial_105_75" cx="0" cy="0" r="1" gradientUnits="userSpaceOnUse" gradientTransform="translate(12.1037 16.4735) rotate(-1.63102) scale(8.86892 8.66233)">
                        <stop stop-color="#F9C387"/>
                        <stop offset="0.56" stop-color="#F9C086"/>
                        <stop offset="0.94" stop-color="#F8B782"/>
                        <stop offset="1" stop-color="#F8B581"/>
                      </radialGradient>
                      <radialGradient id="paint1_radial_105_75" cx="0" cy="0" r="1" gradientUnits="userSpaceOnUse" gradientTransform="translate(16.4535 15.488) rotate(-1.63102) scale(1.21142 1.1832)">
                        <stop stop-color="#333333"/>
                        <stop offset="0.46" stop-color="#313131"/>
                        <stop offset="0.71" stop-color="#292929"/>
                        <stop offset="0.9" stop-color="#1B1B1B"/>
                        <stop offset="1" stop-color="#111111"/>
                      </radialGradient>
                      <radialGradient id="paint2_radial_105_75" cx="0" cy="0" r="1" gradientUnits="userSpaceOnUse" gradientTransform="translate(7.67341 15.8191) rotate(178.322) scale(1.21091 1.18271)">
                        <stop stop-color="#333333"/>
                        <stop offset="0.46" stop-color="#313131"/>
                        <stop offset="0.71" stop-color="#292929"/>
                        <stop offset="0.9" stop-color="#1B1B1B"/>
                        <stop offset="1" stop-color="#111111"/>
                      </radialGradient>
                    </defs>
                  </svg>