<svg width="56" height="56" viewBox="0 0 56 56" fill="none" xmlns="http://www.w3.org/2000/svg">
<rect width="56" height="56" rx="28" fill="#F0F4FF"/>
<g clip-path="url(#clip0_537_473)">
<mask id="mask0_537_473" style="mask-type:luminance" maskUnits="userSpaceOnUse" x="13" y="13" width="30" height="30">
<path d="M43 13H13V43H43V13Z" fill="white"/>
</mask>
<g mask="url(#mask0_537_473)">
<mask id="mask1_537_473" style="mask-type:luminance" maskUnits="userSpaceOnUse" x="13" y="13" width="30" height="30">
<path d="M13 13H43V43H13V13Z" fill="white"/>
</mask>
<g mask="url(#mask1_537_473)">
<path d="M25.4219 14.1719V16.9844" stroke="#5E2CED" stroke-miterlimit="10" stroke-linecap="round" stroke-linejoin="round"/>
<path d="M28.96 38C28.96 39.9384 27.3828 41.5156 25.4443 41.5156C23.5059 41.5156 21.9287 39.9384 21.9287 38" fill="#CBC2FA"/>
<path d="M28.96 38C28.96 39.9384 27.3828 41.5156 25.4443 41.5156C23.5059 41.5156 21.9287 39.9384 21.9287 38" stroke="#5E2CED" stroke-miterlimit="10" stroke-linecap="round" stroke-linejoin="round"/>
<path d="M36.6308 35.5348C36.9013 36.9779 35.7955 38.3125 34.3273 38.3125H16.5387C15.0705 38.3125 13.9648 36.9779 14.2352 35.5348C15.0181 31.3572 17.4529 30.2515 17.4529 26.7109V24.9531C17.4529 20.6063 20.9802 17.0433 25.3139 16.9851H25.5294" fill="white"/>
<path d="M36.6308 35.5348C36.9013 36.9779 35.7955 38.3125 34.3273 38.3125H16.5387C15.0705 38.3125 13.9648 36.9779 14.2352 35.5348C15.0181 31.3572 17.4529 30.2515 17.4529 26.7109V24.9531C17.4529 20.6063 20.9802 17.0433 25.3139 16.9851H25.5294" stroke="#5E2CED" stroke-miterlimit="10" stroke-linecap="round" stroke-linejoin="round"/>
<path d="M14.2354 35.5348C13.965 36.9779 15.0707 38.3125 16.5389 38.3125H34.3275C35.7958 38.3125 36.9014 36.9779 36.631 35.5348C35.8481 31.3572 33.4133 30.2515 33.4133 26.7109V24.9531C33.4133 20.6063 29.886 17.0433 25.5523 16.9851H25.3368" fill="white"/>
<path d="M14.2354 35.5348C13.965 36.9779 15.0707 38.3125 16.5389 38.3125H34.3275C35.7958 38.3125 36.9014 36.9779 36.631 35.5348C35.8481 31.3572 33.4133 30.2515 33.4133 26.7109V24.9531C33.4133 20.6063 29.886 17.0433 25.5523 16.9851H25.3368" stroke="#5E2CED" stroke-miterlimit="10" stroke-linecap="round" stroke-linejoin="round"/>
<path d="M33.3945 26.9451C33.44 28.3349 33.8874 29.3461 34.4274 30.3438" stroke="#5E2CED" stroke-miterlimit="10" stroke-linecap="round" stroke-linejoin="round"/>
<path d="M25.3369 16.9851H25.5524C26.9045 17.0032 28.176 17.3626 29.2854 17.9805" stroke="#5E2CED" stroke-miterlimit="10" stroke-linecap="round" stroke-linejoin="round"/>
<path d="M35.3828 14.1719C38.9424 14.1719 41.8281 17.0576 41.8281 20.6172C41.8281 24.1768 38.9424 27.0625 35.3828 27.0625C31.8232 27.0625 28.9375 24.1768 28.9375 20.6172C28.9375 17.0576 31.8232 14.1719 35.3828 14.1719Z" fill="#5E2CED" stroke="#5E2CED" stroke-miterlimit="10" stroke-linecap="round"/>
<path d="M35.5586 22.6094V18.5078L34.0938 19.6135" stroke="white" stroke-miterlimit="10" stroke-linecap="round" stroke-linejoin="round"/>
</g>
</g>
</g>
<defs>
<clipPath id="clip0_537_473">
<rect width="30" height="30" fill="white" transform="translate(13 13)"/>
</clipPath>
</defs>
</svg>
