<svg width="56" height="56" viewBox="0 0 56 56" fill="none" xmlns="http://www.w3.org/2000/svg">
<rect width="56" height="56" rx="28" fill="#F0F4FF"/>
<g clip-path="url(#clip0_537_557)">
<path d="M25 16C25 16 29.7143 19.1429 36 19.1429C36 36.4286 25 41.1429 25 41.1429C25 41.1429 14 36.4286 14 19.1429C20.2857 19.1429 25 16 25 16Z" fill="#5E2CED"/>
<path d="M25 23L26.6667 26.3333L30 26.75L27.7111 29.3167L28.3333 33L25 31.3333L21.6667 33L22.2944 29.3167L20 26.75L23.3333 26.3333L25 23Z" fill="white"/>
<circle cx="36" cy="19" r="4.75" fill="#5E2CED" stroke="white" stroke-width="0.5"/>
<path d="M36 17V20.4286M34 18.7143H38" stroke="white" stroke-linecap="round"/>
</g>
<defs>
<clipPath id="clip0_537_557">
<rect width="30" height="30" fill="white" transform="translate(13 13)"/>
</clipPath>
</defs>
</svg>
