<svg width="56" height="56" viewBox="0 0 56 56" fill="none" xmlns="http://www.w3.org/2000/svg">
<rect width="56" height="56" rx="28" fill="#F0F4FF"/>
<g clip-path="url(#clip0_537_782)">
<path d="M30.1781 41.1001H19.1953C17.6551 41.1001 16.4021 39.8471 16.4021 38.3069V17.6904C16.4021 16.1502 17.6551 14.8972 19.1953 14.8972H35.269C36.8092 14.8972 38.0622 16.1502 38.0622 17.6904V33.195C38.0622 33.7187 38.4871 34.1436 39.0108 34.1436C39.5345 34.1436 39.9594 33.7187 39.9594 33.195V17.6904C39.9594 15.1041 37.8553 13 35.269 13H19.1953C16.609 13 14.5049 15.1041 14.5049 17.6904V38.3069C14.5049 40.8932 16.609 42.9973 19.1953 42.9973H30.1781C30.7018 42.9973 31.1267 42.5724 31.1267 42.0487C31.1267 41.525 30.7018 41.1001 30.1781 41.1001Z" fill="#5E2CED"/>
<path d="M34.2594 18.6196H20.2113C19.6876 18.6196 19.2627 19.0445 19.2627 19.5682C19.2627 20.092 19.6876 20.5169 20.2113 20.5169H34.2594C34.7831 20.5169 35.208 20.092 35.208 19.5682C35.208 19.0445 34.7831 18.6196 34.2594 18.6196Z" fill="#5E2CED"/>
<path d="M35.208 25.1864C35.208 24.6627 34.7831 24.2378 34.2594 24.2378H20.2113C19.6876 24.2378 19.2627 24.6627 19.2627 25.1864C19.2627 25.7101 19.6876 26.135 20.2113 26.135H34.2594C34.7831 26.135 35.208 25.7101 35.208 25.1864Z" fill="#5E2CED"/>
<path d="M20.2074 31.7512H24.6132C25.1369 31.7512 25.5618 31.3263 25.5618 30.8026C25.5618 30.2789 25.1369 29.854 24.6132 29.854H20.2074C19.6837 29.854 19.2588 30.2789 19.2588 30.8026C19.2588 31.3263 19.6837 31.7512 20.2074 31.7512Z" fill="#5E2CED"/>
<path d="M20.2074 37.3689H24.9926C25.5164 37.3689 25.9413 36.944 25.9413 36.4203C25.9413 35.8966 25.5164 35.4717 24.9926 35.4717H20.2074C19.6837 35.4717 19.2588 35.8966 19.2588 36.4203C19.2588 36.944 19.6837 37.3689 20.2074 37.3689Z" fill="#5E2CED"/>
<path d="M40.432 36.0208C40.432 39.7143 37.4379 42.7084 33.7445 42.7084C30.0511 42.7084 27.0569 39.7143 27.0569 36.0208C27.0569 32.3274 30.0511 29.3333 33.7445 29.3333C37.4379 29.3333 40.432 32.3274 40.432 36.0208Z" fill="#5E2CED" stroke="white" stroke-width="0.582637"/>
<path fill-rule="evenodd" clip-rule="evenodd" d="M34.9263 34.1614C34.9263 34.5007 35.2014 34.7758 35.5407 34.7758C35.8799 34.7758 36.1551 34.5007 36.1551 34.1614C36.1537 33.0321 35.3891 32.0471 34.2952 31.7653V31.5516C34.2905 31.2123 34.0114 30.9412 33.6722 30.9459C33.3396 30.9505 33.0711 31.219 33.0665 31.5516V31.7653C31.7429 32.1052 30.9455 33.4535 31.2854 34.7772C31.5098 35.6513 32.1923 36.3339 33.0665 36.5583V38.9618C32.6771 38.7407 32.4367 38.328 32.436 37.8805C32.4407 37.5413 32.1696 37.2621 31.8303 37.2575C31.4911 37.2528 31.2119 37.5239 31.2073 37.8632C31.2073 37.8692 31.2073 37.8745 31.2073 37.8805C31.2086 39.0098 31.9732 39.9949 33.0665 40.2774V40.4911C33.0711 40.8303 33.3503 41.1015 33.6895 41.0968C34.0221 41.0921 34.2905 40.8236 34.2952 40.4911V40.2774C35.6188 39.9381 36.4169 38.5898 36.0776 37.2661C35.8532 36.3913 35.1701 35.7081 34.2952 35.4837V33.0809C34.6846 33.3013 34.9256 33.7147 34.9263 34.1621V34.1614ZM32.436 34.1614C32.436 34.6089 32.6771 35.0223 33.0665 35.2433V33.0809C32.6778 33.3019 32.4367 33.7147 32.436 34.1621V34.1614ZM34.9276 37.8812C34.9276 37.4338 34.6859 37.0204 34.2966 36.8V38.9624C34.6859 38.742 34.927 38.3287 34.9276 37.8812Z" fill="white"/>
</g>
<defs>
<clipPath id="clip0_537_782">
<rect width="30" height="30" fill="white" transform="translate(13 13)"/>
</clipPath>
</defs>
</svg>
