<svg width="56" height="56" viewBox="0 0 56 56" fill="none" xmlns="http://www.w3.org/2000/svg">
<rect width="56" height="56" rx="28" fill="#F0F4FF"/>
<mask id="mask0_537_514" style="mask-type:luminance" maskUnits="userSpaceOnUse" x="13" y="13" width="30" height="30">
<path d="M13 13H43V43H13V13Z" fill="white"/>
</mask>
<g mask="url(#mask0_537_514)">
<path d="M31.457 24.4844H42.1211" stroke="#5E2CED" stroke-miterlimit="10" stroke-linecap="round" stroke-linejoin="round"/>
</g>
<path d="M33.2148 20.9688V24.4844" stroke="#5E2CED" stroke-miterlimit="10" stroke-linecap="round" stroke-linejoin="round"/>
<path d="M36.7305 19.2109V24.4844" stroke="#5E2CED" stroke-miterlimit="10" stroke-linecap="round" stroke-linejoin="round"/>
<mask id="mask1_537_514" style="mask-type:luminance" maskUnits="userSpaceOnUse" x="13" y="13" width="30" height="30">
<path d="M13 13H43V43H13V13Z" fill="white"/>
</mask>
<g mask="url(#mask1_537_514)">
<path d="M40.2461 17.4531V24.4844" stroke="#5E2CED" stroke-miterlimit="10" stroke-linecap="round" stroke-linejoin="round"/>
<path d="M27.941 15.6953V28L16.2646 24.1079C17.8933 19.2197 22.5055 15.6953 27.941 15.6953Z" fill="white" stroke="#5E2CED" stroke-miterlimit="10" stroke-linecap="round" stroke-linejoin="round"/>
<path d="M21.4189 38.4358C23.3098 39.6201 25.5456 40.3047 27.9412 40.3047C34.737 40.3047 40.2459 34.7957 40.2459 28" fill="white"/>
<path d="M21.4189 38.4358C23.3098 39.6201 25.5456 40.3047 27.9412 40.3047C34.737 40.3047 40.2459 34.7957 40.2459 28H27.9999L21.4189 38.4358Z" stroke="#5E2CED" stroke-miterlimit="10" stroke-linecap="round" stroke-linejoin="round"/>
<path d="M28 28.5H39.5L37 34L25 39L22 38L28 28.5Z" fill="white"/>
<path d="M14.5969 23.552C14.1311 24.95 13.8789 26.4456 13.8789 28.0002C13.8789 33.0288 16.5183 37.4409 20.4873 39.9268L27.9414 28.0002L14.5969 23.552Z" fill="#5E2CED"/>
</g>
</svg>
