<svg width="56" height="56" viewBox="0 0 56 56" fill="none" xmlns="http://www.w3.org/2000/svg">
<rect width="56" height="56" rx="28" fill="#F0F4FF"/>
<g clip-path="url(#clip0_537_685)">
<path d="M43.7045 28.0483L42.0583 28.0454C42.0328 20.0373 35.5184 13.5288 27.5046 13.5288C26.8942 13.5288 26.2836 13.5668 25.6799 13.6423C25.0898 13.716 24.6938 14.2878 24.8119 14.8706C24.9203 15.4055 25.425 15.7536 25.9667 15.6872C26.4755 15.625 26.9898 15.5936 27.5046 15.5936C34.3789 15.5936 39.9697 21.1738 39.9968 28.0417L38.4307 28.0389C38.1851 28.0385 38.039 28.3127 38.1764 28.5162L40.8068 32.4151C40.928 32.5946 41.192 32.595 41.3136 32.416L43.9571 28.5263C44.0951 28.3233 43.9501 28.0487 43.7045 28.0484V28.0483Z" fill="#5E2CED"/>
<path d="M29.0351 40.8418C28.5263 40.904 28.012 40.9354 27.4972 40.9354C20.6229 40.9354 15.0321 35.3552 15.005 28.4873L16.5711 28.4901C16.8167 28.4905 16.9628 28.2163 16.8254 28.0128L14.195 24.1139C14.0738 23.9344 13.8098 23.934 13.6882 24.113L11.0447 28.0027C10.9067 28.2057 11.0517 28.4803 11.2973 28.4806L12.9435 28.4835C12.969 36.4915 19.4834 43 27.4972 43C28.1076 43 28.7181 42.9621 29.3219 42.8865C29.912 42.8128 30.308 42.241 30.1899 41.6583C30.0815 41.1233 29.5768 40.7753 29.0351 40.8416V40.8418Z" fill="#5E2CED"/>
<path d="M27.5181 37.0733C32.3368 37.0733 36.2432 33.1669 36.2432 28.3482C36.2432 23.5294 32.3368 19.623 27.5181 19.623C22.6993 19.623 18.793 23.5294 18.793 28.3482C18.793 33.1669 22.6993 37.0733 27.5181 37.0733Z" fill="#5E2CED"/>
<path d="M27.1135 33.8699C27.0688 33.7955 27.0688 33.0513 27.0538 33.0513C25.9706 32.88 24.4071 32.6672 23.8348 31.6077C23.6262 31.1462 23.7156 30.432 24.2969 30.2979C24.7142 30.1789 25.0569 30.6402 25.4145 30.8188C25.8616 30.9975 26.5471 31.1611 27.0538 31.2356V28.6459C26.0427 28.3409 24.8769 28.2243 24.3267 27.3065C23.949 26.6884 23.9536 25.7471 24.2372 25.1039C24.6951 24.0267 25.933 23.6075 27.0538 23.5264C27.0538 23.2586 27.0092 22.9162 27.173 22.693C27.4114 22.3655 27.5605 22.2316 27.9479 22.2614C28.3055 22.2911 28.6036 22.4101 28.7377 22.7674C28.7526 22.8419 28.7824 23.571 28.7824 23.571C29.7708 23.8357 31.3847 24.0814 31.4202 25.342C31.4052 25.6249 31.1817 25.9374 30.8986 25.9671C30.5856 25.9969 30.3026 25.8034 30.0491 25.6695C29.7064 25.5207 29.2294 25.3123 28.7824 25.2676V27.3214C30.4115 27.7526 31.732 28.6597 31.6287 30.4617C31.6292 32.0773 30.2256 32.8152 28.7824 32.9916C28.7002 33.2295 28.8669 33.837 28.678 34.0929C28.3055 34.6138 27.2772 34.5542 27.1133 33.8696L27.1135 33.8699ZM26.3088 26.7113C26.4877 26.8304 26.7559 26.8899 27.054 26.9345V25.2529C26.1431 25.2109 25.5742 26.0791 26.3088 26.7113ZM28.7827 29.167C28.7827 29.8516 28.8273 30.566 28.8124 31.2654C30.4479 31.2516 30.2871 29.4986 28.7827 29.167Z" fill="white"/>
</g>
<defs>
<clipPath id="clip0_537_685">
<rect width="30" height="30" fill="white" transform="translate(13 13)"/>
</clipPath>
</defs>
</svg>
