<svg width="56" height="56" viewBox="0 0 56 56" fill="none" xmlns="http://www.w3.org/2000/svg">
<rect width="56" height="56" rx="28" fill="#F0F4FF"/>
<rect x="13" y="13" width="30" height="30" rx="15" fill="#7F54B3"/>
<path fill-rule="evenodd" clip-rule="evenodd" d="M20.3938 20.6986C19.905 20.7316 19.5384 20.8967 19.2939 21.2102C19.0495 21.5073 18.9622 21.8868 19.0146 22.3159C20.0447 28.5044 21.0049 32.6795 21.8953 34.8413C22.2444 35.6334 22.646 36.013 23.1173 35.98C23.8506 35.9305 24.7235 34.9733 25.7536 33.1086C26.2948 32.0523 27.1328 30.4682 28.2676 28.3558C29.2103 31.4747 30.5022 33.8182 32.1259 35.3859C32.5798 35.8314 33.0512 36.0295 33.505 35.9965C33.9067 35.9635 34.2208 35.7654 34.4304 35.4023C34.605 35.0888 34.6748 34.7257 34.6399 34.3132C34.5351 32.8115 34.6923 30.7157 35.1287 28.0258C35.5826 25.2533 36.1413 23.2565 36.8222 22.0683C36.9619 21.8208 37.0142 21.5733 36.9968 21.2762C36.9619 20.8967 36.7873 20.5831 36.4556 20.3356C36.1239 20.088 35.7572 19.9725 35.3557 20.0055C34.8494 20.0385 34.4653 20.2696 34.2034 20.7316C33.121 22.5964 32.3528 25.6164 31.899 29.808C31.2355 28.2238 30.6768 26.359 30.2403 24.1642C30.0483 23.1905 29.577 22.7284 28.8088 22.778C28.285 22.8109 27.8486 23.141 27.4994 23.7681L23.676 30.6497C23.0475 28.2568 22.4539 25.3358 21.9127 21.8868C21.7905 21.0287 21.2842 20.6326 20.3938 20.6986Z" fill="white"/>
</svg>
